<?xml version="1.0" encoding="UTF-8" standalone="no"?>
<!DOCTYPE svg PUBLIC "-//W3C//DTD SVG 1.1//EN"
 "http://www.w3.org/Graphics/SVG/1.1/DTD/svg11.dtd">
<!-- Generated by graphviz version 2.26.3 (20100126.1600)
 -->
<!-- Title: Prg_SFunction Pages: 1 -->
<svg width="218pt" height="146pt"
 viewBox="0.00 0.00 218.00 146.00" xmlns="http://www.w3.org/2000/svg" xmlns:xlink="http://www.w3.org/1999/xlink">
<g id="graph1" class="graph" transform="scale(1 1) rotate(0) translate(4 142)">
<title>Prg_SFunction</title>
<polygon fill="white" stroke="white" points="-4,5 -4,-142 215,-142 215,5 -4,5"/>
<!-- Node1 -->
<g id="node1" class="node"><title>Node1</title>
<polygon fill="#bfbfbf" stroke="black" points="64.5,-58.5 64.5,-79.5 145.5,-79.5 145.5,-58.5 64.5,-58.5"/>
<text text-anchor="middle" x="105" y="-66.5" font-family="Helvetica,sans-Serif" font-size="10.00">Prg_SFunction</text>
</g>
<!-- Node3 -->
<g id="node5" class="node"><title>Node3</title>
<a xlink:href="classPrg__SFunctionEst.html" target="_top" xlink:title="Estimation of parameters and initial states for a model given as MEX S&#45;function. ">
<polygon fill="white" stroke="black" points="0,-0.5 0,-21.5 96,-21.5 96,-0.5 0,-0.5"/>
<text text-anchor="middle" x="48" y="-8.5" font-family="Helvetica,sans-Serif" font-size="10.00">Prg_SFunctionEst</text>
</a>
</g>
<!-- Node1&#45;&gt;Node3 -->
<g id="edge4" class="edge"><title>Node1&#45;&gt;Node3</title>
<path fill="none" stroke="midnightblue" d="M87.4263,-51.118C77.913,-41.4377 66.4855,-29.8098 58.3884,-21.5707"/>
<polygon fill="midnightblue" stroke="midnightblue" points="85.0397,-53.6829 94.5453,-58.3619 90.0323,-48.7763 85.0397,-53.6829"/>
</g>
<!-- Node4 -->
<g id="node7" class="node"><title>Node4</title>
<a xlink:href="classPrg__SFunctionOpt.html" target="_top" xlink:title="Optimal control problem for a model given as MEX S&#45;function treated with multi&#45;stage control vector p...">
<polygon fill="white" stroke="black" points="113.5,-0.5 113.5,-21.5 210.5,-21.5 210.5,-0.5 113.5,-0.5"/>
<text text-anchor="middle" x="162" y="-8.5" font-family="Helvetica,sans-Serif" font-size="10.00">Prg_SFunctionOpt</text>
</a>
</g>
<!-- Node1&#45;&gt;Node4 -->
<g id="edge6" class="edge"><title>Node1&#45;&gt;Node4</title>
<path fill="none" stroke="midnightblue" d="M122.574,-51.118C132.087,-41.4377 143.514,-29.8098 151.612,-21.5707"/>
<polygon fill="midnightblue" stroke="midnightblue" points="119.968,-48.7763 115.455,-58.3619 124.96,-53.6829 119.968,-48.7763"/>
</g>
<!-- Node2 -->
<g id="node2" class="node"><title>Node2</title>
<a xlink:href="classOmu__Program.html" target="_top" xlink:title="Interface for a multi&#45;stage optimization problem. ">
<polygon fill="white" stroke="black" points="65,-116.5 65,-137.5 145,-137.5 145,-116.5 65,-116.5"/>
<text text-anchor="middle" x="105" y="-124.5" font-family="Helvetica,sans-Serif" font-size="10.00">Omu_Program</text>
</a>
</g>
<!-- Node2&#45;&gt;Node1 -->
<g id="edge2" class="edge"><title>Node2&#45;&gt;Node1</title>
<path fill="none" stroke="midnightblue" d="M105,-106.191C105,-97.1684 105,-86.9941 105,-79.5707"/>
<polygon fill="midnightblue" stroke="midnightblue" points="101.5,-106.362 105,-116.362 108.5,-106.362 101.5,-106.362"/>
</g>
</g>
</svg>
