<?xml version="1.0" encoding="UTF-8" standalone="no"?>
<!DOCTYPE svg PUBLIC "-//W3C//DTD SVG 1.1//EN"
 "http://www.w3.org/Graphics/SVG/1.1/DTD/svg11.dtd">
<!-- Generated by graphviz version 2.26.3 (20100126.1600)
 -->
<!-- Title: If_Method&lt; ClassType &gt; Pages: 1 -->
<svg width="132pt" height="146pt"
 viewBox="0.00 0.00 132.00 146.00" xmlns="http://www.w3.org/2000/svg" xmlns:xlink="http://www.w3.org/1999/xlink">
<g id="graph1" class="graph" transform="scale(1 1) rotate(0) translate(4 142)">
<title>If_Method&lt; ClassType &gt;</title>
<polygon fill="white" stroke="white" points="-4,5 -4,-142 129,-142 129,5 -4,5"/>
<!-- Node1 -->
<g id="node1" class="node"><title>Node1</title>
<polygon fill="#bfbfbf" stroke="black" points="-0.5,-0.5 -0.5,-21.5 124.5,-21.5 124.5,-0.5 -0.5,-0.5"/>
<text text-anchor="middle" x="62" y="-8.5" font-family="Helvetica,sans-Serif" font-size="10.00">If_Method&lt; ClassType &gt;</text>
</g>
<!-- Node2 -->
<g id="node2" class="node"><title>Node2</title>
<a xlink:href="classIf__Element.html" target="_top" xlink:title="Abstract base class for interface elements to Tcl, like variables and procedures. ...">
<polygon fill="white" stroke="black" points="30,-58.5 30,-79.5 94,-79.5 94,-58.5 30,-58.5"/>
<text text-anchor="middle" x="62" y="-66.5" font-family="Helvetica,sans-Serif" font-size="10.00">If_Element</text>
</a>
</g>
<!-- Node2&#45;&gt;Node1 -->
<g id="edge2" class="edge"><title>Node2&#45;&gt;Node1</title>
<path fill="none" stroke="midnightblue" d="M62,-48.1906C62,-39.1684 62,-28.9941 62,-21.5707"/>
<polygon fill="midnightblue" stroke="midnightblue" points="58.5001,-48.3619 62,-58.3619 65.5001,-48.3619 58.5001,-48.3619"/>
</g>
<!-- Node3 -->
<g id="node4" class="node"><title>Node3</title>
<a xlink:href="classIf__ListElement.html" target="_top" xlink:title="Element of a twice concatenated If_List. ">
<polygon fill="white" stroke="black" points="22,-116.5 22,-137.5 102,-137.5 102,-116.5 22,-116.5"/>
<text text-anchor="middle" x="62" y="-124.5" font-family="Helvetica,sans-Serif" font-size="10.00">If_ListElement</text>
</a>
</g>
<!-- Node3&#45;&gt;Node2 -->
<g id="edge4" class="edge"><title>Node3&#45;&gt;Node2</title>
<path fill="none" stroke="midnightblue" d="M62,-106.191C62,-97.1684 62,-86.9941 62,-79.5707"/>
<polygon fill="midnightblue" stroke="midnightblue" points="58.5001,-106.362 62,-116.362 65.5001,-106.362 58.5001,-106.362"/>
</g>
</g>
</svg>
