<?xml version="1.0" encoding="UTF-8" standalone="no"?>
<!DOCTYPE svg PUBLIC "-//W3C//DTD SVG 1.1//EN"
 "http://www.w3.org/Graphics/SVG/1.1/DTD/svg11.dtd">
<!-- Generated by graphviz version 2.26.3 (20100126.1600)
 -->
<!-- Title: If_Int Pages: 1 -->
<svg width="182pt" height="282pt"
 viewBox="0.00 0.00 182.00 282.00" xmlns="http://www.w3.org/2000/svg" xmlns:xlink="http://www.w3.org/1999/xlink">
<g id="graph1" class="graph" transform="scale(1 1) rotate(0) translate(4 278)">
<title>If_Int</title>
<polygon fill="white" stroke="white" points="-4,5 -4,-278 179,-278 179,5 -4,5"/>
<!-- Node1 -->
<g id="node1" class="node"><title>Node1</title>
<polygon fill="#bfbfbf" stroke="black" points="38.5,-0.5 38.5,-21.5 77.5,-21.5 77.5,-0.5 38.5,-0.5"/>
<text text-anchor="middle" x="58" y="-8.5" font-family="Helvetica,sans-Serif" font-size="10.00">If_Int</text>
</g>
<!-- Node2 -->
<g id="node2" class="node"><title>Node2</title>
<a xlink:href="classIf__Variable.html" target="_top" xlink:title="If_Variable\&lt; If_Int_t \&gt;">
<polygon fill="white" stroke="black" points="2,-60.5 2,-81.5 114,-81.5 114,-60.5 2,-60.5"/>
<text text-anchor="middle" x="58" y="-68.5" font-family="Helvetica,sans-Serif" font-size="10.00">If_Variable&lt; If_Int_t &gt;</text>
</a>
</g>
<!-- Node2&#45;&gt;Node1 -->
<g id="edge2" class="edge"><title>Node2&#45;&gt;Node1</title>
<path fill="none" stroke="midnightblue" d="M58,-50.2312C58,-40.5922 58,-29.5444 58,-21.6339"/>
<polygon fill="midnightblue" stroke="midnightblue" points="54.5001,-50.2732 58,-60.2732 61.5001,-50.2732 54.5001,-50.2732"/>
</g>
<!-- Node3 -->
<g id="node4" class="node"><title>Node3</title>
<a xlink:href="classIf__Element.html" target="_top" xlink:title="Abstract base class for interface elements to Tcl, like variables and procedures. ...">
<polygon fill="white" stroke="black" points="8,-192.5 8,-213.5 72,-213.5 72,-192.5 8,-192.5"/>
<text text-anchor="middle" x="40" y="-200.5" font-family="Helvetica,sans-Serif" font-size="10.00">If_Element</text>
</a>
</g>
<!-- Node3&#45;&gt;Node2 -->
<g id="edge4" class="edge"><title>Node3&#45;&gt;Node2</title>
<path fill="none" stroke="midnightblue" d="M41.6067,-182.225C42.8118,-168.042 44.6549,-148.843 47,-132 49.4634,-114.307 53.3573,-93.9111 55.7907,-81.7567"/>
<polygon fill="midnightblue" stroke="midnightblue" points="38.1028,-182.132 40.7797,-192.383 45.0797,-182.7 38.1028,-182.132"/>
</g>
<!-- Node5 -->
<g id="node8" class="node"><title>Node5</title>
<a xlink:href="classIf__Variable.html" target="_top" xlink:title="Interface variable of abstract type VarType managing callbacks for reading and writing. ">
<polygon fill="white" stroke="black" points="56,-132.5 56,-153.5 174,-153.5 174,-132.5 56,-132.5"/>
<text text-anchor="middle" x="115" y="-140.5" font-family="Helvetica,sans-Serif" font-size="10.00">If_Variable&lt; VarType &gt;</text>
</a>
</g>
<!-- Node3&#45;&gt;Node5 -->
<g id="edge10" class="edge"><title>Node3&#45;&gt;Node5</title>
<path fill="none" stroke="midnightblue" d="M61.397,-185.882C74.3807,-175.495 90.5436,-162.565 101.708,-153.634"/>
<polygon fill="midnightblue" stroke="midnightblue" points="59.0308,-183.293 53.4085,-192.273 63.4037,-188.759 59.0308,-183.293"/>
</g>
<!-- Node4 -->
<g id="node6" class="node"><title>Node4</title>
<a xlink:href="classIf__ListElement.html" target="_top" xlink:title="Element of a twice concatenated If_List. ">
<polygon fill="white" stroke="black" points="0,-252.5 0,-273.5 80,-273.5 80,-252.5 0,-252.5"/>
<text text-anchor="middle" x="40" y="-260.5" font-family="Helvetica,sans-Serif" font-size="10.00">If_ListElement</text>
</a>
</g>
<!-- Node4&#45;&gt;Node3 -->
<g id="edge6" class="edge"><title>Node4&#45;&gt;Node3</title>
<path fill="none" stroke="midnightblue" d="M40,-242.231C40,-232.592 40,-221.544 40,-213.634"/>
<polygon fill="midnightblue" stroke="midnightblue" points="36.5001,-242.273 40,-252.273 43.5001,-242.273 36.5001,-242.273"/>
</g>
<!-- Node5&#45;&gt;Node2 -->
<g id="edge8" class="edge"><title>Node5&#45;&gt;Node2</title>
<path fill="none" stroke="orange" stroke-dasharray="5,2" d="M100.115,-124.198C89.3888,-110.649 75.299,-92.8514 66.4451,-81.6674"/>
<polygon fill="orange" stroke="orange" points="97.6382,-126.708 106.589,-132.376 103.127,-122.363 97.6382,-126.708"/>
<text text-anchor="middle" x="117" y="-104.5" font-family="Helvetica,sans-Serif" font-size="10.00"> &lt; If_Int_t &gt;</text>
</g>
</g>
</svg>
