<?xml version="1.0" encoding="UTF-8" standalone="no"?>
<!DOCTYPE svg PUBLIC "-//W3C//DTD SVG 1.1//EN"
 "http://www.w3.org/Graphics/SVG/1.1/DTD/svg11.dtd">
<!-- Generated by graphviz version 2.26.3 (20100126.1600)
 -->
<!-- Title: If_Bool Pages: 1 -->
<svg width="184pt" height="282pt"
 viewBox="0.00 0.00 184.00 282.00" xmlns="http://www.w3.org/2000/svg" xmlns:xlink="http://www.w3.org/1999/xlink">
<g id="graph1" class="graph" transform="scale(1 1) rotate(0) translate(4 278)">
<title>If_Bool</title>
<polygon fill="white" stroke="white" points="-4,5 -4,-278 181,-278 181,5 -4,5"/>
<!-- Node1 -->
<g id="node1" class="node"><title>Node1</title>
<polygon fill="#bfbfbf" stroke="black" points="36.5,-0.5 36.5,-21.5 83.5,-21.5 83.5,-0.5 36.5,-0.5"/>
<text text-anchor="middle" x="60" y="-8.5" font-family="Helvetica,sans-Serif" font-size="10.00">If_Bool</text>
</g>
<!-- Node2 -->
<g id="node2" class="node"><title>Node2</title>
<a xlink:href="classIf__Variable.html" target="_top" xlink:title="If_Variable\&lt; If_Bool_t \&gt;">
<polygon fill="white" stroke="black" points="0,-60.5 0,-81.5 120,-81.5 120,-60.5 0,-60.5"/>
<text text-anchor="middle" x="60" y="-68.5" font-family="Helvetica,sans-Serif" font-size="10.00">If_Variable&lt; If_Bool_t &gt;</text>
</a>
</g>
<!-- Node2&#45;&gt;Node1 -->
<g id="edge2" class="edge"><title>Node2&#45;&gt;Node1</title>
<path fill="none" stroke="midnightblue" d="M60,-50.2312C60,-40.5922 60,-29.5444 60,-21.6339"/>
<polygon fill="midnightblue" stroke="midnightblue" points="56.5001,-50.2732 60,-60.2732 63.5001,-50.2732 56.5001,-50.2732"/>
</g>
<!-- Node3 -->
<g id="node4" class="node"><title>Node3</title>
<a xlink:href="classIf__Element.html" target="_top" xlink:title="Abstract base class for interface elements to Tcl, like variables and procedures. ...">
<polygon fill="white" stroke="black" points="10,-192.5 10,-213.5 74,-213.5 74,-192.5 10,-192.5"/>
<text text-anchor="middle" x="42" y="-200.5" font-family="Helvetica,sans-Serif" font-size="10.00">If_Element</text>
</a>
</g>
<!-- Node3&#45;&gt;Node2 -->
<g id="edge4" class="edge"><title>Node3&#45;&gt;Node2</title>
<path fill="none" stroke="midnightblue" d="M43.6067,-182.225C44.8118,-168.042 46.6549,-148.843 49,-132 51.4634,-114.307 55.3573,-93.9111 57.7907,-81.7567"/>
<polygon fill="midnightblue" stroke="midnightblue" points="40.1028,-182.132 42.7797,-192.383 47.0797,-182.7 40.1028,-182.132"/>
</g>
<!-- Node5 -->
<g id="node8" class="node"><title>Node5</title>
<a xlink:href="classIf__Variable.html" target="_top" xlink:title="Interface variable of abstract type VarType managing callbacks for reading and writing. ">
<polygon fill="white" stroke="black" points="58,-132.5 58,-153.5 176,-153.5 176,-132.5 58,-132.5"/>
<text text-anchor="middle" x="117" y="-140.5" font-family="Helvetica,sans-Serif" font-size="10.00">If_Variable&lt; VarType &gt;</text>
</a>
</g>
<!-- Node3&#45;&gt;Node5 -->
<g id="edge10" class="edge"><title>Node3&#45;&gt;Node5</title>
<path fill="none" stroke="midnightblue" d="M63.397,-185.882C76.3807,-175.495 92.5436,-162.565 103.708,-153.634"/>
<polygon fill="midnightblue" stroke="midnightblue" points="61.0308,-183.293 55.4085,-192.273 65.4037,-188.759 61.0308,-183.293"/>
</g>
<!-- Node4 -->
<g id="node6" class="node"><title>Node4</title>
<a xlink:href="classIf__ListElement.html" target="_top" xlink:title="Element of a twice concatenated If_List. ">
<polygon fill="white" stroke="black" points="2,-252.5 2,-273.5 82,-273.5 82,-252.5 2,-252.5"/>
<text text-anchor="middle" x="42" y="-260.5" font-family="Helvetica,sans-Serif" font-size="10.00">If_ListElement</text>
</a>
</g>
<!-- Node4&#45;&gt;Node3 -->
<g id="edge6" class="edge"><title>Node4&#45;&gt;Node3</title>
<path fill="none" stroke="midnightblue" d="M42,-242.231C42,-232.592 42,-221.544 42,-213.634"/>
<polygon fill="midnightblue" stroke="midnightblue" points="38.5001,-242.273 42,-252.273 45.5001,-242.273 38.5001,-242.273"/>
</g>
<!-- Node5&#45;&gt;Node2 -->
<g id="edge8" class="edge"><title>Node5&#45;&gt;Node2</title>
<path fill="none" stroke="orange" stroke-dasharray="5,2" d="M102.115,-124.198C91.3888,-110.649 77.299,-92.8514 68.4451,-81.6674"/>
<polygon fill="orange" stroke="orange" points="99.6382,-126.708 108.589,-132.376 105.127,-122.363 99.6382,-126.708"/>
<text text-anchor="middle" x="123.5" y="-104.5" font-family="Helvetica,sans-Serif" font-size="10.00"> &lt; If_Bool_t &gt;</text>
</g>
</g>
</svg>
