<?xml version="1.0" encoding="UTF-8" standalone="no"?>
<!DOCTYPE svg PUBLIC "-//W3C//DTD SVG 1.1//EN"
 "http://www.w3.org/Graphics/SVG/1.1/DTD/svg11.dtd">
<!-- Generated by graphviz version 2.26.3 (20100126.1600)
 -->
<!-- Title: Omu_DependentVec Pages: 1 -->
<svg width="114pt" height="204pt"
 viewBox="0.00 0.00 114.00 204.00" xmlns="http://www.w3.org/2000/svg" xmlns:xlink="http://www.w3.org/1999/xlink">
<g id="graph1" class="graph" transform="scale(1 1) rotate(0) translate(4 200)">
<title>Omu_DependentVec</title>
<polygon fill="white" stroke="white" points="-4,5 -4,-200 111,-200 111,5 -4,5"/>
<!-- Node1 -->
<g id="node1" class="node"><title>Node1</title>
<polygon fill="#bfbfbf" stroke="black" points="-0.5,-58.5 -0.5,-79.5 106.5,-79.5 106.5,-58.5 -0.5,-58.5"/>
<text text-anchor="middle" x="53" y="-66.5" font-family="Helvetica,sans-Serif" font-size="10.00">Omu_DependentVec</text>
</g>
<!-- Node4 -->
<g id="node7" class="node"><title>Node4</title>
<a xlink:href="classOmu__DepVec.html" target="_top" xlink:title="Internally used vector of dependent variables. ">
<polygon fill="white" stroke="black" points="14,-0.5 14,-21.5 92,-21.5 92,-0.5 14,-0.5"/>
<text text-anchor="middle" x="53" y="-8.5" font-family="Helvetica,sans-Serif" font-size="10.00">Omu_DepVec</text>
</a>
</g>
<!-- Node1&#45;&gt;Node4 -->
<g id="edge6" class="edge"><title>Node1&#45;&gt;Node4</title>
<path fill="none" stroke="midnightblue" d="M53,-48.1906C53,-39.1684 53,-28.9941 53,-21.5707"/>
<polygon fill="midnightblue" stroke="midnightblue" points="49.5001,-48.3619 53,-58.3619 56.5001,-48.3619 49.5001,-48.3619"/>
</g>
<!-- Node2 -->
<g id="node2" class="node"><title>Node2</title>
<a xlink:href="classOmu__Vec.html" target="_top" xlink:title="Avoid multiple inclusion. ">
<polygon fill="white" stroke="black" points="23,-116.5 23,-137.5 83,-137.5 83,-116.5 23,-116.5"/>
<text text-anchor="middle" x="53" y="-124.5" font-family="Helvetica,sans-Serif" font-size="10.00">Omu_Vec</text>
</a>
</g>
<!-- Node2&#45;&gt;Node1 -->
<g id="edge2" class="edge"><title>Node2&#45;&gt;Node1</title>
<path fill="none" stroke="midnightblue" d="M53,-106.191C53,-97.1684 53,-86.9941 53,-79.5707"/>
<polygon fill="midnightblue" stroke="midnightblue" points="49.5001,-106.362 53,-116.362 56.5001,-106.362 49.5001,-106.362"/>
</g>
<!-- Node3 -->
<g id="node4" class="node"><title>Node3</title>
<a xlink:href="classMesch_1_1VECP.html" target="_top" xlink:title="Wrapper for Meschach VEC*. ">
<polygon fill="white" stroke="black" points="13,-174.5 13,-195.5 93,-195.5 93,-174.5 13,-174.5"/>
<text text-anchor="middle" x="53" y="-182.5" font-family="Helvetica,sans-Serif" font-size="10.00">Mesch::VECP</text>
</a>
</g>
<!-- Node3&#45;&gt;Node2 -->
<g id="edge4" class="edge"><title>Node3&#45;&gt;Node2</title>
<path fill="none" stroke="midnightblue" d="M53,-164.191C53,-155.168 53,-144.994 53,-137.571"/>
<polygon fill="midnightblue" stroke="midnightblue" points="49.5001,-164.362 53,-174.362 56.5001,-164.362 49.5001,-164.362"/>
</g>
</g>
</svg>
