<?xml version="1.0" encoding="UTF-8" standalone="no"?>
<!DOCTYPE svg PUBLIC "-//W3C//DTD SVG 1.1//EN"
 "http://www.w3.org/Graphics/SVG/1.1/DTD/svg11.dtd">
<!-- Generated by graphviz version 2.26.3 (20100126.1600)
 -->
<!-- Title: If_StdString Pages: 1 -->
<svg width="194pt" height="282pt"
 viewBox="0.00 0.00 194.00 282.00" xmlns="http://www.w3.org/2000/svg" xmlns:xlink="http://www.w3.org/1999/xlink">
<g id="graph1" class="graph" transform="scale(1 1) rotate(0) translate(4 278)">
<title>If_StdString</title>
<polygon fill="white" stroke="white" points="-4,5 -4,-278 191,-278 191,5 -4,5"/>
<!-- Node1 -->
<g id="node1" class="node"><title>Node1</title>
<polygon fill="#bfbfbf" stroke="black" points="36,-0.5 36,-21.5 104,-21.5 104,-0.5 36,-0.5"/>
<text text-anchor="middle" x="70" y="-8.5" font-family="Helvetica,sans-Serif" font-size="10.00">If_StdString</text>
</g>
<!-- Node2 -->
<g id="node2" class="node"><title>Node2</title>
<a xlink:href="classIf__Variable.html" target="_top" xlink:title="If_Variable\&lt; If_StdString_t \&gt;">
<polygon fill="white" stroke="black" points="-0.5,-60.5 -0.5,-81.5 140.5,-81.5 140.5,-60.5 -0.5,-60.5"/>
<text text-anchor="middle" x="70" y="-68.5" font-family="Helvetica,sans-Serif" font-size="10.00">If_Variable&lt; If_StdString_t &gt;</text>
</a>
</g>
<!-- Node2&#45;&gt;Node1 -->
<g id="edge2" class="edge"><title>Node2&#45;&gt;Node1</title>
<path fill="none" stroke="midnightblue" d="M70,-50.2312C70,-40.5922 70,-29.5444 70,-21.6339"/>
<polygon fill="midnightblue" stroke="midnightblue" points="66.5001,-50.2732 70,-60.2732 73.5001,-50.2732 66.5001,-50.2732"/>
</g>
<!-- Node3 -->
<g id="node4" class="node"><title>Node3</title>
<a xlink:href="classIf__Element.html" target="_top" xlink:title="Abstract base class for interface elements to Tcl, like variables and procedures. ...">
<polygon fill="white" stroke="black" points="20,-192.5 20,-213.5 84,-213.5 84,-192.5 20,-192.5"/>
<text text-anchor="middle" x="52" y="-200.5" font-family="Helvetica,sans-Serif" font-size="10.00">If_Element</text>
</a>
</g>
<!-- Node3&#45;&gt;Node2 -->
<g id="edge4" class="edge"><title>Node3&#45;&gt;Node2</title>
<path fill="none" stroke="midnightblue" d="M53.6067,-182.225C54.8118,-168.042 56.6549,-148.843 59,-132 61.4634,-114.307 65.3573,-93.9111 67.7907,-81.7567"/>
<polygon fill="midnightblue" stroke="midnightblue" points="50.1028,-182.132 52.7797,-192.383 57.0797,-182.7 50.1028,-182.132"/>
</g>
<!-- Node5 -->
<g id="node8" class="node"><title>Node5</title>
<a xlink:href="classIf__Variable.html" target="_top" xlink:title="Interface variable of abstract type VarType managing callbacks for reading and writing. ">
<polygon fill="white" stroke="black" points="68,-132.5 68,-153.5 186,-153.5 186,-132.5 68,-132.5"/>
<text text-anchor="middle" x="127" y="-140.5" font-family="Helvetica,sans-Serif" font-size="10.00">If_Variable&lt; VarType &gt;</text>
</a>
</g>
<!-- Node3&#45;&gt;Node5 -->
<g id="edge10" class="edge"><title>Node3&#45;&gt;Node5</title>
<path fill="none" stroke="midnightblue" d="M73.397,-185.882C86.3807,-175.495 102.544,-162.565 113.708,-153.634"/>
<polygon fill="midnightblue" stroke="midnightblue" points="71.0308,-183.293 65.4085,-192.273 75.4037,-188.759 71.0308,-183.293"/>
</g>
<!-- Node4 -->
<g id="node6" class="node"><title>Node4</title>
<a xlink:href="classIf__ListElement.html" target="_top" xlink:title="Element of a twice concatenated If_List. ">
<polygon fill="white" stroke="black" points="12,-252.5 12,-273.5 92,-273.5 92,-252.5 12,-252.5"/>
<text text-anchor="middle" x="52" y="-260.5" font-family="Helvetica,sans-Serif" font-size="10.00">If_ListElement</text>
</a>
</g>
<!-- Node4&#45;&gt;Node3 -->
<g id="edge6" class="edge"><title>Node4&#45;&gt;Node3</title>
<path fill="none" stroke="midnightblue" d="M52,-242.231C52,-232.592 52,-221.544 52,-213.634"/>
<polygon fill="midnightblue" stroke="midnightblue" points="48.5001,-242.273 52,-252.273 55.5001,-242.273 48.5001,-242.273"/>
</g>
<!-- Node5&#45;&gt;Node2 -->
<g id="edge8" class="edge"><title>Node5&#45;&gt;Node2</title>
<path fill="none" stroke="orange" stroke-dasharray="5,2" d="M112.115,-124.198C101.389,-110.649 87.299,-92.8514 78.4451,-81.6674"/>
<polygon fill="orange" stroke="orange" points="109.638,-126.708 118.589,-132.376 115.127,-122.363 109.638,-126.708"/>
<text text-anchor="middle" x="144" y="-104.5" font-family="Helvetica,sans-Serif" font-size="10.00"> &lt; If_StdString_t &gt;</text>
</g>
</g>
</svg>
