<?xml version="1.0" encoding="UTF-8" standalone="no"?>
<!DOCTYPE svg PUBLIC "-//W3C//DTD SVG 1.1//EN"
 "http://www.w3.org/Graphics/SVG/1.1/DTD/svg11.dtd">
<!-- Generated by graphviz version 2.26.3 (20100126.1600)
 -->
<!-- Title: Omu_OptVarVec Pages: 1 -->
<svg width="102pt" height="204pt"
 viewBox="0.00 0.00 102.00 204.00" xmlns="http://www.w3.org/2000/svg" xmlns:xlink="http://www.w3.org/1999/xlink">
<g id="graph1" class="graph" transform="scale(1 1) rotate(0) translate(4 200)">
<title>Omu_OptVarVec</title>
<polygon fill="white" stroke="white" points="-4,5 -4,-200 99,-200 99,5 -4,5"/>
<!-- Node1 -->
<g id="node1" class="node"><title>Node1</title>
<polygon fill="#bfbfbf" stroke="black" points="1.5,-0.5 1.5,-21.5 92.5,-21.5 92.5,-0.5 1.5,-0.5"/>
<text text-anchor="middle" x="47" y="-8.5" font-family="Helvetica,sans-Serif" font-size="10.00">Omu_OptVarVec</text>
</g>
<!-- Node2 -->
<g id="node2" class="node"><title>Node2</title>
<a xlink:href="classOmu__VariableVec.html" target="_top" xlink:title="Vector of optimization variables, including min, max and initial attributes. ">
<polygon fill="white" stroke="black" points="-0.5,-58.5 -0.5,-79.5 94.5,-79.5 94.5,-58.5 -0.5,-58.5"/>
<text text-anchor="middle" x="47" y="-66.5" font-family="Helvetica,sans-Serif" font-size="10.00">Omu_VariableVec</text>
</a>
</g>
<!-- Node2&#45;&gt;Node1 -->
<g id="edge2" class="edge"><title>Node2&#45;&gt;Node1</title>
<path fill="none" stroke="midnightblue" d="M47,-48.1906C47,-39.1684 47,-28.9941 47,-21.5707"/>
<polygon fill="midnightblue" stroke="midnightblue" points="43.5001,-48.3619 47,-58.3619 50.5001,-48.3619 43.5001,-48.3619"/>
</g>
<!-- Node3 -->
<g id="node4" class="node"><title>Node3</title>
<a xlink:href="classOmu__Vec.html" target="_top" xlink:title="Avoid multiple inclusion. ">
<polygon fill="white" stroke="black" points="17,-116.5 17,-137.5 77,-137.5 77,-116.5 17,-116.5"/>
<text text-anchor="middle" x="47" y="-124.5" font-family="Helvetica,sans-Serif" font-size="10.00">Omu_Vec</text>
</a>
</g>
<!-- Node3&#45;&gt;Node2 -->
<g id="edge4" class="edge"><title>Node3&#45;&gt;Node2</title>
<path fill="none" stroke="midnightblue" d="M47,-106.191C47,-97.1684 47,-86.9941 47,-79.5707"/>
<polygon fill="midnightblue" stroke="midnightblue" points="43.5001,-106.362 47,-116.362 50.5001,-106.362 43.5001,-106.362"/>
</g>
<!-- Node4 -->
<g id="node6" class="node"><title>Node4</title>
<a xlink:href="classMesch_1_1VECP.html" target="_top" xlink:title="Wrapper for Meschach VEC*. ">
<polygon fill="white" stroke="black" points="7,-174.5 7,-195.5 87,-195.5 87,-174.5 7,-174.5"/>
<text text-anchor="middle" x="47" y="-182.5" font-family="Helvetica,sans-Serif" font-size="10.00">Mesch::VECP</text>
</a>
</g>
<!-- Node4&#45;&gt;Node3 -->
<g id="edge6" class="edge"><title>Node4&#45;&gt;Node3</title>
<path fill="none" stroke="midnightblue" d="M47,-164.191C47,-155.168 47,-144.994 47,-137.571"/>
<polygon fill="midnightblue" stroke="midnightblue" points="43.5001,-164.362 47,-174.362 50.5001,-164.362 43.5001,-164.362"/>
</g>
</g>
</svg>
