<?xml version="1.0" encoding="UTF-8" standalone="no"?>
<!DOCTYPE svg PUBLIC "-//W3C//DTD SVG 1.1//EN"
 "http://www.w3.org/Graphics/SVG/1.1/DTD/svg11.dtd">
<!-- Generated by graphviz version 2.26.3 (20100126.1600)
 -->
<!-- Title: Omu_IntODE Pages: 1 -->
<svg width="282pt" height="146pt"
 viewBox="0.00 0.00 282.00 146.00" xmlns="http://www.w3.org/2000/svg" xmlns:xlink="http://www.w3.org/1999/xlink">
<g id="graph1" class="graph" transform="scale(1 1) rotate(0) translate(4 142)">
<title>Omu_IntODE</title>
<polygon fill="white" stroke="white" points="-4,5 -4,-142 279,-142 279,5 -4,5"/>
<!-- Node1 -->
<g id="node1" class="node"><title>Node1</title>
<polygon fill="#bfbfbf" stroke="black" points="93,-58.5 93,-79.5 169,-79.5 169,-58.5 93,-58.5"/>
<text text-anchor="middle" x="131" y="-66.5" font-family="Helvetica,sans-Serif" font-size="10.00">Omu_IntODE</text>
</g>
<!-- Node3 -->
<g id="node5" class="node"><title>Node3</title>
<a xlink:href="classOmu__IntEuler.html" target="_top" xlink:title="Explicit, fixed step size integrator implementing the Euler algorithm. ">
<polygon fill="white" stroke="black" points="-0.5,-0.5 -0.5,-21.5 76.5,-21.5 76.5,-0.5 -0.5,-0.5"/>
<text text-anchor="middle" x="38" y="-8.5" font-family="Helvetica,sans-Serif" font-size="10.00">Omu_IntEuler</text>
</a>
</g>
<!-- Node1&#45;&gt;Node3 -->
<g id="edge4" class="edge"><title>Node1&#45;&gt;Node3</title>
<path fill="none" stroke="midnightblue" d="M105.059,-52.8215C89.0398,-42.8312 68.9454,-30.2993 54.9495,-21.5707"/>
<polygon fill="midnightblue" stroke="midnightblue" points="103.605,-56.0399 113.942,-58.3619 107.309,-50.1003 103.605,-56.0399"/>
</g>
<!-- Node4 -->
<g id="node7" class="node"><title>Node4</title>
<a xlink:href="classOmu__IntRK4.html" target="_top" xlink:title="Explicit, fixed step size integrator implementing a Runge Kutta algorithm of 4th order. ">
<polygon fill="white" stroke="black" points="94,-0.5 94,-21.5 168,-21.5 168,-0.5 94,-0.5"/>
<text text-anchor="middle" x="131" y="-8.5" font-family="Helvetica,sans-Serif" font-size="10.00">Omu_IntRK4</text>
</a>
</g>
<!-- Node1&#45;&gt;Node4 -->
<g id="edge6" class="edge"><title>Node1&#45;&gt;Node4</title>
<path fill="none" stroke="midnightblue" d="M131,-48.1906C131,-39.1684 131,-28.9941 131,-21.5707"/>
<polygon fill="midnightblue" stroke="midnightblue" points="127.5,-48.3619 131,-58.3619 134.5,-48.3619 127.5,-48.3619"/>
</g>
<!-- Node5 -->
<g id="node9" class="node"><title>Node5</title>
<a xlink:href="classOmu__IntRKsuite.html" target="_top" xlink:title="Solve ordinary differential equations using RKsuite. ">
<polygon fill="white" stroke="black" points="185.5,-0.5 185.5,-21.5 274.5,-21.5 274.5,-0.5 185.5,-0.5"/>
<text text-anchor="middle" x="230" y="-8.5" font-family="Helvetica,sans-Serif" font-size="10.00">Omu_IntRKsuite</text>
</a>
</g>
<!-- Node1&#45;&gt;Node5 -->
<g id="edge8" class="edge"><title>Node1&#45;&gt;Node5</title>
<path fill="none" stroke="midnightblue" d="M158.138,-53.1009C175.267,-43.0658 196.919,-30.3808 211.957,-21.5707"/>
<polygon fill="midnightblue" stroke="midnightblue" points="156.017,-50.287 149.158,-58.3619 159.556,-56.3268 156.017,-50.287"/>
</g>
<!-- Node2 -->
<g id="node2" class="node"><title>Node2</title>
<a xlink:href="classOmu__Integrator.html" target="_top" xlink:title="Interface for a solver for differential (algebraic) equations. ">
<polygon fill="white" stroke="black" points="89,-116.5 89,-137.5 173,-137.5 173,-116.5 89,-116.5"/>
<text text-anchor="middle" x="131" y="-124.5" font-family="Helvetica,sans-Serif" font-size="10.00">Omu_Integrator</text>
</a>
</g>
<!-- Node2&#45;&gt;Node1 -->
<g id="edge2" class="edge"><title>Node2&#45;&gt;Node1</title>
<path fill="none" stroke="midnightblue" d="M131,-106.191C131,-97.1684 131,-86.9941 131,-79.5707"/>
<polygon fill="midnightblue" stroke="midnightblue" points="127.5,-106.362 131,-116.362 134.5,-106.362 127.5,-106.362"/>
</g>
</g>
</svg>
