<?xml version="1.0" encoding="UTF-8" standalone="no"?>
<!DOCTYPE svg PUBLIC "-//W3C//DTD SVG 1.1//EN"
 "http://www.w3.org/Graphics/SVG/1.1/DTD/svg11.dtd">
<!-- Generated by graphviz version 2.26.3 (20100126.1600)
 -->
<!-- Title: If_ListElement Pages: 1 -->
<svg width="720pt" height="568pt"
 viewBox="0.00 0.00 720.00 567.82" xmlns="http://www.w3.org/2000/svg" xmlns:xlink="http://www.w3.org/1999/xlink">
<g id="graph1" class="graph" transform="scale(1 1) rotate(0) translate(4 563.822)">
<title>If_ListElement</title>
<polygon fill="white" stroke="white" points="-4,5 -4,-563.822 717,-563.822 717,5 -4,5"/>
<!-- Node1 -->
<g id="node1" class="node"><title>Node1</title>
<polygon fill="#bfbfbf" stroke="black" points="0,-312.322 0,-333.322 80,-333.322 80,-312.322 0,-312.322"/>
<text text-anchor="middle" x="40" y="-320.322" font-family="Helvetica,sans-Serif" font-size="10.00">If_ListElement</text>
</g>
<!-- Node2 -->
<g id="node3" class="node"><title>Node2</title>
<a xlink:href="classIf__Element.html" target="_top" xlink:title="Abstract base class for interface elements to Tcl, like variables and procedures. ...">
<polygon fill="white" stroke="black" points="118,-312.322 118,-333.322 182,-333.322 182,-312.322 118,-312.322"/>
<text text-anchor="middle" x="150" y="-320.322" font-family="Helvetica,sans-Serif" font-size="10.00">If_Element</text>
</a>
</g>
<!-- Node1&#45;&gt;Node2 -->
<g id="edge2" class="edge"><title>Node1&#45;&gt;Node2</title>
<path fill="none" stroke="midnightblue" d="M90.0924,-322.822C99.4895,-322.822 109.079,-322.822 117.752,-322.822"/>
<polygon fill="midnightblue" stroke="midnightblue" points="90.0237,-319.322 80.0237,-322.822 90.0237,-326.322 90.0237,-319.322"/>
</g>
<!-- Node3 -->
<g id="node5" class="node"><title>Node3</title>
<a xlink:href="classIf__Method.html" target="_top" xlink:title="Interface method. ">
<polygon fill="white" stroke="black" points="220.5,-538.322 220.5,-559.322 345.5,-559.322 345.5,-538.322 220.5,-538.322"/>
<text text-anchor="middle" x="283" y="-546.322" font-family="Helvetica,sans-Serif" font-size="10.00">If_Method&lt; ClassType &gt;</text>
</a>
</g>
<!-- Node2&#45;&gt;Node3 -->
<g id="edge4" class="edge"><title>Node2&#45;&gt;Node3</title>
<path fill="none" stroke="midnightblue" d="M153.827,-343.41C160.487,-376.842 175.854,-444.559 200,-497.822 206.77,-512.755 206.973,-518.865 220,-528.822 225.014,-532.655 230.782,-535.764 236.748,-538.283"/>
<polygon fill="midnightblue" stroke="midnightblue" points="157.237,-342.61 151.901,-333.457 150.364,-343.939 157.237,-342.61"/>
</g>
<!-- Node4 -->
<g id="node7" class="node"><title>Node4</title>
<a xlink:href="classIf__Procedure.html" target="_top" xlink:title="Interface procedure. ">
<polygon fill="white" stroke="black" points="247,-498.322 247,-519.322 319,-519.322 319,-498.322 247,-498.322"/>
<text text-anchor="middle" x="283" y="-506.322" font-family="Helvetica,sans-Serif" font-size="10.00">If_Procedure</text>
</a>
</g>
<!-- Node2&#45;&gt;Node4 -->
<g id="edge6" class="edge"><title>Node2&#45;&gt;Node4</title>
<path fill="none" stroke="midnightblue" d="M153.956,-343.69C161.718,-382.565 179.948,-463.941 200,-483.822 212.397,-496.113 230.601,-502.398 246.804,-505.597"/>
<polygon fill="midnightblue" stroke="midnightblue" points="157.321,-342.664 151.971,-333.519 150.451,-344.005 157.321,-342.664"/>
</g>
<!-- Node5 -->
<g id="node9" class="node"><title>Node5</title>
<a xlink:href="classIf__Variable.html" target="_top" xlink:title="Interface variable of abstract type VarType managing callbacks for reading and writing. ">
<polygon fill="white" stroke="black" points="224,-248.322 224,-269.322 342,-269.322 342,-248.322 224,-248.322"/>
<text text-anchor="middle" x="283" y="-256.322" font-family="Helvetica,sans-Serif" font-size="10.00">If_Variable&lt; VarType &gt;</text>
</a>
</g>
<!-- Node2&#45;&gt;Node5 -->
<g id="edge8" class="edge"><title>Node2&#45;&gt;Node5</title>
<path fill="none" stroke="midnightblue" d="M181.199,-307.809C205.713,-296.013 239.238,-279.88 261.005,-269.406"/>
<polygon fill="midnightblue" stroke="midnightblue" points="179.456,-304.763 171.962,-312.253 182.491,-311.071 179.456,-304.763"/>
</g>
<!-- Node6 -->
<g id="node11" class="node"><title>Node6</title>
<a xlink:href="classIf__Variable.html" target="_top" xlink:title="If_Variable\&lt; If_RealMat_t \&gt;">
<polygon fill="white" stroke="black" points="466.5,-432.322 466.5,-453.322 603.5,-453.322 603.5,-432.322 466.5,-432.322"/>
<text text-anchor="middle" x="535" y="-440.322" font-family="Helvetica,sans-Serif" font-size="10.00">If_Variable&lt; If_RealMat_t &gt;</text>
</a>
</g>
<!-- Node2&#45;&gt;Node6 -->
<g id="edge50" class="edge"><title>Node2&#45;&gt;Node6</title>
<path fill="none" stroke="midnightblue" d="M159.466,-342.586C170.8,-364.049 191.839,-397.687 220,-415.822 296.951,-465.376 407.303,-461.829 474.895,-453.334"/>
<polygon fill="midnightblue" stroke="midnightblue" points="162.461,-340.754 154.821,-333.414 156.216,-343.917 162.461,-340.754"/>
</g>
<!-- Node8 -->
<g id="node15" class="node"><title>Node8</title>
<a xlink:href="classIf__Variable.html" target="_top" xlink:title="If_Variable\&lt; If_Bool_t \&gt;">
<polygon fill="white" stroke="black" points="475,-368.322 475,-389.322 595,-389.322 595,-368.322 475,-368.322"/>
<text text-anchor="middle" x="535" y="-376.322" font-family="Helvetica,sans-Serif" font-size="10.00">If_Variable&lt; If_Bool_t &gt;</text>
</a>
</g>
<!-- Node2&#45;&gt;Node8 -->
<g id="edge42" class="edge"><title>Node2&#45;&gt;Node8</title>
<path fill="none" stroke="midnightblue" d="M168.71,-340.19C182.184,-352.005 201.227,-367.338 220,-377.822 279.541,-411.074 296.86,-418.858 364,-430.822 399.879,-437.215 410.822,-440.345 446,-430.822 453.73,-428.729 494.163,-404.14 517.786,-389.537"/>
<polygon fill="midnightblue" stroke="midnightblue" points="170.875,-337.43 161.092,-333.363 166.203,-342.643 170.875,-337.43"/>
</g>
<!-- Node10 -->
<g id="node19" class="node"><title>Node10</title>
<a xlink:href="classIf__Variable.html" target="_top" xlink:title="If_Variable\&lt; If_RealVec_t \&gt;">
<polygon fill="white" stroke="black" points="466,-320.322 466,-341.322 604,-341.322 604,-320.322 466,-320.322"/>
<text text-anchor="middle" x="535" y="-328.322" font-family="Helvetica,sans-Serif" font-size="10.00">If_Variable&lt; If_RealVec_t &gt;</text>
</a>
</g>
<!-- Node2&#45;&gt;Node10 -->
<g id="edge52" class="edge"><title>Node2&#45;&gt;Node10</title>
<path fill="none" stroke="midnightblue" d="M183.114,-337.211C238.411,-359.222 352.68,-396.079 446,-369.822 455.025,-367.282 455.608,-363.002 464,-358.822 477.047,-352.324 491.99,-346.24 504.792,-341.415"/>
<polygon fill="midnightblue" stroke="midnightblue" points="184.391,-333.952 173.809,-333.423 181.752,-340.435 184.391,-333.952"/>
</g>
<!-- Node12 -->
<g id="node23" class="node"><title>Node12</title>
<a xlink:href="classIf__Variable.html" target="_top" xlink:title="If_Variable\&lt; If_StdString_t \&gt;">
<polygon fill="white" stroke="black" points="464.5,-251.322 464.5,-272.322 605.5,-272.322 605.5,-251.322 464.5,-251.322"/>
<text text-anchor="middle" x="535" y="-259.322" font-family="Helvetica,sans-Serif" font-size="10.00">If_Variable&lt; If_StdString_t &gt;</text>
</a>
</g>
<!-- Node2&#45;&gt;Node12 -->
<g id="edge54" class="edge"><title>Node2&#45;&gt;Node12</title>
<path fill="none" stroke="midnightblue" d="M192.552,-326.529C250.876,-330.332 358.397,-332.743 446,-308.822 473.982,-301.181 503.097,-283.687 520.11,-272.331"/>
<polygon fill="midnightblue" stroke="midnightblue" points="192.47,-323.015 182.25,-325.809 191.981,-329.998 192.47,-323.015"/>
</g>
<!-- Node14 -->
<g id="node27" class="node"><title>Node14</title>
<a xlink:href="classIf__Variable.html" target="_top" xlink:title="If_Variable\&lt; If_String_t \&gt;">
<polygon fill="white" stroke="black" points="472,-162.322 472,-183.322 598,-183.322 598,-162.322 472,-162.322"/>
<text text-anchor="middle" x="535" y="-170.322" font-family="Helvetica,sans-Serif" font-size="10.00">If_Variable&lt; If_String_t &gt;</text>
</a>
</g>
<!-- Node2&#45;&gt;Node14 -->
<g id="edge56" class="edge"><title>Node2&#45;&gt;Node14</title>
<path fill="none" stroke="midnightblue" d="M155.29,-302.472C164.019,-272.642 184.143,-216.997 220,-183.822 270.768,-136.851 296.14,-138.185 364,-124.822 399.758,-117.78 410.664,-115.9 446,-124.822 474.596,-132.041 503.989,-150.457 520.817,-162.265"/>
<polygon fill="midnightblue" stroke="midnightblue" points="151.891,-301.633 152.582,-312.205 158.635,-303.509 151.891,-301.633"/>
</g>
<!-- Node16 -->
<g id="node31" class="node"><title>Node16</title>
<a xlink:href="classIf__Variable.html" target="_top" xlink:title="If_Variable\&lt; If_IntVec_t \&gt;">
<polygon fill="white" stroke="black" points="470.5,-208.322 470.5,-229.322 599.5,-229.322 599.5,-208.322 470.5,-208.322"/>
<text text-anchor="middle" x="535" y="-216.322" font-family="Helvetica,sans-Serif" font-size="10.00">If_Variable&lt; If_IntVec_t &gt;</text>
</a>
</g>
<!-- Node2&#45;&gt;Node16 -->
<g id="edge46" class="edge"><title>Node2&#45;&gt;Node16</title>
<path fill="none" stroke="midnightblue" d="M161.707,-303.652C174.089,-284.813 195.239,-256.403 220,-238.822 275.733,-199.251 296.745,-197.017 364,-184.822 399.86,-178.319 410.349,-177.256 446,-184.822 454.564,-186.639 455.885,-189.537 464,-192.822 477.263,-198.19 492.103,-203.701 504.773,-208.259"/>
<polygon fill="midnightblue" stroke="midnightblue" points="158.629,-301.969 156.206,-312.283 164.532,-305.731 158.629,-301.969"/>
</g>
<!-- Node18 -->
<g id="node35" class="node"><title>Node18</title>
<a xlink:href="classIf__Variable.html" target="_top" xlink:title="If_Variable\&lt; If_Int_t \&gt;">
<polygon fill="white" stroke="black" points="479,-87.3218 479,-108.322 591,-108.322 591,-87.3218 479,-87.3218"/>
<text text-anchor="middle" x="535" y="-95.3218" font-family="Helvetica,sans-Serif" font-size="10.00">If_Variable&lt; If_Int_t &gt;</text>
</a>
</g>
<!-- Node2&#45;&gt;Node18 -->
<g id="edge44" class="edge"><title>Node2&#45;&gt;Node18</title>
<path fill="none" stroke="midnightblue" d="M151.975,-302.334C156.779,-263.024 172.417,-176.273 220,-123.822 290.392,-46.2284 343.666,-34.3836 446,-56.8218 472.588,-62.6515 500.706,-77.2097 518.057,-87.3085"/>
<polygon fill="midnightblue" stroke="midnightblue" points="148.493,-301.978 150.869,-312.303 155.451,-302.75 148.493,-301.978"/>
</g>
<!-- Node20 -->
<g id="node39" class="node"><title>Node20</title>
<a xlink:href="classIf__Variable.html" target="_top" xlink:title="If_Variable\&lt; If_Real_t \&gt;">
<polygon fill="white" stroke="black" points="474.5,-18.3218 474.5,-39.3218 595.5,-39.3218 595.5,-18.3218 474.5,-18.3218"/>
<text text-anchor="middle" x="535" y="-26.3218" font-family="Helvetica,sans-Serif" font-size="10.00">If_Variable&lt; If_Real_t &gt;</text>
</a>
</g>
<!-- Node2&#45;&gt;Node20 -->
<g id="edge48" class="edge"><title>Node2&#45;&gt;Node20</title>
<path fill="none" stroke="midnightblue" d="M152.042,-302.226C158.325,-243.454 179.441,-77.0432 220,-43.8218 300.686,22.2678 435.718,-1.69632 499.535,-18.2857"/>
<polygon fill="midnightblue" stroke="midnightblue" points="148.559,-301.876 151.011,-312.183 155.522,-302.597 148.559,-301.876"/>
</g>
<!-- Node5&#45;&gt;Node6 -->
<g id="edge10" class="edge"><title>Node5&#45;&gt;Node6</title>
<path fill="none" stroke="orange" stroke-dasharray="5,2" d="M292.942,-278.675C306.153,-303.28 331.639,-345.1 364,-370.822 402.707,-401.588 456.476,-421.345 493.328,-432.234"/>
<polygon fill="orange" stroke="orange" points="295.922,-276.82 288.195,-269.572 289.716,-280.057 295.922,-276.82"/>
<text text-anchor="middle" x="405" y="-417.822" font-family="Helvetica,sans-Serif" font-size="10.00"> &lt; If_RealMat_t &gt;</text>
</g>
<!-- Node5&#45;&gt;Node8 -->
<g id="edge14" class="edge"><title>Node5&#45;&gt;Node8</title>
<path fill="none" stroke="orange" stroke-dasharray="5,2" d="M302.455,-276.254C318.164,-289.616 341.313,-307.754 364,-319.822 405.59,-341.944 457.15,-358.398 492.717,-368.231"/>
<polygon fill="orange" stroke="orange" points="304.39,-273.299 294.543,-269.39 299.803,-278.587 304.39,-273.299"/>
<text text-anchor="middle" x="405" y="-357.822" font-family="Helvetica,sans-Serif" font-size="10.00"> &lt; If_Bool_t &gt;</text>
</g>
<!-- Node5&#45;&gt;Node10 -->
<g id="edge18" class="edge"><title>Node5&#45;&gt;Node10</title>
<path fill="none" stroke="orange" stroke-dasharray="5,2" d="M329.555,-272.123C378.128,-286.001 453.307,-307.481 497.988,-320.247"/>
<polygon fill="orange" stroke="orange" points="330.49,-268.75 319.913,-269.368 328.567,-275.481 330.49,-268.75"/>
<text text-anchor="middle" x="405" y="-306.822" font-family="Helvetica,sans-Serif" font-size="10.00"> &lt; If_RealVec_t &gt;</text>
</g>
<!-- Node5&#45;&gt;Node12 -->
<g id="edge22" class="edge"><title>Node5&#45;&gt;Node12</title>
<path fill="none" stroke="orange" stroke-dasharray="5,2" d="M352.255,-258.997C381.226,-259.135 415.246,-259.382 446,-259.822 451.872,-259.906 457.962,-260.009 464.076,-260.124"/>
<polygon fill="orange" stroke="orange" points="352.248,-255.497 342.232,-258.953 352.217,-262.497 352.248,-255.497"/>
<text text-anchor="middle" x="405" y="-263.822" font-family="Helvetica,sans-Serif" font-size="10.00"> &lt; If_StdString_t &gt;</text>
</g>
<!-- Node5&#45;&gt;Node14 -->
<g id="edge26" class="edge"><title>Node5&#45;&gt;Node14</title>
<path fill="none" stroke="orange" stroke-dasharray="5,2" d="M306.993,-242.765C322.653,-232.909 343.858,-220.707 364,-212.822 398.637,-199.262 439.097,-189.542 471.963,-183.082"/>
<polygon fill="orange" stroke="orange" points="304.984,-239.896 298.464,-248.246 308.769,-245.784 304.984,-239.896"/>
<text text-anchor="middle" x="405" y="-216.822" font-family="Helvetica,sans-Serif" font-size="10.00"> &lt; If_String_t &gt;</text>
</g>
<!-- Node5&#45;&gt;Node16 -->
<g id="edge30" class="edge"><title>Node5&#45;&gt;Node16</title>
<path fill="none" stroke="orange" stroke-dasharray="5,2" d="M340.363,-246.24C348.286,-244.661 356.333,-243.14 364,-241.822 398.983,-235.806 438.219,-230.432 470.275,-226.394"/>
<polygon fill="orange" stroke="orange" points="339.533,-242.837 330.431,-248.261 340.928,-249.697 339.533,-242.837"/>
<text text-anchor="middle" x="405" y="-245.822" font-family="Helvetica,sans-Serif" font-size="10.00"> &lt; If_IntVec_t &gt;</text>
</g>
<!-- Node5&#45;&gt;Node18 -->
<g id="edge34" class="edge"><title>Node5&#45;&gt;Node18</title>
<path fill="none" stroke="orange" stroke-dasharray="5,2" d="M296.651,-240.104C311.456,-220.882 336.661,-191.124 364,-171.822 406.545,-141.784 463.211,-120.259 499.409,-108.421"/>
<polygon fill="orange" stroke="orange" points="293.834,-238.026 290.61,-248.119 299.424,-242.239 293.834,-238.026"/>
<text text-anchor="middle" x="405" y="-175.822" font-family="Helvetica,sans-Serif" font-size="10.00"> &lt; If_Int_t &gt;</text>
</g>
<!-- Node5&#45;&gt;Node20 -->
<g id="edge38" class="edge"><title>Node5&#45;&gt;Node20</title>
<path fill="none" stroke="orange" stroke-dasharray="5,2" d="M289.663,-238.475C300.695,-207.545 325.44,-148.436 364,-111.822 402.647,-75.1242 460.588,-51.696 498.098,-39.4"/>
<polygon fill="orange" stroke="orange" points="286.276,-237.562 286.333,-248.157 292.895,-239.839 286.276,-237.562"/>
<text text-anchor="middle" x="405" y="-115.822" font-family="Helvetica,sans-Serif" font-size="10.00"> &lt; If_Real_t &gt;</text>
</g>
<!-- Node7 -->
<g id="node13" class="node"><title>Node7</title>
<a xlink:href="classIf__RealMat.html" target="_top" xlink:title="Interface variable of real matrix type. ">
<polygon fill="white" stroke="black" points="645.5,-432.322 645.5,-453.322 710.5,-453.322 710.5,-432.322 645.5,-432.322"/>
<text text-anchor="middle" x="678" y="-440.322" font-family="Helvetica,sans-Serif" font-size="10.00">If_RealMat</text>
</a>
</g>
<!-- Node6&#45;&gt;Node7 -->
<g id="edge12" class="edge"><title>Node6&#45;&gt;Node7</title>
<path fill="none" stroke="midnightblue" d="M613.845,-442.822C624.996,-442.822 635.907,-442.822 645.476,-442.822"/>
<polygon fill="midnightblue" stroke="midnightblue" points="613.568,-439.322 603.568,-442.822 613.568,-446.322 613.568,-439.322"/>
</g>
<!-- Node9 -->
<g id="node17" class="node"><title>Node9</title>
<a xlink:href="classIf__Bool.html" target="_top" xlink:title="Interface variable of boolean type. ">
<polygon fill="white" stroke="black" points="654.5,-368.322 654.5,-389.322 701.5,-389.322 701.5,-368.322 654.5,-368.322"/>
<text text-anchor="middle" x="678" y="-376.322" font-family="Helvetica,sans-Serif" font-size="10.00">If_Bool</text>
</a>
</g>
<!-- Node8&#45;&gt;Node9 -->
<g id="edge16" class="edge"><title>Node8&#45;&gt;Node9</title>
<path fill="none" stroke="midnightblue" d="M605.522,-378.822C623.071,-378.822 640.699,-378.822 654.176,-378.822"/>
<polygon fill="midnightblue" stroke="midnightblue" points="605.23,-375.322 595.23,-378.822 605.23,-382.322 605.23,-375.322"/>
</g>
<!-- Node11 -->
<g id="node21" class="node"><title>Node11</title>
<a xlink:href="classIf__RealVec.html" target="_top" xlink:title="Interface variable of real vector type. ">
<polygon fill="white" stroke="black" points="645.5,-320.322 645.5,-341.322 710.5,-341.322 710.5,-320.322 645.5,-320.322"/>
<text text-anchor="middle" x="678" y="-328.322" font-family="Helvetica,sans-Serif" font-size="10.00">If_RealVec</text>
</a>
</g>
<!-- Node10&#45;&gt;Node11 -->
<g id="edge20" class="edge"><title>Node10&#45;&gt;Node11</title>
<path fill="none" stroke="midnightblue" d="M614.734,-330.822C625.459,-330.822 635.934,-330.822 645.176,-330.822"/>
<polygon fill="midnightblue" stroke="midnightblue" points="614.406,-327.322 604.406,-330.822 614.406,-334.322 614.406,-327.322"/>
</g>
<!-- Node13 -->
<g id="node25" class="node"><title>Node13</title>
<a xlink:href="classIf__StdString.html" target="_top" xlink:title="Interface variable of standard string type. ">
<polygon fill="white" stroke="black" points="644,-251.322 644,-272.322 712,-272.322 712,-251.322 644,-251.322"/>
<text text-anchor="middle" x="678" y="-259.322" font-family="Helvetica,sans-Serif" font-size="10.00">If_StdString</text>
</a>
</g>
<!-- Node12&#45;&gt;Node13 -->
<g id="edge24" class="edge"><title>Node12&#45;&gt;Node13</title>
<path fill="none" stroke="midnightblue" d="M615.87,-261.822C625.614,-261.822 635.121,-261.822 643.651,-261.822"/>
<polygon fill="midnightblue" stroke="midnightblue" points="615.662,-258.322 605.662,-261.822 615.662,-265.322 615.662,-258.322"/>
</g>
<!-- Node15 -->
<g id="node29" class="node"><title>Node15</title>
<a xlink:href="classIf__String.html" target="_top" xlink:title="Interface variable of C string type. ">
<polygon fill="white" stroke="black" points="651.5,-162.322 651.5,-183.322 704.5,-183.322 704.5,-162.322 651.5,-162.322"/>
<text text-anchor="middle" x="678" y="-170.322" font-family="Helvetica,sans-Serif" font-size="10.00">If_String</text>
</a>
</g>
<!-- Node14&#45;&gt;Node15 -->
<g id="edge28" class="edge"><title>Node14&#45;&gt;Node15</title>
<path fill="none" stroke="midnightblue" d="M608.266,-172.822C623.7,-172.822 639.024,-172.822 651.36,-172.822"/>
<polygon fill="midnightblue" stroke="midnightblue" points="608.138,-169.322 598.138,-172.822 608.138,-176.322 608.138,-169.322"/>
</g>
<!-- Node17 -->
<g id="node33" class="node"><title>Node17</title>
<a xlink:href="classIf__IntVec.html" target="_top" xlink:title="Interface variable of integer vector type. ">
<polygon fill="white" stroke="black" points="650,-208.322 650,-229.322 706,-229.322 706,-208.322 650,-208.322"/>
<text text-anchor="middle" x="678" y="-216.322" font-family="Helvetica,sans-Serif" font-size="10.00">If_IntVec</text>
</a>
</g>
<!-- Node16&#45;&gt;Node17 -->
<g id="edge32" class="edge"><title>Node16&#45;&gt;Node17</title>
<path fill="none" stroke="midnightblue" d="M610.141,-218.822C624.333,-218.822 638.333,-218.822 649.897,-218.822"/>
<polygon fill="midnightblue" stroke="midnightblue" points="609.806,-215.322 599.806,-218.822 609.806,-222.322 609.806,-215.322"/>
</g>
<!-- Node19 -->
<g id="node37" class="node"><title>Node19</title>
<a xlink:href="classIf__Int.html" target="_top" xlink:title="Interface variable of integer type. ">
<polygon fill="white" stroke="black" points="658.5,-87.3218 658.5,-108.322 697.5,-108.322 697.5,-87.3218 658.5,-87.3218"/>
<text text-anchor="middle" x="678" y="-95.3218" font-family="Helvetica,sans-Serif" font-size="10.00">If_Int</text>
</a>
</g>
<!-- Node18&#45;&gt;Node19 -->
<g id="edge36" class="edge"><title>Node18&#45;&gt;Node19</title>
<path fill="none" stroke="midnightblue" d="M601.252,-97.8218C622.08,-97.8218 643.505,-97.8218 658.407,-97.8218"/>
<polygon fill="midnightblue" stroke="midnightblue" points="601.107,-94.3219 591.107,-97.8218 601.107,-101.322 601.107,-94.3219"/>
</g>
<!-- Node21 -->
<g id="node41" class="node"><title>Node21</title>
<a xlink:href="classIf__Real.html" target="_top" xlink:title="Interface variable of real type. ">
<polygon fill="white" stroke="black" points="654,-18.3218 654,-39.3218 702,-39.3218 702,-18.3218 654,-18.3218"/>
<text text-anchor="middle" x="678" y="-26.3218" font-family="Helvetica,sans-Serif" font-size="10.00">If_Real</text>
</a>
</g>
<!-- Node20&#45;&gt;Node21 -->
<g id="edge40" class="edge"><title>Node20&#45;&gt;Node21</title>
<path fill="none" stroke="midnightblue" d="M605.829,-28.8218C623.188,-28.8218 640.6,-28.8218 653.972,-28.8218"/>
<polygon fill="midnightblue" stroke="midnightblue" points="605.645,-25.3219 595.645,-28.8218 605.645,-32.3219 605.645,-25.3219"/>
</g>
</g>
</svg>
