<?xml version="1.0" encoding="UTF-8" standalone="no"?>
<!DOCTYPE svg PUBLIC "-//W3C//DTD SVG 1.1//EN"
 "http://www.w3.org/Graphics/SVG/1.1/DTD/svg11.dtd">
<!-- Generated by graphviz version 2.26.3 (20100126.1600)
 -->
<!-- Title: If_Variable&lt; VarType &gt; Pages: 1 -->
<svg width="712pt" height="310pt"
 viewBox="0.00 0.00 712.00 310.00" xmlns="http://www.w3.org/2000/svg" xmlns:xlink="http://www.w3.org/1999/xlink">
<g id="graph1" class="graph" transform="scale(1 1) rotate(0) translate(4 306)">
<title>If_Variable&lt; VarType &gt;</title>
<polygon fill="white" stroke="white" points="-4,5 -4,-306 709,-306 709,5 -4,5"/>
<!-- Node1 -->
<g id="node1" class="node"><title>Node1</title>
<polygon fill="#bfbfbf" stroke="black" points="220,-139.5 220,-160.5 338,-160.5 338,-139.5 220,-139.5"/>
<text text-anchor="middle" x="279" y="-147.5" font-family="Helvetica,sans-Serif" font-size="10.00">If_Variable&lt; VarType &gt;</text>
</g>
<!-- Node4 -->
<g id="node7" class="node"><title>Node4</title>
<a xlink:href="classIf__Variable.html" target="_top" xlink:title="If_Variable\&lt; If_RealMat_t \&gt;">
<polygon fill="white" stroke="black" points="458.5,-280.5 458.5,-301.5 595.5,-301.5 595.5,-280.5 458.5,-280.5"/>
<text text-anchor="middle" x="527" y="-288.5" font-family="Helvetica,sans-Serif" font-size="10.00">If_Variable&lt; If_RealMat_t &gt;</text>
</a>
</g>
<!-- Node1&#45;&gt;Node4 -->
<g id="edge6" class="edge"><title>Node1&#45;&gt;Node4</title>
<path fill="none" stroke="orange" stroke-dasharray="5,2" d="M287.91,-170.118C299.793,-194.483 323.205,-234.877 356,-256 386.189,-275.445 425.069,-284.387 458.126,-288.384"/>
<polygon fill="orange" stroke="orange" points="290.94,-168.333 283.53,-160.761 284.6,-171.301 290.94,-168.333"/>
<text text-anchor="middle" x="397" y="-288" font-family="Helvetica,sans-Serif" font-size="10.00"> &lt; If_RealMat_t &gt;</text>
</g>
<!-- Node6 -->
<g id="node11" class="node"><title>Node6</title>
<a xlink:href="classIf__Variable.html" target="_top" xlink:title="If_Variable\&lt; If_Bool_t \&gt;">
<polygon fill="white" stroke="black" points="467,-240.5 467,-261.5 587,-261.5 587,-240.5 467,-240.5"/>
<text text-anchor="middle" x="527" y="-248.5" font-family="Helvetica,sans-Serif" font-size="10.00">If_Variable&lt; If_Bool_t &gt;</text>
</a>
</g>
<!-- Node1&#45;&gt;Node6 -->
<g id="edge10" class="edge"><title>Node1&#45;&gt;Node6</title>
<path fill="none" stroke="orange" stroke-dasharray="5,2" d="M296.125,-168.069C310.714,-182.389 332.929,-201.793 356,-213 390.741,-229.876 433.097,-239.36 466.962,-244.633"/>
<polygon fill="orange" stroke="orange" points="298.372,-165.363 288.848,-160.72 293.398,-170.289 298.372,-165.363"/>
<text text-anchor="middle" x="397" y="-243" font-family="Helvetica,sans-Serif" font-size="10.00"> &lt; If_Bool_t &gt;</text>
</g>
<!-- Node8 -->
<g id="node15" class="node"><title>Node8</title>
<a xlink:href="classIf__Variable.html" target="_top" xlink:title="If_Variable\&lt; If_RealVec_t \&gt;">
<polygon fill="white" stroke="black" points="458,-200.5 458,-221.5 596,-221.5 596,-200.5 458,-200.5"/>
<text text-anchor="middle" x="527" y="-208.5" font-family="Helvetica,sans-Serif" font-size="10.00">If_Variable&lt; If_RealVec_t &gt;</text>
</a>
</g>
<!-- Node1&#45;&gt;Node8 -->
<g id="edge14" class="edge"><title>Node1&#45;&gt;Node8</title>
<path fill="none" stroke="orange" stroke-dasharray="5,2" d="M313.224,-164.361C326.422,-169.507 341.748,-175.016 356,-179 389.014,-188.229 426.367,-195.565 457.722,-200.872"/>
<polygon fill="orange" stroke="orange" points="314.186,-160.976 303.6,-160.527 311.595,-167.479 314.186,-160.976"/>
<text text-anchor="middle" x="397" y="-200" font-family="Helvetica,sans-Serif" font-size="10.00"> &lt; If_RealVec_t &gt;</text>
</g>
<!-- Node10 -->
<g id="node19" class="node"><title>Node10</title>
<a xlink:href="classIf__Variable.html" target="_top" xlink:title="If_Variable\&lt; If_StdString_t \&gt;">
<polygon fill="white" stroke="black" points="456.5,-160.5 456.5,-181.5 597.5,-181.5 597.5,-160.5 456.5,-160.5"/>
<text text-anchor="middle" x="527" y="-168.5" font-family="Helvetica,sans-Serif" font-size="10.00">If_Variable&lt; If_StdString_t &gt;</text>
</a>
</g>
<!-- Node1&#45;&gt;Node10 -->
<g id="edge18" class="edge"><title>Node1&#45;&gt;Node10</title>
<path fill="none" stroke="orange" stroke-dasharray="5,2" d="M348.326,-155.87C382.066,-158.727 422.557,-162.156 456.457,-165.027"/>
<polygon fill="orange" stroke="orange" points="348.347,-152.36 338.087,-155.003 347.756,-159.335 348.347,-152.36"/>
<text text-anchor="middle" x="397" y="-166" font-family="Helvetica,sans-Serif" font-size="10.00"> &lt; If_StdString_t &gt;</text>
</g>
<!-- Node12 -->
<g id="node23" class="node"><title>Node12</title>
<a xlink:href="classIf__Variable.html" target="_top" xlink:title="If_Variable\&lt; If_String_t \&gt;">
<polygon fill="white" stroke="black" points="464,-120.5 464,-141.5 590,-141.5 590,-120.5 464,-120.5"/>
<text text-anchor="middle" x="527" y="-128.5" font-family="Helvetica,sans-Serif" font-size="10.00">If_Variable&lt; If_String_t &gt;</text>
</a>
</g>
<!-- Node1&#45;&gt;Node12 -->
<g id="edge22" class="edge"><title>Node1&#45;&gt;Node12</title>
<path fill="none" stroke="orange" stroke-dasharray="5,2" d="M336.612,-137.681C343.128,-136.615 349.691,-135.683 356,-135 391.575,-131.147 431.547,-130.035 463.894,-129.937"/>
<polygon fill="orange" stroke="orange" points="335.705,-134.287 326.455,-139.453 336.908,-141.183 335.705,-134.287"/>
<text text-anchor="middle" x="397" y="-139" font-family="Helvetica,sans-Serif" font-size="10.00"> &lt; If_String_t &gt;</text>
</g>
<!-- Node14 -->
<g id="node27" class="node"><title>Node14</title>
<a xlink:href="classIf__Variable.html" target="_top" xlink:title="If_Variable\&lt; If_IntVec_t \&gt;">
<polygon fill="white" stroke="black" points="462.5,-80.5 462.5,-101.5 591.5,-101.5 591.5,-80.5 462.5,-80.5"/>
<text text-anchor="middle" x="527" y="-88.5" font-family="Helvetica,sans-Serif" font-size="10.00">If_Variable&lt; If_IntVec_t &gt;</text>
</a>
</g>
<!-- Node1&#45;&gt;Node14 -->
<g id="edge26" class="edge"><title>Node1&#45;&gt;Node14</title>
<path fill="none" stroke="orange" stroke-dasharray="5,2" d="M306.217,-134.795C320.606,-127.403 338.809,-119.046 356,-114 390.347,-103.918 429.888,-98.2366 462.291,-95.0446"/>
<polygon fill="orange" stroke="orange" points="304.571,-131.706 297.361,-139.469 307.838,-137.897 304.571,-131.706"/>
<text text-anchor="middle" x="397" y="-118" font-family="Helvetica,sans-Serif" font-size="10.00"> &lt; If_IntVec_t &gt;</text>
</g>
<!-- Node16 -->
<g id="node31" class="node"><title>Node16</title>
<a xlink:href="classIf__Variable.html" target="_top" xlink:title="If_Variable\&lt; If_Int_t \&gt;">
<polygon fill="white" stroke="black" points="471,-40.5 471,-61.5 583,-61.5 583,-40.5 471,-40.5"/>
<text text-anchor="middle" x="527" y="-48.5" font-family="Helvetica,sans-Serif" font-size="10.00">If_Variable&lt; If_Int_t &gt;</text>
</a>
</g>
<!-- Node1&#45;&gt;Node16 -->
<g id="edge30" class="edge"><title>Node1&#45;&gt;Node16</title>
<path fill="none" stroke="orange" stroke-dasharray="5,2" d="M294.361,-131.701C308.654,-115.948 331.401,-93.9246 356,-82 391.838,-64.6277 436.181,-56.9287 470.731,-53.5461"/>
<polygon fill="orange" stroke="orange" points="291.67,-129.462 287.692,-139.281 296.925,-134.086 291.67,-129.462"/>
<text text-anchor="middle" x="397" y="-86" font-family="Helvetica,sans-Serif" font-size="10.00"> &lt; If_Int_t &gt;</text>
</g>
<!-- Node18 -->
<g id="node35" class="node"><title>Node18</title>
<a xlink:href="classIf__Variable.html" target="_top" xlink:title="If_Variable\&lt; If_Real_t \&gt;">
<polygon fill="white" stroke="black" points="466.5,-0.5 466.5,-21.5 587.5,-21.5 587.5,-0.5 466.5,-0.5"/>
<text text-anchor="middle" x="527" y="-8.5" font-family="Helvetica,sans-Serif" font-size="10.00">If_Variable&lt; If_Real_t &gt;</text>
</a>
</g>
<!-- Node1&#45;&gt;Node18 -->
<g id="edge34" class="edge"><title>Node1&#45;&gt;Node18</title>
<path fill="none" stroke="orange" stroke-dasharray="5,2" d="M287.327,-129.884C298.841,-104.759 322.112,-62.4694 356,-41 388.718,-20.2719 431.674,-12.7941 466.348,-10.4872"/>
<polygon fill="orange" stroke="orange" points="284.056,-128.629 283.241,-139.192 290.465,-131.443 284.056,-128.629"/>
<text text-anchor="middle" x="397" y="-45" font-family="Helvetica,sans-Serif" font-size="10.00"> &lt; If_Real_t &gt;</text>
</g>
<!-- Node2 -->
<g id="node2" class="node"><title>Node2</title>
<a xlink:href="classIf__Element.html" target="_top" xlink:title="Abstract base class for interface elements to Tcl, like variables and procedures. ...">
<polygon fill="white" stroke="black" points="118,-139.5 118,-160.5 182,-160.5 182,-139.5 118,-139.5"/>
<text text-anchor="middle" x="150" y="-147.5" font-family="Helvetica,sans-Serif" font-size="10.00">If_Element</text>
</a>
</g>
<!-- Node2&#45;&gt;Node1 -->
<g id="edge2" class="edge"><title>Node2&#45;&gt;Node1</title>
<path fill="none" stroke="midnightblue" d="M192.238,-150C201.06,-150 210.515,-150 219.822,-150"/>
<polygon fill="midnightblue" stroke="midnightblue" points="192.219,-146.5 182.219,-150 192.219,-153.5 192.219,-146.5"/>
</g>
<!-- Node3 -->
<g id="node4" class="node"><title>Node3</title>
<a xlink:href="classIf__ListElement.html" target="_top" xlink:title="Element of a twice concatenated If_List. ">
<polygon fill="white" stroke="black" points="0,-139.5 0,-160.5 80,-160.5 80,-139.5 0,-139.5"/>
<text text-anchor="middle" x="40" y="-147.5" font-family="Helvetica,sans-Serif" font-size="10.00">If_ListElement</text>
</a>
</g>
<!-- Node3&#45;&gt;Node2 -->
<g id="edge4" class="edge"><title>Node3&#45;&gt;Node2</title>
<path fill="none" stroke="midnightblue" d="M90.0924,-150C99.4895,-150 109.079,-150 117.752,-150"/>
<polygon fill="midnightblue" stroke="midnightblue" points="90.0237,-146.5 80.0237,-150 90.0237,-153.5 90.0237,-146.5"/>
</g>
<!-- Node5 -->
<g id="node9" class="node"><title>Node5</title>
<a xlink:href="classIf__RealMat.html" target="_top" xlink:title="Interface variable of real matrix type. ">
<polygon fill="white" stroke="black" points="637.5,-280.5 637.5,-301.5 702.5,-301.5 702.5,-280.5 637.5,-280.5"/>
<text text-anchor="middle" x="670" y="-288.5" font-family="Helvetica,sans-Serif" font-size="10.00">If_RealMat</text>
</a>
</g>
<!-- Node4&#45;&gt;Node5 -->
<g id="edge8" class="edge"><title>Node4&#45;&gt;Node5</title>
<path fill="none" stroke="midnightblue" d="M605.845,-291C616.996,-291 627.907,-291 637.476,-291"/>
<polygon fill="midnightblue" stroke="midnightblue" points="605.568,-287.5 595.568,-291 605.568,-294.5 605.568,-287.5"/>
</g>
<!-- Node7 -->
<g id="node13" class="node"><title>Node7</title>
<a xlink:href="classIf__Bool.html" target="_top" xlink:title="Interface variable of boolean type. ">
<polygon fill="white" stroke="black" points="646.5,-240.5 646.5,-261.5 693.5,-261.5 693.5,-240.5 646.5,-240.5"/>
<text text-anchor="middle" x="670" y="-248.5" font-family="Helvetica,sans-Serif" font-size="10.00">If_Bool</text>
</a>
</g>
<!-- Node6&#45;&gt;Node7 -->
<g id="edge12" class="edge"><title>Node6&#45;&gt;Node7</title>
<path fill="none" stroke="midnightblue" d="M597.522,-251C615.071,-251 632.699,-251 646.176,-251"/>
<polygon fill="midnightblue" stroke="midnightblue" points="597.23,-247.5 587.23,-251 597.23,-254.5 597.23,-247.5"/>
</g>
<!-- Node9 -->
<g id="node17" class="node"><title>Node9</title>
<a xlink:href="classIf__RealVec.html" target="_top" xlink:title="Interface variable of real vector type. ">
<polygon fill="white" stroke="black" points="637.5,-200.5 637.5,-221.5 702.5,-221.5 702.5,-200.5 637.5,-200.5"/>
<text text-anchor="middle" x="670" y="-208.5" font-family="Helvetica,sans-Serif" font-size="10.00">If_RealVec</text>
</a>
</g>
<!-- Node8&#45;&gt;Node9 -->
<g id="edge16" class="edge"><title>Node8&#45;&gt;Node9</title>
<path fill="none" stroke="midnightblue" d="M606.734,-211C617.459,-211 627.934,-211 637.176,-211"/>
<polygon fill="midnightblue" stroke="midnightblue" points="606.406,-207.5 596.406,-211 606.406,-214.5 606.406,-207.5"/>
</g>
<!-- Node11 -->
<g id="node21" class="node"><title>Node11</title>
<a xlink:href="classIf__StdString.html" target="_top" xlink:title="Interface variable of standard string type. ">
<polygon fill="white" stroke="black" points="636,-160.5 636,-181.5 704,-181.5 704,-160.5 636,-160.5"/>
<text text-anchor="middle" x="670" y="-168.5" font-family="Helvetica,sans-Serif" font-size="10.00">If_StdString</text>
</a>
</g>
<!-- Node10&#45;&gt;Node11 -->
<g id="edge20" class="edge"><title>Node10&#45;&gt;Node11</title>
<path fill="none" stroke="midnightblue" d="M607.87,-171C617.614,-171 627.121,-171 635.651,-171"/>
<polygon fill="midnightblue" stroke="midnightblue" points="607.662,-167.5 597.662,-171 607.662,-174.5 607.662,-167.5"/>
</g>
<!-- Node13 -->
<g id="node25" class="node"><title>Node13</title>
<a xlink:href="classIf__String.html" target="_top" xlink:title="Interface variable of C string type. ">
<polygon fill="white" stroke="black" points="643.5,-120.5 643.5,-141.5 696.5,-141.5 696.5,-120.5 643.5,-120.5"/>
<text text-anchor="middle" x="670" y="-128.5" font-family="Helvetica,sans-Serif" font-size="10.00">If_String</text>
</a>
</g>
<!-- Node12&#45;&gt;Node13 -->
<g id="edge24" class="edge"><title>Node12&#45;&gt;Node13</title>
<path fill="none" stroke="midnightblue" d="M600.266,-131C615.7,-131 631.024,-131 643.36,-131"/>
<polygon fill="midnightblue" stroke="midnightblue" points="600.138,-127.5 590.138,-131 600.138,-134.5 600.138,-127.5"/>
</g>
<!-- Node15 -->
<g id="node29" class="node"><title>Node15</title>
<a xlink:href="classIf__IntVec.html" target="_top" xlink:title="Interface variable of integer vector type. ">
<polygon fill="white" stroke="black" points="642,-80.5 642,-101.5 698,-101.5 698,-80.5 642,-80.5"/>
<text text-anchor="middle" x="670" y="-88.5" font-family="Helvetica,sans-Serif" font-size="10.00">If_IntVec</text>
</a>
</g>
<!-- Node14&#45;&gt;Node15 -->
<g id="edge28" class="edge"><title>Node14&#45;&gt;Node15</title>
<path fill="none" stroke="midnightblue" d="M602.141,-91C616.333,-91 630.333,-91 641.897,-91"/>
<polygon fill="midnightblue" stroke="midnightblue" points="601.806,-87.5001 591.806,-91 601.806,-94.5001 601.806,-87.5001"/>
</g>
<!-- Node17 -->
<g id="node33" class="node"><title>Node17</title>
<a xlink:href="classIf__Int.html" target="_top" xlink:title="Interface variable of integer type. ">
<polygon fill="white" stroke="black" points="650.5,-40.5 650.5,-61.5 689.5,-61.5 689.5,-40.5 650.5,-40.5"/>
<text text-anchor="middle" x="670" y="-48.5" font-family="Helvetica,sans-Serif" font-size="10.00">If_Int</text>
</a>
</g>
<!-- Node16&#45;&gt;Node17 -->
<g id="edge32" class="edge"><title>Node16&#45;&gt;Node17</title>
<path fill="none" stroke="midnightblue" d="M593.252,-51C614.08,-51 635.505,-51 650.407,-51"/>
<polygon fill="midnightblue" stroke="midnightblue" points="593.107,-47.5001 583.107,-51 593.107,-54.5001 593.107,-47.5001"/>
</g>
<!-- Node19 -->
<g id="node37" class="node"><title>Node19</title>
<a xlink:href="classIf__Real.html" target="_top" xlink:title="Interface variable of real type. ">
<polygon fill="white" stroke="black" points="646,-0.5 646,-21.5 694,-21.5 694,-0.5 646,-0.5"/>
<text text-anchor="middle" x="670" y="-8.5" font-family="Helvetica,sans-Serif" font-size="10.00">If_Real</text>
</a>
</g>
<!-- Node18&#45;&gt;Node19 -->
<g id="edge36" class="edge"><title>Node18&#45;&gt;Node19</title>
<path fill="none" stroke="midnightblue" d="M597.829,-11C615.188,-11 632.6,-11 645.972,-11"/>
<polygon fill="midnightblue" stroke="midnightblue" points="597.645,-7.5001 587.645,-11 597.645,-14.5001 597.645,-7.5001"/>
</g>
</g>
</svg>
