<?xml version="1.0" encoding="UTF-8" standalone="no"?>
<!DOCTYPE svg PUBLIC "-//W3C//DTD SVG 1.1//EN"
 "http://www.w3.org/Graphics/SVG/1.1/DTD/svg11.dtd">
<!-- Generated by graphviz version 2.26.3 (20100126.1600)
 -->
<!-- Title: If_IntVec Pages: 1 -->
<svg width="188pt" height="282pt"
 viewBox="0.00 0.00 188.00 282.00" xmlns="http://www.w3.org/2000/svg" xmlns:xlink="http://www.w3.org/1999/xlink">
<g id="graph1" class="graph" transform="scale(1 1) rotate(0) translate(4 278)">
<title>If_IntVec</title>
<polygon fill="white" stroke="white" points="-4,5 -4,-278 185,-278 185,5 -4,5"/>
<!-- Node1 -->
<g id="node1" class="node"><title>Node1</title>
<polygon fill="#bfbfbf" stroke="black" points="36,-0.5 36,-21.5 92,-21.5 92,-0.5 36,-0.5"/>
<text text-anchor="middle" x="64" y="-8.5" font-family="Helvetica,sans-Serif" font-size="10.00">If_IntVec</text>
</g>
<!-- Node2 -->
<g id="node2" class="node"><title>Node2</title>
<a xlink:href="classIf__Variable.html" target="_top" xlink:title="If_Variable\&lt; If_IntVec_t \&gt;">
<polygon fill="white" stroke="black" points="-0.5,-60.5 -0.5,-81.5 128.5,-81.5 128.5,-60.5 -0.5,-60.5"/>
<text text-anchor="middle" x="64" y="-68.5" font-family="Helvetica,sans-Serif" font-size="10.00">If_Variable&lt; If_IntVec_t &gt;</text>
</a>
</g>
<!-- Node2&#45;&gt;Node1 -->
<g id="edge2" class="edge"><title>Node2&#45;&gt;Node1</title>
<path fill="none" stroke="midnightblue" d="M64,-50.2312C64,-40.5922 64,-29.5444 64,-21.6339"/>
<polygon fill="midnightblue" stroke="midnightblue" points="60.5001,-50.2732 64,-60.2732 67.5001,-50.2732 60.5001,-50.2732"/>
</g>
<!-- Node3 -->
<g id="node4" class="node"><title>Node3</title>
<a xlink:href="classIf__Element.html" target="_top" xlink:title="Abstract base class for interface elements to Tcl, like variables and procedures. ...">
<polygon fill="white" stroke="black" points="14,-192.5 14,-213.5 78,-213.5 78,-192.5 14,-192.5"/>
<text text-anchor="middle" x="46" y="-200.5" font-family="Helvetica,sans-Serif" font-size="10.00">If_Element</text>
</a>
</g>
<!-- Node3&#45;&gt;Node2 -->
<g id="edge4" class="edge"><title>Node3&#45;&gt;Node2</title>
<path fill="none" stroke="midnightblue" d="M47.6067,-182.225C48.8118,-168.042 50.6549,-148.843 53,-132 55.4634,-114.307 59.3573,-93.9111 61.7907,-81.7567"/>
<polygon fill="midnightblue" stroke="midnightblue" points="44.1028,-182.132 46.7797,-192.383 51.0797,-182.7 44.1028,-182.132"/>
</g>
<!-- Node5 -->
<g id="node8" class="node"><title>Node5</title>
<a xlink:href="classIf__Variable.html" target="_top" xlink:title="Interface variable of abstract type VarType managing callbacks for reading and writing. ">
<polygon fill="white" stroke="black" points="62,-132.5 62,-153.5 180,-153.5 180,-132.5 62,-132.5"/>
<text text-anchor="middle" x="121" y="-140.5" font-family="Helvetica,sans-Serif" font-size="10.00">If_Variable&lt; VarType &gt;</text>
</a>
</g>
<!-- Node3&#45;&gt;Node5 -->
<g id="edge10" class="edge"><title>Node3&#45;&gt;Node5</title>
<path fill="none" stroke="midnightblue" d="M67.397,-185.882C80.3807,-175.495 96.5436,-162.565 107.708,-153.634"/>
<polygon fill="midnightblue" stroke="midnightblue" points="65.0308,-183.293 59.4085,-192.273 69.4037,-188.759 65.0308,-183.293"/>
</g>
<!-- Node4 -->
<g id="node6" class="node"><title>Node4</title>
<a xlink:href="classIf__ListElement.html" target="_top" xlink:title="Element of a twice concatenated If_List. ">
<polygon fill="white" stroke="black" points="6,-252.5 6,-273.5 86,-273.5 86,-252.5 6,-252.5"/>
<text text-anchor="middle" x="46" y="-260.5" font-family="Helvetica,sans-Serif" font-size="10.00">If_ListElement</text>
</a>
</g>
<!-- Node4&#45;&gt;Node3 -->
<g id="edge6" class="edge"><title>Node4&#45;&gt;Node3</title>
<path fill="none" stroke="midnightblue" d="M46,-242.231C46,-232.592 46,-221.544 46,-213.634"/>
<polygon fill="midnightblue" stroke="midnightblue" points="42.5001,-242.273 46,-252.273 49.5001,-242.273 42.5001,-242.273"/>
</g>
<!-- Node5&#45;&gt;Node2 -->
<g id="edge8" class="edge"><title>Node5&#45;&gt;Node2</title>
<path fill="none" stroke="orange" stroke-dasharray="5,2" d="M106.115,-124.198C95.3888,-110.649 81.299,-92.8514 72.4451,-81.6674"/>
<polygon fill="orange" stroke="orange" points="103.638,-126.708 112.589,-132.376 109.127,-122.363 103.638,-126.708"/>
<text text-anchor="middle" x="132" y="-104.5" font-family="Helvetica,sans-Serif" font-size="10.00"> &lt; If_IntVec_t &gt;</text>
</g>
</g>
</svg>
