<?xml version="1.0" encoding="UTF-8" standalone="no"?>
<!DOCTYPE svg PUBLIC "-//W3C//DTD SVG 1.1//EN"
 "http://www.w3.org/Graphics/SVG/1.1/DTD/svg11.dtd">
<!-- Generated by graphviz version 2.26.3 (20100126.1600)
 -->
<!-- Title: If_GetIf&lt; VarType &gt; Pages: 1 -->
<svg width="358pt" height="430pt"
 viewBox="0.00 0.00 358.00 430.00" xmlns="http://www.w3.org/2000/svg" xmlns:xlink="http://www.w3.org/1999/xlink">
<g id="graph1" class="graph" transform="scale(1 1) rotate(0) translate(4 426)">
<title>If_GetIf&lt; VarType &gt;</title>
<polygon fill="white" stroke="white" points="-4,5 -4,-426 355,-426 355,5 -4,5"/>
<!-- Node1 -->
<g id="node1" class="node"><title>Node1</title>
<polygon fill="#bfbfbf" stroke="black" points="0,-200.5 0,-221.5 104,-221.5 104,-200.5 0,-200.5"/>
<text text-anchor="middle" x="52" y="-208.5" font-family="Helvetica,sans-Serif" font-size="10.00">If_GetIf&lt; VarType &gt;</text>
</g>
<!-- Node2 -->
<g id="node3" class="node"><title>Node2</title>
<a xlink:href="classIf__GetCb.html" target="_top" xlink:title="Read callback for specific class type. ">
<polygon fill="white" stroke="black" points="230.5,-400.5 230.5,-421.5 341.5,-421.5 341.5,-400.5 230.5,-400.5"/>
<text text-anchor="middle" x="286" y="-408.5" font-family="Helvetica,sans-Serif" font-size="10.00">If_GetCb&lt; VarType &gt;</text>
</a>
</g>
<!-- Node1&#45;&gt;Node2 -->
<g id="edge2" class="edge"><title>Node1&#45;&gt;Node2</title>
<path fill="none" stroke="midnightblue" d="M56.7738,-231.825C64.9298,-262.872 84.4309,-321.247 122,-355 151.99,-381.944 195.518,-396.024 230.195,-403.325"/>
<polygon fill="midnightblue" stroke="midnightblue" points="60.0723,-230.584 54.2699,-221.72 53.2778,-232.268 60.0723,-230.584"/>
</g>
<!-- Node3 -->
<g id="node5" class="node"><title>Node3</title>
<a xlink:href="classIf__GetPt.html" target="_top" xlink:title="Read callback directly accessing through a pointer. ">
<polygon fill="white" stroke="black" points="232,-360.5 232,-381.5 340,-381.5 340,-360.5 232,-360.5"/>
<text text-anchor="middle" x="286" y="-368.5" font-family="Helvetica,sans-Serif" font-size="10.00">If_GetPt&lt; VarType &gt;</text>
</a>
</g>
<!-- Node1&#45;&gt;Node3 -->
<g id="edge4" class="edge"><title>Node1&#45;&gt;Node3</title>
<path fill="none" stroke="midnightblue" d="M59.0842,-230.887C69.1411,-256.266 89.9723,-299.771 122,-324 153.77,-348.034 197.427,-359.787 231.71,-365.53"/>
<polygon fill="midnightblue" stroke="midnightblue" points="62.3545,-229.64 55.5398,-221.528 55.8082,-232.119 62.3545,-229.64"/>
</g>
<!-- Node4 -->
<g id="node7" class="node"><title>Node4</title>
<a xlink:href="classIf__GetPt2.html" target="_top" xlink:title="Read callback directly accessing through a pointer of different type. ">
<polygon fill="white" stroke="black" points="229.5,-320.5 229.5,-341.5 342.5,-341.5 342.5,-320.5 229.5,-320.5"/>
<text text-anchor="middle" x="286" y="-328.5" font-family="Helvetica,sans-Serif" font-size="10.00">If_GetPt2&lt; VarType &gt;</text>
</a>
</g>
<!-- Node1&#45;&gt;Node4 -->
<g id="edge6" class="edge"><title>Node1&#45;&gt;Node4</title>
<path fill="none" stroke="midnightblue" d="M62.5854,-230.306C74.4233,-249.995 95.4654,-279.875 122,-296 154.343,-315.655 196.129,-324.374 229.427,-328.195"/>
<polygon fill="midnightblue" stroke="midnightblue" points="65.5658,-228.468 57.5297,-221.563 59.5061,-231.972 65.5658,-228.468"/>
</g>
<!-- Node5 -->
<g id="node9" class="node"><title>Node5</title>
<a xlink:href="classIf__GetIf.html" target="_top" xlink:title="If_GetIf\&lt; If_RealMat_t \&gt;">
<polygon fill="white" stroke="black" points="224,-280.5 224,-301.5 348,-301.5 348,-280.5 224,-280.5"/>
<text text-anchor="middle" x="286" y="-288.5" font-family="Helvetica,sans-Serif" font-size="10.00">If_GetIf&lt; If_RealMat_t &gt;</text>
</a>
</g>
<!-- Node1&#45;&gt;Node5 -->
<g id="edge8" class="edge"><title>Node1&#45;&gt;Node5</title>
<path fill="none" stroke="orange" stroke-dasharray="5,2" d="M73.1063,-227.918C86.4158,-237.787 104.368,-249.692 122,-257 154.234,-270.36 192.284,-278.665 223.615,-283.72"/>
<polygon fill="orange" stroke="orange" points="75.1543,-225.078 65.0806,-221.797 70.9089,-230.644 75.1543,-225.078"/>
<text text-anchor="middle" x="163" y="-283" font-family="Helvetica,sans-Serif" font-size="10.00"> &lt; If_RealMat_t &gt;</text>
</g>
<!-- Node6 -->
<g id="node11" class="node"><title>Node6</title>
<a xlink:href="classIf__GetIf.html" target="_top" xlink:title="If_GetIf\&lt; If_Bool_t \&gt;">
<polygon fill="white" stroke="black" points="232.5,-240.5 232.5,-261.5 339.5,-261.5 339.5,-240.5 232.5,-240.5"/>
<text text-anchor="middle" x="286" y="-248.5" font-family="Helvetica,sans-Serif" font-size="10.00">If_GetIf&lt; If_Bool_t &gt;</text>
</a>
</g>
<!-- Node1&#45;&gt;Node6 -->
<g id="edge10" class="edge"><title>Node1&#45;&gt;Node6</title>
<path fill="none" stroke="orange" stroke-dasharray="5,2" d="M102.649,-223.926C109.14,-225.398 115.712,-226.799 122,-228 158.571,-234.987 200.109,-240.791 232.23,-244.821"/>
<polygon fill="orange" stroke="orange" points="103.102,-220.438 92.5681,-221.572 101.51,-227.254 103.102,-220.438"/>
<text text-anchor="middle" x="163" y="-244" font-family="Helvetica,sans-Serif" font-size="10.00"> &lt; If_Bool_t &gt;</text>
</g>
<!-- Node7 -->
<g id="node13" class="node"><title>Node7</title>
<a xlink:href="classIf__GetIf.html" target="_top" xlink:title="If_GetIf\&lt; If_RealVec_t \&gt;">
<polygon fill="white" stroke="black" points="223.5,-200.5 223.5,-221.5 348.5,-221.5 348.5,-200.5 223.5,-200.5"/>
<text text-anchor="middle" x="286" y="-208.5" font-family="Helvetica,sans-Serif" font-size="10.00">If_GetIf&lt; If_RealVec_t &gt;</text>
</a>
</g>
<!-- Node1&#45;&gt;Node7 -->
<g id="edge12" class="edge"><title>Node1&#45;&gt;Node7</title>
<path fill="none" stroke="orange" stroke-dasharray="5,2" d="M114.394,-211C148.025,-211 189.416,-211 223.121,-211"/>
<polygon fill="orange" stroke="orange" points="114.223,-207.5 104.223,-211 114.223,-214.5 114.223,-207.5"/>
<text text-anchor="middle" x="163" y="-215" font-family="Helvetica,sans-Serif" font-size="10.00"> &lt; If_RealVec_t &gt;</text>
</g>
<!-- Node8 -->
<g id="node15" class="node"><title>Node8</title>
<a xlink:href="classIf__GetIf.html" target="_top" xlink:title="If_GetIf\&lt; If_StdString_t \&gt;">
<polygon fill="white" stroke="black" points="222,-160.5 222,-181.5 350,-181.5 350,-160.5 222,-160.5"/>
<text text-anchor="middle" x="286" y="-168.5" font-family="Helvetica,sans-Serif" font-size="10.00">If_GetIf&lt; If_StdString_t &gt;</text>
</a>
</g>
<!-- Node1&#45;&gt;Node8 -->
<g id="edge14" class="edge"><title>Node1&#45;&gt;Node8</title>
<path fill="none" stroke="orange" stroke-dasharray="5,2" d="M102.649,-198.074C109.14,-196.602 115.712,-195.201 122,-194 154.758,-187.741 191.502,-182.432 221.894,-178.497"/>
<polygon fill="orange" stroke="orange" points="101.51,-194.746 92.5681,-200.428 103.102,-201.562 101.51,-194.746"/>
<text text-anchor="middle" x="163" y="-198" font-family="Helvetica,sans-Serif" font-size="10.00"> &lt; If_StdString_t &gt;</text>
</g>
<!-- Node9 -->
<g id="node17" class="node"><title>Node9</title>
<a xlink:href="classIf__GetIf.html" target="_top" xlink:title="If_GetIf\&lt; If_String_t \&gt;">
<polygon fill="white" stroke="black" points="229.5,-120.5 229.5,-141.5 342.5,-141.5 342.5,-120.5 229.5,-120.5"/>
<text text-anchor="middle" x="286" y="-128.5" font-family="Helvetica,sans-Serif" font-size="10.00">If_GetIf&lt; If_String_t &gt;</text>
</a>
</g>
<!-- Node1&#45;&gt;Node9 -->
<g id="edge16" class="edge"><title>Node1&#45;&gt;Node9</title>
<path fill="none" stroke="orange" stroke-dasharray="5,2" d="M72.5381,-194.039C85.8681,-183.863 104.045,-171.484 122,-164 156.179,-149.753 196.993,-141.512 229.355,-136.828"/>
<polygon fill="orange" stroke="orange" points="70.2286,-191.402 64.5293,-200.333 74.5543,-196.906 70.2286,-191.402"/>
<text text-anchor="middle" x="163" y="-168" font-family="Helvetica,sans-Serif" font-size="10.00"> &lt; If_String_t &gt;</text>
</g>
<!-- Node10 -->
<g id="node19" class="node"><title>Node10</title>
<a xlink:href="classIf__GetIf.html" target="_top" xlink:title="If_GetIf\&lt; If_IntVec_t \&gt;">
<polygon fill="white" stroke="black" points="228,-80.5 228,-101.5 344,-101.5 344,-80.5 228,-80.5"/>
<text text-anchor="middle" x="286" y="-88.5" font-family="Helvetica,sans-Serif" font-size="10.00">If_GetIf&lt; If_IntVec_t &gt;</text>
</a>
</g>
<!-- Node1&#45;&gt;Node10 -->
<g id="edge18" class="edge"><title>Node1&#45;&gt;Node10</title>
<path fill="none" stroke="orange" stroke-dasharray="5,2" d="M62.2494,-191.497C73.9268,-171.297 94.9467,-140.435 122,-124 153.772,-104.699 194.772,-96.4488 227.829,-93.0241"/>
<polygon fill="orange" stroke="orange" points="59.0747,-190.005 57.2819,-200.447 65.1951,-193.402 59.0747,-190.005"/>
<text text-anchor="middle" x="163" y="-128" font-family="Helvetica,sans-Serif" font-size="10.00"> &lt; If_IntVec_t &gt;</text>
</g>
<!-- Node11 -->
<g id="node21" class="node"><title>Node11</title>
<a xlink:href="classIf__GetIf.html" target="_top" xlink:title="If_GetIf\&lt; If_Int_t \&gt;">
<polygon fill="white" stroke="black" points="237,-40.5 237,-61.5 335,-61.5 335,-40.5 237,-40.5"/>
<text text-anchor="middle" x="286" y="-48.5" font-family="Helvetica,sans-Serif" font-size="10.00">If_GetIf&lt; If_Int_t &gt;</text>
</a>
</g>
<!-- Node1&#45;&gt;Node11 -->
<g id="edge20" class="edge"><title>Node1&#45;&gt;Node11</title>
<path fill="none" stroke="orange" stroke-dasharray="5,2" d="M56.7351,-190.634C64.7595,-160.985 83.9991,-106.484 122,-79 155.117,-55.0483 201.729,-49.02 236.8,-48.419"/>
<polygon fill="orange" stroke="orange" points="53.3402,-189.784 54.2722,-200.337 60.125,-191.506 53.3402,-189.784"/>
<text text-anchor="middle" x="163" y="-83" font-family="Helvetica,sans-Serif" font-size="10.00"> &lt; If_Int_t &gt;</text>
</g>
<!-- Node12 -->
<g id="node23" class="node"><title>Node12</title>
<a xlink:href="classIf__GetIf.html" target="_top" xlink:title="If_GetIf\&lt; If_Real_t \&gt;">
<polygon fill="white" stroke="black" points="232.5,-0.5 232.5,-21.5 339.5,-21.5 339.5,-0.5 232.5,-0.5"/>
<text text-anchor="middle" x="286" y="-8.5" font-family="Helvetica,sans-Serif" font-size="10.00">If_GetIf&lt; If_Real_t &gt;</text>
</a>
</g>
<!-- Node1&#45;&gt;Node12 -->
<g id="edge22" class="edge"><title>Node1&#45;&gt;Node12</title>
<path fill="none" stroke="orange" stroke-dasharray="5,2" d="M53.5779,-190.098C57.6511,-152.135 72.0226,-72.1681 122,-33 152.864,-8.81169 197.44,-4.16322 232.331,-5.09406"/>
<polygon fill="orange" stroke="orange" points="50.0572,-190.159 52.6164,-200.44 57.0272,-190.807 50.0572,-190.159"/>
<text text-anchor="middle" x="163" y="-37" font-family="Helvetica,sans-Serif" font-size="10.00"> &lt; If_Real_t &gt;</text>
</g>
</g>
</svg>
