<?xml version="1.0" encoding="UTF-8" standalone="no"?>
<!DOCTYPE svg PUBLIC "-//W3C//DTD SVG 1.1//EN"
 "http://www.w3.org/Graphics/SVG/1.1/DTD/svg11.dtd">
<!-- Generated by graphviz version 2.26.3 (20100126.1600)
 -->
<!-- Title: Omu_VariableVec Pages: 1 -->
<svg width="194pt" height="262pt"
 viewBox="0.00 0.00 194.00 262.00" xmlns="http://www.w3.org/2000/svg" xmlns:xlink="http://www.w3.org/1999/xlink">
<g id="graph1" class="graph" transform="scale(1 1) rotate(0) translate(4 258)">
<title>Omu_VariableVec</title>
<polygon fill="white" stroke="white" points="-4,5 -4,-258 191,-258 191,5 -4,5"/>
<!-- Node1 -->
<g id="node1" class="node"><title>Node1</title>
<polygon fill="#bfbfbf" stroke="black" points="47.5,-116.5 47.5,-137.5 142.5,-137.5 142.5,-116.5 47.5,-116.5"/>
<text text-anchor="middle" x="95" y="-124.5" font-family="Helvetica,sans-Serif" font-size="10.00">Omu_VariableVec</text>
</g>
<!-- Node4 -->
<g id="node7" class="node"><title>Node4</title>
<a xlink:href="classOmu__OptVarVec.html" target="_top" xlink:title="Extend Omu_VariableVec with attributes for optimization criterion. ">
<polygon fill="white" stroke="black" points="-0.5,-58.5 -0.5,-79.5 90.5,-79.5 90.5,-58.5 -0.5,-58.5"/>
<text text-anchor="middle" x="45" y="-66.5" font-family="Helvetica,sans-Serif" font-size="10.00">Omu_OptVarVec</text>
</a>
</g>
<!-- Node1&#45;&gt;Node4 -->
<g id="edge6" class="edge"><title>Node1&#45;&gt;Node4</title>
<path fill="none" stroke="midnightblue" d="M79.0868,-108.541C70.8436,-98.9786 61.0747,-87.6467 54.1126,-79.5707"/>
<polygon fill="midnightblue" stroke="midnightblue" points="76.6489,-111.073 85.8292,-116.362 81.9507,-106.502 76.6489,-111.073"/>
</g>
<!-- Node5 -->
<g id="node9" class="node"><title>Node5</title>
<a xlink:href="classOmu__VarVec.html" target="_top" xlink:title="Internally used vector of optimization variables. ">
<polygon fill="white" stroke="black" points="107.5,-58.5 107.5,-79.5 182.5,-79.5 182.5,-58.5 107.5,-58.5"/>
<text text-anchor="middle" x="145" y="-66.5" font-family="Helvetica,sans-Serif" font-size="10.00">Omu_VarVec</text>
</a>
</g>
<!-- Node1&#45;&gt;Node5 -->
<g id="edge8" class="edge"><title>Node1&#45;&gt;Node5</title>
<path fill="none" stroke="midnightblue" d="M110.913,-108.541C119.156,-98.9786 128.925,-87.6467 135.887,-79.5707"/>
<polygon fill="midnightblue" stroke="midnightblue" points="108.049,-106.502 104.171,-116.362 113.351,-111.073 108.049,-106.502"/>
</g>
<!-- Node2 -->
<g id="node2" class="node"><title>Node2</title>
<a xlink:href="classOmu__Vec.html" target="_top" xlink:title="Avoid multiple inclusion. ">
<polygon fill="white" stroke="black" points="65,-174.5 65,-195.5 125,-195.5 125,-174.5 65,-174.5"/>
<text text-anchor="middle" x="95" y="-182.5" font-family="Helvetica,sans-Serif" font-size="10.00">Omu_Vec</text>
</a>
</g>
<!-- Node2&#45;&gt;Node1 -->
<g id="edge2" class="edge"><title>Node2&#45;&gt;Node1</title>
<path fill="none" stroke="midnightblue" d="M95,-164.191C95,-155.168 95,-144.994 95,-137.571"/>
<polygon fill="midnightblue" stroke="midnightblue" points="91.5001,-164.362 95,-174.362 98.5001,-164.362 91.5001,-164.362"/>
</g>
<!-- Node3 -->
<g id="node4" class="node"><title>Node3</title>
<a xlink:href="classMesch_1_1VECP.html" target="_top" xlink:title="Wrapper for Meschach VEC*. ">
<polygon fill="white" stroke="black" points="55,-232.5 55,-253.5 135,-253.5 135,-232.5 55,-232.5"/>
<text text-anchor="middle" x="95" y="-240.5" font-family="Helvetica,sans-Serif" font-size="10.00">Mesch::VECP</text>
</a>
</g>
<!-- Node3&#45;&gt;Node2 -->
<g id="edge4" class="edge"><title>Node3&#45;&gt;Node2</title>
<path fill="none" stroke="midnightblue" d="M95,-222.191C95,-213.168 95,-202.994 95,-195.571"/>
<polygon fill="midnightblue" stroke="midnightblue" points="91.5001,-222.362 95,-232.362 98.5001,-222.362 91.5001,-222.362"/>
</g>
<!-- Node6 -->
<g id="node11" class="node"><title>Node6</title>
<a xlink:href="classOmu__SVarVec.html" target="_top" xlink:title="Depreciated: Internally used vector of state optimization variables holding additional structural inf...">
<polygon fill="white" stroke="black" points="104,-0.5 104,-21.5 186,-21.5 186,-0.5 104,-0.5"/>
<text text-anchor="middle" x="145" y="-8.5" font-family="Helvetica,sans-Serif" font-size="10.00">Omu_SVarVec</text>
</a>
</g>
<!-- Node5&#45;&gt;Node6 -->
<g id="edge10" class="edge"><title>Node5&#45;&gt;Node6</title>
<path fill="none" stroke="midnightblue" d="M145,-48.1906C145,-39.1684 145,-28.9941 145,-21.5707"/>
<polygon fill="midnightblue" stroke="midnightblue" points="141.5,-48.3619 145,-58.3619 148.5,-48.3619 141.5,-48.3619"/>
</g>
</g>
</svg>
