<?xml version="1.0" encoding="UTF-8" standalone="no"?>
<!DOCTYPE svg PUBLIC "-//W3C//DTD SVG 1.1//EN"
 "http://www.w3.org/Graphics/SVG/1.1/DTD/svg11.dtd">
<!-- Generated by graphviz version 2.26.3 (20100126.1600)
 -->
<!-- Title: If_Element Pages: 1 -->
<svg width="720pt" height="566pt"
 viewBox="0.00 0.00 720.00 566.09" xmlns="http://www.w3.org/2000/svg" xmlns:xlink="http://www.w3.org/1999/xlink">
<g id="graph1" class="graph" transform="scale(1 1) rotate(0) translate(4 562.094)">
<title>If_Element</title>
<polygon fill="white" stroke="white" points="-4,5 -4,-562.094 717,-562.094 717,5 -4,5"/>
<!-- Node1 -->
<g id="node1" class="node"><title>Node1</title>
<polygon fill="#bfbfbf" stroke="black" points="118,-310.594 118,-331.594 182,-331.594 182,-310.594 118,-310.594"/>
<text text-anchor="middle" x="150" y="-318.594" font-family="Helvetica,sans-Serif" font-size="10.00">If_Element</text>
</g>
<!-- Node3 -->
<g id="node5" class="node"><title>Node3</title>
<a xlink:href="classIf__Method.html" target="_top" xlink:title="Interface method. ">
<polygon fill="white" stroke="black" points="220.5,-536.594 220.5,-557.594 345.5,-557.594 345.5,-536.594 220.5,-536.594"/>
<text text-anchor="middle" x="283" y="-544.594" font-family="Helvetica,sans-Serif" font-size="10.00">If_Method&lt; ClassType &gt;</text>
</a>
</g>
<!-- Node1&#45;&gt;Node3 -->
<g id="edge4" class="edge"><title>Node1&#45;&gt;Node3</title>
<path fill="none" stroke="midnightblue" d="M153.827,-341.682C160.487,-375.115 175.854,-442.832 200,-496.094 206.77,-511.028 206.973,-517.137 220,-527.094 225.014,-530.927 230.782,-534.036 236.748,-536.555"/>
<polygon fill="midnightblue" stroke="midnightblue" points="157.237,-340.883 151.901,-331.729 150.364,-342.212 157.237,-340.883"/>
</g>
<!-- Node4 -->
<g id="node7" class="node"><title>Node4</title>
<a xlink:href="classIf__Procedure.html" target="_top" xlink:title="Interface procedure. ">
<polygon fill="white" stroke="black" points="247,-496.594 247,-517.594 319,-517.594 319,-496.594 247,-496.594"/>
<text text-anchor="middle" x="283" y="-504.594" font-family="Helvetica,sans-Serif" font-size="10.00">If_Procedure</text>
</a>
</g>
<!-- Node1&#45;&gt;Node4 -->
<g id="edge6" class="edge"><title>Node1&#45;&gt;Node4</title>
<path fill="none" stroke="midnightblue" d="M153.956,-341.962C161.718,-380.838 179.948,-462.213 200,-482.094 212.397,-494.385 230.601,-500.671 246.804,-503.869"/>
<polygon fill="midnightblue" stroke="midnightblue" points="157.321,-340.936 151.971,-331.792 150.451,-342.277 157.321,-340.936"/>
</g>
<!-- Node5 -->
<g id="node9" class="node"><title>Node5</title>
<a xlink:href="classIf__Variable.html" target="_top" xlink:title="Interface variable of abstract type VarType managing callbacks for reading and writing. ">
<polygon fill="white" stroke="black" points="224,-246.594 224,-267.594 342,-267.594 342,-246.594 224,-246.594"/>
<text text-anchor="middle" x="283" y="-254.594" font-family="Helvetica,sans-Serif" font-size="10.00">If_Variable&lt; VarType &gt;</text>
</a>
</g>
<!-- Node1&#45;&gt;Node5 -->
<g id="edge8" class="edge"><title>Node1&#45;&gt;Node5</title>
<path fill="none" stroke="midnightblue" d="M181.199,-306.081C205.713,-294.285 239.238,-278.152 261.005,-267.678"/>
<polygon fill="midnightblue" stroke="midnightblue" points="179.456,-303.036 171.962,-310.526 182.491,-309.344 179.456,-303.036"/>
</g>
<!-- Node6 -->
<g id="node11" class="node"><title>Node6</title>
<a xlink:href="classIf__Variable.html" target="_top" xlink:title="If_Variable\&lt; If_RealMat_t \&gt;">
<polygon fill="white" stroke="black" points="466.5,-430.594 466.5,-451.594 603.5,-451.594 603.5,-430.594 466.5,-430.594"/>
<text text-anchor="middle" x="535" y="-438.594" font-family="Helvetica,sans-Serif" font-size="10.00">If_Variable&lt; If_RealMat_t &gt;</text>
</a>
</g>
<!-- Node1&#45;&gt;Node6 -->
<g id="edge50" class="edge"><title>Node1&#45;&gt;Node6</title>
<path fill="none" stroke="midnightblue" d="M159.466,-340.858C170.8,-362.322 191.839,-395.959 220,-414.094 296.951,-463.648 407.303,-460.102 474.895,-451.606"/>
<polygon fill="midnightblue" stroke="midnightblue" points="162.461,-339.027 154.821,-331.687 156.216,-342.189 162.461,-339.027"/>
</g>
<!-- Node8 -->
<g id="node15" class="node"><title>Node8</title>
<a xlink:href="classIf__Variable.html" target="_top" xlink:title="If_Variable\&lt; If_Bool_t \&gt;">
<polygon fill="white" stroke="black" points="475,-366.594 475,-387.594 595,-387.594 595,-366.594 475,-366.594"/>
<text text-anchor="middle" x="535" y="-374.594" font-family="Helvetica,sans-Serif" font-size="10.00">If_Variable&lt; If_Bool_t &gt;</text>
</a>
</g>
<!-- Node1&#45;&gt;Node8 -->
<g id="edge42" class="edge"><title>Node1&#45;&gt;Node8</title>
<path fill="none" stroke="midnightblue" d="M168.71,-338.462C182.184,-350.277 201.227,-365.61 220,-376.094 279.541,-409.346 296.86,-417.131 364,-429.094 399.879,-435.487 410.822,-438.618 446,-429.094 453.73,-427.002 494.163,-402.412 517.786,-387.81"/>
<polygon fill="midnightblue" stroke="midnightblue" points="170.875,-335.703 161.092,-331.635 166.203,-340.916 170.875,-335.703"/>
</g>
<!-- Node10 -->
<g id="node19" class="node"><title>Node10</title>
<a xlink:href="classIf__Variable.html" target="_top" xlink:title="If_Variable\&lt; If_RealVec_t \&gt;">
<polygon fill="white" stroke="black" points="466,-318.594 466,-339.594 604,-339.594 604,-318.594 466,-318.594"/>
<text text-anchor="middle" x="535" y="-326.594" font-family="Helvetica,sans-Serif" font-size="10.00">If_Variable&lt; If_RealVec_t &gt;</text>
</a>
</g>
<!-- Node1&#45;&gt;Node10 -->
<g id="edge52" class="edge"><title>Node1&#45;&gt;Node10</title>
<path fill="none" stroke="midnightblue" d="M183.114,-335.483C238.411,-357.495 352.68,-394.351 446,-368.094 455.025,-365.555 455.608,-361.274 464,-357.094 477.047,-350.596 491.99,-344.513 504.792,-339.687"/>
<polygon fill="midnightblue" stroke="midnightblue" points="184.391,-332.224 173.809,-331.696 181.752,-338.708 184.391,-332.224"/>
</g>
<!-- Node12 -->
<g id="node23" class="node"><title>Node12</title>
<a xlink:href="classIf__Variable.html" target="_top" xlink:title="If_Variable\&lt; If_StdString_t \&gt;">
<polygon fill="white" stroke="black" points="464.5,-249.594 464.5,-270.594 605.5,-270.594 605.5,-249.594 464.5,-249.594"/>
<text text-anchor="middle" x="535" y="-257.594" font-family="Helvetica,sans-Serif" font-size="10.00">If_Variable&lt; If_StdString_t &gt;</text>
</a>
</g>
<!-- Node1&#45;&gt;Node12 -->
<g id="edge54" class="edge"><title>Node1&#45;&gt;Node12</title>
<path fill="none" stroke="midnightblue" d="M192.552,-324.802C250.876,-328.605 358.397,-331.015 446,-307.094 473.982,-299.454 503.097,-281.96 520.11,-270.604"/>
<polygon fill="midnightblue" stroke="midnightblue" points="192.47,-321.288 182.25,-324.081 191.981,-328.27 192.47,-321.288"/>
</g>
<!-- Node14 -->
<g id="node27" class="node"><title>Node14</title>
<a xlink:href="classIf__Variable.html" target="_top" xlink:title="If_Variable\&lt; If_String_t \&gt;">
<polygon fill="white" stroke="black" points="472,-160.594 472,-181.594 598,-181.594 598,-160.594 472,-160.594"/>
<text text-anchor="middle" x="535" y="-168.594" font-family="Helvetica,sans-Serif" font-size="10.00">If_Variable&lt; If_String_t &gt;</text>
</a>
</g>
<!-- Node1&#45;&gt;Node14 -->
<g id="edge56" class="edge"><title>Node1&#45;&gt;Node14</title>
<path fill="none" stroke="midnightblue" d="M155.689,-300.39C164.733,-271.045 185.04,-217.346 220,-185.094 270.96,-138.082 296.013,-138.692 364,-125.094 399.737,-117.947 410.587,-116.484 446,-125.094 474.055,-131.916 503.148,-149.232 520.137,-160.565"/>
<polygon fill="midnightblue" stroke="midnightblue" points="152.224,-299.768 152.767,-310.348 158.941,-301.738 152.224,-299.768"/>
</g>
<!-- Node16 -->
<g id="node31" class="node"><title>Node16</title>
<a xlink:href="classIf__Variable.html" target="_top" xlink:title="If_Variable\&lt; If_IntVec_t \&gt;">
<polygon fill="white" stroke="black" points="470.5,-206.594 470.5,-227.594 599.5,-227.594 599.5,-206.594 470.5,-206.594"/>
<text text-anchor="middle" x="535" y="-214.594" font-family="Helvetica,sans-Serif" font-size="10.00">If_Variable&lt; If_IntVec_t &gt;</text>
</a>
</g>
<!-- Node1&#45;&gt;Node16 -->
<g id="edge46" class="edge"><title>Node1&#45;&gt;Node16</title>
<path fill="none" stroke="midnightblue" d="M161.662,-301.861C174.009,-282.971 195.132,-254.523 220,-237.094 275.722,-198.041 296.974,-196.825 364,-185.094 399.899,-178.811 410.097,-178.836 446,-185.094 449.154,-185.644 481.513,-197.407 506.313,-206.512"/>
<polygon fill="midnightblue" stroke="midnightblue" points="158.573,-300.196 156.179,-310.517 164.487,-303.942 158.573,-300.196"/>
</g>
<!-- Node18 -->
<g id="node35" class="node"><title>Node18</title>
<a xlink:href="classIf__Variable.html" target="_top" xlink:title="If_Variable\&lt; If_Int_t \&gt;">
<polygon fill="white" stroke="black" points="479,-85.5943 479,-106.594 591,-106.594 591,-85.5943 479,-85.5943"/>
<text text-anchor="middle" x="535" y="-93.5943" font-family="Helvetica,sans-Serif" font-size="10.00">If_Variable&lt; If_Int_t &gt;</text>
</a>
</g>
<!-- Node1&#45;&gt;Node18 -->
<g id="edge44" class="edge"><title>Node1&#45;&gt;Node18</title>
<path fill="none" stroke="midnightblue" d="M152.198,-300.134C157.323,-261.084 173.4,-176.509 220,-125.094 290.442,-47.3746 343.336,-35.5876 446,-57.0943 471.923,-62.5247 499.524,-75.9628 516.995,-85.5442"/>
<polygon fill="midnightblue" stroke="midnightblue" points="148.696,-299.946 150.982,-310.291 155.646,-300.778 148.696,-299.946"/>
</g>
<!-- Node20 -->
<g id="node39" class="node"><title>Node20</title>
<a xlink:href="classIf__Variable.html" target="_top" xlink:title="If_Variable\&lt; If_Real_t \&gt;">
<polygon fill="white" stroke="black" points="474.5,-16.5943 474.5,-37.5943 595.5,-37.5943 595.5,-16.5943 474.5,-16.5943"/>
<text text-anchor="middle" x="535" y="-24.5943" font-family="Helvetica,sans-Serif" font-size="10.00">If_Variable&lt; If_Real_t &gt;</text>
</a>
</g>
<!-- Node1&#45;&gt;Node20 -->
<g id="edge48" class="edge"><title>Node1&#45;&gt;Node20</title>
<path fill="none" stroke="midnightblue" d="M152.133,-300.372C158.603,-241.954 180.049,-78.0501 220,-45.0943 299.757,20.6977 433.143,-0.742661 497.719,-16.5474"/>
<polygon fill="midnightblue" stroke="midnightblue" points="148.625,-300.262 151.038,-310.578 155.585,-301.009 148.625,-300.262"/>
</g>
<!-- Node2 -->
<g id="node2" class="node"><title>Node2</title>
<a xlink:href="classIf__ListElement.html" target="_top" xlink:title="Element of a twice concatenated If_List. ">
<polygon fill="white" stroke="black" points="0,-310.594 0,-331.594 80,-331.594 80,-310.594 0,-310.594"/>
<text text-anchor="middle" x="40" y="-318.594" font-family="Helvetica,sans-Serif" font-size="10.00">If_ListElement</text>
</a>
</g>
<!-- Node2&#45;&gt;Node1 -->
<g id="edge2" class="edge"><title>Node2&#45;&gt;Node1</title>
<path fill="none" stroke="midnightblue" d="M90.0924,-321.094C99.4895,-321.094 109.079,-321.094 117.752,-321.094"/>
<polygon fill="midnightblue" stroke="midnightblue" points="90.0237,-317.594 80.0237,-321.094 90.0237,-324.594 90.0237,-317.594"/>
</g>
<!-- Node5&#45;&gt;Node6 -->
<g id="edge10" class="edge"><title>Node5&#45;&gt;Node6</title>
<path fill="none" stroke="orange" stroke-dasharray="5,2" d="M292.942,-276.947C306.153,-301.553 331.639,-343.372 364,-369.094 402.707,-399.861 456.476,-419.618 493.328,-430.506"/>
<polygon fill="orange" stroke="orange" points="295.922,-275.093 288.195,-267.845 289.716,-278.33 295.922,-275.093"/>
<text text-anchor="middle" x="405" y="-416.094" font-family="Helvetica,sans-Serif" font-size="10.00"> &lt; If_RealMat_t &gt;</text>
</g>
<!-- Node5&#45;&gt;Node8 -->
<g id="edge14" class="edge"><title>Node5&#45;&gt;Node8</title>
<path fill="none" stroke="orange" stroke-dasharray="5,2" d="M302.117,-274.63C317.793,-288.263 341.062,-306.855 364,-319.094 404.933,-340.936 455.691,-356.908 491.232,-366.498"/>
<polygon fill="orange" stroke="orange" points="304.042,-271.658 294.24,-267.638 299.396,-276.894 304.042,-271.658"/>
<text text-anchor="middle" x="405" y="-356.094" font-family="Helvetica,sans-Serif" font-size="10.00"> &lt; If_Bool_t &gt;</text>
</g>
<!-- Node5&#45;&gt;Node10 -->
<g id="edge18" class="edge"><title>Node5&#45;&gt;Node10</title>
<path fill="none" stroke="orange" stroke-dasharray="5,2" d="M329.555,-270.396C378.128,-284.274 453.307,-305.753 497.988,-318.52"/>
<polygon fill="orange" stroke="orange" points="330.49,-267.023 319.913,-267.641 328.567,-273.753 330.49,-267.023"/>
<text text-anchor="middle" x="405" y="-306.094" font-family="Helvetica,sans-Serif" font-size="10.00"> &lt; If_RealVec_t &gt;</text>
</g>
<!-- Node5&#45;&gt;Node12 -->
<g id="edge22" class="edge"><title>Node5&#45;&gt;Node12</title>
<path fill="none" stroke="orange" stroke-dasharray="5,2" d="M352.255,-257.27C381.226,-257.408 415.246,-257.654 446,-258.094 451.872,-258.178 457.962,-258.281 464.076,-258.396"/>
<polygon fill="orange" stroke="orange" points="352.248,-253.77 342.232,-257.225 352.217,-260.77 352.248,-253.77"/>
<text text-anchor="middle" x="405" y="-262.094" font-family="Helvetica,sans-Serif" font-size="10.00"> &lt; If_StdString_t &gt;</text>
</g>
<!-- Node5&#45;&gt;Node14 -->
<g id="edge26" class="edge"><title>Node5&#45;&gt;Node14</title>
<path fill="none" stroke="orange" stroke-dasharray="5,2" d="M307.646,-241.087C323.27,-231.534 344.2,-219.802 364,-212.094 399.277,-198.362 440.5,-188.314 473.631,-181.602"/>
<polygon fill="orange" stroke="orange" points="305.741,-238.151 299.109,-246.413 309.446,-244.09 305.741,-238.151"/>
<text text-anchor="middle" x="405" y="-216.094" font-family="Helvetica,sans-Serif" font-size="10.00"> &lt; If_String_t &gt;</text>
</g>
<!-- Node5&#45;&gt;Node16 -->
<g id="edge30" class="edge"><title>Node5&#45;&gt;Node16</title>
<path fill="none" stroke="orange" stroke-dasharray="5,2" d="M343.81,-244.704C350.612,-243.431 357.447,-242.2 364,-241.094 399.029,-235.181 438.268,-229.6 470.315,-225.31"/>
<polygon fill="orange" stroke="orange" points="343.076,-241.281 333.907,-246.59 344.386,-248.157 343.076,-241.281"/>
<text text-anchor="middle" x="405" y="-245.094" font-family="Helvetica,sans-Serif" font-size="10.00"> &lt; If_IntVec_t &gt;</text>
</g>
<!-- Node5&#45;&gt;Node18 -->
<g id="edge34" class="edge"><title>Node5&#45;&gt;Node18</title>
<path fill="none" stroke="orange" stroke-dasharray="5,2" d="M297.222,-238.326C312.186,-219.591 337.244,-190.948 364,-172.094 407.552,-141.404 465.482,-118.845 501.494,-106.595"/>
<polygon fill="orange" stroke="orange" points="294.308,-236.369 290.905,-246.403 299.822,-240.682 294.308,-236.369"/>
<text text-anchor="middle" x="405" y="-176.094" font-family="Helvetica,sans-Serif" font-size="10.00"> &lt; If_Int_t &gt;</text>
</g>
<!-- Node5&#45;&gt;Node20 -->
<g id="edge38" class="edge"><title>Node5&#45;&gt;Node20</title>
<path fill="none" stroke="orange" stroke-dasharray="5,2" d="M289.944,-236.62C301.209,-206.052 326.094,-148.218 364,-112.094 403.36,-74.5846 462.468,-50.2502 499.869,-37.6042"/>
<polygon fill="orange" stroke="orange" points="286.585,-235.621 286.529,-246.215 293.18,-237.968 286.585,-235.621"/>
<text text-anchor="middle" x="405" y="-116.094" font-family="Helvetica,sans-Serif" font-size="10.00"> &lt; If_Real_t &gt;</text>
</g>
<!-- Node7 -->
<g id="node13" class="node"><title>Node7</title>
<a xlink:href="classIf__RealMat.html" target="_top" xlink:title="Interface variable of real matrix type. ">
<polygon fill="white" stroke="black" points="645.5,-430.594 645.5,-451.594 710.5,-451.594 710.5,-430.594 645.5,-430.594"/>
<text text-anchor="middle" x="678" y="-438.594" font-family="Helvetica,sans-Serif" font-size="10.00">If_RealMat</text>
</a>
</g>
<!-- Node6&#45;&gt;Node7 -->
<g id="edge12" class="edge"><title>Node6&#45;&gt;Node7</title>
<path fill="none" stroke="midnightblue" d="M613.845,-441.094C624.996,-441.094 635.907,-441.094 645.476,-441.094"/>
<polygon fill="midnightblue" stroke="midnightblue" points="613.568,-437.594 603.568,-441.094 613.568,-444.594 613.568,-437.594"/>
</g>
<!-- Node9 -->
<g id="node17" class="node"><title>Node9</title>
<a xlink:href="classIf__Bool.html" target="_top" xlink:title="Interface variable of boolean type. ">
<polygon fill="white" stroke="black" points="654.5,-366.594 654.5,-387.594 701.5,-387.594 701.5,-366.594 654.5,-366.594"/>
<text text-anchor="middle" x="678" y="-374.594" font-family="Helvetica,sans-Serif" font-size="10.00">If_Bool</text>
</a>
</g>
<!-- Node8&#45;&gt;Node9 -->
<g id="edge16" class="edge"><title>Node8&#45;&gt;Node9</title>
<path fill="none" stroke="midnightblue" d="M605.522,-377.094C623.071,-377.094 640.699,-377.094 654.176,-377.094"/>
<polygon fill="midnightblue" stroke="midnightblue" points="605.23,-373.594 595.23,-377.094 605.23,-380.594 605.23,-373.594"/>
</g>
<!-- Node11 -->
<g id="node21" class="node"><title>Node11</title>
<a xlink:href="classIf__RealVec.html" target="_top" xlink:title="Interface variable of real vector type. ">
<polygon fill="white" stroke="black" points="645.5,-318.594 645.5,-339.594 710.5,-339.594 710.5,-318.594 645.5,-318.594"/>
<text text-anchor="middle" x="678" y="-326.594" font-family="Helvetica,sans-Serif" font-size="10.00">If_RealVec</text>
</a>
</g>
<!-- Node10&#45;&gt;Node11 -->
<g id="edge20" class="edge"><title>Node10&#45;&gt;Node11</title>
<path fill="none" stroke="midnightblue" d="M614.734,-329.094C625.459,-329.094 635.934,-329.094 645.176,-329.094"/>
<polygon fill="midnightblue" stroke="midnightblue" points="614.406,-325.594 604.406,-329.094 614.406,-332.594 614.406,-325.594"/>
</g>
<!-- Node13 -->
<g id="node25" class="node"><title>Node13</title>
<a xlink:href="classIf__StdString.html" target="_top" xlink:title="Interface variable of standard string type. ">
<polygon fill="white" stroke="black" points="644,-249.594 644,-270.594 712,-270.594 712,-249.594 644,-249.594"/>
<text text-anchor="middle" x="678" y="-257.594" font-family="Helvetica,sans-Serif" font-size="10.00">If_StdString</text>
</a>
</g>
<!-- Node12&#45;&gt;Node13 -->
<g id="edge24" class="edge"><title>Node12&#45;&gt;Node13</title>
<path fill="none" stroke="midnightblue" d="M615.87,-260.094C625.614,-260.094 635.121,-260.094 643.651,-260.094"/>
<polygon fill="midnightblue" stroke="midnightblue" points="615.662,-256.594 605.662,-260.094 615.662,-263.594 615.662,-256.594"/>
</g>
<!-- Node15 -->
<g id="node29" class="node"><title>Node15</title>
<a xlink:href="classIf__String.html" target="_top" xlink:title="Interface variable of C string type. ">
<polygon fill="white" stroke="black" points="651.5,-160.594 651.5,-181.594 704.5,-181.594 704.5,-160.594 651.5,-160.594"/>
<text text-anchor="middle" x="678" y="-168.594" font-family="Helvetica,sans-Serif" font-size="10.00">If_String</text>
</a>
</g>
<!-- Node14&#45;&gt;Node15 -->
<g id="edge28" class="edge"><title>Node14&#45;&gt;Node15</title>
<path fill="none" stroke="midnightblue" d="M608.266,-171.094C623.7,-171.094 639.024,-171.094 651.36,-171.094"/>
<polygon fill="midnightblue" stroke="midnightblue" points="608.138,-167.594 598.138,-171.094 608.138,-174.594 608.138,-167.594"/>
</g>
<!-- Node17 -->
<g id="node33" class="node"><title>Node17</title>
<a xlink:href="classIf__IntVec.html" target="_top" xlink:title="Interface variable of integer vector type. ">
<polygon fill="white" stroke="black" points="650,-206.594 650,-227.594 706,-227.594 706,-206.594 650,-206.594"/>
<text text-anchor="middle" x="678" y="-214.594" font-family="Helvetica,sans-Serif" font-size="10.00">If_IntVec</text>
</a>
</g>
<!-- Node16&#45;&gt;Node17 -->
<g id="edge32" class="edge"><title>Node16&#45;&gt;Node17</title>
<path fill="none" stroke="midnightblue" d="M610.141,-217.094C624.333,-217.094 638.333,-217.094 649.897,-217.094"/>
<polygon fill="midnightblue" stroke="midnightblue" points="609.806,-213.594 599.806,-217.094 609.806,-220.594 609.806,-213.594"/>
</g>
<!-- Node19 -->
<g id="node37" class="node"><title>Node19</title>
<a xlink:href="classIf__Int.html" target="_top" xlink:title="Interface variable of integer type. ">
<polygon fill="white" stroke="black" points="658.5,-85.5943 658.5,-106.594 697.5,-106.594 697.5,-85.5943 658.5,-85.5943"/>
<text text-anchor="middle" x="678" y="-93.5943" font-family="Helvetica,sans-Serif" font-size="10.00">If_Int</text>
</a>
</g>
<!-- Node18&#45;&gt;Node19 -->
<g id="edge36" class="edge"><title>Node18&#45;&gt;Node19</title>
<path fill="none" stroke="midnightblue" d="M601.252,-96.0943C622.08,-96.0943 643.505,-96.0943 658.407,-96.0943"/>
<polygon fill="midnightblue" stroke="midnightblue" points="601.107,-92.5944 591.107,-96.0943 601.107,-99.5944 601.107,-92.5944"/>
</g>
<!-- Node21 -->
<g id="node41" class="node"><title>Node21</title>
<a xlink:href="classIf__Real.html" target="_top" xlink:title="Interface variable of real type. ">
<polygon fill="white" stroke="black" points="654,-16.5943 654,-37.5943 702,-37.5943 702,-16.5943 654,-16.5943"/>
<text text-anchor="middle" x="678" y="-24.5943" font-family="Helvetica,sans-Serif" font-size="10.00">If_Real</text>
</a>
</g>
<!-- Node20&#45;&gt;Node21 -->
<g id="edge40" class="edge"><title>Node20&#45;&gt;Node21</title>
<path fill="none" stroke="midnightblue" d="M605.829,-27.0943C623.188,-27.0943 640.6,-27.0943 653.972,-27.0943"/>
<polygon fill="midnightblue" stroke="midnightblue" points="605.645,-23.5944 595.645,-27.0943 605.645,-30.5944 605.645,-23.5944"/>
</g>
</g>
</svg>
