<?xml version="1.0" encoding="UTF-8" standalone="no"?>
<!DOCTYPE svg PUBLIC "-//W3C//DTD SVG 1.1//EN"
 "http://www.w3.org/Graphics/SVG/1.1/DTD/svg11.dtd">
<!-- Generated by graphviz version 2.26.3 (20100126.1600)
 -->
<!-- Title: If_RealVec Pages: 1 -->
<svg width="193pt" height="282pt"
 viewBox="0.00 0.00 193.00 282.00" xmlns="http://www.w3.org/2000/svg" xmlns:xlink="http://www.w3.org/1999/xlink">
<g id="graph1" class="graph" transform="scale(1 1) rotate(0) translate(4 278)">
<title>If_RealVec</title>
<polygon fill="white" stroke="white" points="-4,5 -4,-278 190,-278 190,5 -4,5"/>
<!-- Node1 -->
<g id="node1" class="node"><title>Node1</title>
<polygon fill="#bfbfbf" stroke="black" points="36.5,-0.5 36.5,-21.5 101.5,-21.5 101.5,-0.5 36.5,-0.5"/>
<text text-anchor="middle" x="69" y="-8.5" font-family="Helvetica,sans-Serif" font-size="10.00">If_RealVec</text>
</g>
<!-- Node2 -->
<g id="node2" class="node"><title>Node2</title>
<a xlink:href="classIf__Variable.html" target="_top" xlink:title="If_Variable\&lt; If_RealVec_t \&gt;">
<polygon fill="white" stroke="black" points="0,-60.5 0,-81.5 138,-81.5 138,-60.5 0,-60.5"/>
<text text-anchor="middle" x="69" y="-68.5" font-family="Helvetica,sans-Serif" font-size="10.00">If_Variable&lt; If_RealVec_t &gt;</text>
</a>
</g>
<!-- Node2&#45;&gt;Node1 -->
<g id="edge2" class="edge"><title>Node2&#45;&gt;Node1</title>
<path fill="none" stroke="midnightblue" d="M69,-50.2312C69,-40.5922 69,-29.5444 69,-21.6339"/>
<polygon fill="midnightblue" stroke="midnightblue" points="65.5001,-50.2732 69,-60.2732 72.5001,-50.2732 65.5001,-50.2732"/>
</g>
<!-- Node3 -->
<g id="node4" class="node"><title>Node3</title>
<a xlink:href="classIf__Element.html" target="_top" xlink:title="Abstract base class for interface elements to Tcl, like variables and procedures. ...">
<polygon fill="white" stroke="black" points="19,-192.5 19,-213.5 83,-213.5 83,-192.5 19,-192.5"/>
<text text-anchor="middle" x="51" y="-200.5" font-family="Helvetica,sans-Serif" font-size="10.00">If_Element</text>
</a>
</g>
<!-- Node3&#45;&gt;Node2 -->
<g id="edge4" class="edge"><title>Node3&#45;&gt;Node2</title>
<path fill="none" stroke="midnightblue" d="M52.6067,-182.225C53.8118,-168.042 55.6549,-148.843 58,-132 60.4634,-114.307 64.3573,-93.9111 66.7907,-81.7567"/>
<polygon fill="midnightblue" stroke="midnightblue" points="49.1028,-182.132 51.7797,-192.383 56.0797,-182.7 49.1028,-182.132"/>
</g>
<!-- Node5 -->
<g id="node8" class="node"><title>Node5</title>
<a xlink:href="classIf__Variable.html" target="_top" xlink:title="Interface variable of abstract type VarType managing callbacks for reading and writing. ">
<polygon fill="white" stroke="black" points="67,-132.5 67,-153.5 185,-153.5 185,-132.5 67,-132.5"/>
<text text-anchor="middle" x="126" y="-140.5" font-family="Helvetica,sans-Serif" font-size="10.00">If_Variable&lt; VarType &gt;</text>
</a>
</g>
<!-- Node3&#45;&gt;Node5 -->
<g id="edge10" class="edge"><title>Node3&#45;&gt;Node5</title>
<path fill="none" stroke="midnightblue" d="M72.397,-185.882C85.3807,-175.495 101.544,-162.565 112.708,-153.634"/>
<polygon fill="midnightblue" stroke="midnightblue" points="70.0308,-183.293 64.4085,-192.273 74.4037,-188.759 70.0308,-183.293"/>
</g>
<!-- Node4 -->
<g id="node6" class="node"><title>Node4</title>
<a xlink:href="classIf__ListElement.html" target="_top" xlink:title="Element of a twice concatenated If_List. ">
<polygon fill="white" stroke="black" points="11,-252.5 11,-273.5 91,-273.5 91,-252.5 11,-252.5"/>
<text text-anchor="middle" x="51" y="-260.5" font-family="Helvetica,sans-Serif" font-size="10.00">If_ListElement</text>
</a>
</g>
<!-- Node4&#45;&gt;Node3 -->
<g id="edge6" class="edge"><title>Node4&#45;&gt;Node3</title>
<path fill="none" stroke="midnightblue" d="M51,-242.231C51,-232.592 51,-221.544 51,-213.634"/>
<polygon fill="midnightblue" stroke="midnightblue" points="47.5001,-242.273 51,-252.273 54.5001,-242.273 47.5001,-242.273"/>
</g>
<!-- Node5&#45;&gt;Node2 -->
<g id="edge8" class="edge"><title>Node5&#45;&gt;Node2</title>
<path fill="none" stroke="orange" stroke-dasharray="5,2" d="M111.115,-124.198C100.389,-110.649 86.299,-92.8514 77.4451,-81.6674"/>
<polygon fill="orange" stroke="orange" points="108.638,-126.708 117.589,-132.376 114.127,-122.363 108.638,-126.708"/>
<text text-anchor="middle" x="141.5" y="-104.5" font-family="Helvetica,sans-Serif" font-size="10.00"> &lt; If_RealVec_t &gt;</text>
</g>
</g>
</svg>
