<?xml version="1.0" encoding="UTF-8" standalone="no"?>
<!DOCTYPE svg PUBLIC "-//W3C//DTD SVG 1.1//EN"
 "http://www.w3.org/Graphics/SVG/1.1/DTD/svg11.dtd">
<!-- Generated by graphviz version 2.26.3 (20100126.1600)
 -->
<!-- Title: Omu_Integrator Pages: 1 -->
<svg width="582pt" height="146pt"
 viewBox="0.00 0.00 582.00 146.00" xmlns="http://www.w3.org/2000/svg" xmlns:xlink="http://www.w3.org/1999/xlink">
<g id="graph1" class="graph" transform="scale(1 1) rotate(0) translate(4 142)">
<title>Omu_Integrator</title>
<polygon fill="white" stroke="white" points="-4,5 -4,-142 579,-142 579,5 -4,5"/>
<!-- Node1 -->
<g id="node1" class="node"><title>Node1</title>
<polygon fill="#bfbfbf" stroke="black" points="244,-116.5 244,-137.5 328,-137.5 328,-116.5 244,-116.5"/>
<text text-anchor="middle" x="286" y="-124.5" font-family="Helvetica,sans-Serif" font-size="10.00">Omu_Integrator</text>
</g>
<!-- Node2 -->
<g id="node3" class="node"><title>Node2</title>
<a xlink:href="classOmu__IntDASPK.html" target="_top" xlink:title="Solve differential&#45;algebraic equation system using DASPK. ">
<polygon fill="white" stroke="black" points="-0.5,-58.5 -0.5,-79.5 88.5,-79.5 88.5,-58.5 -0.5,-58.5"/>
<text text-anchor="middle" x="44" y="-66.5" font-family="Helvetica,sans-Serif" font-size="10.00">Omu_IntDASPK</text>
</a>
</g>
<!-- Node1&#45;&gt;Node2 -->
<g id="edge2" class="edge"><title>Node1&#45;&gt;Node2</title>
<path fill="none" stroke="midnightblue" d="M234.032,-114.545C190.565,-104.127 129.237,-89.4287 88.1227,-79.5749"/>
<polygon fill="midnightblue" stroke="midnightblue" points="233.306,-117.97 243.847,-116.897 234.938,-111.163 233.306,-117.97"/>
</g>
<!-- Node3 -->
<g id="node5" class="node"><title>Node3</title>
<a xlink:href="classOmu__IntGRK4.html" target="_top" xlink:title="Integrator for (stiff) ordinary differential equations (ODEs). ">
<polygon fill="white" stroke="black" points="105.5,-58.5 105.5,-79.5 186.5,-79.5 186.5,-58.5 105.5,-58.5"/>
<text text-anchor="middle" x="146" y="-66.5" font-family="Helvetica,sans-Serif" font-size="10.00">Omu_IntGRK4</text>
</a>
</g>
<!-- Node1&#45;&gt;Node3 -->
<g id="edge4" class="edge"><title>Node1&#45;&gt;Node3</title>
<path fill="none" stroke="midnightblue" d="M251.278,-112.615C226.594,-102.389 193.985,-88.8796 171.637,-79.6212"/>
<polygon fill="midnightblue" stroke="midnightblue" points="250.069,-115.903 260.647,-116.497 252.748,-109.436 250.069,-115.903"/>
</g>
<!-- Node4 -->
<g id="node7" class="node"><title>Node4</title>
<a xlink:href="classOmu__IntIMP.html" target="_top" xlink:title="Integrator for (stiff) ordinary differential equations (ODEs). ">
<polygon fill="white" stroke="black" points="204,-58.5 204,-79.5 276,-79.5 276,-58.5 204,-58.5"/>
<text text-anchor="middle" x="240" y="-66.5" font-family="Helvetica,sans-Serif" font-size="10.00">Omu_IntIMP</text>
</a>
</g>
<!-- Node1&#45;&gt;Node4 -->
<g id="edge6" class="edge"><title>Node1&#45;&gt;Node4</title>
<path fill="none" stroke="midnightblue" d="M271.13,-108.25C263.595,-98.75 254.724,-87.5651 248.384,-79.5707"/>
<polygon fill="midnightblue" stroke="midnightblue" points="268.607,-110.702 277.563,-116.362 274.091,-106.352 268.607,-110.702"/>
</g>
<!-- Node5 -->
<g id="node9" class="node"><title>Node5</title>
<a xlink:href="classOmu__IntODE.html" target="_top" xlink:title="Interface for standard solvers for Ordinary Differential Equations (ODE) hiding details of sensitivit...">
<polygon fill="white" stroke="black" points="294,-58.5 294,-79.5 370,-79.5 370,-58.5 294,-58.5"/>
<text text-anchor="middle" x="332" y="-66.5" font-family="Helvetica,sans-Serif" font-size="10.00">Omu_IntODE</text>
</a>
</g>
<!-- Node1&#45;&gt;Node5 -->
<g id="edge8" class="edge"><title>Node1&#45;&gt;Node5</title>
<path fill="none" stroke="midnightblue" d="M300.87,-108.25C308.405,-98.75 317.276,-87.5651 323.616,-79.5707"/>
<polygon fill="midnightblue" stroke="midnightblue" points="297.909,-106.352 294.437,-116.362 303.393,-110.702 297.909,-106.352"/>
</g>
<!-- Node9 -->
<g id="node17" class="node"><title>Node9</title>
<a xlink:href="classOmu__IntOdeTs.html" target="_top" xlink:title="Solving autonomous ordinary differential equations using Taylor series expansion. ...">
<polygon fill="white" stroke="black" points="387.5,-58.5 387.5,-79.5 470.5,-79.5 470.5,-58.5 387.5,-58.5"/>
<text text-anchor="middle" x="429" y="-66.5" font-family="Helvetica,sans-Serif" font-size="10.00">Omu_IntOdeTs</text>
</a>
</g>
<!-- Node1&#45;&gt;Node9 -->
<g id="edge16" class="edge"><title>Node1&#45;&gt;Node9</title>
<path fill="none" stroke="midnightblue" d="M321.466,-112.615C346.679,-102.389 379.987,-88.8796 402.813,-79.6212"/>
<polygon fill="midnightblue" stroke="midnightblue" points="319.847,-109.495 311.896,-116.497 322.479,-115.981 319.847,-109.495"/>
</g>
<!-- Node10 -->
<g id="node19" class="node"><title>Node10</title>
<a xlink:href="classOmu__IntSDIRK.html" target="_top" xlink:title="Singly diagonally implizit Runge Kutta method for (stiff) ordinary differential equations (ODEs)...">
<polygon fill="white" stroke="black" points="488,-58.5 488,-79.5 574,-79.5 574,-58.5 488,-58.5"/>
<text text-anchor="middle" x="531" y="-66.5" font-family="Helvetica,sans-Serif" font-size="10.00">Omu_IntSDIRK</text>
</a>
</g>
<!-- Node1&#45;&gt;Node10 -->
<g id="edge18" class="edge"><title>Node1&#45;&gt;Node10</title>
<path fill="none" stroke="midnightblue" d="M337.885,-114.717C382.446,-104.168 445.939,-89.1369 487.787,-79.23"/>
<polygon fill="midnightblue" stroke="midnightblue" points="337.042,-111.32 328.117,-117.029 338.654,-118.132 337.042,-111.32"/>
</g>
<!-- Node6 -->
<g id="node11" class="node"><title>Node6</title>
<a xlink:href="classOmu__IntEuler.html" target="_top" xlink:title="Explicit, fixed step size integrator implementing the Euler algorithm. ">
<polygon fill="white" stroke="black" points="200.5,-0.5 200.5,-21.5 277.5,-21.5 277.5,-0.5 200.5,-0.5"/>
<text text-anchor="middle" x="239" y="-8.5" font-family="Helvetica,sans-Serif" font-size="10.00">Omu_IntEuler</text>
</a>
</g>
<!-- Node5&#45;&gt;Node6 -->
<g id="edge10" class="edge"><title>Node5&#45;&gt;Node6</title>
<path fill="none" stroke="midnightblue" d="M306.059,-52.8215C290.04,-42.8312 269.945,-30.2993 255.949,-21.5707"/>
<polygon fill="midnightblue" stroke="midnightblue" points="304.605,-56.0399 314.942,-58.3619 308.309,-50.1003 304.605,-56.0399"/>
</g>
<!-- Node7 -->
<g id="node13" class="node"><title>Node7</title>
<a xlink:href="classOmu__IntRK4.html" target="_top" xlink:title="Explicit, fixed step size integrator implementing a Runge Kutta algorithm of 4th order. ">
<polygon fill="white" stroke="black" points="295,-0.5 295,-21.5 369,-21.5 369,-0.5 295,-0.5"/>
<text text-anchor="middle" x="332" y="-8.5" font-family="Helvetica,sans-Serif" font-size="10.00">Omu_IntRK4</text>
</a>
</g>
<!-- Node5&#45;&gt;Node7 -->
<g id="edge12" class="edge"><title>Node5&#45;&gt;Node7</title>
<path fill="none" stroke="midnightblue" d="M332,-48.1906C332,-39.1684 332,-28.9941 332,-21.5707"/>
<polygon fill="midnightblue" stroke="midnightblue" points="328.5,-48.3619 332,-58.3619 335.5,-48.3619 328.5,-48.3619"/>
</g>
<!-- Node8 -->
<g id="node15" class="node"><title>Node8</title>
<a xlink:href="classOmu__IntRKsuite.html" target="_top" xlink:title="Solve ordinary differential equations using RKsuite. ">
<polygon fill="white" stroke="black" points="386.5,-0.5 386.5,-21.5 475.5,-21.5 475.5,-0.5 386.5,-0.5"/>
<text text-anchor="middle" x="431" y="-8.5" font-family="Helvetica,sans-Serif" font-size="10.00">Omu_IntRKsuite</text>
</a>
</g>
<!-- Node5&#45;&gt;Node8 -->
<g id="edge14" class="edge"><title>Node5&#45;&gt;Node8</title>
<path fill="none" stroke="midnightblue" d="M359.138,-53.1009C376.267,-43.0658 397.919,-30.3808 412.957,-21.5707"/>
<polygon fill="midnightblue" stroke="midnightblue" points="357.017,-50.287 350.158,-58.3619 360.556,-56.3268 357.017,-50.287"/>
</g>
</g>
</svg>
