<?xml version="1.0" encoding="UTF-8" standalone="no"?>
<!DOCTYPE svg PUBLIC "-//W3C//DTD SVG 1.1//EN"
 "http://www.w3.org/Graphics/SVG/1.1/DTD/svg11.dtd">
<!-- Generated by graphviz version 2.26.3 (20100126.1600)
 -->
<!-- Title: Mesch::VECP Pages: 1 -->
<svg width="415pt" height="262pt"
 viewBox="0.00 0.00 415.00 262.00" xmlns="http://www.w3.org/2000/svg" xmlns:xlink="http://www.w3.org/1999/xlink">
<g id="graph1" class="graph" transform="scale(1 1) rotate(0) translate(4 258)">
<title>Mesch::VECP</title>
<polygon fill="white" stroke="white" points="-4,5 -4,-258 412,-258 412,5 -4,5"/>
<!-- Node1 -->
<g id="node1" class="node"><title>Node1</title>
<polygon fill="#bfbfbf" stroke="black" points="81,-232.5 81,-253.5 161,-253.5 161,-232.5 81,-232.5"/>
<text text-anchor="middle" x="121" y="-240.5" font-family="Helvetica,sans-Serif" font-size="10.00">Mesch::VECP</text>
</g>
<!-- Node2 -->
<g id="node3" class="node"><title>Node2</title>
<a xlink:href="classOmu__Gradient.html" target="_top" xlink:title="Vector extended with structural information for a gradient. ">
<polygon fill="white" stroke="black" points="37,-174.5 37,-195.5 117,-195.5 117,-174.5 37,-174.5"/>
<text text-anchor="middle" x="77" y="-182.5" font-family="Helvetica,sans-Serif" font-size="10.00">Omu_Gradient</text>
</a>
</g>
<!-- Node1&#45;&gt;Node2 -->
<g id="edge2" class="edge"><title>Node1&#45;&gt;Node2</title>
<path fill="none" stroke="midnightblue" d="M106.776,-224.25C99.5689,-214.75 91.0839,-203.565 85.0191,-195.571"/>
<polygon fill="midnightblue" stroke="midnightblue" points="104.097,-226.51 112.93,-232.362 109.674,-222.28 104.097,-226.51"/>
</g>
<!-- Node3 -->
<g id="node5" class="node"><title>Node3</title>
<a xlink:href="classOmu__Vec.html" target="_top" xlink:title="Avoid multiple inclusion. ">
<polygon fill="white" stroke="black" points="135,-174.5 135,-195.5 195,-195.5 195,-174.5 135,-174.5"/>
<text text-anchor="middle" x="165" y="-182.5" font-family="Helvetica,sans-Serif" font-size="10.00">Omu_Vec</text>
</a>
</g>
<!-- Node1&#45;&gt;Node3 -->
<g id="edge4" class="edge"><title>Node1&#45;&gt;Node3</title>
<path fill="none" stroke="midnightblue" d="M135.224,-224.25C142.431,-214.75 150.916,-203.565 156.981,-195.571"/>
<polygon fill="midnightblue" stroke="midnightblue" points="132.326,-222.28 129.07,-232.362 137.903,-226.51 132.326,-222.28"/>
</g>
<!-- Node4 -->
<g id="node7" class="node"><title>Node4</title>
<a xlink:href="classOmu__DependentVec.html" target="_top" xlink:title="Vector of dependent variables. ">
<polygon fill="white" stroke="black" points="-0.5,-116.5 -0.5,-137.5 106.5,-137.5 106.5,-116.5 -0.5,-116.5"/>
<text text-anchor="middle" x="53" y="-124.5" font-family="Helvetica,sans-Serif" font-size="10.00">Omu_DependentVec</text>
</a>
</g>
<!-- Node3&#45;&gt;Node4 -->
<g id="edge6" class="edge"><title>Node3&#45;&gt;Node4</title>
<path fill="none" stroke="midnightblue" d="M135.637,-169.794C116.096,-159.675 90.9135,-146.634 73.5099,-137.621"/>
<polygon fill="midnightblue" stroke="midnightblue" points="134.228,-173.006 144.718,-174.497 137.447,-166.79 134.228,-173.006"/>
</g>
<!-- Node6 -->
<g id="node11" class="node"><title>Node6</title>
<a xlink:href="classOmu__StateVec.html" target="_top" xlink:title="Vector of state variables, including sensitivity matrices Sx, Su and Sq that hold sensitivities wrt i...">
<polygon fill="white" stroke="black" points="123.5,-116.5 123.5,-137.5 206.5,-137.5 206.5,-116.5 123.5,-116.5"/>
<text text-anchor="middle" x="165" y="-124.5" font-family="Helvetica,sans-Serif" font-size="10.00">Omu_StateVec</text>
</a>
</g>
<!-- Node3&#45;&gt;Node6 -->
<g id="edge10" class="edge"><title>Node3&#45;&gt;Node6</title>
<path fill="none" stroke="midnightblue" d="M165,-164.191C165,-155.168 165,-144.994 165,-137.571"/>
<polygon fill="midnightblue" stroke="midnightblue" points="161.5,-164.362 165,-174.362 168.5,-164.362 161.5,-164.362"/>
</g>
<!-- Node8 -->
<g id="node15" class="node"><title>Node8</title>
<a xlink:href="classOmu__VariableVec.html" target="_top" xlink:title="Vector of optimization variables, including min, max and initial attributes. ">
<polygon fill="white" stroke="black" points="223.5,-116.5 223.5,-137.5 318.5,-137.5 318.5,-116.5 223.5,-116.5"/>
<text text-anchor="middle" x="271" y="-124.5" font-family="Helvetica,sans-Serif" font-size="10.00">Omu_VariableVec</text>
</a>
</g>
<!-- Node3&#45;&gt;Node8 -->
<g id="edge14" class="edge"><title>Node3&#45;&gt;Node8</title>
<path fill="none" stroke="midnightblue" d="M193.296,-169.517C211.752,-159.419 235.356,-146.503 251.681,-137.571"/>
<polygon fill="midnightblue" stroke="midnightblue" points="191.535,-166.491 184.442,-174.362 194.895,-172.632 191.535,-166.491"/>
</g>
<!-- Node5 -->
<g id="node9" class="node"><title>Node5</title>
<a xlink:href="classOmu__DepVec.html" target="_top" xlink:title="Internally used vector of dependent variables. ">
<polygon fill="white" stroke="black" points="14,-58.5 14,-79.5 92,-79.5 92,-58.5 14,-58.5"/>
<text text-anchor="middle" x="53" y="-66.5" font-family="Helvetica,sans-Serif" font-size="10.00">Omu_DepVec</text>
</a>
</g>
<!-- Node4&#45;&gt;Node5 -->
<g id="edge8" class="edge"><title>Node4&#45;&gt;Node5</title>
<path fill="none" stroke="midnightblue" d="M53,-106.191C53,-97.1684 53,-86.9941 53,-79.5707"/>
<polygon fill="midnightblue" stroke="midnightblue" points="49.5001,-106.362 53,-116.362 56.5001,-106.362 49.5001,-106.362"/>
</g>
<!-- Node7 -->
<g id="node13" class="node"><title>Node7</title>
<a xlink:href="classOmu__SVec.html" target="_top" xlink:title="Internally used vector of state variables. ">
<polygon fill="white" stroke="black" points="131.5,-58.5 131.5,-79.5 198.5,-79.5 198.5,-58.5 131.5,-58.5"/>
<text text-anchor="middle" x="165" y="-66.5" font-family="Helvetica,sans-Serif" font-size="10.00">Omu_SVec</text>
</a>
</g>
<!-- Node6&#45;&gt;Node7 -->
<g id="edge12" class="edge"><title>Node6&#45;&gt;Node7</title>
<path fill="none" stroke="midnightblue" d="M165,-106.191C165,-97.1684 165,-86.9941 165,-79.5707"/>
<polygon fill="midnightblue" stroke="midnightblue" points="161.5,-106.362 165,-116.362 168.5,-106.362 161.5,-106.362"/>
</g>
<!-- Node9 -->
<g id="node17" class="node"><title>Node9</title>
<a xlink:href="classOmu__OptVarVec.html" target="_top" xlink:title="Extend Omu_VariableVec with attributes for optimization criterion. ">
<polygon fill="white" stroke="black" points="220.5,-58.5 220.5,-79.5 311.5,-79.5 311.5,-58.5 220.5,-58.5"/>
<text text-anchor="middle" x="266" y="-66.5" font-family="Helvetica,sans-Serif" font-size="10.00">Omu_OptVarVec</text>
</a>
</g>
<!-- Node8&#45;&gt;Node9 -->
<g id="edge16" class="edge"><title>Node8&#45;&gt;Node9</title>
<path fill="none" stroke="midnightblue" d="M269.206,-106.191C268.428,-97.1684 267.551,-86.9941 266.911,-79.5707"/>
<polygon fill="midnightblue" stroke="midnightblue" points="265.737,-106.699 270.083,-116.362 272.711,-106.098 265.737,-106.699"/>
</g>
<!-- Node10 -->
<g id="node19" class="node"><title>Node10</title>
<a xlink:href="classOmu__VarVec.html" target="_top" xlink:title="Internally used vector of optimization variables. ">
<polygon fill="white" stroke="black" points="328.5,-58.5 328.5,-79.5 403.5,-79.5 403.5,-58.5 328.5,-58.5"/>
<text text-anchor="middle" x="366" y="-66.5" font-family="Helvetica,sans-Serif" font-size="10.00">Omu_VarVec</text>
</a>
</g>
<!-- Node8&#45;&gt;Node10 -->
<g id="edge18" class="edge"><title>Node8&#45;&gt;Node10</title>
<path fill="none" stroke="midnightblue" d="M297.042,-111.101C313.478,-101.066 334.256,-88.3808 348.686,-79.5707"/>
<polygon fill="midnightblue" stroke="midnightblue" points="295.136,-108.164 288.424,-116.362 298.783,-114.138 295.136,-108.164"/>
</g>
<!-- Node11 -->
<g id="node21" class="node"><title>Node11</title>
<a xlink:href="classOmu__SVarVec.html" target="_top" xlink:title="Depreciated: Internally used vector of state optimization variables holding additional structural inf...">
<polygon fill="white" stroke="black" points="325,-0.5 325,-21.5 407,-21.5 407,-0.5 325,-0.5"/>
<text text-anchor="middle" x="366" y="-8.5" font-family="Helvetica,sans-Serif" font-size="10.00">Omu_SVarVec</text>
</a>
</g>
<!-- Node10&#45;&gt;Node11 -->
<g id="edge20" class="edge"><title>Node10&#45;&gt;Node11</title>
<path fill="none" stroke="midnightblue" d="M366,-48.1906C366,-39.1684 366,-28.9941 366,-21.5707"/>
<polygon fill="midnightblue" stroke="midnightblue" points="362.5,-48.3619 366,-58.3619 369.5,-48.3619 362.5,-48.3619"/>
</g>
</g>
</svg>
