<?xml version="1.0" encoding="UTF-8" standalone="no"?>
<!DOCTYPE svg PUBLIC "-//W3C//DTD SVG 1.1//EN"
 "http://www.w3.org/Graphics/SVG/1.1/DTD/svg11.dtd">
<!-- Generated by graphviz version 2.26.3 (20100126.1600)
 -->
<!-- Title: Omu_IntRKsuite Pages: 1 -->
<svg width="96pt" height="146pt"
 viewBox="0.00 0.00 96.00 146.00" xmlns="http://www.w3.org/2000/svg" xmlns:xlink="http://www.w3.org/1999/xlink">
<g id="graph1" class="graph" transform="scale(1 1) rotate(0) translate(4 142)">
<title>Omu_IntRKsuite</title>
<polygon fill="white" stroke="white" points="-4,5 -4,-142 93,-142 93,5 -4,5"/>
<!-- Node1 -->
<g id="node1" class="node"><title>Node1</title>
<polygon fill="#bfbfbf" stroke="black" points="-0.5,-0.5 -0.5,-21.5 88.5,-21.5 88.5,-0.5 -0.5,-0.5"/>
<text text-anchor="middle" x="44" y="-8.5" font-family="Helvetica,sans-Serif" font-size="10.00">Omu_IntRKsuite</text>
</g>
<!-- Node2 -->
<g id="node2" class="node"><title>Node2</title>
<a xlink:href="classOmu__IntODE.html" target="_top" xlink:title="Interface for standard solvers for Ordinary Differential Equations (ODE) hiding details of sensitivit...">
<polygon fill="white" stroke="black" points="6,-58.5 6,-79.5 82,-79.5 82,-58.5 6,-58.5"/>
<text text-anchor="middle" x="44" y="-66.5" font-family="Helvetica,sans-Serif" font-size="10.00">Omu_IntODE</text>
</a>
</g>
<!-- Node2&#45;&gt;Node1 -->
<g id="edge2" class="edge"><title>Node2&#45;&gt;Node1</title>
<path fill="none" stroke="midnightblue" d="M44,-48.1906C44,-39.1684 44,-28.9941 44,-21.5707"/>
<polygon fill="midnightblue" stroke="midnightblue" points="40.5001,-48.3619 44,-58.3619 47.5001,-48.3619 40.5001,-48.3619"/>
</g>
<!-- Node3 -->
<g id="node4" class="node"><title>Node3</title>
<a xlink:href="classOmu__Integrator.html" target="_top" xlink:title="Interface for a solver for differential (algebraic) equations. ">
<polygon fill="white" stroke="black" points="2,-116.5 2,-137.5 86,-137.5 86,-116.5 2,-116.5"/>
<text text-anchor="middle" x="44" y="-124.5" font-family="Helvetica,sans-Serif" font-size="10.00">Omu_Integrator</text>
</a>
</g>
<!-- Node3&#45;&gt;Node2 -->
<g id="edge4" class="edge"><title>Node3&#45;&gt;Node2</title>
<path fill="none" stroke="midnightblue" d="M44,-106.191C44,-97.1684 44,-86.9941 44,-79.5707"/>
<polygon fill="midnightblue" stroke="midnightblue" points="40.5001,-106.362 44,-116.362 47.5001,-106.362 40.5001,-106.362"/>
</g>
</g>
</svg>
