<?xml version="1.0" encoding="UTF-8" standalone="no"?>
<!DOCTYPE svg PUBLIC "-//W3C//DTD SVG 1.1//EN"
 "http://www.w3.org/Graphics/SVG/1.1/DTD/svg11.dtd">
<!-- Generated by graphviz version 2.26.3 (20100126.1600)
 -->
<!-- Title: If_SetIf&lt; VarType &gt; Pages: 1 -->
<svg width="358pt" height="390pt"
 viewBox="0.00 0.00 358.00 390.00" xmlns="http://www.w3.org/2000/svg" xmlns:xlink="http://www.w3.org/1999/xlink">
<g id="graph1" class="graph" transform="scale(1 1) rotate(0) translate(4 386)">
<title>If_SetIf&lt; VarType &gt;</title>
<polygon fill="white" stroke="white" points="-4,5 -4,-386 355,-386 355,5 -4,5"/>
<!-- Node1 -->
<g id="node1" class="node"><title>Node1</title>
<polygon fill="#bfbfbf" stroke="black" points="0,-180.5 0,-201.5 104,-201.5 104,-180.5 0,-180.5"/>
<text text-anchor="middle" x="52" y="-188.5" font-family="Helvetica,sans-Serif" font-size="10.00">If_SetIf&lt; VarType &gt;</text>
</g>
<!-- Node2 -->
<g id="node3" class="node"><title>Node2</title>
<a xlink:href="classIf__SetCb.html" target="_top" xlink:title="Write callback for specific class type. ">
<polygon fill="white" stroke="black" points="231,-360.5 231,-381.5 341,-381.5 341,-360.5 231,-360.5"/>
<text text-anchor="middle" x="286" y="-368.5" font-family="Helvetica,sans-Serif" font-size="10.00">If_SetCb&lt; VarType &gt;</text>
</a>
</g>
<!-- Node1&#45;&gt;Node2 -->
<g id="edge2" class="edge"><title>Node1&#45;&gt;Node2</title>
<path fill="none" stroke="midnightblue" d="M57.1428,-211.548C65.6055,-241.08 85.3058,-295.24 122,-325 152.776,-349.96 196.267,-361.393 230.73,-366.622"/>
<polygon fill="midnightblue" stroke="midnightblue" points="60.4251,-210.277 54.4375,-201.537 53.6675,-212.104 60.4251,-210.277"/>
</g>
<!-- Node3 -->
<g id="node5" class="node"><title>Node3</title>
<a xlink:href="classIf__SetPt.html" target="_top" xlink:title="Write callback directly accessing through a pointer. ">
<polygon fill="white" stroke="black" points="232.5,-320.5 232.5,-341.5 339.5,-341.5 339.5,-320.5 232.5,-320.5"/>
<text text-anchor="middle" x="286" y="-328.5" font-family="Helvetica,sans-Serif" font-size="10.00">If_SetPt&lt; VarType &gt;</text>
</a>
</g>
<!-- Node1&#45;&gt;Node3 -->
<g id="edge4" class="edge"><title>Node1&#45;&gt;Node3</title>
<path fill="none" stroke="midnightblue" d="M59.6129,-211.085C69.9181,-235.416 90.6949,-275.776 122,-297 154.491,-319.028 198.322,-327.279 232.496,-330.157"/>
<polygon fill="midnightblue" stroke="midnightblue" points="62.8289,-209.702 55.8373,-201.742 56.3387,-212.325 62.8289,-209.702"/>
</g>
<!-- Node4 -->
<g id="node7" class="node"><title>Node4</title>
<a xlink:href="classIf__SetIf.html" target="_top" xlink:title="If_SetIf\&lt; If_RealMat_t \&gt;">
<polygon fill="white" stroke="black" points="224.5,-280.5 224.5,-301.5 347.5,-301.5 347.5,-280.5 224.5,-280.5"/>
<text text-anchor="middle" x="286" y="-288.5" font-family="Helvetica,sans-Serif" font-size="10.00">If_SetIf&lt; If_RealMat_t &gt;</text>
</a>
</g>
<!-- Node1&#45;&gt;Node4 -->
<g id="edge6" class="edge"><title>Node1&#45;&gt;Node4</title>
<path fill="none" stroke="orange" stroke-dasharray="5,2" d="M67.544,-209.83C80.5864,-224.376 100.493,-243.848 122,-255 153.571,-271.371 192.297,-280.314 224.189,-285.191"/>
<polygon fill="orange" stroke="orange" points="69.8936,-207.197 60.6979,-201.935 64.6051,-211.783 69.8936,-207.197"/>
<text text-anchor="middle" x="163" y="-284" font-family="Helvetica,sans-Serif" font-size="10.00"> &lt; If_RealMat_t &gt;</text>
</g>
<!-- Node5 -->
<g id="node9" class="node"><title>Node5</title>
<a xlink:href="classIf__SetIf.html" target="_top" xlink:title="If_SetIf\&lt; If_Bool_t \&gt;">
<polygon fill="white" stroke="black" points="233,-240.5 233,-261.5 339,-261.5 339,-240.5 233,-240.5"/>
<text text-anchor="middle" x="286" y="-248.5" font-family="Helvetica,sans-Serif" font-size="10.00">If_SetIf&lt; If_Bool_t &gt;</text>
</a>
</g>
<!-- Node1&#45;&gt;Node5 -->
<g id="edge8" class="edge"><title>Node1&#45;&gt;Node5</title>
<path fill="none" stroke="orange" stroke-dasharray="5,2" d="M83.711,-205.76C95.5352,-210.829 109.197,-216.182 122,-220 158.376,-230.847 200.468,-238.71 232.901,-243.803"/>
<polygon fill="orange" stroke="orange" points="84.833,-202.43 74.2701,-201.609 82.0153,-208.838 84.833,-202.43"/>
<text text-anchor="middle" x="163" y="-242" font-family="Helvetica,sans-Serif" font-size="10.00"> &lt; If_Bool_t &gt;</text>
</g>
<!-- Node6 -->
<g id="node11" class="node"><title>Node6</title>
<a xlink:href="classIf__SetIf.html" target="_top" xlink:title="If_SetIf\&lt; If_RealVec_t \&gt;">
<polygon fill="white" stroke="black" points="224,-200.5 224,-221.5 348,-221.5 348,-200.5 224,-200.5"/>
<text text-anchor="middle" x="286" y="-208.5" font-family="Helvetica,sans-Serif" font-size="10.00">If_SetIf&lt; If_RealVec_t &gt;</text>
</a>
</g>
<!-- Node1&#45;&gt;Node6 -->
<g id="edge10" class="edge"><title>Node1&#45;&gt;Node6</title>
<path fill="none" stroke="orange" stroke-dasharray="5,2" d="M114.474,-196.34C148.375,-199.237 190.143,-202.807 223.974,-205.699"/>
<polygon fill="orange" stroke="orange" points="114.485,-192.828 104.223,-195.463 113.888,-199.802 114.485,-192.828"/>
<text text-anchor="middle" x="163" y="-207" font-family="Helvetica,sans-Serif" font-size="10.00"> &lt; If_RealVec_t &gt;</text>
</g>
<!-- Node7 -->
<g id="node13" class="node"><title>Node7</title>
<a xlink:href="classIf__SetIf.html" target="_top" xlink:title="If_SetIf\&lt; If_StdString_t \&gt;">
<polygon fill="white" stroke="black" points="222.5,-160.5 222.5,-181.5 349.5,-181.5 349.5,-160.5 222.5,-160.5"/>
<text text-anchor="middle" x="286" y="-168.5" font-family="Helvetica,sans-Serif" font-size="10.00">If_SetIf&lt; If_StdString_t &gt;</text>
</a>
</g>
<!-- Node1&#45;&gt;Node7 -->
<g id="edge12" class="edge"><title>Node1&#45;&gt;Node7</title>
<path fill="none" stroke="orange" stroke-dasharray="5,2" d="M114.335,-180.876C116.921,-180.56 119.484,-180.266 122,-180 155.036,-176.507 191.968,-174.329 222.408,-172.993"/>
<polygon fill="orange" stroke="orange" points="113.752,-177.423 104.291,-182.192 114.661,-184.364 113.752,-177.423"/>
<text text-anchor="middle" x="163" y="-184" font-family="Helvetica,sans-Serif" font-size="10.00"> &lt; If_StdString_t &gt;</text>
</g>
<!-- Node8 -->
<g id="node15" class="node"><title>Node8</title>
<a xlink:href="classIf__SetIf.html" target="_top" xlink:title="If_SetIf\&lt; If_String_t \&gt;">
<polygon fill="white" stroke="black" points="230,-120.5 230,-141.5 342,-141.5 342,-120.5 230,-120.5"/>
<text text-anchor="middle" x="286" y="-128.5" font-family="Helvetica,sans-Serif" font-size="10.00">If_SetIf&lt; If_String_t &gt;</text>
</a>
</g>
<!-- Node1&#45;&gt;Node8 -->
<g id="edge14" class="edge"><title>Node1&#45;&gt;Node8</title>
<path fill="none" stroke="orange" stroke-dasharray="5,2" d="M77.9408,-175.591C90.7931,-168.599 106.786,-160.831 122,-156 156.999,-144.887 197.816,-138.642 229.975,-135.173"/>
<polygon fill="orange" stroke="orange" points="76.2066,-172.551 69.1933,-180.492 79.6281,-178.658 76.2066,-172.551"/>
<text text-anchor="middle" x="163" y="-160" font-family="Helvetica,sans-Serif" font-size="10.00"> &lt; If_String_t &gt;</text>
</g>
<!-- Node9 -->
<g id="node17" class="node"><title>Node9</title>
<a xlink:href="classIf__SetIf.html" target="_top" xlink:title="If_SetIf\&lt; If_IntVec_t \&gt;">
<polygon fill="white" stroke="black" points="228.5,-80.5 228.5,-101.5 343.5,-101.5 343.5,-80.5 228.5,-80.5"/>
<text text-anchor="middle" x="286" y="-88.5" font-family="Helvetica,sans-Serif" font-size="10.00">If_SetIf&lt; If_IntVec_t &gt;</text>
</a>
</g>
<!-- Node1&#45;&gt;Node9 -->
<g id="edge16" class="edge"><title>Node1&#45;&gt;Node9</title>
<path fill="none" stroke="orange" stroke-dasharray="5,2" d="M65.4284,-172.235C78.1086,-156 98.6289,-133.261 122,-121 154.68,-103.855 195.488,-96.3464 228.221,-93.1284"/>
<polygon fill="orange" stroke="orange" points="62.4415,-170.383 59.2222,-180.477 68.0335,-174.594 62.4415,-170.383"/>
<text text-anchor="middle" x="163" y="-125" font-family="Helvetica,sans-Serif" font-size="10.00"> &lt; If_IntVec_t &gt;</text>
</g>
<!-- Node10 -->
<g id="node19" class="node"><title>Node10</title>
<a xlink:href="classIf__SetIf.html" target="_top" xlink:title="If_SetIf\&lt; If_Int_t \&gt;">
<polygon fill="white" stroke="black" points="237,-40.5 237,-61.5 335,-61.5 335,-40.5 237,-40.5"/>
<text text-anchor="middle" x="286" y="-48.5" font-family="Helvetica,sans-Serif" font-size="10.00">If_SetIf&lt; If_Int_t &gt;</text>
</a>
</g>
<!-- Node1&#45;&gt;Node10 -->
<g id="edge18" class="edge"><title>Node1&#45;&gt;Node10</title>
<path fill="none" stroke="orange" stroke-dasharray="5,2" d="M58.7411,-170.737C68.427,-144.987 88.8572,-101.222 122,-79 155.827,-56.3193 202.142,-50.1287 236.928,-49.1438"/>
<polygon fill="orange" stroke="orange" points="55.4106,-169.657 55.3444,-180.251 62.003,-172.011 55.4106,-169.657"/>
<text text-anchor="middle" x="163" y="-83" font-family="Helvetica,sans-Serif" font-size="10.00"> &lt; If_Int_t &gt;</text>
</g>
<!-- Node11 -->
<g id="node21" class="node"><title>Node11</title>
<a xlink:href="classIf__SetIf.html" target="_top" xlink:title="If_SetIf\&lt; If_Real_t \&gt;">
<polygon fill="white" stroke="black" points="232.5,-0.5 232.5,-21.5 339.5,-21.5 339.5,-0.5 232.5,-0.5"/>
<text text-anchor="middle" x="286" y="-8.5" font-family="Helvetica,sans-Serif" font-size="10.00">If_SetIf&lt; If_Real_t &gt;</text>
</a>
</g>
<!-- Node1&#45;&gt;Node11 -->
<g id="edge20" class="edge"><title>Node1&#45;&gt;Node11</title>
<path fill="none" stroke="orange" stroke-dasharray="5,2" d="M54.8097,-170.178C60.6383,-135.776 77.4464,-67.545 122,-34 153.237,-10.4811 197.57,-5.45982 232.268,-5.9201"/>
<polygon fill="orange" stroke="orange" points="51.2909,-170.033 53.2298,-180.449 58.2096,-171.098 51.2909,-170.033"/>
<text text-anchor="middle" x="163" y="-38" font-family="Helvetica,sans-Serif" font-size="10.00"> &lt; If_Real_t &gt;</text>
</g>
</g>
</svg>
