<?xml version="1.0" encoding="UTF-8" standalone="no"?>
<!DOCTYPE svg PUBLIC "-//W3C//DTD SVG 1.1//EN"
 "http://www.w3.org/Graphics/SVG/1.1/DTD/svg11.dtd">
<!-- Generated by graphviz version 2.26.3 (20100126.1600)
 -->
<!-- Title: iftcl Pages: 1 -->
<svg width="62pt" height="116pt"
 viewBox="0.00 0.00 62.00 116.00" xmlns="http://www.w3.org/2000/svg" xmlns:xlink="http://www.w3.org/1999/xlink">
<g id="graph1" class="graph" transform="scale(1 1) rotate(0) translate(4 112)">
<title>iftcl</title>
<polygon fill="white" stroke="white" points="-4,5 -4,-112 59,-112 59,5 -4,5"/>
<!-- dir_e2c40e6317fc9e2c83f1f427e7fe5650 -->
<g id="node1" class="node"><title>dir_e2c40e6317fc9e2c83f1f427e7fe5650</title>
<a xlink:href="dir_e2c40e6317fc9e2c83f1f427e7fe5650.html" target="_top" xlink:title="iftcl">
<polygon fill="#eeeeff" stroke="black" points="54,-108 2.13163e-14,-108 0,-72 54,-72 54,-108"/>
<text text-anchor="middle" x="27" y="-87.5" font-family="Helvetica,sans-Serif" font-size="10.00">iftcl</text>
</a>
</g>
<!-- dir_a51a9623e80eb254134fcf24e35e8c3d -->
<g id="node2" class="node"><title>dir_a51a9623e80eb254134fcf24e35e8c3d</title>
<a xlink:href="dir_a51a9623e80eb254134fcf24e35e8c3d.html" target="_top" xlink:title="hqp">
<polygon fill="none" stroke="black" points="54,-36 2.13163e-14,-36 0,-1.77636e-14 54,-3.55271e-15 54,-36"/>
<text text-anchor="middle" x="27" y="-15.5" font-family="Helvetica,sans-Serif" font-size="10.00">hqp</text>
</a>
</g>
<!-- dir_e2c40e6317fc9e2c83f1f427e7fe5650&#45;&gt;dir_a51a9623e80eb254134fcf24e35e8c3d -->
<g id="edge2" class="edge"><title>dir_e2c40e6317fc9e2c83f1f427e7fe5650&#45;&gt;dir_a51a9623e80eb254134fcf24e35e8c3d</title>
<path fill="none" stroke="black" d="M21.0476,-71.8314C20.2972,-64.131 20.0763,-54.9743 20.3849,-46.4166"/>
<polygon fill="black" stroke="black" points="23.8792,-46.6161 21.024,-36.4133 16.8935,-46.1697 23.8792,-46.6161"/>
<a xlink:href="dir_000003_000001.html" target="_top" xlink:title="4">
<text text-anchor="middle" x="26.4836" y="-47.8844" font-family="Helvetica,sans-Serif" font-size="10.00">4</text>
</a>
</g>
<!-- dir_a51a9623e80eb254134fcf24e35e8c3d&#45;&gt;dir_e2c40e6317fc9e2c83f1f427e7fe5650 -->
<g id="edge4" class="edge"><title>dir_a51a9623e80eb254134fcf24e35e8c3d&#45;&gt;dir_e2c40e6317fc9e2c83f1f427e7fe5650</title>
<path fill="none" stroke="black" d="M32.976,-36.4133C33.7071,-44.0593 33.9203,-53.1084 33.6155,-61.5726"/>
<polygon fill="black" stroke="black" points="30.1048,-61.6264 32.9524,-71.8314 37.0902,-62.078 30.1048,-61.6264"/>
<a xlink:href="dir_000001_000003.html" target="_top" xlink:title="6">
<text text-anchor="middle" x="27.5032" y="-55.3562" font-family="Helvetica,sans-Serif" font-size="10.00">6</text>
</a>
</g>
</g>
</svg>
