<?xml version="1.0" encoding="UTF-8" standalone="no"?>
<!DOCTYPE svg PUBLIC "-//W3C//DTD SVG 1.1//EN"
 "http://www.w3.org/Graphics/SVG/1.1/DTD/svg11.dtd">
<!-- Generated by graphviz version 2.26.3 (20100126.1600)
 -->
<!-- Title: omu Pages: 1 -->
<svg width="147pt" height="188pt"
 viewBox="0.00 0.00 147.20 188.00" xmlns="http://www.w3.org/2000/svg" xmlns:xlink="http://www.w3.org/1999/xlink">
<g id="graph1" class="graph" transform="scale(1 1) rotate(0) translate(4 184)">
<title>omu</title>
<polygon fill="white" stroke="white" points="-4,5 -4,-184 144.201,-184 144.201,5 -4,5"/>
<!-- dir_0181463314ca854d87f1ed28c80c229e -->
<g id="node1" class="node"><title>dir_0181463314ca854d87f1ed28c80c229e</title>
<a xlink:href="dir_0181463314ca854d87f1ed28c80c229e.html" target="_top" xlink:title="omu">
<polygon fill="#eeeeff" stroke="black" points="126,-180 72,-180 72,-144 126,-144 126,-180"/>
<text text-anchor="middle" x="99" y="-159.5" font-family="Helvetica,sans-Serif" font-size="10.00">omu</text>
</a>
</g>
<!-- dir_e2c40e6317fc9e2c83f1f427e7fe5650 -->
<g id="node2" class="node"><title>dir_e2c40e6317fc9e2c83f1f427e7fe5650</title>
<a xlink:href="dir_e2c40e6317fc9e2c83f1f427e7fe5650.html" target="_top" xlink:title="iftcl">
<polygon fill="none" stroke="black" points="54,-108 2.13163e-14,-108 0,-72 54,-72 54,-108"/>
<text text-anchor="middle" x="27" y="-87.5" font-family="Helvetica,sans-Serif" font-size="10.00">iftcl</text>
</a>
</g>
<!-- dir_0181463314ca854d87f1ed28c80c229e&#45;&gt;dir_e2c40e6317fc9e2c83f1f427e7fe5650 -->
<g id="edge2" class="edge"><title>dir_0181463314ca854d87f1ed28c80c229e&#45;&gt;dir_e2c40e6317fc9e2c83f1f427e7fe5650</title>
<path fill="none" stroke="black" d="M80.8314,-143.831C72.2848,-135.285 61.9443,-124.944 52.6198,-115.62"/>
<polygon fill="black" stroke="black" points="54.9592,-113.009 45.4133,-108.413 50.0095,-117.959 54.9592,-113.009"/>
<a xlink:href="dir_000002_000003.html" target="_top" xlink:title="2">
<text text-anchor="middle" x="59.5087" y="-111.044" font-family="Helvetica,sans-Serif" font-size="10.00">2</text>
</a>
</g>
<!-- dir_9ca1e31654aa8c46bfa902d2e1fdda07 -->
<g id="node3" class="node"><title>dir_9ca1e31654aa8c46bfa902d2e1fdda07</title>
<a xlink:href="dir_9ca1e31654aa8c46bfa902d2e1fdda07.html" target="_top" xlink:title="hxi">
<polygon fill="none" stroke="black" points="126,-108 72,-108 72,-72 126,-72 126,-108"/>
<text text-anchor="middle" x="99" y="-87.5" font-family="Helvetica,sans-Serif" font-size="10.00">hxi</text>
</a>
</g>
<!-- dir_0181463314ca854d87f1ed28c80c229e&#45;&gt;dir_9ca1e31654aa8c46bfa902d2e1fdda07 -->
<g id="edge4" class="edge"><title>dir_0181463314ca854d87f1ed28c80c229e&#45;&gt;dir_9ca1e31654aa8c46bfa902d2e1fdda07</title>
<path fill="none" stroke="black" d="M99,-143.831C99,-136.131 99,-126.974 99,-118.417"/>
<polygon fill="black" stroke="black" points="102.5,-118.413 99,-108.413 95.5001,-118.413 102.5,-118.413"/>
<a xlink:href="dir_000002_000000.html" target="_top" xlink:title="1">
<text text-anchor="middle" x="105.339" y="-119.508" font-family="Helvetica,sans-Serif" font-size="10.00">1</text>
</a>
</g>
<!-- dir_a51a9623e80eb254134fcf24e35e8c3d -->
<g id="node4" class="node"><title>dir_a51a9623e80eb254134fcf24e35e8c3d</title>
<a xlink:href="dir_a51a9623e80eb254134fcf24e35e8c3d.html" target="_top" xlink:title="hqp">
<polygon fill="none" stroke="black" points="90,-36 36,-36 36,-1.77636e-14 90,-3.55271e-15 90,-36"/>
<text text-anchor="middle" x="63" y="-15.5" font-family="Helvetica,sans-Serif" font-size="10.00">hqp</text>
</a>
</g>
<!-- dir_0181463314ca854d87f1ed28c80c229e&#45;&gt;dir_a51a9623e80eb254134fcf24e35e8c3d -->
<g id="edge6" class="edge"><title>dir_0181463314ca854d87f1ed28c80c229e&#45;&gt;dir_a51a9623e80eb254134fcf24e35e8c3d</title>
<path fill="none" stroke="black" d="M115.471,-143.684C129.969,-125.219 147.042,-96.0832 135,-72 127.319,-56.638 112.96,-44.5124 99.0731,-35.6761"/>
<polygon fill="black" stroke="black" points="100.476,-32.439 90.0909,-30.3435 96.9029,-38.4582 100.476,-32.439"/>
<a xlink:href="dir_000002_000001.html" target="_top" xlink:title="4">
<text text-anchor="middle" x="105.017" y="-29.3326" font-family="Helvetica,sans-Serif" font-size="10.00">4</text>
</a>
</g>
<!-- dir_e2c40e6317fc9e2c83f1f427e7fe5650&#45;&gt;dir_a51a9623e80eb254134fcf24e35e8c3d -->
<g id="edge8" class="edge"><title>dir_e2c40e6317fc9e2c83f1f427e7fe5650&#45;&gt;dir_a51a9623e80eb254134fcf24e35e8c3d</title>
<path fill="none" stroke="black" d="M30.1319,-71.8314C33.368,-63.7925 37.9746,-54.1666 42.7828,-45.2918"/>
<polygon fill="black" stroke="black" points="45.9292,-46.8385 47.8174,-36.4133 39.8401,-43.3856 45.9292,-46.8385"/>
<a xlink:href="dir_000003_000001.html" target="_top" xlink:title="4">
<text text-anchor="middle" x="46.626" y="-48.8659" font-family="Helvetica,sans-Serif" font-size="10.00">4</text>
</a>
</g>
<!-- dir_9ca1e31654aa8c46bfa902d2e1fdda07&#45;&gt;dir_a51a9623e80eb254134fcf24e35e8c3d -->
<g id="edge10" class="edge"><title>dir_9ca1e31654aa8c46bfa902d2e1fdda07&#45;&gt;dir_a51a9623e80eb254134fcf24e35e8c3d</title>
<path fill="none" stroke="black" d="M89.9157,-71.8314C85.9385,-63.8771 81.1845,-54.369 76.7861,-45.5723"/>
<polygon fill="black" stroke="black" points="79.8093,-43.7923 72.2066,-36.4133 73.5483,-46.9228 79.8093,-43.7923"/>
<a xlink:href="dir_000000_000001.html" target="_top" xlink:title="1">
<text text-anchor="middle" x="83.9563" y="-43.2377" font-family="Helvetica,sans-Serif" font-size="10.00">1</text>
</a>
</g>
<!-- dir_a51a9623e80eb254134fcf24e35e8c3d&#45;&gt;dir_e2c40e6317fc9e2c83f1f427e7fe5650 -->
<g id="edge12" class="edge"><title>dir_a51a9623e80eb254134fcf24e35e8c3d&#45;&gt;dir_e2c40e6317fc9e2c83f1f427e7fe5650</title>
<path fill="none" stroke="black" d="M59.7694,-36.4133C56.5057,-44.484 51.8833,-54.1182 47.0711,-62.9775"/>
<polygon fill="black" stroke="black" points="43.9372,-61.4084 42.0367,-71.8314 50.0222,-64.8684 43.9372,-61.4084"/>
<a xlink:href="dir_000001_000003.html" target="_top" xlink:title="6">
<text text-anchor="middle" x="43.2457" y="-54.3802" font-family="Helvetica,sans-Serif" font-size="10.00">6</text>
</a>
</g>
</g>
</svg>
