<?xml version="1.0" encoding="UTF-8" standalone="no"?>
<!DOCTYPE svg PUBLIC "-//W3C//DTD SVG 1.1//EN"
 "http://www.w3.org/Graphics/SVG/1.1/DTD/svg11.dtd">
<!-- Generated by graphviz version 2.26.3 (20100126.1600)
 -->
<!-- Title: hqp_docp Pages: 1 -->
<svg width="66pt" height="116pt"
 viewBox="0.00 0.00 66.00 116.00" xmlns="http://www.w3.org/2000/svg" xmlns:xlink="http://www.w3.org/1999/xlink">
<g id="graph1" class="graph" transform="scale(1 1) rotate(0) translate(4 112)">
<title>hqp_docp</title>
<polygon fill="white" stroke="white" points="-4,5 -4,-112 63,-112 63,5 -4,5"/>
<!-- dir_22080197e0b32447d9921a0ab8ff1148 -->
<g id="node1" class="node"><title>dir_22080197e0b32447d9921a0ab8ff1148</title>
<a xlink:href="dir_22080197e0b32447d9921a0ab8ff1148.html" target="_top" xlink:title="hqp_docp">
<polygon fill="#eeeeff" stroke="black" points="58,-108 2.13163e-14,-108 0,-72 58,-72 58,-108"/>
<text text-anchor="middle" x="29" y="-87.5" font-family="Helvetica,sans-Serif" font-size="10.00">hqp_docp</text>
</a>
</g>
<!-- dir_a51a9623e80eb254134fcf24e35e8c3d -->
<g id="node2" class="node"><title>dir_a51a9623e80eb254134fcf24e35e8c3d</title>
<a xlink:href="dir_a51a9623e80eb254134fcf24e35e8c3d.html" target="_top" xlink:title="hqp">
<polygon fill="none" stroke="black" points="56,-36 2,-36 2,-1.77636e-14 56,-3.55271e-15 56,-36"/>
<text text-anchor="middle" x="29" y="-15.5" font-family="Helvetica,sans-Serif" font-size="10.00">hqp</text>
</a>
</g>
<!-- dir_22080197e0b32447d9921a0ab8ff1148&#45;&gt;dir_a51a9623e80eb254134fcf24e35e8c3d -->
<g id="edge2" class="edge"><title>dir_22080197e0b32447d9921a0ab8ff1148&#45;&gt;dir_a51a9623e80eb254134fcf24e35e8c3d</title>
<path fill="none" stroke="black" d="M29,-71.8314C29,-64.131 29,-54.9743 29,-46.4166"/>
<polygon fill="black" stroke="black" points="32.5001,-46.4132 29,-36.4133 25.5001,-46.4133 32.5001,-46.4132"/>
<a xlink:href="dir_000005_000002.html" target="_top" xlink:title="1">
<text text-anchor="middle" x="35.3393" y="-47.5079" font-family="Helvetica,sans-Serif" font-size="10.00">1</text>
</a>
</g>
</g>
</svg>
