<?xml version="1.0" encoding="UTF-8" standalone="no"?>
<!DOCTYPE svg PUBLIC "-//W3C//DTD SVG 1.1//EN"
 "http://www.w3.org/Graphics/SVG/1.1/DTD/svg11.dtd">
<!-- Generated by graphviz version 2.26.3 (20100126.1600)
 -->
<!-- Title: hxi Pages: 1 -->
<svg width="62pt" height="116pt"
 viewBox="0.00 0.00 62.00 116.00" xmlns="http://www.w3.org/2000/svg" xmlns:xlink="http://www.w3.org/1999/xlink">
<g id="graph1" class="graph" transform="scale(1 1) rotate(0) translate(4 112)">
<title>hxi</title>
<polygon fill="white" stroke="white" points="-4,5 -4,-112 59,-112 59,5 -4,5"/>
<!-- dir_9ca1e31654aa8c46bfa902d2e1fdda07 -->
<g id="node1" class="node"><title>dir_9ca1e31654aa8c46bfa902d2e1fdda07</title>
<a xlink:href="dir_9ca1e31654aa8c46bfa902d2e1fdda07.html" target="_top" xlink:title="hxi">
<polygon fill="#eeeeff" stroke="black" points="54,-108 2.13163e-14,-108 0,-72 54,-72 54,-108"/>
<text text-anchor="middle" x="27" y="-87.5" font-family="Helvetica,sans-Serif" font-size="10.00">hxi</text>
</a>
</g>
<!-- dir_a51a9623e80eb254134fcf24e35e8c3d -->
<g id="node2" class="node"><title>dir_a51a9623e80eb254134fcf24e35e8c3d</title>
<a xlink:href="dir_a51a9623e80eb254134fcf24e35e8c3d.html" target="_top" xlink:title="hqp">
<polygon fill="none" stroke="black" points="54,-36 2.13163e-14,-36 0,-1.77636e-14 54,-3.55271e-15 54,-36"/>
<text text-anchor="middle" x="27" y="-15.5" font-family="Helvetica,sans-Serif" font-size="10.00">hqp</text>
</a>
</g>
<!-- dir_9ca1e31654aa8c46bfa902d2e1fdda07&#45;&gt;dir_a51a9623e80eb254134fcf24e35e8c3d -->
<g id="edge2" class="edge"><title>dir_9ca1e31654aa8c46bfa902d2e1fdda07&#45;&gt;dir_a51a9623e80eb254134fcf24e35e8c3d</title>
<path fill="none" stroke="black" d="M27,-71.8314C27,-64.131 27,-54.9743 27,-46.4166"/>
<polygon fill="black" stroke="black" points="30.5001,-46.4132 27,-36.4133 23.5001,-46.4133 30.5001,-46.4132"/>
<a xlink:href="dir_000001_000002.html" target="_top" xlink:title="1">
<text text-anchor="middle" x="33.3393" y="-47.5079" font-family="Helvetica,sans-Serif" font-size="10.00">1</text>
</a>
</g>
</g>
</svg>
