<?xml version="1.0" encoding="UTF-8" standalone="no"?>
<!DOCTYPE svg PUBLIC "-//W3C//DTD SVG 1.1//EN"
 "http://www.w3.org/Graphics/SVG/1.1/DTD/svg11.dtd">
<!-- Generated by graphviz version 2.26.3 (20100126.1600)
 -->
<!-- Title: Hqp.h Pages: 1 -->
<svg width="363pt" height="320pt"
 viewBox="0.00 0.00 362.88 320.00" xmlns="http://www.w3.org/2000/svg" xmlns:xlink="http://www.w3.org/1999/xlink">
<g id="graph1" class="graph" transform="scale(1 1) rotate(0) translate(4 316)">
<title>Hqp.h</title>
<polygon fill="white" stroke="white" points="-4,5 -4,-316 359.884,-316 359.884,5 -4,5"/>
<!-- Node1 -->
<g id="node1" class="node"><title>Node1</title>
<polygon fill="#bfbfbf" stroke="black" points="213.384,-290.5 213.384,-311.5 256.384,-311.5 256.384,-290.5 213.384,-290.5"/>
<text text-anchor="middle" x="234.884" y="-298.5" font-family="Helvetica,sans-Serif" font-size="10.00">Hqp.h</text>
</g>
<!-- Node2 -->
<g id="node3" class="node"><title>Node2</title>
<a xlink:href="Hqp__impl_8h.html" target="_top" xlink:title="internal declarations for HQP (Huge Quadratic Programming) ">
<polygon fill="white" stroke="black" points="74.8838,-232.5 74.8838,-253.5 140.884,-253.5 140.884,-232.5 74.8838,-232.5"/>
<text text-anchor="middle" x="107.884" y="-240.5" font-family="Helvetica,sans-Serif" font-size="10.00">Hqp_impl.h</text>
</a>
</g>
<!-- Node1&#45;&gt;Node2 -->
<g id="edge2" class="edge"><title>Node1&#45;&gt;Node2</title>
<path fill="none" stroke="midnightblue" d="M204.233,-287.002C181.787,-276.751 151.785,-263.049 131.258,-253.675"/>
<polygon fill="midnightblue" stroke="midnightblue" points="202.79,-290.191 213.34,-291.161 205.698,-283.823 202.79,-290.191"/>
</g>
<!-- Node5 -->
<g id="node9" class="node"><title>Node5</title>
<a xlink:href="Hqp__DocpWrapper_8h.html" target="_top" xlink:title="Implement an Hqp_Docp and connect it to Hqp_DocpSpec. ">
<polygon fill="white" stroke="black" points="118.884,-0.5 118.884,-21.5 226.884,-21.5 226.884,-0.5 118.884,-0.5"/>
<text text-anchor="middle" x="172.884" y="-8.5" font-family="Helvetica,sans-Serif" font-size="10.00">Hqp_DocpWrapper.h</text>
</a>
</g>
<!-- Node1&#45;&gt;Node5 -->
<g id="edge18" class="edge"><title>Node1&#45;&gt;Node5</title>
<path fill="none" stroke="midnightblue" d="M234.884,-280.406C234.884,-257.215 234.884,-218.402 234.884,-185 234.884,-185 234.884,-185 234.884,-127 234.884,-83.6135 200.732,-40.7312 183.122,-21.5037"/>
<polygon fill="midnightblue" stroke="midnightblue" points="231.384,-280.444 234.884,-290.444 238.384,-280.444 231.384,-280.444"/>
</g>
<!-- Node9 -->
<g id="node19" class="node"><title>Node9</title>
<a xlink:href="Hqp__DocpStub_8h.html" target="_top" xlink:title="client stub for Hqp_Docp interface ">
<polygon fill="white" stroke="black" points="262.884,-232.5 262.884,-253.5 354.884,-253.5 354.884,-232.5 262.884,-232.5"/>
<text text-anchor="middle" x="308.884" y="-240.5" font-family="Helvetica,sans-Serif" font-size="10.00">Hqp_DocpStub.h</text>
</a>
</g>
<!-- Node1&#45;&gt;Node9 -->
<g id="edge20" class="edge"><title>Node1&#45;&gt;Node9</title>
<path fill="none" stroke="midnightblue" d="M256.605,-283.975C269.164,-274.132 284.573,-262.055 295.397,-253.571"/>
<polygon fill="midnightblue" stroke="midnightblue" points="254.168,-281.438 248.457,-290.362 258.486,-286.948 254.168,-281.438"/>
</g>
<!-- Node3 -->
<g id="node5" class="node"><title>Node3</title>
<a xlink:href="Hqp__SqpProgram_8h.html" target="_top" xlink:title="Interface for a nonlinear program. ">
<polygon fill="white" stroke="black" points="0.883803,-116.5 0.883803,-137.5 102.884,-137.5 102.884,-116.5 0.883803,-116.5"/>
<text text-anchor="middle" x="51.8838" y="-124.5" font-family="Helvetica,sans-Serif" font-size="10.00">Hqp_SqpProgram.h</text>
</a>
</g>
<!-- Node2&#45;&gt;Node3 -->
<g id="edge4" class="edge"><title>Node2&#45;&gt;Node3</title>
<path fill="none" stroke="midnightblue" d="M64.5406,-235.001C42.3752,-228.479 17.3016,-216.788 3.8838,-196 -9.72756,-174.912 16.6193,-151.013 35.3749,-137.6"/>
<polygon fill="midnightblue" stroke="midnightblue" points="63.9036,-238.454 74.4678,-237.648 65.7072,-231.69 63.9036,-238.454"/>
</g>
<!-- Node6 -->
<g id="node11" class="node"><title>Node6</title>
<a xlink:href="Hqp__Program_8h.html" target="_top" xlink:title="Optimization program for sparse quadratic programming. ">
<polygon fill="white" stroke="black" points="12.3838,-174.5 12.3838,-195.5 97.3838,-195.5 97.3838,-174.5 12.3838,-174.5"/>
<text text-anchor="middle" x="54.8838" y="-182.5" font-family="Helvetica,sans-Serif" font-size="10.00">Hqp_Program.h</text>
</a>
</g>
<!-- Node2&#45;&gt;Node6 -->
<g id="edge10" class="edge"><title>Node2&#45;&gt;Node6</title>
<path fill="none" stroke="midnightblue" d="M91.2801,-224.83C82.4875,-215.208 71.9975,-203.728 64.5432,-195.571"/>
<polygon fill="midnightblue" stroke="midnightblue" points="88.8333,-227.341 98.1628,-232.362 94.0008,-222.619 88.8333,-227.341"/>
</g>
<!-- Node7 -->
<g id="node14" class="node"><title>Node7</title>
<a xlink:href="Hqp__MipSolver_8h.html" target="_top" xlink:title="Interface for a solver for mixed integer problems. ">
<polygon fill="white" stroke="black" points="114.884,-174.5 114.884,-195.5 206.884,-195.5 206.884,-174.5 114.884,-174.5"/>
<text text-anchor="middle" x="160.884" y="-182.5" font-family="Helvetica,sans-Serif" font-size="10.00">Hqp_MipSolver.h</text>
</a>
</g>
<!-- Node2&#45;&gt;Node7 -->
<g id="edge14" class="edge"><title>Node2&#45;&gt;Node7</title>
<path fill="none" stroke="midnightblue" d="M124.487,-224.83C133.28,-215.208 143.77,-203.728 151.224,-195.571"/>
<polygon fill="midnightblue" stroke="midnightblue" points="121.767,-222.619 117.605,-232.362 126.934,-227.341 121.767,-222.619"/>
</g>
<!-- Node4 -->
<g id="node7" class="node"><title>Node4</title>
<a xlink:href="Hqp__Docp_8h.html" target="_top" xlink:title="base class for formulating Discrete&#45;time Optimal Control Programs ">
<polygon fill="white" stroke="black" points="76.3838,-58.5 76.3838,-79.5 147.384,-79.5 147.384,-58.5 76.3838,-58.5"/>
<text text-anchor="middle" x="111.884" y="-66.5" font-family="Helvetica,sans-Serif" font-size="10.00">Hqp_Docp.h</text>
</a>
</g>
<!-- Node3&#45;&gt;Node4 -->
<g id="edge6" class="edge"><title>Node3&#45;&gt;Node4</title>
<path fill="none" stroke="midnightblue" d="M70.0855,-109.405C80.1579,-99.6683 92.341,-87.8914 100.949,-79.5707"/>
<polygon fill="midnightblue" stroke="midnightblue" points="67.6461,-106.895 62.8887,-116.362 72.5112,-111.928 67.6461,-106.895"/>
</g>
<!-- Node4&#45;&gt;Node5 -->
<g id="edge8" class="edge"><title>Node4&#45;&gt;Node5</title>
<path fill="none" stroke="midnightblue" d="M130.389,-51.405C140.629,-41.6683 153.015,-29.8914 161.766,-21.5707"/>
<polygon fill="midnightblue" stroke="midnightblue" points="127.907,-48.9348 123.072,-58.3619 132.731,-54.0077 127.907,-48.9348"/>
</g>
<!-- Node6&#45;&gt;Node3 -->
<g id="edge12" class="edge"><title>Node6&#45;&gt;Node3</title>
<path fill="none" stroke="midnightblue" d="M53.8075,-164.191C53.3408,-155.168 52.8145,-144.994 52.4306,-137.571"/>
<polygon fill="midnightblue" stroke="midnightblue" points="50.3216,-164.556 54.3336,-174.362 57.3122,-164.194 50.3216,-164.556"/>
</g>
<!-- Node8 -->
<g id="node16" class="node"><title>Node8</title>
<a xlink:href="Hqp__LPSolve_8h.html" target="_top" xlink:title="Interface to lp_solve for the solution of linear mixed integer programs (see: http://lpsolve.sourceforge.net/5.5). ">
<polygon fill="white" stroke="black" points="120.384,-116.5 120.384,-137.5 205.384,-137.5 205.384,-116.5 120.384,-116.5"/>
<text text-anchor="middle" x="162.884" y="-124.5" font-family="Helvetica,sans-Serif" font-size="10.00">Hqp_LPSolve.h</text>
</a>
</g>
<!-- Node7&#45;&gt;Node8 -->
<g id="edge16" class="edge"><title>Node7&#45;&gt;Node8</title>
<path fill="none" stroke="midnightblue" d="M161.601,-164.191C161.912,-155.168 162.263,-144.994 162.519,-137.571"/>
<polygon fill="midnightblue" stroke="midnightblue" points="158.097,-164.247 161.251,-174.362 165.093,-164.488 158.097,-164.247"/>
</g>
<!-- Node10 -->
<g id="node21" class="node"><title>Node10</title>
<a xlink:href="Hqp__Omuses_8h.html" target="_top" xlink:title="multi stage optimal control problems described by DAE&#39;s ">
<polygon fill="white" stroke="black" points="266.384,-174.5 266.384,-195.5 351.384,-195.5 351.384,-174.5 266.384,-174.5"/>
<text text-anchor="middle" x="308.884" y="-182.5" font-family="Helvetica,sans-Serif" font-size="10.00">Hqp_Omuses.h</text>
</a>
</g>
<!-- Node9&#45;&gt;Node10 -->
<g id="edge22" class="edge"><title>Node9&#45;&gt;Node10</title>
<path fill="none" stroke="midnightblue" d="M308.884,-222.191C308.884,-213.168 308.884,-202.994 308.884,-195.571"/>
<polygon fill="midnightblue" stroke="midnightblue" points="305.384,-222.362 308.884,-232.362 312.384,-222.362 305.384,-222.362"/>
</g>
</g>
</svg>
