<?xml version="1.0" encoding="UTF-8" standalone="no"?>
<!DOCTYPE svg PUBLIC "-//W3C//DTD SVG 1.1//EN"
 "http://www.w3.org/Graphics/SVG/1.1/DTD/svg11.dtd">
<!-- Generated by graphviz version 2.26.3 (20100126.1600)
 -->
<!-- Title: Hqp_DocpWrapper.h Pages: 1 -->
<svg width="424pt" height="436pt"
 viewBox="0.00 0.00 424.00 436.00" xmlns="http://www.w3.org/2000/svg" xmlns:xlink="http://www.w3.org/1999/xlink">
<g id="graph1" class="graph" transform="scale(1 1) rotate(0) translate(4 432)">
<title>Hqp_DocpWrapper.h</title>
<polygon fill="white" stroke="white" points="-4,5 -4,-432 421,-432 421,5 -4,5"/>
<!-- Node1 -->
<g id="node1" class="node"><title>Node1</title>
<polygon fill="#bfbfbf" stroke="black" points="73,-406.5 73,-427.5 181,-427.5 181,-406.5 73,-406.5"/>
<text text-anchor="middle" x="127" y="-414.5" font-family="Helvetica,sans-Serif" font-size="10.00">Hqp_DocpWrapper.h</text>
</g>
<!-- Node2 -->
<g id="node3" class="node"><title>Node2</title>
<polygon fill="white" stroke="#bfbfbf" points="0,-0.5 0,-21.5 52,-21.5 52,-0.5 0,-0.5"/>
<text text-anchor="middle" x="26" y="-8.5" font-family="Helvetica,sans-Serif" font-size="10.00">assert.h</text>
</g>
<!-- Node1&#45;&gt;Node2 -->
<g id="edge2" class="edge"><title>Node1&#45;&gt;Node2</title>
<path fill="none" stroke="midnightblue" d="M107.141,-406.394C77.21,-388.801 24,-350.555 24,-301 24,-301 24,-301 24,-127 24,-93.5928 24.8395,-54.7818 25.4307,-31.5921"/>
<polygon fill="midnightblue" stroke="midnightblue" points="28.9305,-31.6441 25.6962,-21.5551 21.9329,-31.459 28.9305,-31.6441"/>
</g>
<!-- Node3 -->
<g id="node5" class="node"><title>Node3</title>
<a xlink:href="Hqp__Docp_8h.html" target="_top" xlink:title="base class for formulating Discrete&#45;time Optimal Control Programs ">
<polygon fill="white" stroke="black" points="91.5,-348.5 91.5,-369.5 162.5,-369.5 162.5,-348.5 91.5,-348.5"/>
<text text-anchor="middle" x="127" y="-356.5" font-family="Helvetica,sans-Serif" font-size="10.00">Hqp_Docp.h</text>
</a>
</g>
<!-- Node1&#45;&gt;Node3 -->
<g id="edge4" class="edge"><title>Node1&#45;&gt;Node3</title>
<path fill="none" stroke="midnightblue" d="M127,-406.362C127,-398.922 127,-388.743 127,-379.728"/>
<polygon fill="midnightblue" stroke="midnightblue" points="130.5,-379.571 127,-369.571 123.5,-379.571 130.5,-379.571"/>
</g>
<!-- Node10 -->
<g id="node19" class="node"><title>Node10</title>
<a xlink:href="Hqp_8h.html" target="_top" xlink:title="declaration of external API for HQP (Huge Quadratic Programming) ">
<polygon fill="white" stroke="black" points="161.5,-116.5 161.5,-137.5 204.5,-137.5 204.5,-116.5 161.5,-116.5"/>
<text text-anchor="middle" x="183" y="-124.5" font-family="Helvetica,sans-Serif" font-size="10.00">Hqp.h</text>
</a>
</g>
<!-- Node1&#45;&gt;Node10 -->
<g id="edge36" class="edge"><title>Node1&#45;&gt;Node10</title>
<path fill="none" stroke="midnightblue" d="M157.072,-406.374C196.58,-390.262 261,-355.616 261,-301 261,-301 261,-301 261,-243 261,-202.188 227.339,-164.937 204.243,-144.181"/>
<polygon fill="midnightblue" stroke="midnightblue" points="206.437,-141.451 196.587,-137.548 201.853,-146.741 206.437,-141.451"/>
</g>
<!-- Node4 -->
<g id="node7" class="node"><title>Node4</title>
<polygon fill="white" stroke="#bfbfbf" points="51.5,-290.5 51.5,-311.5 98.5,-311.5 98.5,-290.5 51.5,-290.5"/>
<text text-anchor="middle" x="75" y="-298.5" font-family="Helvetica,sans-Serif" font-size="10.00">math.h</text>
</g>
<!-- Node3&#45;&gt;Node4 -->
<g id="edge6" class="edge"><title>Node3&#45;&gt;Node4</title>
<path fill="none" stroke="midnightblue" d="M117.462,-348.362C110.132,-340.186 99.8367,-328.702 91.2192,-319.091"/>
<polygon fill="midnightblue" stroke="midnightblue" points="93.7586,-316.68 84.4771,-311.571 88.5466,-321.353 93.7586,-316.68"/>
</g>
<!-- Node5 -->
<g id="node9" class="node"><title>Node5</title>
<a xlink:href="Hqp__SqpProgram_8h.html" target="_top" xlink:title="Interface for a nonlinear program. ">
<polygon fill="white" stroke="black" points="116,-290.5 116,-311.5 218,-311.5 218,-290.5 116,-290.5"/>
<text text-anchor="middle" x="167" y="-298.5" font-family="Helvetica,sans-Serif" font-size="10.00">Hqp_SqpProgram.h</text>
</a>
</g>
<!-- Node3&#45;&gt;Node5 -->
<g id="edge8" class="edge"><title>Node3&#45;&gt;Node5</title>
<path fill="none" stroke="midnightblue" d="M134.337,-348.362C139.806,-340.431 147.422,-329.389 153.924,-319.961"/>
<polygon fill="midnightblue" stroke="midnightblue" points="156.914,-321.79 159.71,-311.571 151.151,-317.816 156.914,-321.79"/>
</g>
<!-- Node6 -->
<g id="node11" class="node"><title>Node6</title>
<a xlink:href="If__List_8h.html" target="_top" xlink:title="List of If_ListElement&#39;s. ">
<polygon fill="white" stroke="black" points="61,-174.5 61,-195.5 113,-195.5 113,-174.5 61,-174.5"/>
<text text-anchor="middle" x="87" y="-182.5" font-family="Helvetica,sans-Serif" font-size="10.00">If_List.h</text>
</a>
</g>
<!-- Node5&#45;&gt;Node6 -->
<g id="edge10" class="edge"><title>Node5&#45;&gt;Node6</title>
<path fill="none" stroke="midnightblue" d="M159.049,-290.257C152.082,-280.784 141.733,-266.572 133,-254 121.521,-237.476 108.867,-218.43 99.7409,-204.54"/>
<polygon fill="midnightblue" stroke="midnightblue" points="102.451,-202.291 94.0445,-195.843 96.5953,-206.126 102.451,-202.291"/>
</g>
<!-- Node9 -->
<g id="node17" class="node"><title>Node9</title>
<a xlink:href="Hqp__impl_8h.html" target="_top" xlink:title="internal declarations for HQP (Huge Quadratic Programming) ">
<polygon fill="white" stroke="black" points="150,-174.5 150,-195.5 216,-195.5 216,-174.5 150,-174.5"/>
<text text-anchor="middle" x="183" y="-182.5" font-family="Helvetica,sans-Serif" font-size="10.00">Hqp_impl.h</text>
</a>
</g>
<!-- Node5&#45;&gt;Node9 -->
<g id="edge16" class="edge"><title>Node5&#45;&gt;Node9</title>
<path fill="none" stroke="midnightblue" d="M157.599,-290.25C146.931,-276.682 131.989,-252.624 140,-232 144.415,-220.634 153.002,-210.341 161.35,-202.304"/>
<polygon fill="midnightblue" stroke="midnightblue" points="163.721,-204.879 168.821,-195.592 159.043,-199.671 163.721,-204.879"/>
</g>
<!-- Node15 -->
<g id="node31" class="node"><title>Node15</title>
<a xlink:href="Hqp__Program_8h.html" target="_top" xlink:title="Optimization program for sparse quadratic programming. ">
<polygon fill="white" stroke="black" points="148.5,-232.5 148.5,-253.5 233.5,-253.5 233.5,-232.5 148.5,-232.5"/>
<text text-anchor="middle" x="191" y="-240.5" font-family="Helvetica,sans-Serif" font-size="10.00">Hqp_Program.h</text>
</a>
</g>
<!-- Node5&#45;&gt;Node15 -->
<g id="edge32" class="edge"><title>Node5&#45;&gt;Node15</title>
<path fill="none" stroke="midnightblue" d="M171.402,-290.362C174.582,-282.677 178.972,-272.069 182.79,-262.84"/>
<polygon fill="midnightblue" stroke="midnightblue" points="186.036,-264.149 186.626,-253.571 179.568,-261.473 186.036,-264.149"/>
</g>
<!-- Node7 -->
<g id="node13" class="node"><title>Node7</title>
<a xlink:href="If__ListElement_8h.html" target="_top" xlink:title="Element of an If_List. ">
<polygon fill="white" stroke="black" points="52,-116.5 52,-137.5 140,-137.5 140,-116.5 52,-116.5"/>
<text text-anchor="middle" x="96" y="-124.5" font-family="Helvetica,sans-Serif" font-size="10.00">If_ListElement.h</text>
</a>
</g>
<!-- Node6&#45;&gt;Node7 -->
<g id="edge12" class="edge"><title>Node6&#45;&gt;Node7</title>
<path fill="none" stroke="midnightblue" d="M88.6507,-174.362C89.8052,-166.922 91.3847,-156.743 92.7837,-147.728"/>
<polygon fill="midnightblue" stroke="midnightblue" points="96.2849,-147.989 94.3597,-137.571 89.3677,-146.916 96.2849,-147.989"/>
</g>
<!-- Node8 -->
<g id="node15" class="node"><title>Node8</title>
<polygon fill="white" stroke="#bfbfbf" points="71.5,-0.5 71.5,-21.5 120.5,-21.5 120.5,-0.5 71.5,-0.5"/>
<text text-anchor="middle" x="96" y="-8.5" font-family="Helvetica,sans-Serif" font-size="10.00">string.h</text>
</g>
<!-- Node7&#45;&gt;Node8 -->
<g id="edge14" class="edge"><title>Node7&#45;&gt;Node8</title>
<path fill="none" stroke="midnightblue" d="M96,-116.295C96,-97.1314 96,-56.654 96,-31.8434"/>
<polygon fill="midnightblue" stroke="midnightblue" points="99.5001,-31.6792 96,-21.6792 92.5001,-31.6792 99.5001,-31.6792"/>
</g>
<!-- Node9&#45;&gt;Node10 -->
<g id="edge18" class="edge"><title>Node9&#45;&gt;Node10</title>
<path fill="none" stroke="midnightblue" d="M183,-174.362C183,-166.922 183,-156.743 183,-147.728"/>
<polygon fill="midnightblue" stroke="midnightblue" points="186.5,-147.571 183,-137.571 179.5,-147.571 186.5,-147.571"/>
</g>
<!-- Node11 -->
<g id="node21" class="node"><title>Node11</title>
<a xlink:href="Meschach_8h.html" target="_top" xlink:title="Meschach declarations and some extensions. ">
<polygon fill="white" stroke="black" points="136,-58.5 136,-79.5 206,-79.5 206,-58.5 136,-58.5"/>
<text text-anchor="middle" x="171" y="-66.5" font-family="Helvetica,sans-Serif" font-size="10.00">Meschach.h</text>
</a>
</g>
<!-- Node10&#45;&gt;Node11 -->
<g id="edge20" class="edge"><title>Node10&#45;&gt;Node11</title>
<path fill="none" stroke="midnightblue" d="M180.799,-116.362C179.243,-108.84 177.107,-98.5187 175.227,-89.4308"/>
<polygon fill="midnightblue" stroke="midnightblue" points="178.641,-88.6541 173.187,-79.5707 171.786,-90.0724 178.641,-88.6541"/>
</g>
<!-- Node11&#45;&gt;Node2 -->
<g id="edge26" class="edge"><title>Node11&#45;&gt;Node2</title>
<path fill="none" stroke="midnightblue" d="M144.742,-58.4966C121.44,-49.1759 87.1997,-35.4799 61.4679,-25.1872"/>
<polygon fill="midnightblue" stroke="midnightblue" points="62.6477,-21.8895 52.0631,-21.4252 60.0479,-28.3889 62.6477,-21.8895"/>
</g>
<!-- Node11&#45;&gt;Node8 -->
<g id="edge24" class="edge"><title>Node11&#45;&gt;Node8</title>
<path fill="none" stroke="midnightblue" d="M157.244,-58.3619C146.249,-49.859 130.627,-37.7785 117.914,-27.9466"/>
<polygon fill="midnightblue" stroke="midnightblue" points="119.721,-24.9195 109.669,-21.5707 115.438,-30.4569 119.721,-24.9195"/>
</g>
<!-- Node12 -->
<g id="node23" class="node"><title>Node12</title>
<polygon fill="white" stroke="#bfbfbf" points="138,-0.5 138,-21.5 178,-21.5 178,-0.5 138,-0.5"/>
<text text-anchor="middle" x="158" y="-8.5" font-family="Helvetica,sans-Serif" font-size="10.00">limits</text>
</g>
<!-- Node11&#45;&gt;Node12 -->
<g id="edge22" class="edge"><title>Node11&#45;&gt;Node12</title>
<path fill="none" stroke="midnightblue" d="M168.616,-58.3619C166.93,-50.8401 164.616,-40.5187 162.579,-31.4308"/>
<polygon fill="midnightblue" stroke="midnightblue" points="165.972,-30.563 160.369,-21.5707 159.141,-32.0941 165.972,-30.563"/>
</g>
<!-- Node13 -->
<g id="node27" class="node"><title>Node13</title>
<polygon fill="white" stroke="#bfbfbf" points="196,-0.5 196,-21.5 296,-21.5 296,-0.5 196,-0.5"/>
<text text-anchor="middle" x="246" y="-8.5" font-family="Helvetica,sans-Serif" font-size="10.00">meschach/matrix.h</text>
</g>
<!-- Node11&#45;&gt;Node13 -->
<g id="edge28" class="edge"><title>Node11&#45;&gt;Node13</title>
<path fill="none" stroke="midnightblue" d="M184.756,-58.3619C195.751,-49.859 211.373,-37.7785 224.086,-27.9466"/>
<polygon fill="midnightblue" stroke="midnightblue" points="226.562,-30.4569 232.331,-21.5707 222.279,-24.9195 226.562,-30.4569"/>
</g>
<!-- Node14 -->
<g id="node29" class="node"><title>Node14</title>
<polygon fill="white" stroke="#bfbfbf" points="314,-0.5 314,-21.5 416,-21.5 416,-0.5 314,-0.5"/>
<text text-anchor="middle" x="365" y="-8.5" font-family="Helvetica,sans-Serif" font-size="10.00">meschach/sparse.h</text>
</g>
<!-- Node11&#45;&gt;Node14 -->
<g id="edge30" class="edge"><title>Node11&#45;&gt;Node14</title>
<path fill="none" stroke="midnightblue" d="M206.132,-58.4966C238.033,-48.9592 285.257,-34.8408 319.928,-24.475"/>
<polygon fill="midnightblue" stroke="midnightblue" points="321.224,-27.7409 329.802,-21.5231 319.219,-21.0342 321.224,-27.7409"/>
</g>
<!-- Node15&#45;&gt;Node9 -->
<g id="edge34" class="edge"><title>Node15&#45;&gt;Node9</title>
<path fill="none" stroke="midnightblue" d="M189.533,-232.362C188.506,-224.922 187.102,-214.743 185.859,-205.728"/>
<polygon fill="midnightblue" stroke="midnightblue" points="189.292,-204.999 184.458,-195.571 182.357,-205.955 189.292,-204.999"/>
</g>
</g>
</svg>
