<?xml version="1.0" encoding="UTF-8" standalone="no"?>
<!DOCTYPE svg PUBLIC "-//W3C//DTD SVG 1.1//EN"
 "http://www.w3.org/Graphics/SVG/1.1/DTD/svg11.dtd">
<!-- Generated by graphviz version 2.26.3 (20100126.1600)
 -->
<!-- Title: Hqp_Docp.h Pages: 1 -->
<svg width="459pt" height="378pt"
 viewBox="0.00 0.00 459.00 378.00" xmlns="http://www.w3.org/2000/svg" xmlns:xlink="http://www.w3.org/1999/xlink">
<g id="graph1" class="graph" transform="scale(1 1) rotate(0) translate(4 374)">
<title>Hqp_Docp.h</title>
<polygon fill="white" stroke="white" points="-4,5 -4,-374 456,-374 456,5 -4,5"/>
<!-- Node1 -->
<g id="node1" class="node"><title>Node1</title>
<polygon fill="#bfbfbf" stroke="black" points="33.5,-348.5 33.5,-369.5 104.5,-369.5 104.5,-348.5 33.5,-348.5"/>
<text text-anchor="middle" x="69" y="-356.5" font-family="Helvetica,sans-Serif" font-size="10.00">Hqp_Docp.h</text>
</g>
<!-- Node2 -->
<g id="node3" class="node"><title>Node2</title>
<polygon fill="white" stroke="#bfbfbf" points="-0.5,-290.5 -0.5,-311.5 46.5,-311.5 46.5,-290.5 -0.5,-290.5"/>
<text text-anchor="middle" x="23" y="-298.5" font-family="Helvetica,sans-Serif" font-size="10.00">math.h</text>
</g>
<!-- Node1&#45;&gt;Node2 -->
<g id="edge2" class="edge"><title>Node1&#45;&gt;Node2</title>
<path fill="none" stroke="midnightblue" d="M60.5629,-348.362C54.2083,-340.35 45.3342,-329.161 37.8069,-319.67"/>
<polygon fill="midnightblue" stroke="midnightblue" points="40.3399,-317.231 31.3836,-311.571 34.8554,-321.581 40.3399,-317.231"/>
</g>
<!-- Node3 -->
<g id="node5" class="node"><title>Node3</title>
<a xlink:href="Hqp__SqpProgram_8h.html" target="_top" xlink:title="Interface for a nonlinear program. ">
<polygon fill="white" stroke="black" points="64,-290.5 64,-311.5 166,-311.5 166,-290.5 64,-290.5"/>
<text text-anchor="middle" x="115" y="-298.5" font-family="Helvetica,sans-Serif" font-size="10.00">Hqp_SqpProgram.h</text>
</a>
</g>
<!-- Node1&#45;&gt;Node3 -->
<g id="edge4" class="edge"><title>Node1&#45;&gt;Node3</title>
<path fill="none" stroke="midnightblue" d="M77.4371,-348.362C83.7917,-340.35 92.6658,-329.161 100.193,-319.67"/>
<polygon fill="midnightblue" stroke="midnightblue" points="103.145,-321.581 106.616,-311.571 97.6601,-317.231 103.145,-321.581"/>
</g>
<!-- Node4 -->
<g id="node7" class="node"><title>Node4</title>
<a xlink:href="If__List_8h.html" target="_top" xlink:title="List of If_ListElement&#39;s. ">
<polygon fill="white" stroke="black" points="35,-232.5 35,-253.5 87,-253.5 87,-232.5 35,-232.5"/>
<text text-anchor="middle" x="61" y="-240.5" font-family="Helvetica,sans-Serif" font-size="10.00">If_List.h</text>
</a>
</g>
<!-- Node3&#45;&gt;Node4 -->
<g id="edge6" class="edge"><title>Node3&#45;&gt;Node4</title>
<path fill="none" stroke="midnightblue" d="M105.096,-290.362C97.4836,-282.186 86.792,-270.702 77.843,-261.091"/>
<polygon fill="midnightblue" stroke="midnightblue" points="80.2175,-258.505 70.8416,-253.571 75.0942,-263.275 80.2175,-258.505"/>
</g>
<!-- Node7 -->
<g id="node13" class="node"><title>Node7</title>
<a xlink:href="Hqp__impl_8h.html" target="_top" xlink:title="internal declarations for HQP (Huge Quadratic Programming) ">
<polygon fill="white" stroke="black" points="152,-174.5 152,-195.5 218,-195.5 218,-174.5 152,-174.5"/>
<text text-anchor="middle" x="185" y="-182.5" font-family="Helvetica,sans-Serif" font-size="10.00">Hqp_impl.h</text>
</a>
</g>
<!-- Node3&#45;&gt;Node7 -->
<g id="edge12" class="edge"><title>Node3&#45;&gt;Node7</title>
<path fill="none" stroke="midnightblue" d="M116.072,-290.467C117.905,-276.283 122.617,-250.672 134,-232 141.051,-220.434 151.754,-209.957 161.537,-201.845"/>
<polygon fill="midnightblue" stroke="midnightblue" points="163.752,-204.555 169.439,-195.616 159.419,-199.058 163.752,-204.555"/>
</g>
<!-- Node14 -->
<g id="node28" class="node"><title>Node14</title>
<a xlink:href="Hqp__Program_8h.html" target="_top" xlink:title="Optimization program for sparse quadratic programming. ">
<polygon fill="white" stroke="black" points="142.5,-232.5 142.5,-253.5 227.5,-253.5 227.5,-232.5 142.5,-232.5"/>
<text text-anchor="middle" x="185" y="-240.5" font-family="Helvetica,sans-Serif" font-size="10.00">Hqp_Program.h</text>
</a>
</g>
<!-- Node3&#45;&gt;Node14 -->
<g id="edge28" class="edge"><title>Node3&#45;&gt;Node14</title>
<path fill="none" stroke="midnightblue" d="M127.839,-290.362C138.002,-281.941 152.401,-270.011 164.204,-260.231"/>
<polygon fill="midnightblue" stroke="midnightblue" points="166.775,-262.646 172.242,-253.571 162.309,-257.256 166.775,-262.646"/>
</g>
<!-- Node5 -->
<g id="node9" class="node"><title>Node5</title>
<a xlink:href="If__ListElement_8h.html" target="_top" xlink:title="Element of an If_List. ">
<polygon fill="white" stroke="black" points="17,-116.5 17,-137.5 105,-137.5 105,-116.5 17,-116.5"/>
<text text-anchor="middle" x="61" y="-124.5" font-family="Helvetica,sans-Serif" font-size="10.00">If_ListElement.h</text>
</a>
</g>
<!-- Node4&#45;&gt;Node5 -->
<g id="edge8" class="edge"><title>Node4&#45;&gt;Node5</title>
<path fill="none" stroke="midnightblue" d="M61,-232.295C61,-213.131 61,-172.654 61,-147.843"/>
<polygon fill="midnightblue" stroke="midnightblue" points="64.5001,-147.679 61,-137.679 57.5001,-147.679 64.5001,-147.679"/>
</g>
<!-- Node6 -->
<g id="node11" class="node"><title>Node6</title>
<polygon fill="white" stroke="#bfbfbf" points="36.5,-0.5 36.5,-21.5 85.5,-21.5 85.5,-0.5 36.5,-0.5"/>
<text text-anchor="middle" x="61" y="-8.5" font-family="Helvetica,sans-Serif" font-size="10.00">string.h</text>
</g>
<!-- Node5&#45;&gt;Node6 -->
<g id="edge10" class="edge"><title>Node5&#45;&gt;Node6</title>
<path fill="none" stroke="midnightblue" d="M61,-116.295C61,-97.1314 61,-56.654 61,-31.8434"/>
<polygon fill="midnightblue" stroke="midnightblue" points="64.5001,-31.6792 61,-21.6792 57.5001,-31.6792 64.5001,-31.6792"/>
</g>
<!-- Node8 -->
<g id="node15" class="node"><title>Node8</title>
<a xlink:href="Hqp_8h.html" target="_top" xlink:title="declaration of external API for HQP (Huge Quadratic Programming) ">
<polygon fill="white" stroke="black" points="164.5,-116.5 164.5,-137.5 207.5,-137.5 207.5,-116.5 164.5,-116.5"/>
<text text-anchor="middle" x="186" y="-124.5" font-family="Helvetica,sans-Serif" font-size="10.00">Hqp.h</text>
</a>
</g>
<!-- Node7&#45;&gt;Node8 -->
<g id="edge14" class="edge"><title>Node7&#45;&gt;Node8</title>
<path fill="none" stroke="midnightblue" d="M185.183,-174.362C185.312,-166.922 185.487,-156.743 185.643,-147.728"/>
<polygon fill="midnightblue" stroke="midnightblue" points="189.145,-147.63 185.818,-137.571 182.146,-147.509 189.145,-147.63"/>
</g>
<!-- Node9 -->
<g id="node17" class="node"><title>Node9</title>
<a xlink:href="Meschach_8h.html" target="_top" xlink:title="Meschach declarations and some extensions. ">
<polygon fill="white" stroke="black" points="151,-58.5 151,-79.5 221,-79.5 221,-58.5 151,-58.5"/>
<text text-anchor="middle" x="186" y="-66.5" font-family="Helvetica,sans-Serif" font-size="10.00">Meschach.h</text>
</a>
</g>
<!-- Node8&#45;&gt;Node9 -->
<g id="edge16" class="edge"><title>Node8&#45;&gt;Node9</title>
<path fill="none" stroke="midnightblue" d="M186,-116.362C186,-108.922 186,-98.7427 186,-89.7276"/>
<polygon fill="midnightblue" stroke="midnightblue" points="189.5,-89.5706 186,-79.5707 182.5,-89.5707 189.5,-89.5706"/>
</g>
<!-- Node9&#45;&gt;Node6 -->
<g id="edge20" class="edge"><title>Node9&#45;&gt;Node6</title>
<path fill="none" stroke="midnightblue" d="M163.363,-58.4966C143.752,-49.397 115.154,-36.1273 93.1667,-25.9253"/>
<polygon fill="midnightblue" stroke="midnightblue" points="94.4348,-22.6554 83.8906,-21.6212 91.4885,-29.0051 94.4348,-22.6554"/>
</g>
<!-- Node10 -->
<g id="node19" class="node"><title>Node10</title>
<polygon fill="white" stroke="#bfbfbf" points="103,-0.5 103,-21.5 143,-21.5 143,-0.5 103,-0.5"/>
<text text-anchor="middle" x="123" y="-8.5" font-family="Helvetica,sans-Serif" font-size="10.00">limits</text>
</g>
<!-- Node9&#45;&gt;Node10 -->
<g id="edge18" class="edge"><title>Node9&#45;&gt;Node10</title>
<path fill="none" stroke="midnightblue" d="M174.445,-58.3619C165.387,-50.0226 152.59,-38.2418 142.026,-28.5162"/>
<polygon fill="midnightblue" stroke="midnightblue" points="144.21,-25.7688 134.482,-21.5707 139.468,-30.9187 144.21,-25.7688"/>
</g>
<!-- Node11 -->
<g id="node22" class="node"><title>Node11</title>
<polygon fill="white" stroke="#bfbfbf" points="161,-0.5 161,-21.5 213,-21.5 213,-0.5 161,-0.5"/>
<text text-anchor="middle" x="187" y="-8.5" font-family="Helvetica,sans-Serif" font-size="10.00">assert.h</text>
</g>
<!-- Node9&#45;&gt;Node11 -->
<g id="edge22" class="edge"><title>Node9&#45;&gt;Node11</title>
<path fill="none" stroke="midnightblue" d="M186.183,-58.3619C186.312,-50.9219 186.487,-40.7427 186.643,-31.7276"/>
<polygon fill="midnightblue" stroke="midnightblue" points="190.145,-31.6295 186.818,-21.5707 183.146,-31.5088 190.145,-31.6295"/>
</g>
<!-- Node12 -->
<g id="node24" class="node"><title>Node12</title>
<polygon fill="white" stroke="#bfbfbf" points="231,-0.5 231,-21.5 331,-21.5 331,-0.5 231,-0.5"/>
<text text-anchor="middle" x="281" y="-8.5" font-family="Helvetica,sans-Serif" font-size="10.00">meschach/matrix.h</text>
</g>
<!-- Node9&#45;&gt;Node12 -->
<g id="edge24" class="edge"><title>Node9&#45;&gt;Node12</title>
<path fill="none" stroke="midnightblue" d="M203.424,-58.3619C217.887,-49.532 238.669,-36.844 255.084,-26.8224"/>
<polygon fill="midnightblue" stroke="midnightblue" points="256.975,-29.7688 263.686,-21.5707 253.327,-23.7943 256.975,-29.7688"/>
</g>
<!-- Node13 -->
<g id="node26" class="node"><title>Node13</title>
<polygon fill="white" stroke="#bfbfbf" points="349,-0.5 349,-21.5 451,-21.5 451,-0.5 349,-0.5"/>
<text text-anchor="middle" x="400" y="-8.5" font-family="Helvetica,sans-Serif" font-size="10.00">meschach/sparse.h</text>
</g>
<!-- Node9&#45;&gt;Node13 -->
<g id="edge26" class="edge"><title>Node9&#45;&gt;Node13</title>
<path fill="none" stroke="midnightblue" d="M221.338,-59.4225C256.796,-49.8122 311.687,-34.9353 351.27,-24.2072"/>
<polygon fill="midnightblue" stroke="midnightblue" points="352.246,-27.569 360.982,-21.5749 350.415,-20.8127 352.246,-27.569"/>
</g>
<!-- Node14&#45;&gt;Node7 -->
<g id="edge30" class="edge"><title>Node14&#45;&gt;Node7</title>
<path fill="none" stroke="midnightblue" d="M185,-232.362C185,-224.922 185,-214.743 185,-205.728"/>
<polygon fill="midnightblue" stroke="midnightblue" points="188.5,-205.571 185,-195.571 181.5,-205.571 188.5,-205.571"/>
</g>
</g>
</svg>
