<?xml version="1.0" encoding="UTF-8" standalone="no"?>
<!DOCTYPE svg PUBLIC "-//W3C//DTD SVG 1.1//EN"
 "http://www.w3.org/Graphics/SVG/1.1/DTD/svg11.dtd">
<!-- Generated by graphviz version 2.26.3 (20100126.1600)
 -->
<!-- Title: Hqp_SqpProgram.h Pages: 1 -->
<svg width="442pt" height="320pt"
 viewBox="0.00 0.00 442.00 320.00" xmlns="http://www.w3.org/2000/svg" xmlns:xlink="http://www.w3.org/1999/xlink">
<g id="graph1" class="graph" transform="scale(1 1) rotate(0) translate(4 316)">
<title>Hqp_SqpProgram.h</title>
<polygon fill="white" stroke="white" points="-4,5 -4,-316 439,-316 439,5 -4,5"/>
<!-- Node1 -->
<g id="node1" class="node"><title>Node1</title>
<polygon fill="#bfbfbf" stroke="black" points="47,-290.5 47,-311.5 149,-311.5 149,-290.5 47,-290.5"/>
<text text-anchor="middle" x="98" y="-298.5" font-family="Helvetica,sans-Serif" font-size="10.00">Hqp_SqpProgram.h</text>
</g>
<!-- Node2 -->
<g id="node3" class="node"><title>Node2</title>
<a xlink:href="If__List_8h.html" target="_top" xlink:title="List of If_ListElement&#39;s. ">
<polygon fill="white" stroke="black" points="18,-232.5 18,-253.5 70,-253.5 70,-232.5 18,-232.5"/>
<text text-anchor="middle" x="44" y="-240.5" font-family="Helvetica,sans-Serif" font-size="10.00">If_List.h</text>
</a>
</g>
<!-- Node1&#45;&gt;Node2 -->
<g id="edge2" class="edge"><title>Node1&#45;&gt;Node2</title>
<path fill="none" stroke="midnightblue" d="M88.0956,-290.362C80.4836,-282.186 69.792,-270.702 60.843,-261.091"/>
<polygon fill="midnightblue" stroke="midnightblue" points="63.2175,-258.505 53.8416,-253.571 58.0942,-263.275 63.2175,-258.505"/>
</g>
<!-- Node5 -->
<g id="node9" class="node"><title>Node5</title>
<a xlink:href="Hqp__impl_8h.html" target="_top" xlink:title="internal declarations for HQP (Huge Quadratic Programming) ">
<polygon fill="white" stroke="black" points="135,-174.5 135,-195.5 201,-195.5 201,-174.5 135,-174.5"/>
<text text-anchor="middle" x="168" y="-182.5" font-family="Helvetica,sans-Serif" font-size="10.00">Hqp_impl.h</text>
</a>
</g>
<!-- Node1&#45;&gt;Node5 -->
<g id="edge8" class="edge"><title>Node1&#45;&gt;Node5</title>
<path fill="none" stroke="midnightblue" d="M99.072,-290.467C100.905,-276.283 105.617,-250.672 117,-232 124.051,-220.434 134.754,-209.957 144.537,-201.845"/>
<polygon fill="midnightblue" stroke="midnightblue" points="146.752,-204.555 152.439,-195.616 142.419,-199.058 146.752,-204.555"/>
</g>
<!-- Node12 -->
<g id="node24" class="node"><title>Node12</title>
<a xlink:href="Hqp__Program_8h.html" target="_top" xlink:title="Optimization program for sparse quadratic programming. ">
<polygon fill="white" stroke="black" points="125.5,-232.5 125.5,-253.5 210.5,-253.5 210.5,-232.5 125.5,-232.5"/>
<text text-anchor="middle" x="168" y="-240.5" font-family="Helvetica,sans-Serif" font-size="10.00">Hqp_Program.h</text>
</a>
</g>
<!-- Node1&#45;&gt;Node12 -->
<g id="edge24" class="edge"><title>Node1&#45;&gt;Node12</title>
<path fill="none" stroke="midnightblue" d="M110.839,-290.362C121.002,-281.941 135.401,-270.011 147.204,-260.231"/>
<polygon fill="midnightblue" stroke="midnightblue" points="149.775,-262.646 155.242,-253.571 145.309,-257.256 149.775,-262.646"/>
</g>
<!-- Node3 -->
<g id="node5" class="node"><title>Node3</title>
<a xlink:href="If__ListElement_8h.html" target="_top" xlink:title="Element of an If_List. ">
<polygon fill="white" stroke="black" points="0,-116.5 0,-137.5 88,-137.5 88,-116.5 0,-116.5"/>
<text text-anchor="middle" x="44" y="-124.5" font-family="Helvetica,sans-Serif" font-size="10.00">If_ListElement.h</text>
</a>
</g>
<!-- Node2&#45;&gt;Node3 -->
<g id="edge4" class="edge"><title>Node2&#45;&gt;Node3</title>
<path fill="none" stroke="midnightblue" d="M44,-232.295C44,-213.131 44,-172.654 44,-147.843"/>
<polygon fill="midnightblue" stroke="midnightblue" points="47.5001,-147.679 44,-137.679 40.5001,-147.679 47.5001,-147.679"/>
</g>
<!-- Node4 -->
<g id="node7" class="node"><title>Node4</title>
<polygon fill="white" stroke="#bfbfbf" points="19.5,-0.5 19.5,-21.5 68.5,-21.5 68.5,-0.5 19.5,-0.5"/>
<text text-anchor="middle" x="44" y="-8.5" font-family="Helvetica,sans-Serif" font-size="10.00">string.h</text>
</g>
<!-- Node3&#45;&gt;Node4 -->
<g id="edge6" class="edge"><title>Node3&#45;&gt;Node4</title>
<path fill="none" stroke="midnightblue" d="M44,-116.295C44,-97.1314 44,-56.654 44,-31.8434"/>
<polygon fill="midnightblue" stroke="midnightblue" points="47.5001,-31.6792 44,-21.6792 40.5001,-31.6792 47.5001,-31.6792"/>
</g>
<!-- Node6 -->
<g id="node11" class="node"><title>Node6</title>
<a xlink:href="Hqp_8h.html" target="_top" xlink:title="declaration of external API for HQP (Huge Quadratic Programming) ">
<polygon fill="white" stroke="black" points="147.5,-116.5 147.5,-137.5 190.5,-137.5 190.5,-116.5 147.5,-116.5"/>
<text text-anchor="middle" x="169" y="-124.5" font-family="Helvetica,sans-Serif" font-size="10.00">Hqp.h</text>
</a>
</g>
<!-- Node5&#45;&gt;Node6 -->
<g id="edge10" class="edge"><title>Node5&#45;&gt;Node6</title>
<path fill="none" stroke="midnightblue" d="M168.183,-174.362C168.312,-166.922 168.487,-156.743 168.643,-147.728"/>
<polygon fill="midnightblue" stroke="midnightblue" points="172.145,-147.63 168.818,-137.571 165.146,-147.509 172.145,-147.63"/>
</g>
<!-- Node7 -->
<g id="node13" class="node"><title>Node7</title>
<a xlink:href="Meschach_8h.html" target="_top" xlink:title="Meschach declarations and some extensions. ">
<polygon fill="white" stroke="black" points="134,-58.5 134,-79.5 204,-79.5 204,-58.5 134,-58.5"/>
<text text-anchor="middle" x="169" y="-66.5" font-family="Helvetica,sans-Serif" font-size="10.00">Meschach.h</text>
</a>
</g>
<!-- Node6&#45;&gt;Node7 -->
<g id="edge12" class="edge"><title>Node6&#45;&gt;Node7</title>
<path fill="none" stroke="midnightblue" d="M169,-116.362C169,-108.922 169,-98.7427 169,-89.7276"/>
<polygon fill="midnightblue" stroke="midnightblue" points="172.5,-89.5706 169,-79.5707 165.5,-89.5707 172.5,-89.5706"/>
</g>
<!-- Node7&#45;&gt;Node4 -->
<g id="edge16" class="edge"><title>Node7&#45;&gt;Node4</title>
<path fill="none" stroke="midnightblue" d="M146.363,-58.4966C126.752,-49.397 98.1536,-36.1273 76.1667,-25.9253"/>
<polygon fill="midnightblue" stroke="midnightblue" points="77.4348,-22.6554 66.8906,-21.6212 74.4885,-29.0051 77.4348,-22.6554"/>
</g>
<!-- Node8 -->
<g id="node15" class="node"><title>Node8</title>
<polygon fill="white" stroke="#bfbfbf" points="86,-0.5 86,-21.5 126,-21.5 126,-0.5 86,-0.5"/>
<text text-anchor="middle" x="106" y="-8.5" font-family="Helvetica,sans-Serif" font-size="10.00">limits</text>
</g>
<!-- Node7&#45;&gt;Node8 -->
<g id="edge14" class="edge"><title>Node7&#45;&gt;Node8</title>
<path fill="none" stroke="midnightblue" d="M157.445,-58.3619C148.387,-50.0226 135.59,-38.2418 125.026,-28.5162"/>
<polygon fill="midnightblue" stroke="midnightblue" points="127.21,-25.7688 117.482,-21.5707 122.468,-30.9187 127.21,-25.7688"/>
</g>
<!-- Node9 -->
<g id="node18" class="node"><title>Node9</title>
<polygon fill="white" stroke="#bfbfbf" points="144,-0.5 144,-21.5 196,-21.5 196,-0.5 144,-0.5"/>
<text text-anchor="middle" x="170" y="-8.5" font-family="Helvetica,sans-Serif" font-size="10.00">assert.h</text>
</g>
<!-- Node7&#45;&gt;Node9 -->
<g id="edge18" class="edge"><title>Node7&#45;&gt;Node9</title>
<path fill="none" stroke="midnightblue" d="M169.183,-58.3619C169.312,-50.9219 169.487,-40.7427 169.643,-31.7276"/>
<polygon fill="midnightblue" stroke="midnightblue" points="173.145,-31.6295 169.818,-21.5707 166.146,-31.5088 173.145,-31.6295"/>
</g>
<!-- Node10 -->
<g id="node20" class="node"><title>Node10</title>
<polygon fill="white" stroke="#bfbfbf" points="214,-0.5 214,-21.5 314,-21.5 314,-0.5 214,-0.5"/>
<text text-anchor="middle" x="264" y="-8.5" font-family="Helvetica,sans-Serif" font-size="10.00">meschach/matrix.h</text>
</g>
<!-- Node7&#45;&gt;Node10 -->
<g id="edge20" class="edge"><title>Node7&#45;&gt;Node10</title>
<path fill="none" stroke="midnightblue" d="M186.424,-58.3619C200.887,-49.532 221.669,-36.844 238.084,-26.8224"/>
<polygon fill="midnightblue" stroke="midnightblue" points="239.975,-29.7688 246.686,-21.5707 236.327,-23.7943 239.975,-29.7688"/>
</g>
<!-- Node11 -->
<g id="node22" class="node"><title>Node11</title>
<polygon fill="white" stroke="#bfbfbf" points="332,-0.5 332,-21.5 434,-21.5 434,-0.5 332,-0.5"/>
<text text-anchor="middle" x="383" y="-8.5" font-family="Helvetica,sans-Serif" font-size="10.00">meschach/sparse.h</text>
</g>
<!-- Node7&#45;&gt;Node11 -->
<g id="edge22" class="edge"><title>Node7&#45;&gt;Node11</title>
<path fill="none" stroke="midnightblue" d="M204.338,-59.4225C239.796,-49.8122 294.687,-34.9353 334.27,-24.2072"/>
<polygon fill="midnightblue" stroke="midnightblue" points="335.246,-27.569 343.982,-21.5749 333.415,-20.8127 335.246,-27.569"/>
</g>
<!-- Node12&#45;&gt;Node5 -->
<g id="edge26" class="edge"><title>Node12&#45;&gt;Node5</title>
<path fill="none" stroke="midnightblue" d="M168,-232.362C168,-224.922 168,-214.743 168,-205.728"/>
<polygon fill="midnightblue" stroke="midnightblue" points="171.5,-205.571 168,-195.571 164.5,-205.571 171.5,-205.571"/>
</g>
</g>
</svg>
