<?xml version="1.0" encoding="UTF-8" standalone="no"?>
<!DOCTYPE svg PUBLIC "-//W3C//DTD SVG 1.1//EN"
 "http://www.w3.org/Graphics/SVG/1.1/DTD/svg11.dtd">
<!-- Generated by graphviz version 2.26.3 (20100126.1600)
 -->
<!-- Title: Hqp_Omuses.h Pages: 1 -->
<svg width="422pt" height="262pt"
 viewBox="0.00 0.00 422.00 262.00" xmlns="http://www.w3.org/2000/svg" xmlns:xlink="http://www.w3.org/1999/xlink">
<g id="graph1" class="graph" transform="scale(1 1) rotate(0) translate(4 258)">
<title>Hqp_Omuses.h</title>
<polygon fill="white" stroke="white" points="-4,5 -4,-258 419,-258 419,5 -4,5"/>
<!-- Node1 -->
<g id="node1" class="node"><title>Node1</title>
<polygon fill="#bfbfbf" stroke="black" points="209.5,-232.5 209.5,-253.5 294.5,-253.5 294.5,-232.5 209.5,-232.5"/>
<text text-anchor="middle" x="252" y="-240.5" font-family="Helvetica,sans-Serif" font-size="10.00">Hqp_Omuses.h</text>
</g>
<!-- Node2 -->
<g id="node3" class="node"><title>Node2</title>
<a xlink:href="Hqp__DocpStub_8h.html" target="_top" xlink:title="client stub for Hqp_Docp interface ">
<polygon fill="white" stroke="black" points="168,-174.5 168,-195.5 260,-195.5 260,-174.5 168,-174.5"/>
<text text-anchor="middle" x="214" y="-182.5" font-family="Helvetica,sans-Serif" font-size="10.00">Hqp_DocpStub.h</text>
</a>
</g>
<!-- Node1&#45;&gt;Node2 -->
<g id="edge2" class="edge"><title>Node1&#45;&gt;Node2</title>
<path fill="none" stroke="midnightblue" d="M245.03,-232.362C239.834,-224.431 232.599,-213.389 226.422,-203.961"/>
<polygon fill="midnightblue" stroke="midnightblue" points="229.334,-202.017 220.926,-195.571 223.478,-205.853 229.334,-202.017"/>
</g>
<!-- Node10 -->
<g id="node19" class="node"><title>Node10</title>
<a xlink:href="If__List_8h.html" target="_top" xlink:title="List of If_ListElement&#39;s. ">
<polygon fill="white" stroke="black" points="276,-116.5 276,-137.5 328,-137.5 328,-116.5 276,-116.5"/>
<text text-anchor="middle" x="302" y="-124.5" font-family="Helvetica,sans-Serif" font-size="10.00">If_List.h</text>
</a>
</g>
<!-- Node1&#45;&gt;Node10 -->
<g id="edge18" class="edge"><title>Node1&#45;&gt;Node10</title>
<path fill="none" stroke="midnightblue" d="M256.614,-232.295C264.949,-212.959 282.637,-171.923 293.303,-147.177"/>
<polygon fill="midnightblue" stroke="midnightblue" points="296.653,-148.248 297.397,-137.679 290.224,-145.477 296.653,-148.248"/>
</g>
<!-- Node3 -->
<g id="node5" class="node"><title>Node3</title>
<a xlink:href="Hqp_8h.html" target="_top" xlink:title="declaration of external API for HQP (Huge Quadratic Programming) ">
<polygon fill="white" stroke="black" points="186.5,-116.5 186.5,-137.5 229.5,-137.5 229.5,-116.5 186.5,-116.5"/>
<text text-anchor="middle" x="208" y="-124.5" font-family="Helvetica,sans-Serif" font-size="10.00">Hqp.h</text>
</a>
</g>
<!-- Node2&#45;&gt;Node3 -->
<g id="edge4" class="edge"><title>Node2&#45;&gt;Node3</title>
<path fill="none" stroke="midnightblue" d="M212.9,-174.362C212.13,-166.922 211.077,-156.743 210.144,-147.728"/>
<polygon fill="midnightblue" stroke="midnightblue" points="213.604,-147.157 209.094,-137.571 206.641,-147.878 213.604,-147.157"/>
</g>
<!-- Node4 -->
<g id="node7" class="node"><title>Node4</title>
<a xlink:href="Meschach_8h.html" target="_top" xlink:title="Meschach declarations and some extensions. ">
<polygon fill="white" stroke="black" points="172,-58.5 172,-79.5 242,-79.5 242,-58.5 172,-58.5"/>
<text text-anchor="middle" x="207" y="-66.5" font-family="Helvetica,sans-Serif" font-size="10.00">Meschach.h</text>
</a>
</g>
<!-- Node3&#45;&gt;Node4 -->
<g id="edge6" class="edge"><title>Node3&#45;&gt;Node4</title>
<path fill="none" stroke="midnightblue" d="M207.817,-116.362C207.688,-108.922 207.513,-98.7427 207.357,-89.7276"/>
<polygon fill="midnightblue" stroke="midnightblue" points="210.854,-89.5088 207.182,-79.5707 203.855,-89.6295 210.854,-89.5088"/>
</g>
<!-- Node5 -->
<g id="node9" class="node"><title>Node5</title>
<polygon fill="white" stroke="#bfbfbf" points="0,-0.5 0,-21.5 40,-21.5 40,-0.5 0,-0.5"/>
<text text-anchor="middle" x="20" y="-8.5" font-family="Helvetica,sans-Serif" font-size="10.00">limits</text>
</g>
<!-- Node4&#45;&gt;Node5 -->
<g id="edge8" class="edge"><title>Node4&#45;&gt;Node5</title>
<path fill="none" stroke="midnightblue" d="M171.938,-59.3684C141.776,-50.9063 96.9333,-37.9069 49.6901,-22.0852"/>
<polygon fill="midnightblue" stroke="midnightblue" points="50.8073,-18.7684 40.2131,-18.8837 48.5669,-25.4002 50.8073,-18.7684"/>
</g>
<!-- Node6 -->
<g id="node11" class="node"><title>Node6</title>
<polygon fill="white" stroke="#bfbfbf" points="365.5,-0.5 365.5,-21.5 414.5,-21.5 414.5,-0.5 365.5,-0.5"/>
<text text-anchor="middle" x="390" y="-8.5" font-family="Helvetica,sans-Serif" font-size="10.00">string.h</text>
</g>
<!-- Node4&#45;&gt;Node6 -->
<g id="edge10" class="edge"><title>Node4&#45;&gt;Node6</title>
<path fill="none" stroke="midnightblue" d="M241.312,-58.4427C269.67,-49.674 311.231,-36.7253 355.391,-22.4901"/>
<polygon fill="midnightblue" stroke="midnightblue" points="356.71,-25.7421 365.15,-19.337 354.558,-19.0812 356.71,-25.7421"/>
</g>
<!-- Node7 -->
<g id="node13" class="node"><title>Node7</title>
<polygon fill="white" stroke="#bfbfbf" points="58,-0.5 58,-21.5 110,-21.5 110,-0.5 58,-0.5"/>
<text text-anchor="middle" x="84" y="-8.5" font-family="Helvetica,sans-Serif" font-size="10.00">assert.h</text>
</g>
<!-- Node4&#45;&gt;Node7 -->
<g id="edge12" class="edge"><title>Node4&#45;&gt;Node7</title>
<path fill="none" stroke="midnightblue" d="M184.726,-58.4966C165.428,-49.397 137.287,-36.1273 115.652,-25.9253"/>
<polygon fill="midnightblue" stroke="midnightblue" points="117.062,-22.7206 106.524,-21.6212 114.076,-29.052 117.062,-22.7206"/>
</g>
<!-- Node8 -->
<g id="node15" class="node"><title>Node8</title>
<polygon fill="white" stroke="#bfbfbf" points="128,-0.5 128,-21.5 228,-21.5 228,-0.5 128,-0.5"/>
<text text-anchor="middle" x="178" y="-8.5" font-family="Helvetica,sans-Serif" font-size="10.00">meschach/matrix.h</text>
</g>
<!-- Node4&#45;&gt;Node8 -->
<g id="edge14" class="edge"><title>Node4&#45;&gt;Node8</title>
<path fill="none" stroke="midnightblue" d="M201.681,-58.3619C197.797,-50.5949 192.421,-39.8426 187.773,-30.5458"/>
<polygon fill="midnightblue" stroke="midnightblue" points="190.888,-28.9497 183.285,-21.5707 184.627,-32.0802 190.888,-28.9497"/>
</g>
<!-- Node9 -->
<g id="node17" class="node"><title>Node9</title>
<polygon fill="white" stroke="#bfbfbf" points="246,-0.5 246,-21.5 348,-21.5 348,-0.5 246,-0.5"/>
<text text-anchor="middle" x="297" y="-8.5" font-family="Helvetica,sans-Serif" font-size="10.00">meschach/sparse.h</text>
</g>
<!-- Node4&#45;&gt;Node9 -->
<g id="edge16" class="edge"><title>Node4&#45;&gt;Node9</title>
<path fill="none" stroke="midnightblue" d="M223.507,-58.3619C237.082,-49.6138 256.533,-37.0786 272.015,-27.1015"/>
<polygon fill="midnightblue" stroke="midnightblue" points="274.088,-29.9297 280.597,-21.5707 270.296,-24.0457 274.088,-29.9297"/>
</g>
<!-- Node11 -->
<g id="node21" class="node"><title>Node11</title>
<a xlink:href="If__ListElement_8h.html" target="_top" xlink:title="Element of an If_List. ">
<polygon fill="white" stroke="black" points="317,-58.5 317,-79.5 405,-79.5 405,-58.5 317,-58.5"/>
<text text-anchor="middle" x="361" y="-66.5" font-family="Helvetica,sans-Serif" font-size="10.00">If_ListElement.h</text>
</a>
</g>
<!-- Node10&#45;&gt;Node11 -->
<g id="edge20" class="edge"><title>Node10&#45;&gt;Node11</title>
<path fill="none" stroke="midnightblue" d="M312.822,-116.362C321.221,-108.104 333.054,-96.4725 342.89,-86.8029"/>
<polygon fill="midnightblue" stroke="midnightblue" points="345.569,-89.077 350.247,-79.5707 340.662,-84.0851 345.569,-89.077"/>
</g>
<!-- Node11&#45;&gt;Node6 -->
<g id="edge22" class="edge"><title>Node11&#45;&gt;Node6</title>
<path fill="none" stroke="midnightblue" d="M366.319,-58.3619C370.203,-50.5949 375.579,-39.8426 380.227,-30.5458"/>
<polygon fill="midnightblue" stroke="midnightblue" points="383.373,-32.0802 384.715,-21.5707 377.112,-28.9497 383.373,-32.0802"/>
</g>
</g>
</svg>
