<?xml version="1.0" encoding="UTF-8" standalone="no"?>
<!DOCTYPE svg PUBLIC "-//W3C//DTD SVG 1.1//EN"
 "http://www.w3.org/Graphics/SVG/1.1/DTD/svg11.dtd">
<!-- Generated by graphviz version 2.26.3 (20100126.1600)
 -->
<!-- Title: Hqp_LPSolve.h Pages: 1 -->
<svg width="435pt" height="320pt"
 viewBox="0.00 0.00 435.00 320.00" xmlns="http://www.w3.org/2000/svg" xmlns:xlink="http://www.w3.org/1999/xlink">
<g id="graph1" class="graph" transform="scale(1 1) rotate(0) translate(4 316)">
<title>Hqp_LPSolve.h</title>
<polygon fill="white" stroke="white" points="-4,5 -4,-316 432,-316 432,5 -4,5"/>
<!-- Node1 -->
<g id="node1" class="node"><title>Node1</title>
<polygon fill="#bfbfbf" stroke="black" points="46.5,-290.5 46.5,-311.5 131.5,-311.5 131.5,-290.5 46.5,-290.5"/>
<text text-anchor="middle" x="89" y="-298.5" font-family="Helvetica,sans-Serif" font-size="10.00">Hqp_LPSolve.h</text>
</g>
<!-- Node2 -->
<g id="node3" class="node"><title>Node2</title>
<a xlink:href="Hqp__MipSolver_8h.html" target="_top" xlink:title="Interface for a solver for mixed integer problems. ">
<polygon fill="white" stroke="black" points="43,-232.5 43,-253.5 135,-253.5 135,-232.5 43,-232.5"/>
<text text-anchor="middle" x="89" y="-240.5" font-family="Helvetica,sans-Serif" font-size="10.00">Hqp_MipSolver.h</text>
</a>
</g>
<!-- Node1&#45;&gt;Node2 -->
<g id="edge2" class="edge"><title>Node1&#45;&gt;Node2</title>
<path fill="none" stroke="midnightblue" d="M89,-290.362C89,-282.922 89,-272.743 89,-263.728"/>
<polygon fill="midnightblue" stroke="midnightblue" points="92.5001,-263.571 89,-253.571 85.5001,-263.571 92.5001,-263.571"/>
</g>
<!-- Node3 -->
<g id="node5" class="node"><title>Node3</title>
<a xlink:href="If__List_8h.html" target="_top" xlink:title="List of If_ListElement&#39;s. ">
<polygon fill="white" stroke="black" points="24,-174.5 24,-195.5 76,-195.5 76,-174.5 24,-174.5"/>
<text text-anchor="middle" x="50" y="-182.5" font-family="Helvetica,sans-Serif" font-size="10.00">If_List.h</text>
</a>
</g>
<!-- Node2&#45;&gt;Node3 -->
<g id="edge4" class="edge"><title>Node2&#45;&gt;Node3</title>
<path fill="none" stroke="midnightblue" d="M81.8468,-232.362C76.5142,-224.431 69.0888,-213.389 62.7494,-203.961"/>
<polygon fill="midnightblue" stroke="midnightblue" points="65.5923,-201.916 57.1079,-195.571 59.7834,-205.822 65.5923,-201.916"/>
</g>
<!-- Node6 -->
<g id="node11" class="node"><title>Node6</title>
<a xlink:href="Hqp__impl_8h.html" target="_top" xlink:title="internal declarations for HQP (Huge Quadratic Programming) ">
<polygon fill="white" stroke="black" points="96,-174.5 96,-195.5 162,-195.5 162,-174.5 96,-174.5"/>
<text text-anchor="middle" x="129" y="-182.5" font-family="Helvetica,sans-Serif" font-size="10.00">Hqp_impl.h</text>
</a>
</g>
<!-- Node2&#45;&gt;Node6 -->
<g id="edge10" class="edge"><title>Node2&#45;&gt;Node6</title>
<path fill="none" stroke="midnightblue" d="M96.3366,-232.362C101.806,-224.431 109.422,-213.389 115.924,-203.961"/>
<polygon fill="midnightblue" stroke="midnightblue" points="118.914,-205.79 121.71,-195.571 113.151,-201.816 118.914,-205.79"/>
</g>
<!-- Node4 -->
<g id="node7" class="node"><title>Node4</title>
<a xlink:href="If__ListElement_8h.html" target="_top" xlink:title="Element of an If_List. ">
<polygon fill="white" stroke="black" points="0,-58.5 0,-79.5 88,-79.5 88,-58.5 0,-58.5"/>
<text text-anchor="middle" x="44" y="-66.5" font-family="Helvetica,sans-Serif" font-size="10.00">If_ListElement.h</text>
</a>
</g>
<!-- Node3&#45;&gt;Node4 -->
<g id="edge6" class="edge"><title>Node3&#45;&gt;Node4</title>
<path fill="none" stroke="midnightblue" d="M49.4463,-174.295C48.4551,-155.131 46.3614,-114.654 45.0781,-89.8434"/>
<polygon fill="midnightblue" stroke="midnightblue" points="48.5643,-89.485 44.5524,-79.6792 41.5737,-89.8467 48.5643,-89.485"/>
</g>
<!-- Node5 -->
<g id="node9" class="node"><title>Node5</title>
<polygon fill="white" stroke="#bfbfbf" points="12.5,-0.5 12.5,-21.5 61.5,-21.5 61.5,-0.5 12.5,-0.5"/>
<text text-anchor="middle" x="37" y="-8.5" font-family="Helvetica,sans-Serif" font-size="10.00">string.h</text>
</g>
<!-- Node4&#45;&gt;Node5 -->
<g id="edge8" class="edge"><title>Node4&#45;&gt;Node5</title>
<path fill="none" stroke="midnightblue" d="M42.7161,-58.3619C41.8182,-50.9219 40.5896,-40.7427 39.5016,-31.7276"/>
<polygon fill="midnightblue" stroke="midnightblue" points="42.9488,-31.0792 38.2758,-21.5707 35.9993,-31.918 42.9488,-31.0792"/>
</g>
<!-- Node7 -->
<g id="node13" class="node"><title>Node7</title>
<a xlink:href="Hqp_8h.html" target="_top" xlink:title="declaration of external API for HQP (Huge Quadratic Programming) ">
<polygon fill="white" stroke="black" points="117.5,-116.5 117.5,-137.5 160.5,-137.5 160.5,-116.5 117.5,-116.5"/>
<text text-anchor="middle" x="139" y="-124.5" font-family="Helvetica,sans-Serif" font-size="10.00">Hqp.h</text>
</a>
</g>
<!-- Node6&#45;&gt;Node7 -->
<g id="edge12" class="edge"><title>Node6&#45;&gt;Node7</title>
<path fill="none" stroke="midnightblue" d="M130.834,-174.362C132.131,-166.84 133.911,-156.519 135.477,-147.431"/>
<polygon fill="midnightblue" stroke="midnightblue" points="138.927,-148.02 137.177,-137.571 132.029,-146.831 138.927,-148.02"/>
</g>
<!-- Node8 -->
<g id="node15" class="node"><title>Node8</title>
<a xlink:href="Meschach_8h.html" target="_top" xlink:title="Meschach declarations and some extensions. ">
<polygon fill="white" stroke="black" points="120,-58.5 120,-79.5 190,-79.5 190,-58.5 120,-58.5"/>
<text text-anchor="middle" x="155" y="-66.5" font-family="Helvetica,sans-Serif" font-size="10.00">Meschach.h</text>
</a>
</g>
<!-- Node7&#45;&gt;Node8 -->
<g id="edge14" class="edge"><title>Node7&#45;&gt;Node8</title>
<path fill="none" stroke="midnightblue" d="M141.935,-116.362C144.01,-108.84 146.857,-98.5187 149.364,-89.4308"/>
<polygon fill="midnightblue" stroke="midnightblue" points="152.799,-90.1414 152.084,-79.5707 146.051,-88.2798 152.799,-90.1414"/>
</g>
<!-- Node8&#45;&gt;Node5 -->
<g id="edge18" class="edge"><title>Node8&#45;&gt;Node5</title>
<path fill="none" stroke="midnightblue" d="M133.631,-58.4966C115.201,-49.4378 88.3629,-36.2462 67.6449,-26.0628"/>
<polygon fill="midnightblue" stroke="midnightblue" points="69.1271,-22.8914 58.6087,-21.6212 66.0392,-29.1735 69.1271,-22.8914"/>
</g>
<!-- Node9 -->
<g id="node17" class="node"><title>Node9</title>
<polygon fill="white" stroke="#bfbfbf" points="79,-0.5 79,-21.5 119,-21.5 119,-0.5 79,-0.5"/>
<text text-anchor="middle" x="99" y="-8.5" font-family="Helvetica,sans-Serif" font-size="10.00">limits</text>
</g>
<!-- Node8&#45;&gt;Node9 -->
<g id="edge16" class="edge"><title>Node8&#45;&gt;Node9</title>
<path fill="none" stroke="midnightblue" d="M144.729,-58.3619C136.756,-50.1043 125.525,-38.4725 116.189,-28.8029"/>
<polygon fill="midnightblue" stroke="midnightblue" points="118.67,-26.3336 109.206,-21.5707 113.634,-31.1958 118.67,-26.3336"/>
</g>
<!-- Node10 -->
<g id="node20" class="node"><title>Node10</title>
<polygon fill="white" stroke="#bfbfbf" points="137,-0.5 137,-21.5 189,-21.5 189,-0.5 137,-0.5"/>
<text text-anchor="middle" x="163" y="-8.5" font-family="Helvetica,sans-Serif" font-size="10.00">assert.h</text>
</g>
<!-- Node8&#45;&gt;Node10 -->
<g id="edge20" class="edge"><title>Node8&#45;&gt;Node10</title>
<path fill="none" stroke="midnightblue" d="M156.467,-58.3619C157.494,-50.9219 158.898,-40.7427 160.141,-31.7276"/>
<polygon fill="midnightblue" stroke="midnightblue" points="163.643,-31.9551 161.542,-21.5707 156.708,-30.9986 163.643,-31.9551"/>
</g>
<!-- Node11 -->
<g id="node22" class="node"><title>Node11</title>
<polygon fill="white" stroke="#bfbfbf" points="207,-0.5 207,-21.5 307,-21.5 307,-0.5 207,-0.5"/>
<text text-anchor="middle" x="257" y="-8.5" font-family="Helvetica,sans-Serif" font-size="10.00">meschach/matrix.h</text>
</g>
<!-- Node8&#45;&gt;Node11 -->
<g id="edge22" class="edge"><title>Node8&#45;&gt;Node11</title>
<path fill="none" stroke="midnightblue" d="M173.708,-58.3619C189.381,-49.4502 211.964,-36.6087 229.663,-26.5447"/>
<polygon fill="midnightblue" stroke="midnightblue" points="231.447,-29.5562 238.41,-21.5707 227.987,-23.4712 231.447,-29.5562"/>
</g>
<!-- Node12 -->
<g id="node24" class="node"><title>Node12</title>
<polygon fill="white" stroke="#bfbfbf" points="325,-0.5 325,-21.5 427,-21.5 427,-0.5 325,-0.5"/>
<text text-anchor="middle" x="376" y="-8.5" font-family="Helvetica,sans-Serif" font-size="10.00">meschach/sparse.h</text>
</g>
<!-- Node8&#45;&gt;Node12 -->
<g id="edge24" class="edge"><title>Node8&#45;&gt;Node12</title>
<path fill="none" stroke="midnightblue" d="M190.018,-59.8097C226.674,-50.1897 284.556,-34.9988 326.011,-24.1194"/>
<polygon fill="midnightblue" stroke="midnightblue" points="327.125,-27.4456 335.909,-21.5217 325.348,-20.6749 327.125,-27.4456"/>
</g>
</g>
</svg>
