<?xml version="1.0" encoding="UTF-8" standalone="no"?>
<!DOCTYPE svg PUBLIC "-//W3C//DTD SVG 1.1//EN"
 "http://www.w3.org/Graphics/SVG/1.1/DTD/svg11.dtd">
<!-- Generated by graphviz version 2.26.3 (20100126.1600)
 -->
<!-- Title: Hqp_impl.h Pages: 1 -->
<svg width="252pt" height="262pt"
 viewBox="0.00 0.00 252.00 262.00" xmlns="http://www.w3.org/2000/svg" xmlns:xlink="http://www.w3.org/1999/xlink">
<g id="graph1" class="graph" transform="scale(1 1) rotate(0) translate(4 258)">
<title>Hqp_impl.h</title>
<polygon fill="white" stroke="white" points="-4,5 -4,-258 249,-258 249,5 -4,5"/>
<!-- Node1 -->
<g id="node1" class="node"><title>Node1</title>
<polygon fill="#bfbfbf" stroke="black" points="59,-232.5 59,-253.5 125,-253.5 125,-232.5 59,-232.5"/>
<text text-anchor="middle" x="92" y="-240.5" font-family="Helvetica,sans-Serif" font-size="10.00">Hqp_impl.h</text>
</g>
<!-- Node2 -->
<g id="node3" class="node"><title>Node2</title>
<a xlink:href="Hqp__SqpProgram_8h.html" target="_top" xlink:title="Interface for a nonlinear program. ">
<polygon fill="white" stroke="black" points="3,-116.5 3,-137.5 105,-137.5 105,-116.5 3,-116.5"/>
<text text-anchor="middle" x="54" y="-124.5" font-family="Helvetica,sans-Serif" font-size="10.00">Hqp_SqpProgram.h</text>
</a>
</g>
<!-- Node1&#45;&gt;Node2 -->
<g id="edge2" class="edge"><title>Node1&#45;&gt;Node2</title>
<path fill="none" stroke="midnightblue" d="M66.3868,-226.446C56.5098,-218.544 46.3246,-208.148 41,-196 32.4851,-176.574 41.5508,-151.679 48.2322,-137.724"/>
<polygon fill="midnightblue" stroke="midnightblue" points="64.3854,-229.319 74.4975,-232.481 68.5642,-223.703 64.3854,-229.319"/>
</g>
<!-- Node5 -->
<g id="node9" class="node"><title>Node5</title>
<a xlink:href="Hqp__Program_8h.html" target="_top" xlink:title="Optimization program for sparse quadratic programming. ">
<polygon fill="white" stroke="black" points="49.5,-174.5 49.5,-195.5 134.5,-195.5 134.5,-174.5 49.5,-174.5"/>
<text text-anchor="middle" x="92" y="-182.5" font-family="Helvetica,sans-Serif" font-size="10.00">Hqp_Program.h</text>
</a>
</g>
<!-- Node1&#45;&gt;Node5 -->
<g id="edge8" class="edge"><title>Node1&#45;&gt;Node5</title>
<path fill="none" stroke="midnightblue" d="M92,-222.191C92,-213.168 92,-202.994 92,-195.571"/>
<polygon fill="midnightblue" stroke="midnightblue" points="88.5001,-222.362 92,-232.362 95.5001,-222.362 88.5001,-222.362"/>
</g>
<!-- Node6 -->
<g id="node12" class="node"><title>Node6</title>
<a xlink:href="Hqp__MipSolver_8h.html" target="_top" xlink:title="Interface for a solver for mixed integer problems. ">
<polygon fill="white" stroke="black" points="152,-174.5 152,-195.5 244,-195.5 244,-174.5 152,-174.5"/>
<text text-anchor="middle" x="198" y="-182.5" font-family="Helvetica,sans-Serif" font-size="10.00">Hqp_MipSolver.h</text>
</a>
</g>
<!-- Node1&#45;&gt;Node6 -->
<g id="edge12" class="edge"><title>Node1&#45;&gt;Node6</title>
<path fill="none" stroke="midnightblue" d="M120.296,-227.517C138.752,-217.419 162.356,-204.503 178.681,-195.571"/>
<polygon fill="midnightblue" stroke="midnightblue" points="118.535,-224.491 111.442,-232.362 121.895,-230.632 118.535,-224.491"/>
</g>
<!-- Node3 -->
<g id="node5" class="node"><title>Node3</title>
<a xlink:href="Hqp__Docp_8h.html" target="_top" xlink:title="base class for formulating Discrete&#45;time Optimal Control Programs ">
<polygon fill="white" stroke="black" points="18.5,-58.5 18.5,-79.5 89.5,-79.5 89.5,-58.5 18.5,-58.5"/>
<text text-anchor="middle" x="54" y="-66.5" font-family="Helvetica,sans-Serif" font-size="10.00">Hqp_Docp.h</text>
</a>
</g>
<!-- Node2&#45;&gt;Node3 -->
<g id="edge4" class="edge"><title>Node2&#45;&gt;Node3</title>
<path fill="none" stroke="midnightblue" d="M54,-106.191C54,-97.1684 54,-86.9941 54,-79.5707"/>
<polygon fill="midnightblue" stroke="midnightblue" points="50.5001,-106.362 54,-116.362 57.5001,-106.362 50.5001,-106.362"/>
</g>
<!-- Node4 -->
<g id="node7" class="node"><title>Node4</title>
<a xlink:href="Hqp__DocpWrapper_8h.html" target="_top" xlink:title="Implement an Hqp_Docp and connect it to Hqp_DocpSpec. ">
<polygon fill="white" stroke="black" points="0,-0.5 0,-21.5 108,-21.5 108,-0.5 0,-0.5"/>
<text text-anchor="middle" x="54" y="-8.5" font-family="Helvetica,sans-Serif" font-size="10.00">Hqp_DocpWrapper.h</text>
</a>
</g>
<!-- Node3&#45;&gt;Node4 -->
<g id="edge6" class="edge"><title>Node3&#45;&gt;Node4</title>
<path fill="none" stroke="midnightblue" d="M54,-48.1906C54,-39.1684 54,-28.9941 54,-21.5707"/>
<polygon fill="midnightblue" stroke="midnightblue" points="50.5001,-48.3619 54,-58.3619 57.5001,-48.3619 50.5001,-48.3619"/>
</g>
<!-- Node5&#45;&gt;Node2 -->
<g id="edge10" class="edge"><title>Node5&#45;&gt;Node2</title>
<path fill="none" stroke="midnightblue" d="M79.5249,-165.959C73.342,-156.522 66.1099,-145.484 60.9256,-137.571"/>
<polygon fill="midnightblue" stroke="midnightblue" points="76.6223,-167.915 85.0302,-174.362 82.4775,-164.079 76.6223,-167.915"/>
</g>
<!-- Node7 -->
<g id="node14" class="node"><title>Node7</title>
<a xlink:href="Hqp__LPSolve_8h.html" target="_top" xlink:title="Interface to lp_solve for the solution of linear mixed integer programs (see: http://lpsolve.sourceforge.net/5.5). ">
<polygon fill="white" stroke="black" points="155.5,-116.5 155.5,-137.5 240.5,-137.5 240.5,-116.5 155.5,-116.5"/>
<text text-anchor="middle" x="198" y="-124.5" font-family="Helvetica,sans-Serif" font-size="10.00">Hqp_LPSolve.h</text>
</a>
</g>
<!-- Node6&#45;&gt;Node7 -->
<g id="edge14" class="edge"><title>Node6&#45;&gt;Node7</title>
<path fill="none" stroke="midnightblue" d="M198,-164.191C198,-155.168 198,-144.994 198,-137.571"/>
<polygon fill="midnightblue" stroke="midnightblue" points="194.5,-164.362 198,-174.362 201.5,-164.362 194.5,-164.362"/>
</g>
</g>
</svg>
