<?xml version="1.0" encoding="UTF-8" standalone="no"?>
<!DOCTYPE svg PUBLIC "-//W3C//DTD SVG 1.1//EN"
 "http://www.w3.org/Graphics/SVG/1.1/DTD/svg11.dtd">
<!-- Generated by graphviz version 2.26.3 (20100126.1600)
 -->
<!-- Title: Hxi_SimStruct.h Pages: 1 -->
<svg width="378pt" height="88pt"
 viewBox="0.00 0.00 378.00 88.00" xmlns="http://www.w3.org/2000/svg" xmlns:xlink="http://www.w3.org/1999/xlink">
<g id="graph1" class="graph" transform="scale(1 1) rotate(0) translate(4 84)">
<title>Hxi_SimStruct.h</title>
<polygon fill="white" stroke="white" points="-4,5 -4,-84 375,-84 375,5 -4,5"/>
<!-- Node1 -->
<g id="node1" class="node"><title>Node1</title>
<polygon fill="#bfbfbf" stroke="black" points="87.5,-58.5 87.5,-79.5 176.5,-79.5 176.5,-58.5 87.5,-58.5"/>
<text text-anchor="middle" x="132" y="-66.5" font-family="Helvetica,sans-Serif" font-size="10.00">Hxi_SimStruct.h</text>
</g>
<!-- Node2 -->
<g id="node3" class="node"><title>Node2</title>
<polygon fill="white" stroke="#bfbfbf" points="0,-0.5 0,-21.5 46,-21.5 46,-0.5 0,-0.5"/>
<text text-anchor="middle" x="23" y="-8.5" font-family="Helvetica,sans-Serif" font-size="10.00">stdio.h</text>
</g>
<!-- Node1&#45;&gt;Node2 -->
<g id="edge2" class="edge"><title>Node1&#45;&gt;Node2</title>
<path fill="none" stroke="midnightblue" d="M112.261,-58.4966C95.3899,-49.5194 70.8915,-36.4835 51.8262,-26.3387"/>
<polygon fill="midnightblue" stroke="midnightblue" points="53.4327,-23.2289 42.9606,-21.6212 50.1445,-29.4086 53.4327,-23.2289"/>
</g>
<!-- Node3 -->
<g id="node5" class="node"><title>Node3</title>
<polygon fill="white" stroke="#bfbfbf" points="64,-0.5 64,-21.5 112,-21.5 112,-0.5 64,-0.5"/>
<text text-anchor="middle" x="88" y="-8.5" font-family="Helvetica,sans-Serif" font-size="10.00">stdlib.h</text>
</g>
<!-- Node1&#45;&gt;Node3 -->
<g id="edge4" class="edge"><title>Node1&#45;&gt;Node3</title>
<path fill="none" stroke="midnightblue" d="M123.93,-58.3619C117.851,-50.3496 109.363,-39.1605 102.163,-29.6696"/>
<polygon fill="midnightblue" stroke="midnightblue" points="104.851,-27.4222 96.0191,-21.5707 99.2746,-31.653 104.851,-27.4222"/>
</g>
<!-- Node4 -->
<g id="node7" class="node"><title>Node4</title>
<a xlink:href="Hxi__sfun__types_8h.html" target="_top" xlink:title="Native type definitions required to compile a Simulink(R) S&#45;function with Hqp. ">
<polygon fill="white" stroke="black" points="129.5,-0.5 129.5,-21.5 222.5,-21.5 222.5,-0.5 129.5,-0.5"/>
<text text-anchor="middle" x="176" y="-8.5" font-family="Helvetica,sans-Serif" font-size="10.00">Hxi_sfun_types.h</text>
</a>
</g>
<!-- Node1&#45;&gt;Node4 -->
<g id="edge6" class="edge"><title>Node1&#45;&gt;Node4</title>
<path fill="none" stroke="midnightblue" d="M140.07,-58.3619C146.149,-50.3496 154.637,-39.1605 161.837,-29.6696"/>
<polygon fill="midnightblue" stroke="midnightblue" points="164.725,-31.653 167.981,-21.5707 159.149,-27.4222 164.725,-31.653"/>
</g>
<!-- Node5 -->
<g id="node9" class="node"><title>Node5</title>
<a xlink:href="Hxi__SimStruct__methods_8h.html" target="_top" xlink:title="Simulink(R) S&#45;function methods supported by Hqp. ">
<polygon fill="white" stroke="black" points="239.5,-0.5 239.5,-21.5 370.5,-21.5 370.5,-0.5 239.5,-0.5"/>
<text text-anchor="middle" x="305" y="-8.5" font-family="Helvetica,sans-Serif" font-size="10.00">Hxi_SimStruct_methods.h</text>
</a>
</g>
<!-- Node1&#45;&gt;Node5 -->
<g id="edge8" class="edge"><title>Node1&#45;&gt;Node5</title>
<path fill="none" stroke="midnightblue" d="M163.329,-58.4966C191.533,-49.0411 233.167,-35.0829 264.009,-24.7428"/>
<polygon fill="midnightblue" stroke="midnightblue" points="265.243,-28.0203 273.612,-21.5231 263.018,-21.3834 265.243,-28.0203"/>
</g>
</g>
</svg>
