<?xml version="1.0" encoding="UTF-8" standalone="no"?>
<!DOCTYPE svg PUBLIC "-//W3C//DTD SVG 1.1//EN"
 "http://www.w3.org/Graphics/SVG/1.1/DTD/svg11.dtd">
<!-- Generated by graphviz version 2.26.3 (20100126.1600)
 -->
<!-- Title: Hxi_MEX_SFunction.h Pages: 1 -->
<svg width="442pt" height="204pt"
 viewBox="0.00 0.00 442.00 204.00" xmlns="http://www.w3.org/2000/svg" xmlns:xlink="http://www.w3.org/1999/xlink">
<g id="graph1" class="graph" transform="scale(1 1) rotate(0) translate(4 200)">
<title>Hxi_MEX_SFunction.h</title>
<polygon fill="white" stroke="white" points="-4,5 -4,-200 439,-200 439,5 -4,5"/>
<!-- Node1 -->
<g id="node1" class="node"><title>Node1</title>
<polygon fill="#bfbfbf" stroke="black" points="73,-174.5 73,-195.5 189,-195.5 189,-174.5 73,-174.5"/>
<text text-anchor="middle" x="131" y="-182.5" font-family="Helvetica,sans-Serif" font-size="10.00">Hxi_MEX_SFunction.h</text>
</g>
<!-- Node2 -->
<g id="node3" class="node"><title>Node2</title>
<a xlink:href="simstruc_8h.html" target="_top" xlink:title="S&#45;function SimStruct include file for treating an S&#45;function either as external MEX object or inlined...">
<polygon fill="white" stroke="black" points="100,-116.5 100,-137.5 162,-137.5 162,-116.5 100,-116.5"/>
<text text-anchor="middle" x="131" y="-124.5" font-family="Helvetica,sans-Serif" font-size="10.00">simstruc.h</text>
</a>
</g>
<!-- Node1&#45;&gt;Node2 -->
<g id="edge2" class="edge"><title>Node1&#45;&gt;Node2</title>
<path fill="none" stroke="midnightblue" d="M131,-174.362C131,-166.922 131,-156.743 131,-147.728"/>
<polygon fill="midnightblue" stroke="midnightblue" points="134.5,-147.571 131,-137.571 127.5,-147.571 134.5,-147.571"/>
</g>
<!-- Node3 -->
<g id="node5" class="node"><title>Node3</title>
<polygon fill="white" stroke="#bfbfbf" points="-0.5,-58.5 -0.5,-79.5 134.5,-79.5 134.5,-58.5 -0.5,-58.5"/>
<text text-anchor="middle" x="67" y="-66.5" font-family="Helvetica,sans-Serif" font-size="10.00">simulink/include/simstruc.h</text>
</g>
<!-- Node2&#45;&gt;Node3 -->
<g id="edge4" class="edge"><title>Node2&#45;&gt;Node3</title>
<path fill="none" stroke="midnightblue" d="M119.261,-116.362C110.059,-108.023 97.0599,-96.2418 86.3283,-86.5162"/>
<polygon fill="midnightblue" stroke="midnightblue" points="88.4244,-83.6924 78.6642,-79.5707 83.7237,-88.8793 88.4244,-83.6924"/>
</g>
<!-- Node4 -->
<g id="node7" class="node"><title>Node4</title>
<a xlink:href="Hxi__SimStruct_8h.html" target="_top" xlink:title="Declaration of Simulink(R) S&#45;function methods supported by Hqp. ">
<polygon fill="white" stroke="black" points="151.5,-58.5 151.5,-79.5 240.5,-79.5 240.5,-58.5 151.5,-58.5"/>
<text text-anchor="middle" x="196" y="-66.5" font-family="Helvetica,sans-Serif" font-size="10.00">Hxi_SimStruct.h</text>
</a>
</g>
<!-- Node2&#45;&gt;Node4 -->
<g id="edge6" class="edge"><title>Node2&#45;&gt;Node4</title>
<path fill="none" stroke="midnightblue" d="M142.922,-116.362C152.359,-107.941 165.73,-96.0105 176.69,-86.2308"/>
<polygon fill="midnightblue" stroke="midnightblue" points="179.022,-88.8401 184.154,-79.5707 174.362,-83.6171 179.022,-88.8401"/>
</g>
<!-- Node5 -->
<g id="node9" class="node"><title>Node5</title>
<polygon fill="white" stroke="#bfbfbf" points="64,-0.5 64,-21.5 110,-21.5 110,-0.5 64,-0.5"/>
<text text-anchor="middle" x="87" y="-8.5" font-family="Helvetica,sans-Serif" font-size="10.00">stdio.h</text>
</g>
<!-- Node4&#45;&gt;Node5 -->
<g id="edge8" class="edge"><title>Node4&#45;&gt;Node5</title>
<path fill="none" stroke="midnightblue" d="M176.261,-58.4966C159.39,-49.5194 134.891,-36.4835 115.826,-26.3387"/>
<polygon fill="midnightblue" stroke="midnightblue" points="117.433,-23.2289 106.961,-21.6212 114.144,-29.4086 117.433,-23.2289"/>
</g>
<!-- Node6 -->
<g id="node11" class="node"><title>Node6</title>
<polygon fill="white" stroke="#bfbfbf" points="128,-0.5 128,-21.5 176,-21.5 176,-0.5 128,-0.5"/>
<text text-anchor="middle" x="152" y="-8.5" font-family="Helvetica,sans-Serif" font-size="10.00">stdlib.h</text>
</g>
<!-- Node4&#45;&gt;Node6 -->
<g id="edge10" class="edge"><title>Node4&#45;&gt;Node6</title>
<path fill="none" stroke="midnightblue" d="M187.93,-58.3619C181.851,-50.3496 173.363,-39.1605 166.163,-29.6696"/>
<polygon fill="midnightblue" stroke="midnightblue" points="168.851,-27.4222 160.019,-21.5707 163.275,-31.653 168.851,-27.4222"/>
</g>
<!-- Node7 -->
<g id="node13" class="node"><title>Node7</title>
<a xlink:href="Hxi__sfun__types_8h.html" target="_top" xlink:title="Native type definitions required to compile a Simulink(R) S&#45;function with Hqp. ">
<polygon fill="white" stroke="black" points="193.5,-0.5 193.5,-21.5 286.5,-21.5 286.5,-0.5 193.5,-0.5"/>
<text text-anchor="middle" x="240" y="-8.5" font-family="Helvetica,sans-Serif" font-size="10.00">Hxi_sfun_types.h</text>
</a>
</g>
<!-- Node4&#45;&gt;Node7 -->
<g id="edge12" class="edge"><title>Node4&#45;&gt;Node7</title>
<path fill="none" stroke="midnightblue" d="M204.07,-58.3619C210.149,-50.3496 218.637,-39.1605 225.837,-29.6696"/>
<polygon fill="midnightblue" stroke="midnightblue" points="228.725,-31.653 231.981,-21.5707 223.149,-27.4222 228.725,-31.653"/>
</g>
<!-- Node8 -->
<g id="node15" class="node"><title>Node8</title>
<a xlink:href="Hxi__SimStruct__methods_8h.html" target="_top" xlink:title="Simulink(R) S&#45;function methods supported by Hqp. ">
<polygon fill="white" stroke="black" points="303.5,-0.5 303.5,-21.5 434.5,-21.5 434.5,-0.5 303.5,-0.5"/>
<text text-anchor="middle" x="369" y="-8.5" font-family="Helvetica,sans-Serif" font-size="10.00">Hxi_SimStruct_methods.h</text>
</a>
</g>
<!-- Node4&#45;&gt;Node8 -->
<g id="edge14" class="edge"><title>Node4&#45;&gt;Node8</title>
<path fill="none" stroke="midnightblue" d="M227.329,-58.4966C255.533,-49.0411 297.167,-35.0829 328.009,-24.7428"/>
<polygon fill="midnightblue" stroke="midnightblue" points="329.243,-28.0203 337.612,-21.5231 327.018,-21.3834 329.243,-28.0203"/>
</g>
</g>
</svg>
