<?xml version="1.0" encoding="UTF-8" standalone="no"?>
<!DOCTYPE svg PUBLIC "-//W3C//DTD SVG 1.1//EN"
 "http://www.w3.org/Graphics/SVG/1.1/DTD/svg11.dtd">
<!-- Generated by graphviz version 2.26.3 (20100126.1600)
 -->
<!-- Title: Hxi_sfun_types.h Pages: 1 -->
<svg width="405pt" height="262pt"
 viewBox="0.00 0.00 405.00 262.00" xmlns="http://www.w3.org/2000/svg" xmlns:xlink="http://www.w3.org/1999/xlink">
<g id="graph1" class="graph" transform="scale(1 1) rotate(0) translate(4 258)">
<title>Hxi_sfun_types.h</title>
<polygon fill="white" stroke="white" points="-4,5 -4,-258 402,-258 402,5 -4,5"/>
<!-- Node1 -->
<g id="node1" class="node"><title>Node1</title>
<polygon fill="#bfbfbf" stroke="black" points="139.5,-232.5 139.5,-253.5 232.5,-253.5 232.5,-232.5 139.5,-232.5"/>
<text text-anchor="middle" x="186" y="-240.5" font-family="Helvetica,sans-Serif" font-size="10.00">Hxi_sfun_types.h</text>
</g>
<!-- Node2 -->
<g id="node3" class="node"><title>Node2</title>
<a xlink:href="Hxi__SimStruct_8h.html" target="_top" xlink:title="Declaration of Simulink(R) S&#45;function methods supported by Hqp. ">
<polygon fill="white" stroke="black" points="141.5,-174.5 141.5,-195.5 230.5,-195.5 230.5,-174.5 141.5,-174.5"/>
<text text-anchor="middle" x="186" y="-182.5" font-family="Helvetica,sans-Serif" font-size="10.00">Hxi_SimStruct.h</text>
</a>
</g>
<!-- Node1&#45;&gt;Node2 -->
<g id="edge2" class="edge"><title>Node1&#45;&gt;Node2</title>
<path fill="none" stroke="midnightblue" d="M186,-222.191C186,-213.168 186,-202.994 186,-195.571"/>
<polygon fill="midnightblue" stroke="midnightblue" points="182.5,-222.362 186,-232.362 189.5,-222.362 182.5,-222.362"/>
</g>
<!-- Node3 -->
<g id="node5" class="node"><title>Node3</title>
<a xlink:href="Hxi__SFunction_8h.html" target="_top" xlink:title="Interface to a Simulink(R) S&#45;function given as binary object. ">
<polygon fill="white" stroke="black" points="81.5,-116.5 81.5,-137.5 170.5,-137.5 170.5,-116.5 81.5,-116.5"/>
<text text-anchor="middle" x="126" y="-124.5" font-family="Helvetica,sans-Serif" font-size="10.00">Hxi_SFunction.h</text>
</a>
</g>
<!-- Node2&#45;&gt;Node3 -->
<g id="edge4" class="edge"><title>Node2&#45;&gt;Node3</title>
<path fill="none" stroke="midnightblue" d="M167.798,-167.405C157.726,-157.668 145.543,-145.891 136.935,-137.571"/>
<polygon fill="midnightblue" stroke="midnightblue" points="165.373,-169.928 174.995,-174.362 170.238,-164.895 165.373,-169.928"/>
</g>
<!-- Node7 -->
<g id="node13" class="node"><title>Node7</title>
<a xlink:href="simstruc_8h.html" target="_top" xlink:title="S&#45;function SimStruct include file for treating an S&#45;function either as external MEX object or inlined...">
<polygon fill="white" stroke="black" points="202,-116.5 202,-137.5 264,-137.5 264,-116.5 202,-116.5"/>
<text text-anchor="middle" x="233" y="-124.5" font-family="Helvetica,sans-Serif" font-size="10.00">simstruc.h</text>
</a>
</g>
<!-- Node2&#45;&gt;Node7 -->
<g id="edge12" class="edge"><title>Node2&#45;&gt;Node7</title>
<path fill="none" stroke="midnightblue" d="M200.958,-166.541C208.707,-156.979 217.89,-145.647 224.434,-137.571"/>
<polygon fill="midnightblue" stroke="midnightblue" points="198.197,-164.389 194.621,-174.362 203.636,-168.796 198.197,-164.389"/>
</g>
<!-- Node4 -->
<g id="node7" class="node"><title>Node4</title>
<a xlink:href="Prg__SFunction_8h.html" target="_top" xlink:title="Basic functionality for formulating an optimization problem for a model given as MEX S&#45;function...">
<polygon fill="white" stroke="black" points="68.5,-58.5 68.5,-79.5 157.5,-79.5 157.5,-58.5 68.5,-58.5"/>
<text text-anchor="middle" x="113" y="-66.5" font-family="Helvetica,sans-Serif" font-size="10.00">Prg_SFunction.h</text>
</a>
</g>
<!-- Node3&#45;&gt;Node4 -->
<g id="edge6" class="edge"><title>Node3&#45;&gt;Node4</title>
<path fill="none" stroke="midnightblue" d="M121.402,-106.488C119.364,-97.3924 117.051,-87.0756 115.369,-79.5707"/>
<polygon fill="midnightblue" stroke="midnightblue" points="118.013,-107.37 123.616,-116.362 124.844,-105.838 118.013,-107.37"/>
</g>
<!-- Node5 -->
<g id="node9" class="node"><title>Node5</title>
<a xlink:href="Prg__SFunctionEst_8h.html" target="_top" xlink:title="Estimation of initial states and parameters for a model given as MEX S&#45;function. ">
<polygon fill="white" stroke="black" points="0,-0.5 0,-21.5 104,-21.5 104,-0.5 0,-0.5"/>
<text text-anchor="middle" x="52" y="-8.5" font-family="Helvetica,sans-Serif" font-size="10.00">Prg_SFunctionEst.h</text>
</a>
</g>
<!-- Node4&#45;&gt;Node5 -->
<g id="edge8" class="edge"><title>Node4&#45;&gt;Node5</title>
<path fill="none" stroke="midnightblue" d="M94.4949,-51.405C84.2546,-41.6683 71.8685,-29.8914 63.1174,-21.5707"/>
<polygon fill="midnightblue" stroke="midnightblue" points="92.1529,-54.0077 101.812,-58.3619 96.9763,-48.9348 92.1529,-54.0077"/>
</g>
<!-- Node6 -->
<g id="node11" class="node"><title>Node6</title>
<a xlink:href="Prg__SFunctionOpt_8h.html" target="_top" xlink:title="Optimal control problem for a model given as MEX S&#45;function. ">
<polygon fill="white" stroke="black" points="121.5,-0.5 121.5,-21.5 226.5,-21.5 226.5,-0.5 121.5,-0.5"/>
<text text-anchor="middle" x="174" y="-8.5" font-family="Helvetica,sans-Serif" font-size="10.00">Prg_SFunctionOpt.h</text>
</a>
</g>
<!-- Node4&#45;&gt;Node6 -->
<g id="edge10" class="edge"><title>Node4&#45;&gt;Node6</title>
<path fill="none" stroke="midnightblue" d="M131.505,-51.405C141.745,-41.6683 154.131,-29.8914 162.883,-21.5707"/>
<polygon fill="midnightblue" stroke="midnightblue" points="129.024,-48.9348 124.188,-58.3619 133.847,-54.0077 129.024,-48.9348"/>
</g>
<!-- Node8 -->
<g id="node15" class="node"><title>Node8</title>
<a xlink:href="Hxi__MEX__SFunction_8h.html" target="_top" xlink:title="Interface to a Simulink(R) S&#45;function given as binary MEX object. ">
<polygon fill="white" stroke="black" points="175,-58.5 175,-79.5 291,-79.5 291,-58.5 175,-58.5"/>
<text text-anchor="middle" x="233" y="-66.5" font-family="Helvetica,sans-Serif" font-size="10.00">Hxi_MEX_SFunction.h</text>
</a>
</g>
<!-- Node7&#45;&gt;Node8 -->
<g id="edge14" class="edge"><title>Node7&#45;&gt;Node8</title>
<path fill="none" stroke="midnightblue" d="M233,-106.191C233,-97.1684 233,-86.9941 233,-79.5707"/>
<polygon fill="midnightblue" stroke="midnightblue" points="229.5,-106.362 233,-116.362 236.5,-106.362 229.5,-106.362"/>
</g>
<!-- Node9 -->
<g id="node17" class="node"><title>Node9</title>
<a xlink:href="Hxi__mx__parse_8h.html" target="_top" xlink:title="Parse an argument string passed to a Simulink S&#45;function and create according mxArrays. ">
<polygon fill="white" stroke="black" points="309,-58.5 309,-79.5 397,-79.5 397,-58.5 309,-58.5"/>
<text text-anchor="middle" x="353" y="-66.5" font-family="Helvetica,sans-Serif" font-size="10.00">Hxi_mx_parse.h</text>
</a>
</g>
<!-- Node7&#45;&gt;Node9 -->
<g id="edge16" class="edge"><title>Node7&#45;&gt;Node9</title>
<path fill="none" stroke="midnightblue" d="M263.891,-112.069C284.906,-101.912 312.209,-88.7157 331.025,-79.6212"/>
<polygon fill="midnightblue" stroke="midnightblue" points="262.211,-108.994 254.731,-116.497 265.258,-115.296 262.211,-108.994"/>
</g>
</g>
</svg>
