<?xml version="1.0" encoding="UTF-8" standalone="no"?>
<!DOCTYPE svg PUBLIC "-//W3C//DTD SVG 1.1//EN"
 "http://www.w3.org/Graphics/SVG/1.1/DTD/svg11.dtd">
<!-- Generated by graphviz version 2.26.3 (20100126.1600)
 -->
<!-- Title: Hxi_mx_parse.h Pages: 1 -->
<svg width="680pt" height="204pt"
 viewBox="0.00 0.00 680.00 204.00" xmlns="http://www.w3.org/2000/svg" xmlns:xlink="http://www.w3.org/1999/xlink">
<g id="graph1" class="graph" transform="scale(1 1) rotate(0) translate(4 200)">
<title>Hxi_mx_parse.h</title>
<polygon fill="white" stroke="white" points="-4,5 -4,-200 677,-200 677,5 -4,5"/>
<!-- Node1 -->
<g id="node1" class="node"><title>Node1</title>
<polygon fill="#bfbfbf" stroke="black" points="224,-174.5 224,-195.5 312,-195.5 312,-174.5 224,-174.5"/>
<text text-anchor="middle" x="268" y="-182.5" font-family="Helvetica,sans-Serif" font-size="10.00">Hxi_mx_parse.h</text>
</g>
<!-- Node2 -->
<g id="node3" class="node"><title>Node2</title>
<a xlink:href="simstruc_8h.html" target="_top" xlink:title="S&#45;function SimStruct include file for treating an S&#45;function either as external MEX object or inlined...">
<polygon fill="white" stroke="black" points="165,-116.5 165,-137.5 227,-137.5 227,-116.5 165,-116.5"/>
<text text-anchor="middle" x="196" y="-124.5" font-family="Helvetica,sans-Serif" font-size="10.00">simstruc.h</text>
</a>
</g>
<!-- Node1&#45;&gt;Node2 -->
<g id="edge2" class="edge"><title>Node1&#45;&gt;Node2</title>
<path fill="none" stroke="midnightblue" d="M254.794,-174.362C244.239,-165.859 229.242,-153.779 217.037,-143.947"/>
<polygon fill="midnightblue" stroke="midnightblue" points="219.105,-141.118 209.122,-137.571 214.714,-146.57 219.105,-141.118"/>
</g>
<!-- Node9 -->
<g id="node17" class="node"><title>Node9</title>
<a xlink:href="Meschach_8h.html" target="_top" xlink:title="Meschach declarations and some extensions. ">
<polygon fill="white" stroke="black" points="339,-116.5 339,-137.5 409,-137.5 409,-116.5 339,-116.5"/>
<text text-anchor="middle" x="374" y="-124.5" font-family="Helvetica,sans-Serif" font-size="10.00">Meschach.h</text>
</a>
</g>
<!-- Node1&#45;&gt;Node9 -->
<g id="edge16" class="edge"><title>Node1&#45;&gt;Node9</title>
<path fill="none" stroke="midnightblue" d="M287.442,-174.362C303.804,-165.409 327.413,-152.491 345.843,-142.406"/>
<polygon fill="midnightblue" stroke="midnightblue" points="347.589,-145.441 354.681,-137.571 344.229,-139.3 347.589,-145.441"/>
</g>
<!-- Node3 -->
<g id="node5" class="node"><title>Node3</title>
<polygon fill="white" stroke="#bfbfbf" points="-0.5,-58.5 -0.5,-79.5 134.5,-79.5 134.5,-58.5 -0.5,-58.5"/>
<text text-anchor="middle" x="67" y="-66.5" font-family="Helvetica,sans-Serif" font-size="10.00">simulink/include/simstruc.h</text>
</g>
<!-- Node2&#45;&gt;Node3 -->
<g id="edge4" class="edge"><title>Node2&#45;&gt;Node3</title>
<path fill="none" stroke="midnightblue" d="M172.639,-116.497C152.309,-107.356 122.622,-94.0082 99.8911,-83.7883"/>
<polygon fill="midnightblue" stroke="midnightblue" points="101.179,-80.5298 90.6231,-79.6212 98.3083,-86.9142 101.179,-80.5298"/>
</g>
<!-- Node4 -->
<g id="node7" class="node"><title>Node4</title>
<a xlink:href="Hxi__SimStruct_8h.html" target="_top" xlink:title="Declaration of Simulink(R) S&#45;function methods supported by Hqp. ">
<polygon fill="white" stroke="black" points="151.5,-58.5 151.5,-79.5 240.5,-79.5 240.5,-58.5 151.5,-58.5"/>
<text text-anchor="middle" x="196" y="-66.5" font-family="Helvetica,sans-Serif" font-size="10.00">Hxi_SimStruct.h</text>
</a>
</g>
<!-- Node2&#45;&gt;Node4 -->
<g id="edge6" class="edge"><title>Node2&#45;&gt;Node4</title>
<path fill="none" stroke="midnightblue" d="M196,-116.362C196,-108.922 196,-98.7427 196,-89.7276"/>
<polygon fill="midnightblue" stroke="midnightblue" points="199.5,-89.5706 196,-79.5707 192.5,-89.5707 199.5,-89.5706"/>
</g>
<!-- Node5 -->
<g id="node9" class="node"><title>Node5</title>
<polygon fill="white" stroke="#bfbfbf" points="64,-0.5 64,-21.5 110,-21.5 110,-0.5 64,-0.5"/>
<text text-anchor="middle" x="87" y="-8.5" font-family="Helvetica,sans-Serif" font-size="10.00">stdio.h</text>
</g>
<!-- Node4&#45;&gt;Node5 -->
<g id="edge8" class="edge"><title>Node4&#45;&gt;Node5</title>
<path fill="none" stroke="midnightblue" d="M176.261,-58.4966C159.39,-49.5194 134.891,-36.4835 115.826,-26.3387"/>
<polygon fill="midnightblue" stroke="midnightblue" points="117.433,-23.2289 106.961,-21.6212 114.144,-29.4086 117.433,-23.2289"/>
</g>
<!-- Node6 -->
<g id="node11" class="node"><title>Node6</title>
<polygon fill="white" stroke="#bfbfbf" points="128,-0.5 128,-21.5 176,-21.5 176,-0.5 128,-0.5"/>
<text text-anchor="middle" x="152" y="-8.5" font-family="Helvetica,sans-Serif" font-size="10.00">stdlib.h</text>
</g>
<!-- Node4&#45;&gt;Node6 -->
<g id="edge10" class="edge"><title>Node4&#45;&gt;Node6</title>
<path fill="none" stroke="midnightblue" d="M187.93,-58.3619C181.851,-50.3496 173.363,-39.1605 166.163,-29.6696"/>
<polygon fill="midnightblue" stroke="midnightblue" points="168.851,-27.4222 160.019,-21.5707 163.275,-31.653 168.851,-27.4222"/>
</g>
<!-- Node7 -->
<g id="node13" class="node"><title>Node7</title>
<a xlink:href="Hxi__sfun__types_8h.html" target="_top" xlink:title="Native type definitions required to compile a Simulink(R) S&#45;function with Hqp. ">
<polygon fill="white" stroke="black" points="193.5,-0.5 193.5,-21.5 286.5,-21.5 286.5,-0.5 193.5,-0.5"/>
<text text-anchor="middle" x="240" y="-8.5" font-family="Helvetica,sans-Serif" font-size="10.00">Hxi_sfun_types.h</text>
</a>
</g>
<!-- Node4&#45;&gt;Node7 -->
<g id="edge12" class="edge"><title>Node4&#45;&gt;Node7</title>
<path fill="none" stroke="midnightblue" d="M204.07,-58.3619C210.149,-50.3496 218.637,-39.1605 225.837,-29.6696"/>
<polygon fill="midnightblue" stroke="midnightblue" points="228.725,-31.653 231.981,-21.5707 223.149,-27.4222 228.725,-31.653"/>
</g>
<!-- Node8 -->
<g id="node15" class="node"><title>Node8</title>
<a xlink:href="Hxi__SimStruct__methods_8h.html" target="_top" xlink:title="Simulink(R) S&#45;function methods supported by Hqp. ">
<polygon fill="white" stroke="black" points="303.5,-0.5 303.5,-21.5 434.5,-21.5 434.5,-0.5 303.5,-0.5"/>
<text text-anchor="middle" x="369" y="-8.5" font-family="Helvetica,sans-Serif" font-size="10.00">Hxi_SimStruct_methods.h</text>
</a>
</g>
<!-- Node4&#45;&gt;Node8 -->
<g id="edge14" class="edge"><title>Node4&#45;&gt;Node8</title>
<path fill="none" stroke="midnightblue" d="M227.329,-58.4966C255.533,-49.0411 297.167,-35.0829 328.009,-24.7428"/>
<polygon fill="midnightblue" stroke="midnightblue" points="329.243,-28.0203 337.612,-21.5231 327.018,-21.3834 329.243,-28.0203"/>
</g>
<!-- Node10 -->
<g id="node19" class="node"><title>Node10</title>
<polygon fill="white" stroke="#bfbfbf" points="258,-58.5 258,-79.5 298,-79.5 298,-58.5 258,-58.5"/>
<text text-anchor="middle" x="278" y="-66.5" font-family="Helvetica,sans-Serif" font-size="10.00">limits</text>
</g>
<!-- Node9&#45;&gt;Node10 -->
<g id="edge18" class="edge"><title>Node9&#45;&gt;Node10</title>
<path fill="none" stroke="midnightblue" d="M356.392,-116.362C341.777,-107.532 320.776,-94.844 304.189,-84.8224"/>
<polygon fill="midnightblue" stroke="midnightblue" points="305.865,-81.7461 295.496,-79.5707 302.246,-87.7376 305.865,-81.7461"/>
</g>
<!-- Node11 -->
<g id="node21" class="node"><title>Node11</title>
<polygon fill="white" stroke="#bfbfbf" points="315.5,-58.5 315.5,-79.5 364.5,-79.5 364.5,-58.5 315.5,-58.5"/>
<text text-anchor="middle" x="340" y="-66.5" font-family="Helvetica,sans-Serif" font-size="10.00">string.h</text>
</g>
<!-- Node9&#45;&gt;Node11 -->
<g id="edge20" class="edge"><title>Node9&#45;&gt;Node11</title>
<path fill="none" stroke="midnightblue" d="M367.764,-116.362C363.163,-108.513 356.775,-97.6159 351.286,-88.2527"/>
<polygon fill="midnightblue" stroke="midnightblue" points="354.273,-86.4276 346.197,-79.5707 348.234,-89.9677 354.273,-86.4276"/>
</g>
<!-- Node12 -->
<g id="node23" class="node"><title>Node12</title>
<polygon fill="white" stroke="#bfbfbf" points="382,-58.5 382,-79.5 434,-79.5 434,-58.5 382,-58.5"/>
<text text-anchor="middle" x="408" y="-66.5" font-family="Helvetica,sans-Serif" font-size="10.00">assert.h</text>
</g>
<!-- Node9&#45;&gt;Node12 -->
<g id="edge22" class="edge"><title>Node9&#45;&gt;Node12</title>
<path fill="none" stroke="midnightblue" d="M380.236,-116.362C384.837,-108.513 391.225,-97.6159 396.714,-88.2527"/>
<polygon fill="midnightblue" stroke="midnightblue" points="399.766,-89.9677 401.803,-79.5707 393.727,-86.4276 399.766,-89.9677"/>
</g>
<!-- Node13 -->
<g id="node25" class="node"><title>Node13</title>
<polygon fill="white" stroke="#bfbfbf" points="452,-58.5 452,-79.5 552,-79.5 552,-58.5 452,-58.5"/>
<text text-anchor="middle" x="502" y="-66.5" font-family="Helvetica,sans-Serif" font-size="10.00">meschach/matrix.h</text>
</g>
<!-- Node9&#45;&gt;Node13 -->
<g id="edge24" class="edge"><title>Node9&#45;&gt;Node13</title>
<path fill="none" stroke="midnightblue" d="M397.18,-116.497C417.352,-107.356 446.81,-94.0082 469.364,-83.7883"/>
<polygon fill="midnightblue" stroke="midnightblue" points="470.896,-86.9366 478.56,-79.6212 468.007,-80.5606 470.896,-86.9366"/>
</g>
<!-- Node14 -->
<g id="node27" class="node"><title>Node14</title>
<polygon fill="white" stroke="#bfbfbf" points="570,-58.5 570,-79.5 672,-79.5 672,-58.5 570,-58.5"/>
<text text-anchor="middle" x="621" y="-66.5" font-family="Helvetica,sans-Serif" font-size="10.00">meschach/sparse.h</text>
</g>
<!-- Node9&#45;&gt;Node14 -->
<g id="edge26" class="edge"><title>Node9&#45;&gt;Node14</title>
<path fill="none" stroke="midnightblue" d="M409.127,-118.752C450.036,-109.145 518.112,-93.1599 566.038,-81.9061"/>
<polygon fill="midnightblue" stroke="midnightblue" points="567.006,-85.2739 575.942,-79.5805 565.406,-78.4593 567.006,-85.2739"/>
</g>
</g>
</svg>
