<?xml version="1.0" encoding="UTF-8" standalone="no"?>
<!DOCTYPE svg PUBLIC "-//W3C//DTD SVG 1.1//EN"
 "http://www.w3.org/Graphics/SVG/1.1/DTD/svg11.dtd">
<!-- Generated by graphviz version 2.26.3 (20100126.1600)
 -->
<!-- Title: If_ListElement.h Pages: 1 -->
<svg width="976pt" height="262pt"
 viewBox="0.00 0.00 976.00 262.00" xmlns="http://www.w3.org/2000/svg" xmlns:xlink="http://www.w3.org/1999/xlink">
<g id="graph1" class="graph" transform="scale(1 1) rotate(0) translate(4 258)">
<title>If_ListElement.h</title>
<polygon fill="white" stroke="white" points="-4,5 -4,-258 973,-258 973,5 -4,5"/>
<!-- Node1 -->
<g id="node1" class="node"><title>Node1</title>
<polygon fill="#bfbfbf" stroke="black" points="548,-232.5 548,-253.5 636,-253.5 636,-232.5 548,-232.5"/>
<text text-anchor="middle" x="592" y="-240.5" font-family="Helvetica,sans-Serif" font-size="10.00">If_ListElement.h</text>
</g>
<!-- Node2 -->
<g id="node3" class="node"><title>Node2</title>
<a xlink:href="If__Element_8h.html" target="_top" xlink:title="interface element to Tcl ">
<polygon fill="white" stroke="black" points="386,-174.5 386,-195.5 458,-195.5 458,-174.5 386,-174.5"/>
<text text-anchor="middle" x="422" y="-182.5" font-family="Helvetica,sans-Serif" font-size="10.00">If_Element.h</text>
</a>
</g>
<!-- Node1&#45;&gt;Node2 -->
<g id="edge2" class="edge"><title>Node1&#45;&gt;Node2</title>
<path fill="none" stroke="midnightblue" d="M551.388,-229.144C521.136,-218.823 480.456,-204.944 452.843,-195.523"/>
<polygon fill="midnightblue" stroke="midnightblue" points="550.62,-232.58 561.214,-232.497 552.88,-225.955 550.62,-232.58"/>
</g>
<!-- Node13 -->
<g id="node25" class="node"><title>Node13</title>
<a xlink:href="If__List_8h.html" target="_top" xlink:title="List of If_ListElement&#39;s. ">
<polygon fill="white" stroke="black" points="684,-174.5 684,-195.5 736,-195.5 736,-174.5 684,-174.5"/>
<text text-anchor="middle" x="710" y="-182.5" font-family="Helvetica,sans-Serif" font-size="10.00">If_List.h</text>
</a>
</g>
<!-- Node1&#45;&gt;Node13 -->
<g id="edge24" class="edge"><title>Node1&#45;&gt;Node13</title>
<path fill="none" stroke="midnightblue" d="M622.376,-228.069C643.041,-217.912 669.889,-204.716 688.391,-195.621"/>
<polygon fill="midnightblue" stroke="midnightblue" points="620.799,-224.944 613.369,-232.497 623.887,-231.226 620.799,-224.944"/>
</g>
<!-- Node3 -->
<g id="node5" class="node"><title>Node3</title>
<a xlink:href="If__Variable_8h.html" target="_top" xlink:title="base classes for interface variables ">
<polygon fill="white" stroke="black" points="229.5,-116.5 229.5,-137.5 300.5,-137.5 300.5,-116.5 229.5,-116.5"/>
<text text-anchor="middle" x="265" y="-124.5" font-family="Helvetica,sans-Serif" font-size="10.00">If_Variable.h</text>
</a>
</g>
<!-- Node2&#45;&gt;Node3 -->
<g id="edge4" class="edge"><title>Node2&#45;&gt;Node3</title>
<path fill="none" stroke="midnightblue" d="M384.129,-171.009C356.229,-160.702 318.875,-146.903 293.485,-137.523"/>
<polygon fill="midnightblue" stroke="midnightblue" points="382.975,-174.314 393.568,-174.497 385.401,-167.748 382.975,-174.314"/>
</g>
<!-- Node11 -->
<g id="node21" class="node"><title>Node11</title>
<a xlink:href="If__Method_8h.html" target="_top" xlink:title="binds a pointer to a method to an interface element ">
<polygon fill="white" stroke="black" points="342,-116.5 342,-137.5 410,-137.5 410,-116.5 342,-116.5"/>
<text text-anchor="middle" x="376" y="-124.5" font-family="Helvetica,sans-Serif" font-size="10.00">If_Method.h</text>
</a>
</g>
<!-- Node2&#45;&gt;Node11 -->
<g id="edge20" class="edge"><title>Node2&#45;&gt;Node11</title>
<path fill="none" stroke="midnightblue" d="M407.13,-166.25C399.595,-156.75 390.724,-145.565 384.384,-137.571"/>
<polygon fill="midnightblue" stroke="midnightblue" points="404.607,-168.702 413.563,-174.362 410.091,-164.352 404.607,-168.702"/>
</g>
<!-- Node12 -->
<g id="node23" class="node"><title>Node12</title>
<a xlink:href="If__Procedure_8h.html" target="_top" xlink:title="binds a function pointer to an interface element ">
<polygon fill="white" stroke="black" points="428,-116.5 428,-137.5 508,-137.5 508,-116.5 428,-116.5"/>
<text text-anchor="middle" x="468" y="-124.5" font-family="Helvetica,sans-Serif" font-size="10.00">If_Procedure.h</text>
</a>
</g>
<!-- Node2&#45;&gt;Node12 -->
<g id="edge22" class="edge"><title>Node2&#45;&gt;Node12</title>
<path fill="none" stroke="midnightblue" d="M436.87,-166.25C444.405,-156.75 453.276,-145.565 459.616,-137.571"/>
<polygon fill="midnightblue" stroke="midnightblue" points="433.909,-164.352 430.437,-174.362 439.393,-168.702 433.909,-164.352"/>
</g>
<!-- Node4 -->
<g id="node7" class="node"><title>Node4</title>
<a xlink:href="If__Bool_8h.html" target="_top" xlink:title="Interface variable for booleans. ">
<polygon fill="white" stroke="black" points="0,-58.5 0,-79.5 56,-79.5 56,-58.5 0,-58.5"/>
<text text-anchor="middle" x="28" y="-66.5" font-family="Helvetica,sans-Serif" font-size="10.00">If_Bool.h</text>
</a>
</g>
<!-- Node3&#45;&gt;Node4 -->
<g id="edge6" class="edge"><title>Node3&#45;&gt;Node4</title>
<path fill="none" stroke="midnightblue" d="M219.562,-117.113C178.902,-108.079 117.75,-94.0267 65,-80 62.1504,-79.2423 59.1873,-78.42 56.2339,-77.5779"/>
<polygon fill="midnightblue" stroke="midnightblue" points="218.92,-120.556 229.44,-119.299 220.432,-113.721 218.92,-120.556"/>
</g>
<!-- Node5 -->
<g id="node9" class="node"><title>Node5</title>
<a xlink:href="If__Int_8h.html" target="_top" xlink:title="Interface variable for integers. ">
<polygon fill="white" stroke="black" points="73.5,-58.5 73.5,-79.5 120.5,-79.5 120.5,-58.5 73.5,-58.5"/>
<text text-anchor="middle" x="97" y="-66.5" font-family="Helvetica,sans-Serif" font-size="10.00">If_Int.h</text>
</a>
</g>
<!-- Node3&#45;&gt;Node5 -->
<g id="edge8" class="edge"><title>Node3&#45;&gt;Node5</title>
<path fill="none" stroke="midnightblue" d="M224.917,-113.162C192.425,-101.944 147.736,-86.5159 120.69,-77.1788"/>
<polygon fill="midnightblue" stroke="midnightblue" points="223.982,-116.542 234.576,-116.497 226.266,-109.925 223.982,-116.542"/>
</g>
<!-- Node6 -->
<g id="node11" class="node"><title>Node6</title>
<a xlink:href="If__IntVec_8h.html" target="_top" xlink:title="Interface variables for integer vectors of the Meschach library. ">
<polygon fill="white" stroke="black" points="137.5,-58.5 137.5,-79.5 202.5,-79.5 202.5,-58.5 137.5,-58.5"/>
<text text-anchor="middle" x="170" y="-66.5" font-family="Helvetica,sans-Serif" font-size="10.00">If_IntVec.h</text>
</a>
</g>
<!-- Node3&#45;&gt;Node6 -->
<g id="edge10" class="edge"><title>Node3&#45;&gt;Node6</title>
<path fill="none" stroke="midnightblue" d="M238.958,-111.101C222.522,-101.066 201.744,-88.3808 187.314,-79.5707"/>
<polygon fill="midnightblue" stroke="midnightblue" points="237.217,-114.138 247.576,-116.362 240.864,-108.164 237.217,-114.138"/>
</g>
<!-- Node7 -->
<g id="node13" class="node"><title>Node7</title>
<a xlink:href="If__Real_8h.html" target="_top" xlink:title="Interface variable for doubles. ">
<polygon fill="white" stroke="black" points="220,-58.5 220,-79.5 276,-79.5 276,-58.5 220,-58.5"/>
<text text-anchor="middle" x="248" y="-66.5" font-family="Helvetica,sans-Serif" font-size="10.00">If_Real.h</text>
</a>
</g>
<!-- Node3&#45;&gt;Node7 -->
<g id="edge12" class="edge"><title>Node3&#45;&gt;Node7</title>
<path fill="none" stroke="midnightblue" d="M258.988,-106.488C256.322,-97.3924 253.298,-87.0756 251.098,-79.5707"/>
<polygon fill="midnightblue" stroke="midnightblue" points="255.71,-107.75 261.882,-116.362 262.428,-105.781 255.71,-107.75"/>
</g>
<!-- Node8 -->
<g id="node15" class="node"><title>Node8</title>
<a xlink:href="If__RealMat_8h.html" target="_top" xlink:title="Interface variables for matrices of reals (currently Mesch::MATP) ">
<polygon fill="white" stroke="black" points="293.5,-58.5 293.5,-79.5 366.5,-79.5 366.5,-58.5 293.5,-58.5"/>
<text text-anchor="middle" x="330" y="-66.5" font-family="Helvetica,sans-Serif" font-size="10.00">If_RealMat.h</text>
</a>
</g>
<!-- Node3&#45;&gt;Node8 -->
<g id="edge14" class="edge"><title>Node3&#45;&gt;Node8</title>
<path fill="none" stroke="midnightblue" d="M284.398,-109.691C295.371,-99.8996 308.737,-87.973 318.154,-79.5707"/>
<polygon fill="midnightblue" stroke="midnightblue" points="282.053,-107.092 276.922,-116.362 286.714,-112.315 282.053,-107.092"/>
</g>
<!-- Node9 -->
<g id="node17" class="node"><title>Node9</title>
<a xlink:href="If__RealVec_8h.html" target="_top" xlink:title="Interface variables for vectors of reals (currently Mesch::VECP) ">
<polygon fill="white" stroke="black" points="384,-58.5 384,-79.5 458,-79.5 458,-58.5 384,-58.5"/>
<text text-anchor="middle" x="421" y="-66.5" font-family="Helvetica,sans-Serif" font-size="10.00">If_RealVec.h</text>
</a>
</g>
<!-- Node3&#45;&gt;Node9 -->
<g id="edge16" class="edge"><title>Node3&#45;&gt;Node9</title>
<path fill="none" stroke="midnightblue" d="M302.63,-113.009C330.352,-102.702 367.468,-88.903 392.697,-79.5231"/>
<polygon fill="midnightblue" stroke="midnightblue" points="301.404,-109.731 293.25,-116.497 303.843,-116.292 301.404,-109.731"/>
</g>
<!-- Node10 -->
<g id="node19" class="node"><title>Node10</title>
<a xlink:href="If__StdString_8h.html" target="_top" xlink:title="If_Variable for standard C++ string type. ">
<polygon fill="white" stroke="black" points="475.5,-58.5 475.5,-79.5 552.5,-79.5 552.5,-58.5 475.5,-58.5"/>
<text text-anchor="middle" x="514" y="-66.5" font-family="Helvetica,sans-Serif" font-size="10.00">If_StdString.h</text>
</a>
</g>
<!-- Node3&#45;&gt;Node10 -->
<g id="edge18" class="edge"><title>Node3&#45;&gt;Node10</title>
<path fill="none" stroke="midnightblue" d="M310.708,-116.383C351.652,-106.868 413.341,-92.5218 467,-80 469.693,-79.3715 472.473,-78.7223 475.272,-78.0681"/>
<polygon fill="midnightblue" stroke="midnightblue" points="309.711,-113.021 300.762,-118.694 311.295,-119.84 309.711,-113.021"/>
</g>
<!-- Node14 -->
<g id="node27" class="node"><title>Node14</title>
<a xlink:href="Hqp__SqpProgram_8h.html" target="_top" xlink:title="Interface for a nonlinear program. ">
<polygon fill="white" stroke="black" points="544,-116.5 544,-137.5 646,-137.5 646,-116.5 544,-116.5"/>
<text text-anchor="middle" x="595" y="-124.5" font-family="Helvetica,sans-Serif" font-size="10.00">Hqp_SqpProgram.h</text>
</a>
</g>
<!-- Node13&#45;&gt;Node14 -->
<g id="edge26" class="edge"><title>Node13&#45;&gt;Node14</title>
<path fill="none" stroke="midnightblue" d="M680.124,-169.932C660.021,-159.793 634.01,-146.675 616.059,-137.621"/>
<polygon fill="midnightblue" stroke="midnightblue" points="678.67,-173.118 689.174,-174.497 681.822,-166.868 678.67,-173.118"/>
</g>
<!-- Node17 -->
<g id="node33" class="node"><title>Node17</title>
<a xlink:href="Hqp__MipSolver_8h.html" target="_top" xlink:title="Interface for a solver for mixed integer problems. ">
<polygon fill="white" stroke="black" points="664,-116.5 664,-137.5 756,-137.5 756,-116.5 664,-116.5"/>
<text text-anchor="middle" x="710" y="-124.5" font-family="Helvetica,sans-Serif" font-size="10.00">Hqp_MipSolver.h</text>
</a>
</g>
<!-- Node13&#45;&gt;Node17 -->
<g id="edge32" class="edge"><title>Node13&#45;&gt;Node17</title>
<path fill="none" stroke="midnightblue" d="M710,-164.191C710,-155.168 710,-144.994 710,-137.571"/>
<polygon fill="midnightblue" stroke="midnightblue" points="706.5,-164.362 710,-174.362 713.5,-164.362 706.5,-164.362"/>
</g>
<!-- Node19 -->
<g id="node37" class="node"><title>Node19</title>
<a xlink:href="Hqp__Omuses_8h.html" target="_top" xlink:title="multi stage optimal control problems described by DAE&#39;s ">
<polygon fill="white" stroke="black" points="773.5,-116.5 773.5,-137.5 858.5,-137.5 858.5,-116.5 773.5,-116.5"/>
<text text-anchor="middle" x="816" y="-124.5" font-family="Helvetica,sans-Serif" font-size="10.00">Hqp_Omuses.h</text>
</a>
</g>
<!-- Node13&#45;&gt;Node19 -->
<g id="edge36" class="edge"><title>Node13&#45;&gt;Node19</title>
<path fill="none" stroke="midnightblue" d="M738.296,-169.517C756.752,-159.419 780.356,-146.503 796.681,-137.571"/>
<polygon fill="midnightblue" stroke="midnightblue" points="736.535,-166.491 729.442,-174.362 739.895,-172.632 736.535,-166.491"/>
</g>
<!-- Node20 -->
<g id="node39" class="node"><title>Node20</title>
<a xlink:href="Omu__Integrator_8h.html" target="_top" xlink:title="interface for integrating continuous&#45;time system equations ">
<polygon fill="white" stroke="black" points="876,-116.5 876,-137.5 968,-137.5 968,-116.5 876,-116.5"/>
<text text-anchor="middle" x="922" y="-124.5" font-family="Helvetica,sans-Serif" font-size="10.00">Omu_Integrator.h</text>
</a>
</g>
<!-- Node13&#45;&gt;Node20 -->
<g id="edge38" class="edge"><title>Node13&#45;&gt;Node20</title>
<path fill="none" stroke="midnightblue" d="M746.101,-175.123C784.272,-164.68 844.261,-148.268 883.365,-137.57"/>
<polygon fill="midnightblue" stroke="midnightblue" points="745.143,-171.757 736.421,-177.772 746.99,-178.509 745.143,-171.757"/>
</g>
<!-- Node15 -->
<g id="node29" class="node"><title>Node15</title>
<a xlink:href="Hqp__Docp_8h.html" target="_top" xlink:title="base class for formulating Discrete&#45;time Optimal Control Programs ">
<polygon fill="white" stroke="black" points="569.5,-58.5 569.5,-79.5 640.5,-79.5 640.5,-58.5 569.5,-58.5"/>
<text text-anchor="middle" x="605" y="-66.5" font-family="Helvetica,sans-Serif" font-size="10.00">Hqp_Docp.h</text>
</a>
</g>
<!-- Node14&#45;&gt;Node15 -->
<g id="edge28" class="edge"><title>Node14&#45;&gt;Node15</title>
<path fill="none" stroke="midnightblue" d="M598.537,-106.488C600.105,-97.3924 601.884,-87.0756 603.177,-79.5707"/>
<polygon fill="midnightblue" stroke="midnightblue" points="595.084,-105.913 596.834,-116.362 601.982,-107.102 595.084,-105.913"/>
</g>
<!-- Node16 -->
<g id="node31" class="node"><title>Node16</title>
<a xlink:href="Hqp__DocpWrapper_8h.html" target="_top" xlink:title="Implement an Hqp_Docp and connect it to Hqp_DocpSpec. ">
<polygon fill="white" stroke="black" points="551,-0.5 551,-21.5 659,-21.5 659,-0.5 551,-0.5"/>
<text text-anchor="middle" x="605" y="-8.5" font-family="Helvetica,sans-Serif" font-size="10.00">Hqp_DocpWrapper.h</text>
</a>
</g>
<!-- Node15&#45;&gt;Node16 -->
<g id="edge30" class="edge"><title>Node15&#45;&gt;Node16</title>
<path fill="none" stroke="midnightblue" d="M605,-48.1906C605,-39.1684 605,-28.9941 605,-21.5707"/>
<polygon fill="midnightblue" stroke="midnightblue" points="601.5,-48.3619 605,-58.3619 608.5,-48.3619 601.5,-48.3619"/>
</g>
<!-- Node18 -->
<g id="node35" class="node"><title>Node18</title>
<a xlink:href="Hqp__LPSolve_8h.html" target="_top" xlink:title="Interface to lp_solve for the solution of linear mixed integer programs (see: http://lpsolve.sourceforge.net/5.5). ">
<polygon fill="white" stroke="black" points="667.5,-58.5 667.5,-79.5 752.5,-79.5 752.5,-58.5 667.5,-58.5"/>
<text text-anchor="middle" x="710" y="-66.5" font-family="Helvetica,sans-Serif" font-size="10.00">Hqp_LPSolve.h</text>
</a>
</g>
<!-- Node17&#45;&gt;Node18 -->
<g id="edge34" class="edge"><title>Node17&#45;&gt;Node18</title>
<path fill="none" stroke="midnightblue" d="M710,-106.191C710,-97.1684 710,-86.9941 710,-79.5707"/>
<polygon fill="midnightblue" stroke="midnightblue" points="706.5,-106.362 710,-116.362 713.5,-106.362 706.5,-106.362"/>
</g>
<!-- Node21 -->
<g id="node41" class="node"><title>Node21</title>
<a xlink:href="Omu__IntIMP_8h.html" target="_top" xlink:title="integrate an ODE over a stage using the implicit midpoint rule ">
<polygon fill="white" stroke="black" points="882,-58.5 882,-79.5 962,-79.5 962,-58.5 882,-58.5"/>
<text text-anchor="middle" x="922" y="-66.5" font-family="Helvetica,sans-Serif" font-size="10.00">Omu_IntIMP.h</text>
</a>
</g>
<!-- Node20&#45;&gt;Node21 -->
<g id="edge40" class="edge"><title>Node20&#45;&gt;Node21</title>
<path fill="none" stroke="midnightblue" d="M922,-106.191C922,-97.1684 922,-86.9941 922,-79.5707"/>
<polygon fill="midnightblue" stroke="midnightblue" points="918.5,-106.362 922,-116.362 925.5,-106.362 918.5,-106.362"/>
</g>
</g>
</svg>
