<?xml version="1.0" encoding="UTF-8" standalone="no"?>
<!DOCTYPE svg PUBLIC "-//W3C//DTD SVG 1.1//EN"
 "http://www.w3.org/Graphics/SVG/1.1/DTD/svg11.dtd">
<!-- Generated by graphviz version 2.26.3 (20100126.1600)
 -->
<!-- Title: If_RealVec.h Pages: 1 -->
<svg width="422pt" height="320pt"
 viewBox="0.00 0.00 422.00 320.00" xmlns="http://www.w3.org/2000/svg" xmlns:xlink="http://www.w3.org/1999/xlink">
<g id="graph1" class="graph" transform="scale(1 1) rotate(0) translate(4 316)">
<title>If_RealVec.h</title>
<polygon fill="white" stroke="white" points="-4,5 -4,-316 419,-316 419,5 -4,5"/>
<!-- Node1 -->
<g id="node1" class="node"><title>Node1</title>
<polygon fill="#bfbfbf" stroke="black" points="179,-290.5 179,-311.5 253,-311.5 253,-290.5 179,-290.5"/>
<text text-anchor="middle" x="216" y="-298.5" font-family="Helvetica,sans-Serif" font-size="10.00">If_RealVec.h</text>
</g>
<!-- Node2 -->
<g id="node3" class="node"><title>Node2</title>
<a xlink:href="Meschach_8h.html" target="_top" xlink:title="Meschach declarations and some extensions. ">
<polygon fill="white" stroke="black" points="150,-58.5 150,-79.5 220,-79.5 220,-58.5 150,-58.5"/>
<text text-anchor="middle" x="185" y="-66.5" font-family="Helvetica,sans-Serif" font-size="10.00">Meschach.h</text>
</a>
</g>
<!-- Node1&#45;&gt;Node2 -->
<g id="edge2" class="edge"><title>Node1&#45;&gt;Node2</title>
<path fill="none" stroke="midnightblue" d="M212.778,-290.272C210.053,-280.809 206.243,-266.603 204,-254 193.477,-194.883 188.216,-124.024 186.125,-89.683"/>
<polygon fill="midnightblue" stroke="midnightblue" points="189.608,-89.287 185.534,-79.5066 182.62,-89.6926 189.608,-89.287"/>
</g>
<!-- Node8 -->
<g id="node15" class="node"><title>Node8</title>
<a xlink:href="If__Variable_8h.html" target="_top" xlink:title="base classes for interface variables ">
<polygon fill="white" stroke="black" points="212.5,-232.5 212.5,-253.5 283.5,-253.5 283.5,-232.5 212.5,-232.5"/>
<text text-anchor="middle" x="248" y="-240.5" font-family="Helvetica,sans-Serif" font-size="10.00">If_Variable.h</text>
</a>
</g>
<!-- Node1&#45;&gt;Node8 -->
<g id="edge14" class="edge"><title>Node1&#45;&gt;Node8</title>
<path fill="none" stroke="midnightblue" d="M221.869,-290.362C226.155,-282.595 232.087,-271.843 237.216,-262.546"/>
<polygon fill="midnightblue" stroke="midnightblue" points="240.402,-264.017 242.168,-253.571 234.273,-260.636 240.402,-264.017"/>
</g>
<!-- Node3 -->
<g id="node5" class="node"><title>Node3</title>
<polygon fill="white" stroke="#bfbfbf" points="0,-0.5 0,-21.5 40,-21.5 40,-0.5 0,-0.5"/>
<text text-anchor="middle" x="20" y="-8.5" font-family="Helvetica,sans-Serif" font-size="10.00">limits</text>
</g>
<!-- Node2&#45;&gt;Node3 -->
<g id="edge4" class="edge"><title>Node2&#45;&gt;Node3</title>
<path fill="none" stroke="midnightblue" d="M153.577,-58.4369C127.948,-49.7562 90.5911,-36.9554 49.8349,-22.2422"/>
<polygon fill="midnightblue" stroke="midnightblue" points="50.8471,-18.8863 40.2529,-18.7701 48.4623,-25.4676 50.8471,-18.8863"/>
</g>
<!-- Node4 -->
<g id="node7" class="node"><title>Node4</title>
<polygon fill="white" stroke="#bfbfbf" points="365.5,-0.5 365.5,-21.5 414.5,-21.5 414.5,-0.5 365.5,-0.5"/>
<text text-anchor="middle" x="390" y="-8.5" font-family="Helvetica,sans-Serif" font-size="10.00">string.h</text>
</g>
<!-- Node2&#45;&gt;Node4 -->
<g id="edge6" class="edge"><title>Node2&#45;&gt;Node4</title>
<path fill="none" stroke="midnightblue" d="M220.08,-60.0185C252.91,-51.4796 303.526,-37.975 355.47,-22.3727"/>
<polygon fill="midnightblue" stroke="midnightblue" points="356.622,-25.6809 365.181,-19.4357 354.595,-18.9807 356.622,-25.6809"/>
</g>
<!-- Node5 -->
<g id="node9" class="node"><title>Node5</title>
<polygon fill="white" stroke="#bfbfbf" points="58,-0.5 58,-21.5 110,-21.5 110,-0.5 58,-0.5"/>
<text text-anchor="middle" x="84" y="-8.5" font-family="Helvetica,sans-Serif" font-size="10.00">assert.h</text>
</g>
<!-- Node2&#45;&gt;Node5 -->
<g id="edge8" class="edge"><title>Node2&#45;&gt;Node5</title>
<path fill="none" stroke="midnightblue" d="M166.475,-58.3619C151.099,-49.532 129.004,-36.844 111.553,-26.8224"/>
<polygon fill="midnightblue" stroke="midnightblue" points="112.822,-23.5154 102.408,-21.5707 109.336,-29.5857 112.822,-23.5154"/>
</g>
<!-- Node6 -->
<g id="node11" class="node"><title>Node6</title>
<polygon fill="white" stroke="#bfbfbf" points="128,-0.5 128,-21.5 228,-21.5 228,-0.5 128,-0.5"/>
<text text-anchor="middle" x="178" y="-8.5" font-family="Helvetica,sans-Serif" font-size="10.00">meschach/matrix.h</text>
</g>
<!-- Node2&#45;&gt;Node6 -->
<g id="edge10" class="edge"><title>Node2&#45;&gt;Node6</title>
<path fill="none" stroke="midnightblue" d="M183.716,-58.3619C182.818,-50.9219 181.59,-40.7427 180.502,-31.7276"/>
<polygon fill="midnightblue" stroke="midnightblue" points="183.949,-31.0792 179.276,-21.5707 176.999,-31.918 183.949,-31.0792"/>
</g>
<!-- Node7 -->
<g id="node13" class="node"><title>Node7</title>
<polygon fill="white" stroke="#bfbfbf" points="246,-0.5 246,-21.5 348,-21.5 348,-0.5 246,-0.5"/>
<text text-anchor="middle" x="297" y="-8.5" font-family="Helvetica,sans-Serif" font-size="10.00">meschach/sparse.h</text>
</g>
<!-- Node2&#45;&gt;Node7 -->
<g id="edge12" class="edge"><title>Node2&#45;&gt;Node7</title>
<path fill="none" stroke="midnightblue" d="M205.282,-58.4966C222.618,-49.5194 247.79,-36.4835 267.38,-26.3387"/>
<polygon fill="midnightblue" stroke="midnightblue" points="269.22,-29.3278 276.49,-21.6212 266.001,-23.1118 269.22,-29.3278"/>
</g>
<!-- Node9 -->
<g id="node17" class="node"><title>Node9</title>
<a xlink:href="If__Element_8h.html" target="_top" xlink:title="interface element to Tcl ">
<polygon fill="white" stroke="black" points="224,-174.5 224,-195.5 296,-195.5 296,-174.5 224,-174.5"/>
<text text-anchor="middle" x="260" y="-182.5" font-family="Helvetica,sans-Serif" font-size="10.00">If_Element.h</text>
</a>
</g>
<!-- Node8&#45;&gt;Node9 -->
<g id="edge16" class="edge"><title>Node8&#45;&gt;Node9</title>
<path fill="none" stroke="midnightblue" d="M250.201,-232.362C251.757,-224.84 253.893,-214.519 255.773,-205.431"/>
<polygon fill="midnightblue" stroke="midnightblue" points="259.214,-206.072 257.813,-195.571 252.359,-204.654 259.214,-206.072"/>
</g>
<!-- Node10 -->
<g id="node19" class="node"><title>Node10</title>
<polygon fill="white" stroke="#bfbfbf" points="245.5,-58.5 245.5,-79.5 280.5,-79.5 280.5,-58.5 245.5,-58.5"/>
<text text-anchor="middle" x="263" y="-66.5" font-family="Helvetica,sans-Serif" font-size="10.00">tcl.h</text>
</g>
<!-- Node9&#45;&gt;Node10 -->
<g id="edge18" class="edge"><title>Node9&#45;&gt;Node10</title>
<path fill="none" stroke="midnightblue" d="M260.277,-174.295C260.772,-155.131 261.819,-114.654 262.461,-89.8434"/>
<polygon fill="midnightblue" stroke="midnightblue" points="265.964,-89.7664 262.724,-79.6792 258.966,-89.5853 265.964,-89.7664"/>
</g>
<!-- Node11 -->
<g id="node21" class="node"><title>Node11</title>
<a xlink:href="If_8h.html" target="_top" xlink:title="public declarations of the interface library ">
<polygon fill="white" stroke="black" points="212.5,-116.5 212.5,-137.5 243.5,-137.5 243.5,-116.5 212.5,-116.5"/>
<text text-anchor="middle" x="228" y="-124.5" font-family="Helvetica,sans-Serif" font-size="10.00">If.h</text>
</a>
</g>
<!-- Node9&#45;&gt;Node11 -->
<g id="edge20" class="edge"><title>Node9&#45;&gt;Node11</title>
<path fill="none" stroke="midnightblue" d="M254.131,-174.362C249.845,-166.595 243.913,-155.843 238.784,-146.546"/>
<polygon fill="midnightblue" stroke="midnightblue" points="241.727,-144.636 233.832,-137.571 235.598,-148.017 241.727,-144.636"/>
</g>
<!-- Node12 -->
<g id="node25" class="node"><title>Node12</title>
<a xlink:href="If__ListElement_8h.html" target="_top" xlink:title="Element of an If_List. ">
<polygon fill="white" stroke="black" points="326,-116.5 326,-137.5 414,-137.5 414,-116.5 326,-116.5"/>
<text text-anchor="middle" x="370" y="-124.5" font-family="Helvetica,sans-Serif" font-size="10.00">If_ListElement.h</text>
</a>
</g>
<!-- Node9&#45;&gt;Node12 -->
<g id="edge26" class="edge"><title>Node9&#45;&gt;Node12</title>
<path fill="none" stroke="midnightblue" d="M279.92,-174.497C296.946,-165.519 321.669,-152.484 340.909,-142.339"/>
<polygon fill="midnightblue" stroke="midnightblue" points="342.643,-145.381 349.856,-137.621 339.378,-139.189 342.643,-145.381"/>
</g>
<!-- Node11&#45;&gt;Node2 -->
<g id="edge22" class="edge"><title>Node11&#45;&gt;Node2</title>
<path fill="none" stroke="midnightblue" d="M220.113,-116.362C214.173,-108.35 205.878,-97.1605 198.841,-87.6696"/>
<polygon fill="midnightblue" stroke="midnightblue" points="201.604,-85.5193 192.837,-79.5707 195.981,-89.6883 201.604,-85.5193"/>
</g>
<!-- Node11&#45;&gt;Node10 -->
<g id="edge24" class="edge"><title>Node11&#45;&gt;Node10</title>
<path fill="none" stroke="midnightblue" d="M234.42,-116.362C239.156,-108.513 245.732,-97.6159 251.382,-88.2527"/>
<polygon fill="midnightblue" stroke="midnightblue" points="254.451,-89.9409 256.621,-79.5707 248.458,-86.3242 254.451,-89.9409"/>
</g>
<!-- Node12&#45;&gt;Node4 -->
<g id="edge28" class="edge"><title>Node12&#45;&gt;Node4</title>
<path fill="none" stroke="midnightblue" d="M371.846,-116.295C375.15,-97.1314 382.129,-56.654 386.406,-31.8434"/>
<polygon fill="midnightblue" stroke="midnightblue" points="389.909,-32.1285 388.159,-21.6792 383.01,-30.9391 389.909,-32.1285"/>
</g>
</g>
</svg>
