<?xml version="1.0" encoding="UTF-8" standalone="no"?>
<!DOCTYPE svg PUBLIC "-//W3C//DTD SVG 1.1//EN"
 "http://www.w3.org/Graphics/SVG/1.1/DTD/svg11.dtd">
<!-- Generated by graphviz version 2.26.3 (20100126.1600)
 -->
<!-- Title: If_ListElement.h Pages: 1 -->
<svg width="976pt" height="262pt"
 viewBox="0.00 0.00 976.00 262.00" xmlns="http://www.w3.org/2000/svg" xmlns:xlink="http://www.w3.org/1999/xlink">
<g id="graph1" class="graph" transform="scale(1 1) rotate(0) translate(4 258)">
<title>If_ListElement.h</title>
<polygon fill="white" stroke="white" points="-4,5 -4,-258 973,-258 973,5 -4,5"/>
<!-- Node1 -->
<g id="node1" class="node"><title>Node1</title>
<polygon fill="#bfbfbf" stroke="black" points="548,-232.5 548,-253.5 636,-253.5 636,-232.5 548,-232.5"/>
<text text-anchor="middle" x="592" y="-240.5" font-family="Helvetica,sans-Serif" font-size="10.00">If_ListElement.h</text>
</g>
<!-- Node2 -->
<g id="node3" class="node"><title>Node2</title>
<a xlink:href="If__Element_8h.html" target="_top" xlink:title="interface element to Tcl ">
<polygon fill="white" stroke="black" points="393,-174.5 393,-195.5 465,-195.5 465,-174.5 393,-174.5"/>
<text text-anchor="middle" x="429" y="-182.5" font-family="Helvetica,sans-Serif" font-size="10.00">If_Element.h</text>
</a>
</g>
<!-- Node1&#45;&gt;Node2 -->
<g id="edge2" class="edge"><title>Node1&#45;&gt;Node2</title>
<path fill="none" stroke="midnightblue" d="M552.682,-229.009C523.715,-218.702 484.934,-204.903 458.573,-195.523"/>
<polygon fill="midnightblue" stroke="midnightblue" points="551.887,-232.442 562.482,-232.497 554.234,-225.847 551.887,-232.442"/>
</g>
<!-- Node13 -->
<g id="node25" class="node"><title>Node13</title>
<a xlink:href="If__List_8h.html" target="_top" xlink:title="List of If_ListElement&#39;s. ">
<polygon fill="white" stroke="black" points="684,-174.5 684,-195.5 736,-195.5 736,-174.5 684,-174.5"/>
<text text-anchor="middle" x="710" y="-182.5" font-family="Helvetica,sans-Serif" font-size="10.00">If_List.h</text>
</a>
</g>
<!-- Node1&#45;&gt;Node13 -->
<g id="edge24" class="edge"><title>Node1&#45;&gt;Node13</title>
<path fill="none" stroke="midnightblue" d="M622.376,-228.069C643.041,-217.912 669.889,-204.716 688.391,-195.621"/>
<polygon fill="midnightblue" stroke="midnightblue" points="620.799,-224.944 613.369,-232.497 623.887,-231.226 620.799,-224.944"/>
</g>
<!-- Node3 -->
<g id="node5" class="node"><title>Node3</title>
<a xlink:href="If__Variable_8h.html" target="_top" xlink:title="base classes for interface variables ">
<polygon fill="white" stroke="black" points="249.5,-116.5 249.5,-137.5 320.5,-137.5 320.5,-116.5 249.5,-116.5"/>
<text text-anchor="middle" x="285" y="-124.5" font-family="Helvetica,sans-Serif" font-size="10.00">If_Variable.h</text>
</a>
</g>
<!-- Node2&#45;&gt;Node3 -->
<g id="edge4" class="edge"><title>Node2&#45;&gt;Node3</title>
<path fill="none" stroke="midnightblue" d="M393.623,-170.751C368.194,-160.509 334.458,-146.921 311.37,-137.621"/>
<polygon fill="midnightblue" stroke="midnightblue" points="392.339,-174.007 402.923,-174.497 394.954,-167.514 392.339,-174.007"/>
</g>
<!-- Node11 -->
<g id="node21" class="node"><title>Node11</title>
<a xlink:href="If__Method_8h.html" target="_top" xlink:title="binds a pointer to a method to an interface element ">
<polygon fill="white" stroke="black" points="349,-116.5 349,-137.5 417,-137.5 417,-116.5 349,-116.5"/>
<text text-anchor="middle" x="383" y="-124.5" font-family="Helvetica,sans-Serif" font-size="10.00">If_Method.h</text>
</a>
</g>
<!-- Node2&#45;&gt;Node11 -->
<g id="edge20" class="edge"><title>Node2&#45;&gt;Node11</title>
<path fill="none" stroke="midnightblue" d="M414.13,-166.25C406.595,-156.75 397.724,-145.565 391.384,-137.571"/>
<polygon fill="midnightblue" stroke="midnightblue" points="411.607,-168.702 420.563,-174.362 417.091,-164.352 411.607,-168.702"/>
</g>
<!-- Node12 -->
<g id="node23" class="node"><title>Node12</title>
<a xlink:href="If__Procedure_8h.html" target="_top" xlink:title="binds a function pointer to an interface element ">
<polygon fill="white" stroke="black" points="435,-116.5 435,-137.5 515,-137.5 515,-116.5 435,-116.5"/>
<text text-anchor="middle" x="475" y="-124.5" font-family="Helvetica,sans-Serif" font-size="10.00">If_Procedure.h</text>
</a>
</g>
<!-- Node2&#45;&gt;Node12 -->
<g id="edge22" class="edge"><title>Node2&#45;&gt;Node12</title>
<path fill="none" stroke="midnightblue" d="M443.87,-166.25C451.405,-156.75 460.276,-145.565 466.616,-137.571"/>
<polygon fill="midnightblue" stroke="midnightblue" points="440.909,-164.352 437.437,-174.362 446.393,-168.702 440.909,-164.352"/>
</g>
<!-- Node4 -->
<g id="node7" class="node"><title>Node4</title>
<a xlink:href="If__Bool_8h.html" target="_top" xlink:title="Interface variable for booleans. ">
<polygon fill="white" stroke="black" points="0,-58.5 0,-79.5 56,-79.5 56,-58.5 0,-58.5"/>
<text text-anchor="middle" x="28" y="-66.5" font-family="Helvetica,sans-Serif" font-size="10.00">If_Bool.h</text>
</a>
</g>
<!-- Node3&#45;&gt;Node4 -->
<g id="edge6" class="edge"><title>Node3&#45;&gt;Node4</title>
<path fill="none" stroke="midnightblue" d="M239.403,-118.345C194.741,-109.612 124.862,-95.2678 65,-80 62.1428,-79.2713 59.1748,-78.4681 56.2184,-77.6376"/>
<polygon fill="midnightblue" stroke="midnightblue" points="238.88,-121.809 249.364,-120.281 240.216,-114.937 238.88,-121.809"/>
</g>
<!-- Node5 -->
<g id="node9" class="node"><title>Node5</title>
<a xlink:href="If__Real_8h.html" target="_top" xlink:title="Interface variable for doubles. ">
<polygon fill="white" stroke="black" points="74,-58.5 74,-79.5 130,-79.5 130,-58.5 74,-58.5"/>
<text text-anchor="middle" x="102" y="-66.5" font-family="Helvetica,sans-Serif" font-size="10.00">If_Real.h</text>
</a>
</g>
<!-- Node3&#45;&gt;Node5 -->
<g id="edge8" class="edge"><title>Node3&#45;&gt;Node5</title>
<path fill="none" stroke="midnightblue" d="M242.038,-113.384C207.487,-102.433 159.942,-87.364 130.097,-77.9052"/>
<polygon fill="midnightblue" stroke="midnightblue" points="241.27,-116.812 251.86,-116.497 243.385,-110.139 241.27,-116.812"/>
</g>
<!-- Node6 -->
<g id="node11" class="node"><title>Node6</title>
<a xlink:href="If__RealMat_8h.html" target="_top" xlink:title="Interface variables for matrices of reals (currently Mesch::MATP) ">
<polygon fill="white" stroke="black" points="147.5,-58.5 147.5,-79.5 220.5,-79.5 220.5,-58.5 147.5,-58.5"/>
<text text-anchor="middle" x="184" y="-66.5" font-family="Helvetica,sans-Serif" font-size="10.00">If_RealMat.h</text>
</a>
</g>
<!-- Node3&#45;&gt;Node6 -->
<g id="edge10" class="edge"><title>Node3&#45;&gt;Node6</title>
<path fill="none" stroke="midnightblue" d="M257.798,-111.379C240.248,-101.301 217.891,-88.4624 202.408,-79.5707"/>
<polygon fill="midnightblue" stroke="midnightblue" points="256.06,-114.417 266.475,-116.362 259.546,-108.347 256.06,-114.417"/>
</g>
<!-- Node7 -->
<g id="node13" class="node"><title>Node7</title>
<a xlink:href="If__RealVec_8h.html" target="_top" xlink:title="Interface variables for vectors of reals (currently Mesch::VECP) ">
<polygon fill="white" stroke="black" points="238,-58.5 238,-79.5 312,-79.5 312,-58.5 238,-58.5"/>
<text text-anchor="middle" x="275" y="-66.5" font-family="Helvetica,sans-Serif" font-size="10.00">If_RealVec.h</text>
</a>
</g>
<!-- Node3&#45;&gt;Node7 -->
<g id="edge12" class="edge"><title>Node3&#45;&gt;Node7</title>
<path fill="none" stroke="midnightblue" d="M281.463,-106.488C279.895,-97.3924 278.116,-87.0756 276.823,-79.5707"/>
<polygon fill="midnightblue" stroke="midnightblue" points="278.018,-107.102 283.166,-116.362 284.916,-105.913 278.018,-107.102"/>
</g>
<!-- Node8 -->
<g id="node15" class="node"><title>Node8</title>
<a xlink:href="If__Int_8h.html" target="_top" xlink:title="Interface variable for integers. ">
<polygon fill="white" stroke="black" points="329.5,-58.5 329.5,-79.5 376.5,-79.5 376.5,-58.5 329.5,-58.5"/>
<text text-anchor="middle" x="353" y="-66.5" font-family="Helvetica,sans-Serif" font-size="10.00">If_Int.h</text>
</a>
</g>
<!-- Node3&#45;&gt;Node8 -->
<g id="edge14" class="edge"><title>Node3&#45;&gt;Node8</title>
<path fill="none" stroke="midnightblue" d="M305.294,-109.691C316.773,-99.8996 330.756,-87.973 340.607,-79.5707"/>
<polygon fill="midnightblue" stroke="midnightblue" points="302.809,-107.209 297.472,-116.362 307.352,-112.535 302.809,-107.209"/>
</g>
<!-- Node9 -->
<g id="node17" class="node"><title>Node9</title>
<a xlink:href="If__IntVec_8h.html" target="_top" xlink:title="Interface variables for integer vectors of the Meschach library. ">
<polygon fill="white" stroke="black" points="393.5,-58.5 393.5,-79.5 458.5,-79.5 458.5,-58.5 393.5,-58.5"/>
<text text-anchor="middle" x="426" y="-66.5" font-family="Helvetica,sans-Serif" font-size="10.00">If_IntVec.h</text>
</a>
</g>
<!-- Node3&#45;&gt;Node9 -->
<g id="edge16" class="edge"><title>Node3&#45;&gt;Node9</title>
<path fill="none" stroke="midnightblue" d="M319.97,-112.615C344.83,-102.389 377.672,-88.8796 400.179,-79.6212"/>
<polygon fill="midnightblue" stroke="midnightblue" points="318.451,-109.456 310.534,-116.497 321.114,-115.929 318.451,-109.456"/>
</g>
<!-- Node10 -->
<g id="node19" class="node"><title>Node10</title>
<a xlink:href="If__StdString_8h.html" target="_top" xlink:title="If_Variable for standard C++ string type. ">
<polygon fill="white" stroke="black" points="475.5,-58.5 475.5,-79.5 552.5,-79.5 552.5,-58.5 475.5,-58.5"/>
<text text-anchor="middle" x="514" y="-66.5" font-family="Helvetica,sans-Serif" font-size="10.00">If_StdString.h</text>
</a>
</g>
<!-- Node3&#45;&gt;Node10 -->
<g id="edge18" class="edge"><title>Node3&#45;&gt;Node10</title>
<path fill="none" stroke="midnightblue" d="M330.567,-115.459C372.957,-104.723 435.425,-88.901 475.412,-78.7733"/>
<polygon fill="midnightblue" stroke="midnightblue" points="329.616,-112.089 320.781,-117.938 331.335,-118.875 329.616,-112.089"/>
</g>
<!-- Node14 -->
<g id="node27" class="node"><title>Node14</title>
<a xlink:href="Hqp__SqpProgram_8h.html" target="_top" xlink:title="Interface for a nonlinear program. ">
<polygon fill="white" stroke="black" points="544,-116.5 544,-137.5 646,-137.5 646,-116.5 544,-116.5"/>
<text text-anchor="middle" x="595" y="-124.5" font-family="Helvetica,sans-Serif" font-size="10.00">Hqp_SqpProgram.h</text>
</a>
</g>
<!-- Node13&#45;&gt;Node14 -->
<g id="edge26" class="edge"><title>Node13&#45;&gt;Node14</title>
<path fill="none" stroke="midnightblue" d="M680.124,-169.932C660.021,-159.793 634.01,-146.675 616.059,-137.621"/>
<polygon fill="midnightblue" stroke="midnightblue" points="678.67,-173.118 689.174,-174.497 681.822,-166.868 678.67,-173.118"/>
</g>
<!-- Node17 -->
<g id="node33" class="node"><title>Node17</title>
<a xlink:href="Hqp__MipSolver_8h.html" target="_top" xlink:title="Interface for a solver for mixed integer problems. ">
<polygon fill="white" stroke="black" points="664,-116.5 664,-137.5 756,-137.5 756,-116.5 664,-116.5"/>
<text text-anchor="middle" x="710" y="-124.5" font-family="Helvetica,sans-Serif" font-size="10.00">Hqp_MipSolver.h</text>
</a>
</g>
<!-- Node13&#45;&gt;Node17 -->
<g id="edge32" class="edge"><title>Node13&#45;&gt;Node17</title>
<path fill="none" stroke="midnightblue" d="M710,-164.191C710,-155.168 710,-144.994 710,-137.571"/>
<polygon fill="midnightblue" stroke="midnightblue" points="706.5,-164.362 710,-174.362 713.5,-164.362 706.5,-164.362"/>
</g>
<!-- Node19 -->
<g id="node37" class="node"><title>Node19</title>
<a xlink:href="Hqp__Omuses_8h.html" target="_top" xlink:title="multi stage optimal control problems described by DAE&#39;s ">
<polygon fill="white" stroke="black" points="773.5,-116.5 773.5,-137.5 858.5,-137.5 858.5,-116.5 773.5,-116.5"/>
<text text-anchor="middle" x="816" y="-124.5" font-family="Helvetica,sans-Serif" font-size="10.00">Hqp_Omuses.h</text>
</a>
</g>
<!-- Node13&#45;&gt;Node19 -->
<g id="edge36" class="edge"><title>Node13&#45;&gt;Node19</title>
<path fill="none" stroke="midnightblue" d="M738.296,-169.517C756.752,-159.419 780.356,-146.503 796.681,-137.571"/>
<polygon fill="midnightblue" stroke="midnightblue" points="736.535,-166.491 729.442,-174.362 739.895,-172.632 736.535,-166.491"/>
</g>
<!-- Node20 -->
<g id="node39" class="node"><title>Node20</title>
<a xlink:href="Omu__Integrator_8h.html" target="_top" xlink:title="interface for integrating continuous&#45;time system equations ">
<polygon fill="white" stroke="black" points="876,-116.5 876,-137.5 968,-137.5 968,-116.5 876,-116.5"/>
<text text-anchor="middle" x="922" y="-124.5" font-family="Helvetica,sans-Serif" font-size="10.00">Omu_Integrator.h</text>
</a>
</g>
<!-- Node13&#45;&gt;Node20 -->
<g id="edge38" class="edge"><title>Node13&#45;&gt;Node20</title>
<path fill="none" stroke="midnightblue" d="M746.101,-175.123C784.272,-164.68 844.261,-148.268 883.365,-137.57"/>
<polygon fill="midnightblue" stroke="midnightblue" points="745.143,-171.757 736.421,-177.772 746.99,-178.509 745.143,-171.757"/>
</g>
<!-- Node15 -->
<g id="node29" class="node"><title>Node15</title>
<a xlink:href="Hqp__Docp_8h.html" target="_top" xlink:title="base class for formulating Discrete&#45;time Optimal Control Programs ">
<polygon fill="white" stroke="black" points="569.5,-58.5 569.5,-79.5 640.5,-79.5 640.5,-58.5 569.5,-58.5"/>
<text text-anchor="middle" x="605" y="-66.5" font-family="Helvetica,sans-Serif" font-size="10.00">Hqp_Docp.h</text>
</a>
</g>
<!-- Node14&#45;&gt;Node15 -->
<g id="edge28" class="edge"><title>Node14&#45;&gt;Node15</title>
<path fill="none" stroke="midnightblue" d="M598.537,-106.488C600.105,-97.3924 601.884,-87.0756 603.177,-79.5707"/>
<polygon fill="midnightblue" stroke="midnightblue" points="595.084,-105.913 596.834,-116.362 601.982,-107.102 595.084,-105.913"/>
</g>
<!-- Node16 -->
<g id="node31" class="node"><title>Node16</title>
<a xlink:href="Hqp__DocpWrapper_8h.html" target="_top" xlink:title="Implement an Hqp_Docp and connect it to Hqp_DocpSpec. ">
<polygon fill="white" stroke="black" points="551,-0.5 551,-21.5 659,-21.5 659,-0.5 551,-0.5"/>
<text text-anchor="middle" x="605" y="-8.5" font-family="Helvetica,sans-Serif" font-size="10.00">Hqp_DocpWrapper.h</text>
</a>
</g>
<!-- Node15&#45;&gt;Node16 -->
<g id="edge30" class="edge"><title>Node15&#45;&gt;Node16</title>
<path fill="none" stroke="midnightblue" d="M605,-48.1906C605,-39.1684 605,-28.9941 605,-21.5707"/>
<polygon fill="midnightblue" stroke="midnightblue" points="601.5,-48.3619 605,-58.3619 608.5,-48.3619 601.5,-48.3619"/>
</g>
<!-- Node18 -->
<g id="node35" class="node"><title>Node18</title>
<a xlink:href="Hqp__LPSolve_8h.html" target="_top" xlink:title="Interface to lp_solve for the solution of linear mixed integer programs (see: http://lpsolve.sourceforge.net/5.5). ">
<polygon fill="white" stroke="black" points="667.5,-58.5 667.5,-79.5 752.5,-79.5 752.5,-58.5 667.5,-58.5"/>
<text text-anchor="middle" x="710" y="-66.5" font-family="Helvetica,sans-Serif" font-size="10.00">Hqp_LPSolve.h</text>
</a>
</g>
<!-- Node17&#45;&gt;Node18 -->
<g id="edge34" class="edge"><title>Node17&#45;&gt;Node18</title>
<path fill="none" stroke="midnightblue" d="M710,-106.191C710,-97.1684 710,-86.9941 710,-79.5707"/>
<polygon fill="midnightblue" stroke="midnightblue" points="706.5,-106.362 710,-116.362 713.5,-106.362 706.5,-106.362"/>
</g>
<!-- Node21 -->
<g id="node41" class="node"><title>Node21</title>
<a xlink:href="Omu__IntIMP_8h.html" target="_top" xlink:title="integrate an ODE over a stage using the implicit midpoint rule ">
<polygon fill="white" stroke="black" points="882,-58.5 882,-79.5 962,-79.5 962,-58.5 882,-58.5"/>
<text text-anchor="middle" x="922" y="-66.5" font-family="Helvetica,sans-Serif" font-size="10.00">Omu_IntIMP.h</text>
</a>
</g>
<!-- Node20&#45;&gt;Node21 -->
<g id="edge40" class="edge"><title>Node20&#45;&gt;Node21</title>
<path fill="none" stroke="midnightblue" d="M922,-106.191C922,-97.1684 922,-86.9941 922,-79.5707"/>
<polygon fill="midnightblue" stroke="midnightblue" points="918.5,-106.362 922,-116.362 925.5,-106.362 918.5,-106.362"/>
</g>
</g>
</svg>
