<?xml version="1.0" encoding="UTF-8" standalone="no"?>
<!DOCTYPE svg PUBLIC "-//W3C//DTD SVG 1.1//EN"
 "http://www.w3.org/Graphics/SVG/1.1/DTD/svg11.dtd">
<!-- Generated by graphviz version 2.26.3 (20100126.1600)
 -->
<!-- Title: If_Procedure.h Pages: 1 -->
<svg width="422pt" height="262pt"
 viewBox="0.00 0.00 422.00 262.00" xmlns="http://www.w3.org/2000/svg" xmlns:xlink="http://www.w3.org/1999/xlink">
<g id="graph1" class="graph" transform="scale(1 1) rotate(0) translate(4 258)">
<title>If_Procedure.h</title>
<polygon fill="white" stroke="white" points="-4,5 -4,-258 419,-258 419,5 -4,5"/>
<!-- Node1 -->
<g id="node1" class="node"><title>Node1</title>
<polygon fill="#bfbfbf" stroke="black" points="153,-232.5 153,-253.5 233,-253.5 233,-232.5 153,-232.5"/>
<text text-anchor="middle" x="193" y="-240.5" font-family="Helvetica,sans-Serif" font-size="10.00">If_Procedure.h</text>
</g>
<!-- Node2 -->
<g id="node3" class="node"><title>Node2</title>
<a xlink:href="If__Element_8h.html" target="_top" xlink:title="interface element to Tcl ">
<polygon fill="white" stroke="black" points="157,-174.5 157,-195.5 229,-195.5 229,-174.5 157,-174.5"/>
<text text-anchor="middle" x="193" y="-182.5" font-family="Helvetica,sans-Serif" font-size="10.00">If_Element.h</text>
</a>
</g>
<!-- Node1&#45;&gt;Node2 -->
<g id="edge2" class="edge"><title>Node1&#45;&gt;Node2</title>
<path fill="none" stroke="midnightblue" d="M193,-232.362C193,-224.922 193,-214.743 193,-205.728"/>
<polygon fill="midnightblue" stroke="midnightblue" points="196.5,-205.571 193,-195.571 189.5,-205.571 196.5,-205.571"/>
</g>
<!-- Node3 -->
<g id="node5" class="node"><title>Node3</title>
<polygon fill="white" stroke="#bfbfbf" points="127.5,-58.5 127.5,-79.5 162.5,-79.5 162.5,-58.5 127.5,-58.5"/>
<text text-anchor="middle" x="145" y="-66.5" font-family="Helvetica,sans-Serif" font-size="10.00">tcl.h</text>
</g>
<!-- Node2&#45;&gt;Node3 -->
<g id="edge4" class="edge"><title>Node2&#45;&gt;Node3</title>
<path fill="none" stroke="midnightblue" d="M187.042,-174.374C181.903,-164.976 174.467,-150.808 169,-138 162.176,-122.012 155.779,-103.365 151.308,-89.4889"/>
<polygon fill="midnightblue" stroke="midnightblue" points="154.639,-88.4128 148.29,-79.9311 147.964,-90.5209 154.639,-88.4128"/>
</g>
<!-- Node4 -->
<g id="node7" class="node"><title>Node4</title>
<a xlink:href="If_8h.html" target="_top" xlink:title="public declarations of the interface library ">
<polygon fill="white" stroke="black" points="177.5,-116.5 177.5,-137.5 208.5,-137.5 208.5,-116.5 177.5,-116.5"/>
<text text-anchor="middle" x="193" y="-124.5" font-family="Helvetica,sans-Serif" font-size="10.00">If.h</text>
</a>
</g>
<!-- Node2&#45;&gt;Node4 -->
<g id="edge6" class="edge"><title>Node2&#45;&gt;Node4</title>
<path fill="none" stroke="midnightblue" d="M193,-174.362C193,-166.922 193,-156.743 193,-147.728"/>
<polygon fill="midnightblue" stroke="midnightblue" points="196.5,-147.571 193,-137.571 189.5,-147.571 196.5,-147.571"/>
</g>
<!-- Node11 -->
<g id="node22" class="node"><title>Node11</title>
<a xlink:href="If__ListElement_8h.html" target="_top" xlink:title="Element of an If_List. ">
<polygon fill="white" stroke="black" points="232,-116.5 232,-137.5 320,-137.5 320,-116.5 232,-116.5"/>
<text text-anchor="middle" x="276" y="-124.5" font-family="Helvetica,sans-Serif" font-size="10.00">If_ListElement.h</text>
</a>
</g>
<!-- Node2&#45;&gt;Node11 -->
<g id="edge22" class="edge"><title>Node2&#45;&gt;Node11</title>
<path fill="none" stroke="midnightblue" d="M208.223,-174.362C220.625,-165.696 238.346,-153.313 252.557,-143.382"/>
<polygon fill="midnightblue" stroke="midnightblue" points="254.681,-146.168 260.873,-137.571 250.671,-140.43 254.681,-146.168"/>
</g>
<!-- Node4&#45;&gt;Node3 -->
<g id="edge20" class="edge"><title>Node4&#45;&gt;Node3</title>
<path fill="none" stroke="midnightblue" d="M184.196,-116.362C177.498,-108.268 168.116,-96.9318 160.211,-87.3796"/>
<polygon fill="midnightblue" stroke="midnightblue" points="162.82,-85.0431 153.748,-79.5707 157.427,-89.5061 162.82,-85.0431"/>
</g>
<!-- Node5 -->
<g id="node9" class="node"><title>Node5</title>
<a xlink:href="Meschach_8h.html" target="_top" xlink:title="Meschach declarations and some extensions. ">
<polygon fill="white" stroke="black" points="180,-58.5 180,-79.5 250,-79.5 250,-58.5 180,-58.5"/>
<text text-anchor="middle" x="215" y="-66.5" font-family="Helvetica,sans-Serif" font-size="10.00">Meschach.h</text>
</a>
</g>
<!-- Node4&#45;&gt;Node5 -->
<g id="edge8" class="edge"><title>Node4&#45;&gt;Node5</title>
<path fill="none" stroke="midnightblue" d="M197.035,-116.362C199.919,-108.758 203.888,-98.294 207.363,-89.1349"/>
<polygon fill="midnightblue" stroke="midnightblue" points="210.716,-90.1619 210.99,-79.5707 204.171,-87.6793 210.716,-90.1619"/>
</g>
<!-- Node6 -->
<g id="node11" class="node"><title>Node6</title>
<polygon fill="white" stroke="#bfbfbf" points="0,-0.5 0,-21.5 40,-21.5 40,-0.5 0,-0.5"/>
<text text-anchor="middle" x="20" y="-8.5" font-family="Helvetica,sans-Serif" font-size="10.00">limits</text>
</g>
<!-- Node5&#45;&gt;Node6 -->
<g id="edge10" class="edge"><title>Node5&#45;&gt;Node6</title>
<path fill="none" stroke="midnightblue" d="M179.757,-59.9709C148.014,-51.6294 99.9169,-38.4738 49.8935,-22.1198"/>
<polygon fill="midnightblue" stroke="midnightblue" points="50.7947,-18.7315 40.2015,-18.9184 48.5991,-25.3783 50.7947,-18.7315"/>
</g>
<!-- Node7 -->
<g id="node13" class="node"><title>Node7</title>
<polygon fill="white" stroke="#bfbfbf" points="365.5,-0.5 365.5,-21.5 414.5,-21.5 414.5,-0.5 365.5,-0.5"/>
<text text-anchor="middle" x="390" y="-8.5" font-family="Helvetica,sans-Serif" font-size="10.00">string.h</text>
</g>
<!-- Node5&#45;&gt;Node7 -->
<g id="edge12" class="edge"><title>Node5&#45;&gt;Node7</title>
<path fill="none" stroke="midnightblue" d="M246.871,-58.4726C273.63,-49.6288 313.124,-36.5653 355.768,-22.4054"/>
<polygon fill="midnightblue" stroke="midnightblue" points="357.107,-25.6489 365.494,-19.1752 354.9,-19.0058 357.107,-25.6489"/>
</g>
<!-- Node8 -->
<g id="node15" class="node"><title>Node8</title>
<polygon fill="white" stroke="#bfbfbf" points="58,-0.5 58,-21.5 110,-21.5 110,-0.5 58,-0.5"/>
<text text-anchor="middle" x="84" y="-8.5" font-family="Helvetica,sans-Serif" font-size="10.00">assert.h</text>
</g>
<!-- Node5&#45;&gt;Node8 -->
<g id="edge14" class="edge"><title>Node5&#45;&gt;Node8</title>
<path fill="none" stroke="midnightblue" d="M191.277,-58.4966C170.632,-49.3562 140.484,-36.0082 117.401,-25.7883"/>
<polygon fill="midnightblue" stroke="midnightblue" points="118.55,-22.4694 107.989,-21.6212 115.716,-28.8701 118.55,-22.4694"/>
</g>
<!-- Node9 -->
<g id="node17" class="node"><title>Node9</title>
<polygon fill="white" stroke="#bfbfbf" points="128,-0.5 128,-21.5 228,-21.5 228,-0.5 128,-0.5"/>
<text text-anchor="middle" x="178" y="-8.5" font-family="Helvetica,sans-Serif" font-size="10.00">meschach/matrix.h</text>
</g>
<!-- Node5&#45;&gt;Node9 -->
<g id="edge16" class="edge"><title>Node5&#45;&gt;Node9</title>
<path fill="none" stroke="midnightblue" d="M208.214,-58.3619C203.207,-50.5131 196.255,-39.6159 190.282,-30.2527"/>
<polygon fill="midnightblue" stroke="midnightblue" points="193.072,-28.1189 184.743,-21.5707 187.171,-31.8837 193.072,-28.1189"/>
</g>
<!-- Node10 -->
<g id="node19" class="node"><title>Node10</title>
<polygon fill="white" stroke="#bfbfbf" points="246,-0.5 246,-21.5 348,-21.5 348,-0.5 246,-0.5"/>
<text text-anchor="middle" x="297" y="-8.5" font-family="Helvetica,sans-Serif" font-size="10.00">meschach/sparse.h</text>
</g>
<!-- Node5&#45;&gt;Node10 -->
<g id="edge18" class="edge"><title>Node5&#45;&gt;Node10</title>
<path fill="none" stroke="midnightblue" d="M230.04,-58.3619C242.293,-49.6955 259.799,-37.3126 273.839,-27.3819"/>
<polygon fill="midnightblue" stroke="midnightblue" points="275.912,-30.2028 282.055,-21.5707 271.87,-24.4879 275.912,-30.2028"/>
</g>
<!-- Node11&#45;&gt;Node7 -->
<g id="edge24" class="edge"><title>Node11&#45;&gt;Node7</title>
<path fill="none" stroke="midnightblue" d="M286.521,-116.295C306.117,-96.3545 348.393,-53.337 372.403,-28.9056"/>
<polygon fill="midnightblue" stroke="midnightblue" points="374.992,-31.2648 379.505,-21.6792 369.999,-26.3582 374.992,-31.2648"/>
</g>
</g>
</svg>
