<?xml version="1.0" encoding="UTF-8" standalone="no"?>
<!DOCTYPE svg PUBLIC "-//W3C//DTD SVG 1.1//EN"
 "http://www.w3.org/Graphics/SVG/1.1/DTD/svg11.dtd">
<!-- Generated by graphviz version 2.26.3 (20100126.1600)
 -->
<!-- Title: If_Variable.h Pages: 1 -->
<svg width="560pt" height="88pt"
 viewBox="0.00 0.00 560.00 88.00" xmlns="http://www.w3.org/2000/svg" xmlns:xlink="http://www.w3.org/1999/xlink">
<g id="graph1" class="graph" transform="scale(1 1) rotate(0) translate(4 84)">
<title>If_Variable.h</title>
<polygon fill="white" stroke="white" points="-4,5 -4,-84 557,-84 557,5 -4,5"/>
<!-- Node1 -->
<g id="node1" class="node"><title>Node1</title>
<polygon fill="#bfbfbf" stroke="black" points="239.5,-58.5 239.5,-79.5 310.5,-79.5 310.5,-58.5 239.5,-58.5"/>
<text text-anchor="middle" x="275" y="-66.5" font-family="Helvetica,sans-Serif" font-size="10.00">If_Variable.h</text>
</g>
<!-- Node2 -->
<g id="node3" class="node"><title>Node2</title>
<a xlink:href="If__Bool_8h.html" target="_top" xlink:title="Interface variable for booleans. ">
<polygon fill="white" stroke="black" points="0,-0.5 0,-21.5 56,-21.5 56,-0.5 0,-0.5"/>
<text text-anchor="middle" x="28" y="-8.5" font-family="Helvetica,sans-Serif" font-size="10.00">If_Bool.h</text>
</a>
</g>
<!-- Node1&#45;&gt;Node2 -->
<g id="edge2" class="edge"><title>Node1&#45;&gt;Node2</title>
<path fill="none" stroke="midnightblue" d="M229.338,-59.7266C186.652,-50.8342 121.234,-36.6335 65,-22 62.1464,-21.2574 59.1807,-20.4452 56.2257,-19.6091"/>
<polygon fill="midnightblue" stroke="midnightblue" points="228.647,-63.1577 239.149,-61.7604 230.068,-56.3034 228.647,-63.1577"/>
</g>
<!-- Node3 -->
<g id="node5" class="node"><title>Node3</title>
<a xlink:href="If__Real_8h.html" target="_top" xlink:title="Interface variable for doubles. ">
<polygon fill="white" stroke="black" points="74,-0.5 74,-21.5 130,-21.5 130,-0.5 74,-0.5"/>
<text text-anchor="middle" x="102" y="-8.5" font-family="Helvetica,sans-Serif" font-size="10.00">If_Real.h</text>
</a>
</g>
<!-- Node1&#45;&gt;Node3 -->
<g id="edge4" class="edge"><title>Node1&#45;&gt;Node3</title>
<path fill="none" stroke="midnightblue" d="M234.144,-55.3026C202.14,-44.5729 158.453,-29.9264 130.232,-20.465"/>
<polygon fill="midnightblue" stroke="midnightblue" points="233.077,-58.6363 243.671,-58.4966 235.302,-51.9994 233.077,-58.6363"/>
</g>
<!-- Node4 -->
<g id="node7" class="node"><title>Node4</title>
<a xlink:href="If__RealMat_8h.html" target="_top" xlink:title="Interface variables for matrices of reals (currently Mesch::MATP) ">
<polygon fill="white" stroke="black" points="147.5,-0.5 147.5,-21.5 220.5,-21.5 220.5,-0.5 147.5,-0.5"/>
<text text-anchor="middle" x="184" y="-8.5" font-family="Helvetica,sans-Serif" font-size="10.00">If_RealMat.h</text>
</a>
</g>
<!-- Node1&#45;&gt;Node4 -->
<g id="edge6" class="edge"><title>Node1&#45;&gt;Node4</title>
<path fill="none" stroke="midnightblue" d="M249.616,-52.8215C233.942,-42.8312 214.28,-30.2993 200.585,-21.5707"/>
<polygon fill="midnightblue" stroke="midnightblue" points="247.995,-55.9386 258.309,-58.3619 251.758,-50.0356 247.995,-55.9386"/>
</g>
<!-- Node5 -->
<g id="node9" class="node"><title>Node5</title>
<a xlink:href="If__RealVec_8h.html" target="_top" xlink:title="Interface variables for vectors of reals (currently Mesch::VECP) ">
<polygon fill="white" stroke="black" points="238,-0.5 238,-21.5 312,-21.5 312,-0.5 238,-0.5"/>
<text text-anchor="middle" x="275" y="-8.5" font-family="Helvetica,sans-Serif" font-size="10.00">If_RealVec.h</text>
</a>
</g>
<!-- Node1&#45;&gt;Node5 -->
<g id="edge8" class="edge"><title>Node1&#45;&gt;Node5</title>
<path fill="none" stroke="midnightblue" d="M275,-48.1906C275,-39.1684 275,-28.9941 275,-21.5707"/>
<polygon fill="midnightblue" stroke="midnightblue" points="271.5,-48.3619 275,-58.3619 278.5,-48.3619 271.5,-48.3619"/>
</g>
<!-- Node6 -->
<g id="node11" class="node"><title>Node6</title>
<a xlink:href="If__Int_8h.html" target="_top" xlink:title="Interface variable for integers. ">
<polygon fill="white" stroke="black" points="329.5,-0.5 329.5,-21.5 376.5,-21.5 376.5,-0.5 329.5,-0.5"/>
<text text-anchor="middle" x="353" y="-8.5" font-family="Helvetica,sans-Serif" font-size="10.00">If_Int.h</text>
</a>
</g>
<!-- Node1&#45;&gt;Node6 -->
<g id="edge10" class="edge"><title>Node1&#45;&gt;Node6</title>
<path fill="none" stroke="midnightblue" d="M297.514,-52.2587C310.821,-42.3641 327.265,-30.1361 338.784,-21.5707"/>
<polygon fill="midnightblue" stroke="midnightblue" points="295.243,-49.5862 289.306,-58.3619 299.42,-55.2035 295.243,-49.5862"/>
</g>
<!-- Node7 -->
<g id="node13" class="node"><title>Node7</title>
<a xlink:href="If__IntVec_8h.html" target="_top" xlink:title="Interface variables for integer vectors of the Meschach library. ">
<polygon fill="white" stroke="black" points="393.5,-0.5 393.5,-21.5 458.5,-21.5 458.5,-0.5 393.5,-0.5"/>
<text text-anchor="middle" x="426" y="-8.5" font-family="Helvetica,sans-Serif" font-size="10.00">If_IntVec.h</text>
</a>
</g>
<!-- Node1&#45;&gt;Node7 -->
<g id="edge12" class="edge"><title>Node1&#45;&gt;Node7</title>
<path fill="none" stroke="midnightblue" d="M311.776,-54.8742C338.571,-44.5819 374.29,-30.862 398.604,-21.5231"/>
<polygon fill="midnightblue" stroke="midnightblue" points="310.425,-51.6437 302.345,-58.4966 312.935,-58.1782 310.425,-51.6437"/>
</g>
<!-- Node8 -->
<g id="node15" class="node"><title>Node8</title>
<a xlink:href="If__StdString_8h.html" target="_top" xlink:title="If_Variable for standard C++ string type. ">
<polygon fill="white" stroke="black" points="475.5,-0.5 475.5,-21.5 552.5,-21.5 552.5,-0.5 475.5,-0.5"/>
<text text-anchor="middle" x="514" y="-8.5" font-family="Helvetica,sans-Serif" font-size="10.00">If_StdString.h</text>
</a>
</g>
<!-- Node1&#45;&gt;Node8 -->
<g id="edge14" class="edge"><title>Node1&#45;&gt;Node8</title>
<path fill="none" stroke="midnightblue" d="M320.257,-58.017C364.994,-47.1605 432.72,-30.7248 475.105,-20.4391"/>
<polygon fill="midnightblue" stroke="midnightblue" points="319.415,-54.6198 310.523,-60.3794 321.066,-61.4223 319.415,-54.6198"/>
</g>
</g>
</svg>
