<?xml version="1.0" encoding="UTF-8" standalone="no"?>
<!DOCTYPE svg PUBLIC "-//W3C//DTD SVG 1.1//EN"
 "http://www.w3.org/Graphics/SVG/1.1/DTD/svg11.dtd">
<!-- Generated by graphviz version 2.26.3 (20100126.1600)
 -->
<!-- Title: If_List.h Pages: 1 -->
<svg width="435pt" height="204pt"
 viewBox="0.00 0.00 435.00 204.00" xmlns="http://www.w3.org/2000/svg" xmlns:xlink="http://www.w3.org/1999/xlink">
<g id="graph1" class="graph" transform="scale(1 1) rotate(0) translate(4 200)">
<title>If_List.h</title>
<polygon fill="white" stroke="white" points="-4,5 -4,-200 432,-200 432,5 -4,5"/>
<!-- Node1 -->
<g id="node1" class="node"><title>Node1</title>
<polygon fill="#bfbfbf" stroke="black" points="196,-174.5 196,-195.5 248,-195.5 248,-174.5 196,-174.5"/>
<text text-anchor="middle" x="222" y="-182.5" font-family="Helvetica,sans-Serif" font-size="10.00">If_List.h</text>
</g>
<!-- Node2 -->
<g id="node3" class="node"><title>Node2</title>
<a xlink:href="Hqp__SqpProgram_8h.html" target="_top" xlink:title="Interface for a nonlinear program. ">
<polygon fill="white" stroke="black" points="3,-116.5 3,-137.5 105,-137.5 105,-116.5 3,-116.5"/>
<text text-anchor="middle" x="54" y="-124.5" font-family="Helvetica,sans-Serif" font-size="10.00">Hqp_SqpProgram.h</text>
</a>
</g>
<!-- Node1&#45;&gt;Node2 -->
<g id="edge2" class="edge"><title>Node1&#45;&gt;Node2</title>
<path fill="none" stroke="midnightblue" d="M186.029,-172.581C155.843,-162.16 113.194,-147.436 84.6184,-137.571"/>
<polygon fill="midnightblue" stroke="midnightblue" points="185.155,-175.982 195.75,-175.938 187.44,-169.366 185.155,-175.982"/>
</g>
<!-- Node5 -->
<g id="node9" class="node"><title>Node5</title>
<a xlink:href="Hqp__MipSolver_8h.html" target="_top" xlink:title="Interface for a solver for mixed integer problems. ">
<polygon fill="white" stroke="black" points="123,-116.5 123,-137.5 215,-137.5 215,-116.5 123,-116.5"/>
<text text-anchor="middle" x="169" y="-124.5" font-family="Helvetica,sans-Serif" font-size="10.00">Hqp_MipSolver.h</text>
</a>
</g>
<!-- Node1&#45;&gt;Node5 -->
<g id="edge8" class="edge"><title>Node1&#45;&gt;Node5</title>
<path fill="none" stroke="midnightblue" d="M205.396,-166.83C196.604,-157.208 186.114,-145.728 178.659,-137.571"/>
<polygon fill="midnightblue" stroke="midnightblue" points="202.949,-169.341 212.279,-174.362 208.117,-164.619 202.949,-169.341"/>
</g>
<!-- Node7 -->
<g id="node13" class="node"><title>Node7</title>
<a xlink:href="Hqp__Omuses_8h.html" target="_top" xlink:title="multi stage optimal control problems described by DAE&#39;s ">
<polygon fill="white" stroke="black" points="232.5,-116.5 232.5,-137.5 317.5,-137.5 317.5,-116.5 232.5,-116.5"/>
<text text-anchor="middle" x="275" y="-124.5" font-family="Helvetica,sans-Serif" font-size="10.00">Hqp_Omuses.h</text>
</a>
</g>
<!-- Node1&#45;&gt;Node7 -->
<g id="edge12" class="edge"><title>Node1&#45;&gt;Node7</title>
<path fill="none" stroke="midnightblue" d="M238.604,-166.83C247.396,-157.208 257.886,-145.728 265.341,-137.571"/>
<polygon fill="midnightblue" stroke="midnightblue" points="235.883,-164.619 231.721,-174.362 241.051,-169.341 235.883,-164.619"/>
</g>
<!-- Node8 -->
<g id="node15" class="node"><title>Node8</title>
<a xlink:href="Omu__Integrator_8h.html" target="_top" xlink:title="interface for integrating continuous&#45;time system equations ">
<polygon fill="white" stroke="black" points="335,-116.5 335,-137.5 427,-137.5 427,-116.5 335,-116.5"/>
<text text-anchor="middle" x="381" y="-124.5" font-family="Helvetica,sans-Serif" font-size="10.00">Omu_Integrator.h</text>
</a>
</g>
<!-- Node1&#45;&gt;Node8 -->
<g id="edge14" class="edge"><title>Node1&#45;&gt;Node8</title>
<path fill="none" stroke="midnightblue" d="M257.826,-171.931C286.268,-161.556 325.523,-147.237 352.01,-137.575"/>
<polygon fill="midnightblue" stroke="midnightblue" points="256.451,-168.707 248.256,-175.422 258.85,-175.284 256.451,-168.707"/>
</g>
<!-- Node3 -->
<g id="node5" class="node"><title>Node3</title>
<a xlink:href="Hqp__Docp_8h.html" target="_top" xlink:title="base class for formulating Discrete&#45;time Optimal Control Programs ">
<polygon fill="white" stroke="black" points="18.5,-58.5 18.5,-79.5 89.5,-79.5 89.5,-58.5 18.5,-58.5"/>
<text text-anchor="middle" x="54" y="-66.5" font-family="Helvetica,sans-Serif" font-size="10.00">Hqp_Docp.h</text>
</a>
</g>
<!-- Node2&#45;&gt;Node3 -->
<g id="edge4" class="edge"><title>Node2&#45;&gt;Node3</title>
<path fill="none" stroke="midnightblue" d="M54,-106.191C54,-97.1684 54,-86.9941 54,-79.5707"/>
<polygon fill="midnightblue" stroke="midnightblue" points="50.5001,-106.362 54,-116.362 57.5001,-106.362 50.5001,-106.362"/>
</g>
<!-- Node4 -->
<g id="node7" class="node"><title>Node4</title>
<a xlink:href="Hqp__DocpWrapper_8h.html" target="_top" xlink:title="Implement an Hqp_Docp and connect it to Hqp_DocpSpec. ">
<polygon fill="white" stroke="black" points="0,-0.5 0,-21.5 108,-21.5 108,-0.5 0,-0.5"/>
<text text-anchor="middle" x="54" y="-8.5" font-family="Helvetica,sans-Serif" font-size="10.00">Hqp_DocpWrapper.h</text>
</a>
</g>
<!-- Node3&#45;&gt;Node4 -->
<g id="edge6" class="edge"><title>Node3&#45;&gt;Node4</title>
<path fill="none" stroke="midnightblue" d="M54,-48.1906C54,-39.1684 54,-28.9941 54,-21.5707"/>
<polygon fill="midnightblue" stroke="midnightblue" points="50.5001,-48.3619 54,-58.3619 57.5001,-48.3619 50.5001,-48.3619"/>
</g>
<!-- Node6 -->
<g id="node11" class="node"><title>Node6</title>
<a xlink:href="Hqp__LPSolve_8h.html" target="_top" xlink:title="Interface to lp_solve for the solution of linear mixed integer programs (see: http://lpsolve.sourceforge.net/5.5). ">
<polygon fill="white" stroke="black" points="126.5,-58.5 126.5,-79.5 211.5,-79.5 211.5,-58.5 126.5,-58.5"/>
<text text-anchor="middle" x="169" y="-66.5" font-family="Helvetica,sans-Serif" font-size="10.00">Hqp_LPSolve.h</text>
</a>
</g>
<!-- Node5&#45;&gt;Node6 -->
<g id="edge10" class="edge"><title>Node5&#45;&gt;Node6</title>
<path fill="none" stroke="midnightblue" d="M169,-106.191C169,-97.1684 169,-86.9941 169,-79.5707"/>
<polygon fill="midnightblue" stroke="midnightblue" points="165.5,-106.362 169,-116.362 172.5,-106.362 165.5,-106.362"/>
</g>
<!-- Node9 -->
<g id="node17" class="node"><title>Node9</title>
<a xlink:href="Omu__IntIMP_8h.html" target="_top" xlink:title="integrate an ODE over a stage using the implicit midpoint rule ">
<polygon fill="white" stroke="black" points="341,-58.5 341,-79.5 421,-79.5 421,-58.5 341,-58.5"/>
<text text-anchor="middle" x="381" y="-66.5" font-family="Helvetica,sans-Serif" font-size="10.00">Omu_IntIMP.h</text>
</a>
</g>
<!-- Node8&#45;&gt;Node9 -->
<g id="edge16" class="edge"><title>Node8&#45;&gt;Node9</title>
<path fill="none" stroke="midnightblue" d="M381,-106.191C381,-97.1684 381,-86.9941 381,-79.5707"/>
<polygon fill="midnightblue" stroke="midnightblue" points="377.5,-106.362 381,-116.362 384.5,-106.362 377.5,-106.362"/>
</g>
</g>
</svg>
