<?xml version="1.0" encoding="UTF-8" standalone="no"?>
<!DOCTYPE svg PUBLIC "-//W3C//DTD SVG 1.1//EN"
 "http://www.w3.org/Graphics/SVG/1.1/DTD/svg11.dtd">
<!-- Generated by graphviz version 2.26.3 (20100126.1600)
 -->
<!-- Title: Graphical Class Hierarchy Pages: 1 -->
<svg width="256pt" height="134pt"
 viewBox="0.00 0.00 256.00 134.00" xmlns="http://www.w3.org/2000/svg" xmlns:xlink="http://www.w3.org/1999/xlink">
<g id="graph1" class="graph" transform="scale(1 1) rotate(0) translate(4 130)">
<title>Graphical Class Hierarchy</title>
<polygon fill="white" stroke="white" points="-4,5 -4,-130 253,-130 253,5 -4,5"/>
<!-- Node1 -->
<g id="node1" class="node"><title>Node1</title>
<a xlink:href="classIf__GetIf.html" target="_top" xlink:title="Interface for a read callback. ">
<polygon fill="white" stroke="black" points="0,-52.5 0,-73.5 104,-73.5 104,-52.5 0,-52.5"/>
<text text-anchor="middle" x="52" y="-60.5" font-family="Helvetica,sans-Serif" font-size="10.00">If_GetIf&lt; VarType &gt;</text>
</a>
</g>
<!-- Node2 -->
<g id="node3" class="node"><title>Node2</title>
<a xlink:href="classIf__GetCb.html" target="_top" xlink:title="Read callback for specific class type. ">
<polygon fill="white" stroke="black" points="141.5,-92 141.5,-126 246.5,-126 246.5,-92 141.5,-92"/>
<text text-anchor="start" x="149.5" y="-113" font-family="Helvetica,sans-Serif" font-size="10.00">If_GetCb&lt; VarType,</text>
<text text-anchor="middle" x="194" y="-100" font-family="Helvetica,sans-Serif" font-size="10.00"> ClassType &gt;</text>
</a>
</g>
<!-- Node1&#45;&gt;Node2 -->
<g id="edge2" class="edge"><title>Node1&#45;&gt;Node2</title>
<path fill="none" stroke="midnightblue" d="M94.4127,-76.7393C109.13,-81.5068 125.814,-86.9115 141.261,-91.9155"/>
<polygon fill="midnightblue" stroke="midnightblue" points="95.1696,-73.3055 84.5777,-73.5533 93.0123,-79.9648 95.1696,-73.3055"/>
</g>
<!-- Node3 -->
<g id="node5" class="node"><title>Node3</title>
<a xlink:href="classIf__GetPt.html" target="_top" xlink:title="Read callback directly accessing through a pointer. ">
<polygon fill="white" stroke="black" points="140,-52.5 140,-73.5 248,-73.5 248,-52.5 140,-52.5"/>
<text text-anchor="middle" x="194" y="-60.5" font-family="Helvetica,sans-Serif" font-size="10.00">If_GetPt&lt; VarType &gt;</text>
</a>
</g>
<!-- Node1&#45;&gt;Node3 -->
<g id="edge4" class="edge"><title>Node1&#45;&gt;Node3</title>
<path fill="none" stroke="midnightblue" d="M114.239,-63C122.671,-63 131.271,-63 139.553,-63"/>
<polygon fill="midnightblue" stroke="midnightblue" points="114.069,-59.5001 104.069,-63 114.069,-66.5001 114.069,-59.5001"/>
</g>
<!-- Node4 -->
<g id="node7" class="node"><title>Node4</title>
<a xlink:href="classIf__GetPt2.html" target="_top" xlink:title="Read callback directly accessing through a pointer of different type. ">
<polygon fill="white" stroke="black" points="140.5,-0 140.5,-34 247.5,-34 247.5,-0 140.5,-0"/>
<text text-anchor="start" x="148.5" y="-21" font-family="Helvetica,sans-Serif" font-size="10.00">If_GetPt2&lt; VarType,</text>
<text text-anchor="middle" x="194" y="-8" font-family="Helvetica,sans-Serif" font-size="10.00"> InternalType &gt;</text>
</a>
</g>
<!-- Node1&#45;&gt;Node4 -->
<g id="edge6" class="edge"><title>Node1&#45;&gt;Node4</title>
<path fill="none" stroke="midnightblue" d="M94.4127,-49.2607C109.13,-44.4932 125.814,-39.0885 141.261,-34.0845"/>
<polygon fill="midnightblue" stroke="midnightblue" points="93.0123,-46.0352 84.5777,-52.4467 95.1696,-52.6945 93.0123,-46.0352"/>
</g>
</g>
</svg>
