<?xml version="1.0" encoding="UTF-8" standalone="no"?>
<!DOCTYPE svg PUBLIC "-//W3C//DTD SVG 1.1//EN"
 "http://www.w3.org/Graphics/SVG/1.1/DTD/svg11.dtd">
<!-- Generated by graphviz version 2.26.3 (20100126.1600)
 -->
<!-- Title: Graphical Class Hierarchy Pages: 1 -->
<svg width="594pt" height="150pt"
 viewBox="0.00 0.00 594.00 150.00" xmlns="http://www.w3.org/2000/svg" xmlns:xlink="http://www.w3.org/1999/xlink">
<g id="graph1" class="graph" transform="scale(1 1) rotate(0) translate(4 146)">
<title>Graphical Class Hierarchy</title>
<polygon fill="white" stroke="white" points="-4,5 -4,-146 591,-146 591,5 -4,5"/>
<!-- Node1 -->
<g id="node1" class="node"><title>Node1</title>
<a xlink:href="classMesch_1_1VECP.html" target="_top" xlink:title="Wrapper for Meschach VEC*. ">
<polygon fill="white" stroke="black" points="0,-100.5 0,-121.5 80,-121.5 80,-100.5 0,-100.5"/>
<text text-anchor="middle" x="40" y="-108.5" font-family="Helvetica,sans-Serif" font-size="10.00">Mesch::VECP</text>
</a>
</g>
<!-- Node2 -->
<g id="node3" class="node"><title>Node2</title>
<a xlink:href="classOmu__Gradient.html" target="_top" xlink:title="Vector extended with structural information for a gradient. ">
<polygon fill="white" stroke="black" points="116,-120.5 116,-141.5 196,-141.5 196,-120.5 116,-120.5"/>
<text text-anchor="middle" x="156" y="-128.5" font-family="Helvetica,sans-Serif" font-size="10.00">Omu_Gradient</text>
</a>
</g>
<!-- Node1&#45;&gt;Node2 -->
<g id="edge2" class="edge"><title>Node1&#45;&gt;Node2</title>
<path fill="none" stroke="midnightblue" d="M90.1622,-119.649C98.74,-121.128 107.551,-122.647 115.826,-124.073"/>
<polygon fill="midnightblue" stroke="midnightblue" points="90.6949,-116.189 80.2456,-117.939 89.5055,-123.087 90.6949,-116.189"/>
</g>
<!-- Node3 -->
<g id="node5" class="node"><title>Node3</title>
<a xlink:href="classOmu__Vec.html" target="_top" xlink:title="Avoid multiple inclusion. ">
<polygon fill="white" stroke="black" points="126,-80.5 126,-101.5 186,-101.5 186,-80.5 126,-80.5"/>
<text text-anchor="middle" x="156" y="-88.5" font-family="Helvetica,sans-Serif" font-size="10.00">Omu_Vec</text>
</a>
</g>
<!-- Node1&#45;&gt;Node3 -->
<g id="edge4" class="edge"><title>Node1&#45;&gt;Node3</title>
<path fill="none" stroke="midnightblue" d="M90.2385,-102.338C102.319,-100.255 114.857,-98.0937 125.705,-96.2233"/>
<polygon fill="midnightblue" stroke="midnightblue" points="89.5055,-98.9128 80.2456,-104.061 90.6949,-105.811 89.5055,-98.9128"/>
</g>
<!-- Node4 -->
<g id="node7" class="node"><title>Node4</title>
<a xlink:href="classOmu__DependentVec.html" target="_top" xlink:title="Vector of dependent variables. ">
<polygon fill="white" stroke="black" points="232.5,-120.5 232.5,-141.5 339.5,-141.5 339.5,-120.5 232.5,-120.5"/>
<text text-anchor="middle" x="286" y="-128.5" font-family="Helvetica,sans-Serif" font-size="10.00">Omu_DependentVec</text>
</a>
</g>
<!-- Node3&#45;&gt;Node4 -->
<g id="edge6" class="edge"><title>Node3&#45;&gt;Node4</title>
<path fill="none" stroke="midnightblue" d="M196.181,-103.363C213.864,-108.804 234.431,-115.133 251.418,-120.36"/>
<polygon fill="midnightblue" stroke="midnightblue" points="196.738,-99.873 186.151,-100.277 194.68,-106.563 196.738,-99.873"/>
</g>
<!-- Node6 -->
<g id="node11" class="node"><title>Node6</title>
<a xlink:href="classOmu__StateVec.html" target="_top" xlink:title="Vector of state variables, including sensitivity matrices Sx, Su and Sq that hold sensitivities wrt i...">
<polygon fill="white" stroke="black" points="244.5,-80.5 244.5,-101.5 327.5,-101.5 327.5,-80.5 244.5,-80.5"/>
<text text-anchor="middle" x="286" y="-88.5" font-family="Helvetica,sans-Serif" font-size="10.00">Omu_StateVec</text>
</a>
</g>
<!-- Node3&#45;&gt;Node6 -->
<g id="edge10" class="edge"><title>Node3&#45;&gt;Node6</title>
<path fill="none" stroke="midnightblue" d="M196.295,-91C211.51,-91 228.846,-91 244.196,-91"/>
<polygon fill="midnightblue" stroke="midnightblue" points="196.151,-87.5001 186.151,-91 196.151,-94.5001 196.151,-87.5001"/>
</g>
<!-- Node8 -->
<g id="node15" class="node"><title>Node8</title>
<a xlink:href="classOmu__VariableVec.html" target="_top" xlink:title="Vector of optimization variables, including min, max and initial attributes. ">
<polygon fill="white" stroke="black" points="238.5,-40.5 238.5,-61.5 333.5,-61.5 333.5,-40.5 238.5,-40.5"/>
<text text-anchor="middle" x="286" y="-48.5" font-family="Helvetica,sans-Serif" font-size="10.00">Omu_VariableVec</text>
</a>
</g>
<!-- Node3&#45;&gt;Node8 -->
<g id="edge14" class="edge"><title>Node3&#45;&gt;Node8</title>
<path fill="none" stroke="midnightblue" d="M196.181,-78.6367C213.864,-73.1957 234.431,-66.8675 251.418,-61.6405"/>
<polygon fill="midnightblue" stroke="midnightblue" points="194.68,-75.4365 186.151,-81.7227 196.738,-82.127 194.68,-75.4365"/>
</g>
<!-- Node5 -->
<g id="node9" class="node"><title>Node5</title>
<a xlink:href="classOmu__DepVec.html" target="_top" xlink:title="Internally used vector of dependent variables. ">
<polygon fill="white" stroke="black" points="383,-120.5 383,-141.5 461,-141.5 461,-120.5 383,-120.5"/>
<text text-anchor="middle" x="422" y="-128.5" font-family="Helvetica,sans-Serif" font-size="10.00">Omu_DepVec</text>
</a>
</g>
<!-- Node4&#45;&gt;Node5 -->
<g id="edge8" class="edge"><title>Node4&#45;&gt;Node5</title>
<path fill="none" stroke="midnightblue" d="M349.99,-131C361.223,-131 372.603,-131 382.897,-131"/>
<polygon fill="midnightblue" stroke="midnightblue" points="349.751,-127.5 339.751,-131 349.751,-134.5 349.751,-127.5"/>
</g>
<!-- Node7 -->
<g id="node13" class="node"><title>Node7</title>
<a xlink:href="classOmu__SVec.html" target="_top" xlink:title="Internally used vector of state variables. ">
<polygon fill="white" stroke="black" points="388.5,-80.5 388.5,-101.5 455.5,-101.5 455.5,-80.5 388.5,-80.5"/>
<text text-anchor="middle" x="422" y="-88.5" font-family="Helvetica,sans-Serif" font-size="10.00">Omu_SVec</text>
</a>
</g>
<!-- Node6&#45;&gt;Node7 -->
<g id="edge12" class="edge"><title>Node6&#45;&gt;Node7</title>
<path fill="none" stroke="midnightblue" d="M337.878,-91C354.836,-91 373.213,-91 388.453,-91"/>
<polygon fill="midnightblue" stroke="midnightblue" points="337.543,-87.5001 327.543,-91 337.543,-94.5001 337.543,-87.5001"/>
</g>
<!-- Node9 -->
<g id="node17" class="node"><title>Node9</title>
<a xlink:href="classOmu__OptVarVec.html" target="_top" xlink:title="Extend Omu_VariableVec with attributes for optimization criterion. ">
<polygon fill="white" stroke="black" points="376.5,-40.5 376.5,-61.5 467.5,-61.5 467.5,-40.5 376.5,-40.5"/>
<text text-anchor="middle" x="422" y="-48.5" font-family="Helvetica,sans-Serif" font-size="10.00">Omu_OptVarVec</text>
</a>
</g>
<!-- Node8&#45;&gt;Node9 -->
<g id="edge16" class="edge"><title>Node8&#45;&gt;Node9</title>
<path fill="none" stroke="midnightblue" d="M343.765,-51C354.552,-51 365.692,-51 376.063,-51"/>
<polygon fill="midnightblue" stroke="midnightblue" points="343.566,-47.5001 333.566,-51 343.566,-54.5001 343.566,-47.5001"/>
</g>
<!-- Node10 -->
<g id="node19" class="node"><title>Node10</title>
<a xlink:href="classOmu__VarVec.html" target="_top" xlink:title="Internally used vector of optimization variables. ">
<polygon fill="white" stroke="black" points="384.5,-0.5 384.5,-21.5 459.5,-21.5 459.5,-0.5 384.5,-0.5"/>
<text text-anchor="middle" x="422" y="-8.5" font-family="Helvetica,sans-Serif" font-size="10.00">Omu_VarVec</text>
</a>
</g>
<!-- Node8&#45;&gt;Node10 -->
<g id="edge18" class="edge"><title>Node8&#45;&gt;Node10</title>
<path fill="none" stroke="midnightblue" d="M331.342,-37.6642C349.137,-32.4304 369.269,-26.5091 386.034,-21.5782"/>
<polygon fill="midnightblue" stroke="midnightblue" points="330.338,-34.311 321.732,-40.4905 332.314,-41.0265 330.338,-34.311"/>
</g>
<!-- Node11 -->
<g id="node21" class="node"><title>Node11</title>
<a xlink:href="classOmu__SVarVec.html" target="_top" xlink:title="Depreciated: Internally used vector of state optimization variables holding additional structural inf...">
<polygon fill="white" stroke="black" points="504,-0.5 504,-21.5 586,-21.5 586,-0.5 504,-0.5"/>
<text text-anchor="middle" x="545" y="-8.5" font-family="Helvetica,sans-Serif" font-size="10.00">Omu_SVarVec</text>
</a>
</g>
<!-- Node10&#45;&gt;Node11 -->
<g id="edge20" class="edge"><title>Node10&#45;&gt;Node11</title>
<path fill="none" stroke="midnightblue" d="M469.684,-11C480.944,-11 492.857,-11 503.802,-11"/>
<polygon fill="midnightblue" stroke="midnightblue" points="469.572,-7.5001 459.572,-11 469.572,-14.5001 469.572,-7.5001"/>
</g>
</g>
</svg>
