<?xml version="1.0" encoding="UTF-8" standalone="no"?>
<!DOCTYPE svg PUBLIC "-//W3C//DTD SVG 1.1//EN"
 "http://www.w3.org/Graphics/SVG/1.1/DTD/svg11.dtd">
<!-- Generated by graphviz version 2.26.3 (20100126.1600)
 -->
<!-- Title: Graphical Class Hierarchy Pages: 1 -->
<svg width="344pt" height="230pt"
 viewBox="0.00 0.00 344.00 230.00" xmlns="http://www.w3.org/2000/svg" xmlns:xlink="http://www.w3.org/1999/xlink">
<g id="graph1" class="graph" transform="scale(1 1) rotate(0) translate(4 226)">
<title>Graphical Class Hierarchy</title>
<polygon fill="white" stroke="white" points="-4,5 -4,-226 341,-226 341,5 -4,5"/>
<!-- Node1 -->
<g id="node1" class="node"><title>Node1</title>
<a xlink:href="classOmu__Integrator.html" target="_top" xlink:title="Interface for a solver for differential (algebraic) equations. ">
<polygon fill="white" stroke="black" points="0,-100.5 0,-121.5 84,-121.5 84,-100.5 0,-100.5"/>
<text text-anchor="middle" x="42" y="-108.5" font-family="Helvetica,sans-Serif" font-size="10.00">Omu_Integrator</text>
</a>
</g>
<!-- Node2 -->
<g id="node3" class="node"><title>Node2</title>
<a xlink:href="classOmu__IntDASPK.html" target="_top" xlink:title="Solve differential&#45;algebraic equation system using DASPK. ">
<polygon fill="white" stroke="black" points="120.5,-200.5 120.5,-221.5 209.5,-221.5 209.5,-200.5 120.5,-200.5"/>
<text text-anchor="middle" x="165" y="-208.5" font-family="Helvetica,sans-Serif" font-size="10.00">Omu_IntDASPK</text>
</a>
</g>
<!-- Node1&#45;&gt;Node2 -->
<g id="edge2" class="edge"><title>Node1&#45;&gt;Node2</title>
<path fill="none" stroke="midnightblue" d="M56.4471,-129.455C70.9922,-147.078 94.8264,-173.475 120,-191 125.052,-194.517 130.822,-197.638 136.506,-200.307"/>
<polygon fill="midnightblue" stroke="midnightblue" points="59.0955,-127.163 50.0878,-121.586 53.6511,-131.563 59.0955,-127.163"/>
</g>
<!-- Node3 -->
<g id="node5" class="node"><title>Node3</title>
<a xlink:href="classOmu__IntGRK4.html" target="_top" xlink:title="Integrator for (stiff) ordinary differential equations (ODEs). ">
<polygon fill="white" stroke="black" points="124.5,-160.5 124.5,-181.5 205.5,-181.5 205.5,-160.5 124.5,-160.5"/>
<text text-anchor="middle" x="165" y="-168.5" font-family="Helvetica,sans-Serif" font-size="10.00">Omu_IntGRK4</text>
</a>
</g>
<!-- Node1&#45;&gt;Node3 -->
<g id="edge4" class="edge"><title>Node1&#45;&gt;Node3</title>
<path fill="none" stroke="midnightblue" d="M71.0892,-126.404C85.6754,-134.003 103.669,-143.191 120,-151 126.633,-154.172 133.888,-157.47 140.598,-160.451"/>
<polygon fill="midnightblue" stroke="midnightblue" points="72.5305,-123.208 62.0479,-121.67 69.2835,-129.409 72.5305,-123.208"/>
</g>
<!-- Node4 -->
<g id="node7" class="node"><title>Node4</title>
<a xlink:href="classOmu__IntIMP.html" target="_top" xlink:title="Integrator for (stiff) ordinary differential equations (ODEs). ">
<polygon fill="white" stroke="black" points="129,-120.5 129,-141.5 201,-141.5 201,-120.5 129,-120.5"/>
<text text-anchor="middle" x="165" y="-128.5" font-family="Helvetica,sans-Serif" font-size="10.00">Omu_IntIMP</text>
</a>
</g>
<!-- Node1&#45;&gt;Node4 -->
<g id="edge6" class="edge"><title>Node1&#45;&gt;Node4</title>
<path fill="none" stroke="midnightblue" d="M94.3531,-119.513C105.937,-121.396 117.964,-123.352 128.74,-125.104"/>
<polygon fill="midnightblue" stroke="midnightblue" points="94.7617,-116.033 84.3296,-117.883 93.6382,-122.943 94.7617,-116.033"/>
</g>
<!-- Node5 -->
<g id="node9" class="node"><title>Node5</title>
<a xlink:href="classOmu__IntODE.html" target="_top" xlink:title="Interface for standard solvers for Ordinary Differential Equations (ODE) hiding details of sensitivit...">
<polygon fill="white" stroke="black" points="127,-80.5 127,-101.5 203,-101.5 203,-80.5 127,-80.5"/>
<text text-anchor="middle" x="165" y="-88.5" font-family="Helvetica,sans-Serif" font-size="10.00">Omu_IntODE</text>
</a>
</g>
<!-- Node1&#45;&gt;Node5 -->
<g id="edge8" class="edge"><title>Node1&#45;&gt;Node5</title>
<path fill="none" stroke="midnightblue" d="M94.532,-102.458C105.341,-100.701 116.527,-98.8818 126.717,-97.2249"/>
<polygon fill="midnightblue" stroke="midnightblue" points="93.6382,-99.0575 84.3296,-104.117 94.7617,-105.967 93.6382,-99.0575"/>
</g>
<!-- Node9 -->
<g id="node17" class="node"><title>Node9</title>
<a xlink:href="classOmu__IntOdeTs.html" target="_top" xlink:title="Solving autonomous ordinary differential equations using Taylor series expansion. ...">
<polygon fill="white" stroke="black" points="123.5,-40.5 123.5,-61.5 206.5,-61.5 206.5,-40.5 123.5,-40.5"/>
<text text-anchor="middle" x="165" y="-48.5" font-family="Helvetica,sans-Serif" font-size="10.00">Omu_IntOdeTs</text>
</a>
</g>
<!-- Node1&#45;&gt;Node9 -->
<g id="edge16" class="edge"><title>Node1&#45;&gt;Node9</title>
<path fill="none" stroke="midnightblue" d="M71.0892,-95.596C85.6754,-87.9966 103.669,-78.809 120,-71 126.633,-67.8282 133.888,-64.5304 140.598,-61.5491"/>
<polygon fill="midnightblue" stroke="midnightblue" points="69.2835,-92.5907 62.0479,-100.33 72.5305,-98.792 69.2835,-92.5907"/>
</g>
<!-- Node10 -->
<g id="node19" class="node"><title>Node10</title>
<a xlink:href="classOmu__IntSDIRK.html" target="_top" xlink:title="Singly diagonally implizit Runge Kutta method for (stiff) ordinary differential equations (ODEs)...">
<polygon fill="white" stroke="black" points="122,-0.5 122,-21.5 208,-21.5 208,-0.5 122,-0.5"/>
<text text-anchor="middle" x="165" y="-8.5" font-family="Helvetica,sans-Serif" font-size="10.00">Omu_IntSDIRK</text>
</a>
</g>
<!-- Node1&#45;&gt;Node10 -->
<g id="edge18" class="edge"><title>Node1&#45;&gt;Node10</title>
<path fill="none" stroke="midnightblue" d="M56.4471,-92.5452C70.9922,-74.9221 94.8264,-48.5247 120,-31 125.052,-27.4831 130.822,-24.3624 136.506,-21.6933"/>
<polygon fill="midnightblue" stroke="midnightblue" points="53.6511,-90.4367 50.0878,-100.414 59.0955,-94.8365 53.6511,-90.4367"/>
</g>
<!-- Node6 -->
<g id="node11" class="node"><title>Node6</title>
<a xlink:href="classOmu__IntEuler.html" target="_top" xlink:title="Explicit, fixed step size integrator implementing the Euler algorithm. ">
<polygon fill="white" stroke="black" points="252.5,-120.5 252.5,-141.5 329.5,-141.5 329.5,-120.5 252.5,-120.5"/>
<text text-anchor="middle" x="291" y="-128.5" font-family="Helvetica,sans-Serif" font-size="10.00">Omu_IntEuler</text>
</a>
</g>
<!-- Node5&#45;&gt;Node6 -->
<g id="edge10" class="edge"><title>Node5&#45;&gt;Node6</title>
<path fill="none" stroke="midnightblue" d="M207.926,-104.627C224.184,-109.789 242.434,-115.582 257.679,-120.422"/>
<polygon fill="midnightblue" stroke="midnightblue" points="208.695,-101.199 198.105,-101.51 206.577,-107.871 208.695,-101.199"/>
</g>
<!-- Node7 -->
<g id="node13" class="node"><title>Node7</title>
<a xlink:href="classOmu__IntRK4.html" target="_top" xlink:title="Explicit, fixed step size integrator implementing a Runge Kutta algorithm of 4th order. ">
<polygon fill="white" stroke="black" points="254,-80.5 254,-101.5 328,-101.5 328,-80.5 254,-80.5"/>
<text text-anchor="middle" x="291" y="-88.5" font-family="Helvetica,sans-Serif" font-size="10.00">Omu_IntRK4</text>
</a>
</g>
<!-- Node5&#45;&gt;Node7 -->
<g id="edge12" class="edge"><title>Node5&#45;&gt;Node7</title>
<path fill="none" stroke="midnightblue" d="M213.219,-91C226.693,-91 241.123,-91 253.849,-91"/>
<polygon fill="midnightblue" stroke="midnightblue" points="213.146,-87.5001 203.146,-91 213.146,-94.5001 213.146,-87.5001"/>
</g>
<!-- Node8 -->
<g id="node15" class="node"><title>Node8</title>
<a xlink:href="classOmu__IntRKsuite.html" target="_top" xlink:title="Solve ordinary differential equations using RKsuite. ">
<polygon fill="white" stroke="black" points="246.5,-40.5 246.5,-61.5 335.5,-61.5 335.5,-40.5 246.5,-40.5"/>
<text text-anchor="middle" x="291" y="-48.5" font-family="Helvetica,sans-Serif" font-size="10.00">Omu_IntRKsuite</text>
</a>
</g>
<!-- Node5&#45;&gt;Node8 -->
<g id="edge14" class="edge"><title>Node5&#45;&gt;Node8</title>
<path fill="none" stroke="midnightblue" d="M207.926,-77.3727C224.184,-72.2114 242.434,-66.4178 257.679,-61.5782"/>
<polygon fill="midnightblue" stroke="midnightblue" points="206.577,-74.1287 198.105,-80.4905 208.695,-80.8005 206.577,-74.1287"/>
</g>
</g>
</svg>
