<?xml version="1.0" encoding="UTF-8" standalone="no"?>
<!DOCTYPE svg PUBLIC "-//W3C//DTD SVG 1.1//EN"
 "http://www.w3.org/Graphics/SVG/1.1/DTD/svg11.dtd">
<!-- Generated by graphviz version 2.26.3 (20100126.1600)
 -->
<!-- Title: Graphical Class Hierarchy Pages: 1 -->
<svg width="340pt" height="70pt"
 viewBox="0.00 0.00 340.00 70.00" xmlns="http://www.w3.org/2000/svg" xmlns:xlink="http://www.w3.org/1999/xlink">
<g id="graph1" class="graph" transform="scale(1 1) rotate(0) translate(4 66)">
<title>Graphical Class Hierarchy</title>
<polygon fill="white" stroke="white" points="-4,5 -4,-66 337,-66 337,5 -4,5"/>
<!-- Node1 -->
<g id="node1" class="node"><title>Node1</title>
<a xlink:href="classOmu__Program.html" target="_top" xlink:title="Interface for a multi&#45;stage optimization problem. ">
<polygon fill="white" stroke="black" points="0,-20.5 0,-41.5 80,-41.5 80,-20.5 0,-20.5"/>
<text text-anchor="middle" x="40" y="-28.5" font-family="Helvetica,sans-Serif" font-size="10.00">Omu_Program</text>
</a>
</g>
<!-- Node2 -->
<g id="node3" class="node"><title>Node2</title>
<a xlink:href="classPrg__SFunction.html" target="_top" xlink:title="Basic functionality for formulating an optimization problem for a model given as MEX S&#45;function...">
<polygon fill="white" stroke="black" points="116.5,-20.5 116.5,-41.5 197.5,-41.5 197.5,-20.5 116.5,-20.5"/>
<text text-anchor="middle" x="157" y="-28.5" font-family="Helvetica,sans-Serif" font-size="10.00">Prg_SFunction</text>
</a>
</g>
<!-- Node1&#45;&gt;Node2 -->
<g id="edge2" class="edge"><title>Node1&#45;&gt;Node2</title>
<path fill="none" stroke="midnightblue" d="M90.2876,-31C98.9617,-31 107.882,-31 116.264,-31"/>
<polygon fill="midnightblue" stroke="midnightblue" points="90.2648,-27.5001 80.2648,-31 90.2647,-34.5001 90.2648,-27.5001"/>
</g>
<!-- Node3 -->
<g id="node5" class="node"><title>Node3</title>
<a xlink:href="classPrg__SFunctionEst.html" target="_top" xlink:title="Estimation of parameters and initial states for a model given as MEX S&#45;function. ">
<polygon fill="white" stroke="black" points="235,-40.5 235,-61.5 331,-61.5 331,-40.5 235,-40.5"/>
<text text-anchor="middle" x="283" y="-48.5" font-family="Helvetica,sans-Serif" font-size="10.00">Prg_SFunctionEst</text>
</a>
</g>
<!-- Node2&#45;&gt;Node3 -->
<g id="edge4" class="edge"><title>Node2&#45;&gt;Node3</title>
<path fill="none" stroke="midnightblue" d="M207.469,-39.011C216.414,-40.4308 225.709,-41.9062 234.595,-43.3166"/>
<polygon fill="midnightblue" stroke="midnightblue" points="207.986,-35.5492 197.561,-37.4382 206.888,-42.4627 207.986,-35.5492"/>
</g>
<!-- Node4 -->
<g id="node7" class="node"><title>Node4</title>
<a xlink:href="classPrg__SFunctionOpt.html" target="_top" xlink:title="Optimal control problem for a model given as MEX S&#45;function treated with multi&#45;stage control vector p...">
<polygon fill="white" stroke="black" points="234.5,-0.5 234.5,-21.5 331.5,-21.5 331.5,-0.5 234.5,-0.5"/>
<text text-anchor="middle" x="283" y="-8.5" font-family="Helvetica,sans-Serif" font-size="10.00">Prg_SFunctionOpt</text>
</a>
</g>
<!-- Node2&#45;&gt;Node4 -->
<g id="edge6" class="edge"><title>Node2&#45;&gt;Node4</title>
<path fill="none" stroke="midnightblue" d="M207.631,-22.9633C216.376,-21.5753 225.451,-20.1348 234.147,-18.7544"/>
<polygon fill="midnightblue" stroke="midnightblue" points="206.888,-19.5373 197.561,-24.5618 207.986,-26.4508 206.888,-19.5373"/>
</g>
</g>
</svg>
