<?xml version="1.0" encoding="UTF-8" standalone="no"?>
<!DOCTYPE svg PUBLIC "-//W3C//DTD SVG 1.1//EN"
 "http://www.w3.org/Graphics/SVG/1.1/DTD/svg11.dtd">
<!-- Generated by graphviz version 2.26.3 (20100126.1600)
 -->
<!-- Title: Graphical Class Hierarchy Pages: 1 -->
<svg width="470pt" height="430pt"
 viewBox="0.00 0.00 470.00 430.00" xmlns="http://www.w3.org/2000/svg" xmlns:xlink="http://www.w3.org/1999/xlink">
<g id="graph1" class="graph" transform="scale(1 1) rotate(0) translate(4 426)">
<title>Graphical Class Hierarchy</title>
<polygon fill="white" stroke="white" points="-4,5 -4,-426 467,-426 467,5 -4,5"/>
<!-- Node1 -->
<g id="node1" class="node"><title>Node1</title>
<a xlink:href="classIf__ListElement.html" target="_top" xlink:title="Element of a twice concatenated If_List. ">
<polygon fill="white" stroke="black" points="0,-200.5 0,-221.5 80,-221.5 80,-200.5 0,-200.5"/>
<text text-anchor="middle" x="40" y="-208.5" font-family="Helvetica,sans-Serif" font-size="10.00">If_ListElement</text>
</a>
</g>
<!-- Node2 -->
<g id="node3" class="node"><title>Node2</title>
<a xlink:href="classIf__Element.html" target="_top" xlink:title="Abstract base class for interface elements to Tcl, like variables and procedures. ...">
<polygon fill="white" stroke="black" points="116,-200.5 116,-221.5 180,-221.5 180,-200.5 116,-200.5"/>
<text text-anchor="middle" x="148" y="-208.5" font-family="Helvetica,sans-Serif" font-size="10.00">If_Element</text>
</a>
</g>
<!-- Node1&#45;&gt;Node2 -->
<g id="edge2" class="edge"><title>Node1&#45;&gt;Node2</title>
<path fill="none" stroke="midnightblue" d="M90.3006,-211C98.9882,-211 107.804,-211 115.843,-211"/>
<polygon fill="midnightblue" stroke="midnightblue" points="90.2152,-207.5 80.2152,-211 90.2152,-214.5 90.2152,-207.5"/>
</g>
<!-- Node3 -->
<g id="node5" class="node"><title>Node3</title>
<a xlink:href="classIf__Method.html" target="_top" xlink:title="Interface method. ">
<polygon fill="white" stroke="black" points="224.5,-400.5 224.5,-421.5 349.5,-421.5 349.5,-400.5 224.5,-400.5"/>
<text text-anchor="middle" x="287" y="-408.5" font-family="Helvetica,sans-Serif" font-size="10.00">If_Method&lt; ClassType &gt;</text>
</a>
</g>
<!-- Node2&#45;&gt;Node3 -->
<g id="edge4" class="edge"><title>Node2&#45;&gt;Node3</title>
<path fill="none" stroke="midnightblue" d="M149.878,-231.985C154.372,-269.473 169.141,-348.034 216,-391 220.153,-394.808 224.976,-397.898 230.116,-400.404"/>
<polygon fill="midnightblue" stroke="midnightblue" points="153.328,-231.328 148.789,-221.754 146.367,-232.069 153.328,-231.328"/>
</g>
<!-- Node4 -->
<g id="node7" class="node"><title>Node4</title>
<a xlink:href="classIf__Procedure.html" target="_top" xlink:title="Interface procedure. ">
<polygon fill="white" stroke="black" points="251,-360.5 251,-381.5 323,-381.5 323,-360.5 251,-360.5"/>
<text text-anchor="middle" x="287" y="-368.5" font-family="Helvetica,sans-Serif" font-size="10.00">If_Procedure</text>
</a>
</g>
<!-- Node2&#45;&gt;Node4 -->
<g id="edge6" class="edge"><title>Node2&#45;&gt;Node4</title>
<path fill="none" stroke="midnightblue" d="M152.344,-231.579C159.887,-262.195 178.344,-319.501 216,-351 225.823,-359.217 238.805,-364.066 250.98,-366.925"/>
<polygon fill="midnightblue" stroke="midnightblue" points="155.702,-230.562 150.044,-221.605 148.881,-232.135 155.702,-230.562"/>
</g>
<!-- Node5 -->
<g id="node9" class="node"><title>Node5</title>
<a xlink:href="classIf__Variable.html" target="_top" xlink:title="Interface variable of abstract type VarType managing callbacks for reading and writing. ">
<polygon fill="white" stroke="black" points="228,-320.5 228,-341.5 346,-341.5 346,-320.5 228,-320.5"/>
<text text-anchor="middle" x="287" y="-328.5" font-family="Helvetica,sans-Serif" font-size="10.00">If_Variable&lt; VarType &gt;</text>
</a>
</g>
<!-- Node2&#45;&gt;Node5 -->
<g id="edge8" class="edge"><title>Node2&#45;&gt;Node5</title>
<path fill="none" stroke="midnightblue" d="M156.391,-230.924C166.98,-253.661 187.338,-290.36 216,-311 221.3,-314.817 227.306,-317.906 233.527,-320.407"/>
<polygon fill="midnightblue" stroke="midnightblue" points="159.487,-229.274 152.218,-221.567 153.094,-232.126 159.487,-229.274"/>
</g>
<!-- Node6 -->
<g id="node11" class="node"><title>Node6</title>
<a xlink:href="classIf__Variable.html" target="_top" xlink:title="If_Variable\&lt; If_Bool_t \&gt;">
<polygon fill="white" stroke="black" points="227,-280.5 227,-301.5 347,-301.5 347,-280.5 227,-280.5"/>
<text text-anchor="middle" x="287" y="-288.5" font-family="Helvetica,sans-Serif" font-size="10.00">If_Variable&lt; If_Bool_t &gt;</text>
</a>
</g>
<!-- Node2&#45;&gt;Node6 -->
<g id="edge10" class="edge"><title>Node2&#45;&gt;Node6</title>
<path fill="none" stroke="midnightblue" d="M164.646,-229.613C177.477,-242.908 196.307,-260.273 216,-271 222.972,-274.798 230.732,-277.929 238.489,-280.494"/>
<polygon fill="midnightblue" stroke="midnightblue" points="166.868,-226.865 157.478,-221.956 161.757,-231.649 166.868,-226.865"/>
</g>
<!-- Node8 -->
<g id="node15" class="node"><title>Node8</title>
<a xlink:href="classIf__Variable.html" target="_top" xlink:title="If_Variable\&lt; If_Int_t \&gt;">
<polygon fill="white" stroke="black" points="231,-240.5 231,-261.5 343,-261.5 343,-240.5 231,-240.5"/>
<text text-anchor="middle" x="287" y="-248.5" font-family="Helvetica,sans-Serif" font-size="10.00">If_Variable&lt; If_Int_t &gt;</text>
</a>
</g>
<!-- Node2&#45;&gt;Node8 -->
<g id="edge14" class="edge"><title>Node2&#45;&gt;Node8</title>
<path fill="none" stroke="midnightblue" d="M189.999,-223.435C198.595,-225.957 207.586,-228.578 216,-231 226.83,-234.118 238.603,-237.455 249.393,-240.493"/>
<polygon fill="midnightblue" stroke="midnightblue" points="190.729,-220.001 180.147,-220.537 188.754,-226.717 190.729,-220.001"/>
</g>
<!-- Node10 -->
<g id="node19" class="node"><title>Node10</title>
<a xlink:href="classIf__Variable.html" target="_top" xlink:title="If_Variable\&lt; If_IntVec_t \&gt;">
<polygon fill="white" stroke="black" points="222.5,-200.5 222.5,-221.5 351.5,-221.5 351.5,-200.5 222.5,-200.5"/>
<text text-anchor="middle" x="287" y="-208.5" font-family="Helvetica,sans-Serif" font-size="10.00">If_Variable&lt; If_IntVec_t &gt;</text>
</a>
</g>
<!-- Node2&#45;&gt;Node10 -->
<g id="edge18" class="edge"><title>Node2&#45;&gt;Node10</title>
<path fill="none" stroke="midnightblue" d="M190.395,-211C200.498,-211 211.507,-211 222.358,-211"/>
<polygon fill="midnightblue" stroke="midnightblue" points="190.239,-207.5 180.239,-211 190.239,-214.5 190.239,-207.5"/>
</g>
<!-- Node12 -->
<g id="node23" class="node"><title>Node12</title>
<a xlink:href="classIf__Variable.html" target="_top" xlink:title="If_Variable\&lt; If_Real_t \&gt;">
<polygon fill="white" stroke="black" points="226.5,-160.5 226.5,-181.5 347.5,-181.5 347.5,-160.5 226.5,-160.5"/>
<text text-anchor="middle" x="287" y="-168.5" font-family="Helvetica,sans-Serif" font-size="10.00">If_Variable&lt; If_Real_t &gt;</text>
</a>
</g>
<!-- Node2&#45;&gt;Node12 -->
<g id="edge22" class="edge"><title>Node2&#45;&gt;Node12</title>
<path fill="none" stroke="midnightblue" d="M189.999,-198.565C198.595,-196.043 207.586,-193.422 216,-191 226.83,-187.882 238.603,-184.545 249.393,-181.507"/>
<polygon fill="midnightblue" stroke="midnightblue" points="188.754,-195.283 180.147,-201.463 190.729,-201.999 188.754,-195.283"/>
</g>
<!-- Node14 -->
<g id="node27" class="node"><title>Node14</title>
<a xlink:href="classIf__Variable.html" target="_top" xlink:title="If_Variable\&lt; If_RealMat_t \&gt;">
<polygon fill="white" stroke="black" points="218.5,-120.5 218.5,-141.5 355.5,-141.5 355.5,-120.5 218.5,-120.5"/>
<text text-anchor="middle" x="287" y="-128.5" font-family="Helvetica,sans-Serif" font-size="10.00">If_Variable&lt; If_RealMat_t &gt;</text>
</a>
</g>
<!-- Node2&#45;&gt;Node14 -->
<g id="edge26" class="edge"><title>Node2&#45;&gt;Node14</title>
<path fill="none" stroke="midnightblue" d="M164.646,-192.387C177.477,-179.092 196.307,-161.727 216,-151 222.972,-147.202 230.732,-144.071 238.489,-141.506"/>
<polygon fill="midnightblue" stroke="midnightblue" points="161.757,-190.351 157.478,-200.044 166.868,-195.135 161.757,-190.351"/>
</g>
<!-- Node16 -->
<g id="node31" class="node"><title>Node16</title>
<a xlink:href="classIf__Variable.html" target="_top" xlink:title="If_Variable\&lt; If_RealVec_t \&gt;">
<polygon fill="white" stroke="black" points="218,-80.5 218,-101.5 356,-101.5 356,-80.5 218,-80.5"/>
<text text-anchor="middle" x="287" y="-88.5" font-family="Helvetica,sans-Serif" font-size="10.00">If_Variable&lt; If_RealVec_t &gt;</text>
</a>
</g>
<!-- Node2&#45;&gt;Node16 -->
<g id="edge30" class="edge"><title>Node2&#45;&gt;Node16</title>
<path fill="none" stroke="midnightblue" d="M156.391,-191.076C166.98,-168.339 187.338,-131.64 216,-111 221.3,-107.183 227.306,-104.094 233.527,-101.593"/>
<polygon fill="midnightblue" stroke="midnightblue" points="153.094,-189.874 152.218,-200.433 159.487,-192.726 153.094,-189.874"/>
</g>
<!-- Node18 -->
<g id="node35" class="node"><title>Node18</title>
<a xlink:href="classIf__Variable.html" target="_top" xlink:title="If_Variable\&lt; If_StdString_t \&gt;">
<polygon fill="white" stroke="black" points="216.5,-40.5 216.5,-61.5 357.5,-61.5 357.5,-40.5 216.5,-40.5"/>
<text text-anchor="middle" x="287" y="-48.5" font-family="Helvetica,sans-Serif" font-size="10.00">If_Variable&lt; If_StdString_t &gt;</text>
</a>
</g>
<!-- Node2&#45;&gt;Node18 -->
<g id="edge34" class="edge"><title>Node2&#45;&gt;Node18</title>
<path fill="none" stroke="midnightblue" d="M152.344,-190.421C159.887,-159.805 178.344,-102.499 216,-71 220.617,-67.1382 225.931,-64.0202 231.532,-61.5032"/>
<polygon fill="midnightblue" stroke="midnightblue" points="148.881,-189.865 150.044,-200.395 155.702,-191.438 148.881,-189.865"/>
</g>
<!-- Node20 -->
<g id="node39" class="node"><title>Node20</title>
<a xlink:href="classIf__Variable.html" target="_top" xlink:title="If_Variable\&lt; If_String_t \&gt;">
<polygon fill="white" stroke="black" points="224,-0.5 224,-21.5 350,-21.5 350,-0.5 224,-0.5"/>
<text text-anchor="middle" x="287" y="-8.5" font-family="Helvetica,sans-Serif" font-size="10.00">If_Variable&lt; If_String_t &gt;</text>
</a>
</g>
<!-- Node2&#45;&gt;Node20 -->
<g id="edge38" class="edge"><title>Node2&#45;&gt;Node20</title>
<path fill="none" stroke="midnightblue" d="M149.878,-190.015C154.372,-152.527 169.141,-73.9656 216,-31 220.153,-27.1919 224.976,-24.1021 230.116,-21.596"/>
<polygon fill="midnightblue" stroke="midnightblue" points="146.367,-189.931 148.789,-200.246 153.328,-190.672 146.367,-189.931"/>
</g>
<!-- Node7 -->
<g id="node13" class="node"><title>Node7</title>
<a xlink:href="classIf__Bool.html" target="_top" xlink:title="Interface variable of boolean type. ">
<polygon fill="white" stroke="black" points="404.5,-280.5 404.5,-301.5 451.5,-301.5 451.5,-280.5 404.5,-280.5"/>
<text text-anchor="middle" x="428" y="-288.5" font-family="Helvetica,sans-Serif" font-size="10.00">If_Bool</text>
</a>
</g>
<!-- Node6&#45;&gt;Node7 -->
<g id="edge12" class="edge"><title>Node6&#45;&gt;Node7</title>
<path fill="none" stroke="midnightblue" d="M357.216,-291C374.272,-291 391.351,-291 404.458,-291"/>
<polygon fill="midnightblue" stroke="midnightblue" points="357.206,-287.5 347.206,-291 357.206,-294.5 357.206,-287.5"/>
</g>
<!-- Node9 -->
<g id="node17" class="node"><title>Node9</title>
<a xlink:href="classIf__Int.html" target="_top" xlink:title="Interface variable of integer type. ">
<polygon fill="white" stroke="black" points="408.5,-240.5 408.5,-261.5 447.5,-261.5 447.5,-240.5 408.5,-240.5"/>
<text text-anchor="middle" x="428" y="-248.5" font-family="Helvetica,sans-Serif" font-size="10.00">If_Int</text>
</a>
</g>
<!-- Node8&#45;&gt;Node9 -->
<g id="edge16" class="edge"><title>Node8&#45;&gt;Node9</title>
<path fill="none" stroke="midnightblue" d="M353.224,-251C373.276,-251 393.791,-251 408.248,-251"/>
<polygon fill="midnightblue" stroke="midnightblue" points="353.132,-247.5 343.132,-251 353.132,-254.5 353.132,-247.5"/>
</g>
<!-- Node11 -->
<g id="node21" class="node"><title>Node11</title>
<a xlink:href="classIf__IntVec.html" target="_top" xlink:title="Interface variable of integer vector type. ">
<polygon fill="white" stroke="black" points="400,-200.5 400,-221.5 456,-221.5 456,-200.5 400,-200.5"/>
<text text-anchor="middle" x="428" y="-208.5" font-family="Helvetica,sans-Serif" font-size="10.00">If_IntVec</text>
</a>
</g>
<!-- Node10&#45;&gt;Node11 -->
<g id="edge20" class="edge"><title>Node10&#45;&gt;Node11</title>
<path fill="none" stroke="midnightblue" d="M362.068,-211C375.583,-211 388.873,-211 399.94,-211"/>
<polygon fill="midnightblue" stroke="midnightblue" points="361.723,-207.5 351.723,-211 361.723,-214.5 361.723,-207.5"/>
</g>
<!-- Node13 -->
<g id="node25" class="node"><title>Node13</title>
<a xlink:href="classIf__Real.html" target="_top" xlink:title="Interface variable of real type. ">
<polygon fill="white" stroke="black" points="404,-160.5 404,-181.5 452,-181.5 452,-160.5 404,-160.5"/>
<text text-anchor="middle" x="428" y="-168.5" font-family="Helvetica,sans-Serif" font-size="10.00">If_Real</text>
</a>
</g>
<!-- Node12&#45;&gt;Node13 -->
<g id="edge24" class="edge"><title>Node12&#45;&gt;Node13</title>
<path fill="none" stroke="midnightblue" d="M357.914,-171C374.501,-171 391.058,-171 403.911,-171"/>
<polygon fill="midnightblue" stroke="midnightblue" points="357.615,-167.5 347.615,-171 357.615,-174.5 357.615,-167.5"/>
</g>
<!-- Node15 -->
<g id="node29" class="node"><title>Node15</title>
<a xlink:href="classIf__RealMat.html" target="_top" xlink:title="Interface variable of real matrix type. ">
<polygon fill="white" stroke="black" points="395.5,-120.5 395.5,-141.5 460.5,-141.5 460.5,-120.5 395.5,-120.5"/>
<text text-anchor="middle" x="428" y="-128.5" font-family="Helvetica,sans-Serif" font-size="10.00">If_RealMat</text>
</a>
</g>
<!-- Node14&#45;&gt;Node15 -->
<g id="edge28" class="edge"><title>Node14&#45;&gt;Node15</title>
<path fill="none" stroke="midnightblue" d="M365.889,-131C376.315,-131 386.492,-131 395.491,-131"/>
<polygon fill="midnightblue" stroke="midnightblue" points="365.848,-127.5 355.848,-131 365.848,-134.5 365.848,-127.5"/>
</g>
<!-- Node17 -->
<g id="node33" class="node"><title>Node17</title>
<a xlink:href="classIf__RealVec.html" target="_top" xlink:title="Interface variable of real vector type. ">
<polygon fill="white" stroke="black" points="395.5,-80.5 395.5,-101.5 460.5,-101.5 460.5,-80.5 395.5,-80.5"/>
<text text-anchor="middle" x="428" y="-88.5" font-family="Helvetica,sans-Serif" font-size="10.00">If_RealVec</text>
</a>
</g>
<!-- Node16&#45;&gt;Node17 -->
<g id="edge32" class="edge"><title>Node16&#45;&gt;Node17</title>
<path fill="none" stroke="midnightblue" d="M366.478,-91C376.643,-91 386.555,-91 395.35,-91"/>
<polygon fill="midnightblue" stroke="midnightblue" points="366.261,-87.5001 356.261,-91 366.261,-94.5001 366.261,-87.5001"/>
</g>
<!-- Node19 -->
<g id="node37" class="node"><title>Node19</title>
<a xlink:href="classIf__StdString.html" target="_top" xlink:title="Interface variable of standard string type. ">
<polygon fill="white" stroke="black" points="394,-40.5 394,-61.5 462,-61.5 462,-40.5 394,-40.5"/>
<text text-anchor="middle" x="428" y="-48.5" font-family="Helvetica,sans-Serif" font-size="10.00">If_StdString</text>
</a>
</g>
<!-- Node18&#45;&gt;Node19 -->
<g id="edge36" class="edge"><title>Node18&#45;&gt;Node19</title>
<path fill="none" stroke="midnightblue" d="M368.116,-51C377.092,-51 385.834,-51 393.74,-51"/>
<polygon fill="midnightblue" stroke="midnightblue" points="367.913,-47.5001 357.913,-51 367.913,-54.5001 367.913,-47.5001"/>
</g>
<!-- Node21 -->
<g id="node41" class="node"><title>Node21</title>
<a xlink:href="classIf__String.html" target="_top" xlink:title="Interface variable of C string type. ">
<polygon fill="white" stroke="black" points="401.5,-0.5 401.5,-21.5 454.5,-21.5 454.5,-0.5 401.5,-0.5"/>
<text text-anchor="middle" x="428" y="-8.5" font-family="Helvetica,sans-Serif" font-size="10.00">If_String</text>
</a>
</g>
<!-- Node20&#45;&gt;Node21 -->
<g id="edge40" class="edge"><title>Node20&#45;&gt;Node21</title>
<path fill="none" stroke="midnightblue" d="M360.26,-11C374.979,-11 389.537,-11 401.362,-11"/>
<polygon fill="midnightblue" stroke="midnightblue" points="360.077,-7.5001 350.077,-11 360.077,-14.5001 360.077,-7.5001"/>
</g>
</g>
</svg>
