<?xml version="1.0" encoding="UTF-8" standalone="no"?>
<!DOCTYPE svg PUBLIC "-//W3C//DTD SVG 1.1//EN"
 "http://www.w3.org/Graphics/SVG/1.1/DTD/svg11.dtd">
<!-- Generated by graphviz version 2.26.3 (20100126.1600)
 -->
<!-- Title: Graphical Class Hierarchy Pages: 1 -->
<svg width="256pt" height="82pt"
 viewBox="0.00 0.00 256.00 82.00" xmlns="http://www.w3.org/2000/svg" xmlns:xlink="http://www.w3.org/1999/xlink">
<g id="graph1" class="graph" transform="scale(1 1) rotate(0) translate(4 78)">
<title>Graphical Class Hierarchy</title>
<polygon fill="white" stroke="white" points="-4,5 -4,-78 253,-78 253,5 -4,5"/>
<!-- Node1 -->
<g id="node1" class="node"><title>Node1</title>
<a xlink:href="classIf__SetIf.html" target="_top" xlink:title="Interface for a write callback. ">
<polygon fill="white" stroke="black" points="0,-23.5 0,-44.5 104,-44.5 104,-23.5 0,-23.5"/>
<text text-anchor="middle" x="52" y="-31.5" font-family="Helvetica,sans-Serif" font-size="10.00">If_SetIf&lt; VarType &gt;</text>
</a>
</g>
<!-- Node2 -->
<g id="node3" class="node"><title>Node2</title>
<a xlink:href="classIf__SetCb.html" target="_top" xlink:title="Write callback for specific class type. ">
<polygon fill="white" stroke="black" points="142,-40 142,-74 246,-74 246,-40 142,-40"/>
<text text-anchor="start" x="150" y="-61" font-family="Helvetica,sans-Serif" font-size="10.00">If_SetCb&lt; VarType,</text>
<text text-anchor="middle" x="194" y="-48" font-family="Helvetica,sans-Serif" font-size="10.00"> ClassType &gt;</text>
</a>
</g>
<!-- Node1&#45;&gt;Node2 -->
<g id="edge2" class="edge"><title>Node1&#45;&gt;Node2</title>
<path fill="none" stroke="midnightblue" d="M114.053,-44.0508C123.357,-45.5578 132.869,-47.0985 141.937,-48.5673"/>
<polygon fill="midnightblue" stroke="midnightblue" points="114.5,-40.5777 104.069,-42.4338 113.381,-47.4877 114.5,-40.5777"/>
</g>
<!-- Node3 -->
<g id="node5" class="node"><title>Node3</title>
<a xlink:href="classIf__SetPt.html" target="_top" xlink:title="Write callback directly accessing through a pointer. ">
<polygon fill="white" stroke="black" points="140.5,-0.5 140.5,-21.5 247.5,-21.5 247.5,-0.5 140.5,-0.5"/>
<text text-anchor="middle" x="194" y="-8.5" font-family="Helvetica,sans-Serif" font-size="10.00">If_SetPt&lt; VarType &gt;</text>
</a>
</g>
<!-- Node1&#45;&gt;Node3 -->
<g id="edge4" class="edge"><title>Node1&#45;&gt;Node3</title>
<path fill="none" stroke="midnightblue" d="M114.098,-23.9418C122.738,-22.5424 131.557,-21.1141 140.031,-19.7414"/>
<polygon fill="midnightblue" stroke="midnightblue" points="113.381,-20.5123 104.069,-25.5662 114.5,-27.4223 113.381,-20.5123"/>
</g>
</g>
</svg>
