<?xml version="1.0" encoding="UTF-8" standalone="no"?>
<!DOCTYPE svg PUBLIC "-//W3C//DTD SVG 1.1//EN"
 "http://www.w3.org/Graphics/SVG/1.1/DTD/svg11.dtd">
<!-- Generated by graphviz version 2.26.3 (20100126.1600)
 -->
<!-- Title: Meschach.h Pages: 1 -->
<svg width="1454pt" height="378pt"
 viewBox="0.00 0.00 1454.00 378.00" xmlns="http://www.w3.org/2000/svg" xmlns:xlink="http://www.w3.org/1999/xlink">
<g id="graph1" class="graph" transform="scale(1 1) rotate(0) translate(4 374)">
<title>Meschach.h</title>
<polygon fill="white" stroke="white" points="-4,5 -4,-374 1451,-374 1451,5 -4,5"/>
<!-- Node1 -->
<g id="node1" class="node"><title>Node1</title>
<polygon fill="#bfbfbf" stroke="black" points="693,-348.5 693,-369.5 763,-369.5 763,-348.5 693,-348.5"/>
<text text-anchor="middle" x="728" y="-356.5" font-family="Helvetica,sans-Serif" font-size="10.00">Meschach.h</text>
</g>
<!-- Node2 -->
<g id="node3" class="node"><title>Node2</title>
<a xlink:href="If_8h.html" target="_top" xlink:title="public declarations of the interface library ">
<polygon fill="white" stroke="black" points="386.5,-290.5 386.5,-311.5 417.5,-311.5 417.5,-290.5 386.5,-290.5"/>
<text text-anchor="middle" x="402" y="-298.5" font-family="Helvetica,sans-Serif" font-size="10.00">If.h</text>
</a>
</g>
<!-- Node1&#45;&gt;Node2 -->
<g id="edge2" class="edge"><title>Node1&#45;&gt;Node2</title>
<path fill="none" stroke="midnightblue" d="M682.831,-350.964C608.761,-337.786 464.969,-312.203 417.571,-303.77"/>
<polygon fill="midnightblue" stroke="midnightblue" points="682.344,-354.432 692.803,-352.738 683.57,-347.54 682.344,-354.432"/>
</g>
<!-- Node7 -->
<g id="node13" class="node"><title>Node7</title>
<a xlink:href="If__IntVec_8h.html" target="_top" xlink:title="Interface variables for integer vectors of the Meschach library. ">
<polygon fill="white" stroke="black" points="-0.5,-116.5 -0.5,-137.5 64.5,-137.5 64.5,-116.5 -0.5,-116.5"/>
<text text-anchor="middle" x="32" y="-124.5" font-family="Helvetica,sans-Serif" font-size="10.00">If_IntVec.h</text>
</a>
</g>
<!-- Node1&#45;&gt;Node7 -->
<g id="edge26" class="edge"><title>Node1&#45;&gt;Node7</title>
<path fill="none" stroke="midnightblue" d="M682.45,-354.919C600.998,-347.284 433.698,-329.98 378,-312 240.575,-267.638 93.4765,-169.879 46.971,-137.585"/>
<polygon fill="midnightblue" stroke="midnightblue" points="682.604,-358.448 692.885,-355.888 683.251,-351.478 682.604,-358.448"/>
</g>
<!-- Node9 -->
<g id="node17" class="node"><title>Node9</title>
<a xlink:href="If__RealMat_8h.html" target="_top" xlink:title="Interface variables for matrices of reals (currently Mesch::MATP) ">
<polygon fill="white" stroke="black" points="387.5,-116.5 387.5,-137.5 460.5,-137.5 460.5,-116.5 387.5,-116.5"/>
<text text-anchor="middle" x="424" y="-124.5" font-family="Helvetica,sans-Serif" font-size="10.00">If_RealMat.h</text>
</a>
</g>
<!-- Node1&#45;&gt;Node9 -->
<g id="edge28" class="edge"><title>Node1&#45;&gt;Node9</title>
<path fill="none" stroke="midnightblue" d="M683.08,-348.334C657.303,-340.839 625.167,-329.066 600,-312 533.922,-267.191 541.752,-230.154 485,-174 470.935,-160.083 452.745,-146.549 439.9,-137.606"/>
<polygon fill="midnightblue" stroke="midnightblue" points="682.405,-351.779 692.977,-351.095 684.285,-345.036 682.405,-351.779"/>
</g>
<!-- Node10 -->
<g id="node19" class="node"><title>Node10</title>
<a xlink:href="If__RealVec_8h.html" target="_top" xlink:title="Interface variables for vectors of reals (currently Mesch::VECP) ">
<polygon fill="white" stroke="black" points="478,-116.5 478,-137.5 552,-137.5 552,-116.5 478,-116.5"/>
<text text-anchor="middle" x="515" y="-124.5" font-family="Helvetica,sans-Serif" font-size="10.00">If_RealVec.h</text>
</a>
</g>
<!-- Node1&#45;&gt;Node10 -->
<g id="edge30" class="edge"><title>Node1&#45;&gt;Node10</title>
<path fill="none" stroke="midnightblue" d="M693.102,-344.176C656.864,-327.188 600.711,-296.16 566,-254 535.947,-217.497 521.8,-161.003 516.989,-137.656"/>
<polygon fill="midnightblue" stroke="midnightblue" points="691.761,-347.411 702.31,-348.391 694.675,-341.046 691.761,-347.411"/>
</g>
<!-- Node14 -->
<g id="node30" class="node"><title>Node14</title>
<a xlink:href="Hqp_8h.html" target="_top" xlink:title="declaration of external API for HQP (Huge Quadratic Programming) ">
<polygon fill="white" stroke="black" points="706.5,-290.5 706.5,-311.5 749.5,-311.5 749.5,-290.5 706.5,-290.5"/>
<text text-anchor="middle" x="728" y="-298.5" font-family="Helvetica,sans-Serif" font-size="10.00">Hqp.h</text>
</a>
</g>
<!-- Node1&#45;&gt;Node14 -->
<g id="edge32" class="edge"><title>Node1&#45;&gt;Node14</title>
<path fill="none" stroke="midnightblue" d="M728,-338.191C728,-329.168 728,-318.994 728,-311.571"/>
<polygon fill="midnightblue" stroke="midnightblue" points="724.5,-338.362 728,-348.362 731.5,-338.362 724.5,-338.362"/>
</g>
<!-- Node24 -->
<g id="node52" class="node"><title>Node24</title>
<a xlink:href="Omu__Dependents_8h.html" target="_top" xlink:title="Dependent variables (single and vector, including Jacobians). ">
<polygon fill="white" stroke="black" points="931,-232.5 931,-253.5 1035,-253.5 1035,-232.5 931,-232.5"/>
<text text-anchor="middle" x="983" y="-240.5" font-family="Helvetica,sans-Serif" font-size="10.00">Omu_Dependents.h</text>
</a>
</g>
<!-- Node1&#45;&gt;Node24 -->
<g id="edge56" class="edge"><title>Node1&#45;&gt;Node24</title>
<path fill="none" stroke="midnightblue" d="M760.713,-344.119C813.064,-320.304 914.39,-274.211 959.892,-253.512"/>
<polygon fill="midnightblue" stroke="midnightblue" points="759.186,-340.968 751.533,-348.295 762.084,-347.34 759.186,-340.968"/>
</g>
<!-- Node28 -->
<g id="node60" class="node"><title>Node28</title>
<a xlink:href="Omu__Program_8h.html" target="_top" xlink:title="Interface for a multistage optimization problem described by algebraic and differential equations...">
<polygon fill="white" stroke="black" points="1052,-174.5 1052,-195.5 1140,-195.5 1140,-174.5 1052,-174.5"/>
<text text-anchor="middle" x="1096" y="-182.5" font-family="Helvetica,sans-Serif" font-size="10.00">Omu_Program.h</text>
</a>
</g>
<!-- Node1&#45;&gt;Node28 -->
<g id="edge90" class="edge"><title>Node1&#45;&gt;Node28</title>
<path fill="none" stroke="midnightblue" d="M773.318,-356.679C846.377,-352.153 986.052,-340.024 1026,-312 1067.63,-282.794 1087.15,-220.606 1093.53,-195.67"/>
<polygon fill="midnightblue" stroke="midnightblue" points="772.815,-353.202 763.041,-357.292 773.232,-360.19 772.815,-353.202"/>
</g>
<!-- Node32 -->
<g id="node69" class="node"><title>Node32</title>
<a xlink:href="Omu__Vec_8h.html" target="_top" xlink:title="Vector with automatic construction and destruction. ">
<polygon fill="white" stroke="black" points="949,-290.5 949,-311.5 1017,-311.5 1017,-290.5 949,-290.5"/>
<text text-anchor="middle" x="983" y="-298.5" font-family="Helvetica,sans-Serif" font-size="10.00">Omu_Vec.h</text>
</a>
</g>
<!-- Node1&#45;&gt;Node32 -->
<g id="edge74" class="edge"><title>Node1&#45;&gt;Node32</title>
<path fill="none" stroke="midnightblue" d="M773.141,-348.733C823.459,-337.288 903.692,-319.039 948.985,-308.737"/>
<polygon fill="midnightblue" stroke="midnightblue" points="772.164,-345.365 763.189,-350.996 773.716,-352.191 772.164,-345.365"/>
</g>
<!-- Node35 -->
<g id="node81" class="node"><title>Node35</title>
<a xlink:href="Hxi__mx__parse_8h.html" target="_top" xlink:title="Parse an argument string passed to a Simulink S&#45;function and create according mxArrays. ">
<polygon fill="white" stroke="black" points="1091,-290.5 1091,-311.5 1179,-311.5 1179,-290.5 1091,-290.5"/>
<text text-anchor="middle" x="1135" y="-298.5" font-family="Helvetica,sans-Serif" font-size="10.00">Hxi_mx_parse.h</text>
</a>
</g>
<!-- Node1&#45;&gt;Node35 -->
<g id="edge92" class="edge"><title>Node1&#45;&gt;Node35</title>
<path fill="none" stroke="midnightblue" d="M773.165,-353.702C839.798,-345.708 968.301,-329.614 1077,-312 1081.45,-311.279 1086.09,-310.48 1090.71,-309.653"/>
<polygon fill="midnightblue" stroke="midnightblue" points="772.529,-350.253 763.014,-354.914 773.359,-357.204 772.529,-350.253"/>
</g>
<!-- Node3 -->
<g id="node5" class="node"><title>Node3</title>
<a xlink:href="If__Element_8h.html" target="_top" xlink:title="interface element to Tcl ">
<polygon fill="white" stroke="black" points="354,-232.5 354,-253.5 426,-253.5 426,-232.5 354,-232.5"/>
<text text-anchor="middle" x="390" y="-240.5" font-family="Helvetica,sans-Serif" font-size="10.00">If_Element.h</text>
</a>
</g>
<!-- Node2&#45;&gt;Node3 -->
<g id="edge4" class="edge"><title>Node2&#45;&gt;Node3</title>
<path fill="none" stroke="midnightblue" d="M397.756,-280.488C395.874,-271.392 393.74,-261.076 392.187,-253.571"/>
<polygon fill="midnightblue" stroke="midnightblue" points="394.345,-281.278 399.799,-290.362 401.2,-279.86 394.345,-281.278"/>
</g>
<!-- Node4 -->
<g id="node7" class="node"><title>Node4</title>
<a xlink:href="If__Variable_8h.html" target="_top" xlink:title="base classes for interface variables ">
<polygon fill="white" stroke="black" points="221.5,-174.5 221.5,-195.5 292.5,-195.5 292.5,-174.5 221.5,-174.5"/>
<text text-anchor="middle" x="257" y="-182.5" font-family="Helvetica,sans-Serif" font-size="10.00">If_Variable.h</text>
</a>
</g>
<!-- Node3&#45;&gt;Node4 -->
<g id="edge6" class="edge"><title>Node3&#45;&gt;Node4</title>
<path fill="none" stroke="midnightblue" d="M356.703,-228.479C333.29,-218.269 302.492,-204.839 281.356,-195.621"/>
<polygon fill="midnightblue" stroke="midnightblue" points="355.349,-231.707 365.915,-232.497 358.147,-225.291 355.349,-231.707"/>
</g>
<!-- Node12 -->
<g id="node23" class="node"><title>Node12</title>
<a xlink:href="If__Method_8h.html" target="_top" xlink:title="binds a pointer to a method to an interface element ">
<polygon fill="white" stroke="black" points="310,-174.5 310,-195.5 378,-195.5 378,-174.5 310,-174.5"/>
<text text-anchor="middle" x="344" y="-182.5" font-family="Helvetica,sans-Serif" font-size="10.00">If_Method.h</text>
</a>
</g>
<!-- Node3&#45;&gt;Node12 -->
<g id="edge22" class="edge"><title>Node3&#45;&gt;Node12</title>
<path fill="none" stroke="midnightblue" d="M375.13,-224.25C367.595,-214.75 358.724,-203.565 352.384,-195.571"/>
<polygon fill="midnightblue" stroke="midnightblue" points="372.607,-226.702 381.563,-232.362 378.091,-222.352 372.607,-226.702"/>
</g>
<!-- Node13 -->
<g id="node25" class="node"><title>Node13</title>
<a xlink:href="If__Procedure_8h.html" target="_top" xlink:title="binds a function pointer to an interface element ">
<polygon fill="white" stroke="black" points="396,-174.5 396,-195.5 476,-195.5 476,-174.5 396,-174.5"/>
<text text-anchor="middle" x="436" y="-182.5" font-family="Helvetica,sans-Serif" font-size="10.00">If_Procedure.h</text>
</a>
</g>
<!-- Node3&#45;&gt;Node13 -->
<g id="edge24" class="edge"><title>Node3&#45;&gt;Node13</title>
<path fill="none" stroke="midnightblue" d="M404.87,-224.25C412.405,-214.75 421.276,-203.565 427.616,-195.571"/>
<polygon fill="midnightblue" stroke="midnightblue" points="401.909,-222.352 398.437,-232.362 407.393,-226.702 401.909,-222.352"/>
</g>
<!-- Node5 -->
<g id="node9" class="node"><title>Node5</title>
<a xlink:href="If__Bool_8h.html" target="_top" xlink:title="Interface variable for booleans. ">
<polygon fill="white" stroke="black" points="250,-116.5 250,-137.5 306,-137.5 306,-116.5 250,-116.5"/>
<text text-anchor="middle" x="278" y="-124.5" font-family="Helvetica,sans-Serif" font-size="10.00">If_Bool.h</text>
</a>
</g>
<!-- Node4&#45;&gt;Node5 -->
<g id="edge8" class="edge"><title>Node4&#45;&gt;Node5</title>
<path fill="none" stroke="midnightblue" d="M264.32,-164.784C267.639,-155.617 271.426,-145.157 274.173,-137.571"/>
<polygon fill="midnightblue" stroke="midnightblue" points="260.965,-163.768 260.852,-174.362 267.547,-166.151 260.965,-163.768"/>
</g>
<!-- Node6 -->
<g id="node11" class="node"><title>Node6</title>
<a xlink:href="If__Int_8h.html" target="_top" xlink:title="Interface variable for integers. ">
<polygon fill="white" stroke="black" points="323.5,-116.5 323.5,-137.5 370.5,-137.5 370.5,-116.5 323.5,-116.5"/>
<text text-anchor="middle" x="347" y="-124.5" font-family="Helvetica,sans-Serif" font-size="10.00">If_Int.h</text>
</a>
</g>
<!-- Node4&#45;&gt;Node6 -->
<g id="edge10" class="edge"><title>Node4&#45;&gt;Node6</title>
<path fill="none" stroke="midnightblue" d="M282.105,-168.821C297.607,-158.831 317.053,-146.299 330.597,-137.571"/>
<polygon fill="midnightblue" stroke="midnightblue" points="280.017,-166.003 273.507,-174.362 283.809,-171.887 280.017,-166.003"/>
</g>
<!-- Node4&#45;&gt;Node7 -->
<g id="edge12" class="edge"><title>Node4&#45;&gt;Node7</title>
<path fill="none" stroke="midnightblue" d="M211.305,-173.49C174.05,-164.067 120.083,-150.329 73,-138 70.2908,-137.291 67.4825,-136.549 64.6643,-135.802"/>
<polygon fill="midnightblue" stroke="midnightblue" points="210.797,-176.972 221.35,-176.029 212.512,-170.185 210.797,-176.972"/>
</g>
<!-- Node8 -->
<g id="node15" class="node"><title>Node8</title>
<a xlink:href="If__Real_8h.html" target="_top" xlink:title="Interface variable for doubles. ">
<polygon fill="white" stroke="black" points="82,-116.5 82,-137.5 138,-137.5 138,-116.5 82,-116.5"/>
<text text-anchor="middle" x="110" y="-124.5" font-family="Helvetica,sans-Serif" font-size="10.00">If_Real.h</text>
</a>
</g>
<!-- Node4&#45;&gt;Node8 -->
<g id="edge14" class="edge"><title>Node4&#45;&gt;Node8</title>
<path fill="none" stroke="midnightblue" d="M220.886,-170.751C194.927,-160.509 160.488,-146.921 136.919,-137.621"/>
<polygon fill="midnightblue" stroke="midnightblue" points="219.793,-174.082 230.379,-174.497 222.362,-167.571 219.793,-174.082"/>
</g>
<!-- Node4&#45;&gt;Node9 -->
<g id="edge16" class="edge"><title>Node4&#45;&gt;Node9</title>
<path fill="none" stroke="midnightblue" d="M296.895,-171.144C326.613,-160.823 366.575,-146.944 393.701,-137.523"/>
<polygon fill="midnightblue" stroke="midnightblue" points="295.541,-167.909 287.242,-174.497 297.837,-174.522 295.541,-167.909"/>
</g>
<!-- Node4&#45;&gt;Node10 -->
<g id="edge18" class="edge"><title>Node4&#45;&gt;Node10</title>
<path fill="none" stroke="midnightblue" d="M302.4,-173.725C377.048,-156.56 397.582,-154.189 469,-138 471.883,-137.347 474.865,-136.659 477.86,-135.961"/>
<polygon fill="midnightblue" stroke="midnightblue" points="301.471,-170.348 292.517,-176.011 303.048,-177.168 301.471,-170.348"/>
</g>
<!-- Node11 -->
<g id="node21" class="node"><title>Node11</title>
<a xlink:href="If__StdString_8h.html" target="_top" xlink:title="If_Variable for standard C++ string type. ">
<polygon fill="white" stroke="black" points="155.5,-116.5 155.5,-137.5 232.5,-137.5 232.5,-116.5 155.5,-116.5"/>
<text text-anchor="middle" x="194" y="-124.5" font-family="Helvetica,sans-Serif" font-size="10.00">If_StdString.h</text>
</a>
</g>
<!-- Node4&#45;&gt;Node11 -->
<g id="edge20" class="edge"><title>Node4&#45;&gt;Node11</title>
<path fill="none" stroke="midnightblue" d="M237.888,-167.405C227.312,-157.668 214.52,-145.891 205.482,-137.571"/>
<polygon fill="midnightblue" stroke="midnightblue" points="235.717,-170.164 245.445,-174.362 240.458,-165.014 235.717,-170.164"/>
</g>
<!-- Node15 -->
<g id="node32" class="node"><title>Node15</title>
<a xlink:href="Hqp__impl_8h.html" target="_top" xlink:title="internal declarations for HQP (Huge Quadratic Programming) ">
<polygon fill="white" stroke="black" points="695,-232.5 695,-253.5 761,-253.5 761,-232.5 695,-232.5"/>
<text text-anchor="middle" x="728" y="-240.5" font-family="Helvetica,sans-Serif" font-size="10.00">Hqp_impl.h</text>
</a>
</g>
<!-- Node14&#45;&gt;Node15 -->
<g id="edge34" class="edge"><title>Node14&#45;&gt;Node15</title>
<path fill="none" stroke="midnightblue" d="M728,-280.191C728,-271.168 728,-260.994 728,-253.571"/>
<polygon fill="midnightblue" stroke="midnightblue" points="724.5,-280.362 728,-290.362 731.5,-280.362 724.5,-280.362"/>
</g>
<!-- Node18 -->
<g id="node38" class="node"><title>Node18</title>
<a xlink:href="Hqp__DocpWrapper_8h.html" target="_top" xlink:title="Implement an Hqp_Docp and connect it to Hqp_DocpSpec. ">
<polygon fill="white" stroke="black" points="588,-0.5 588,-21.5 696,-21.5 696,-0.5 588,-0.5"/>
<text text-anchor="middle" x="642" y="-8.5" font-family="Helvetica,sans-Serif" font-size="10.00">Hqp_DocpWrapper.h</text>
</a>
</g>
<!-- Node14&#45;&gt;Node18 -->
<g id="edge50" class="edge"><title>Node14&#45;&gt;Node18</title>
<path fill="none" stroke="midnightblue" d="M696.934,-292.045C653.531,-277.404 580,-243.908 580,-185 580,-185 580,-185 580,-127 580,-83.6135 614.152,-40.7312 631.762,-21.5037"/>
<polygon fill="midnightblue" stroke="midnightblue" points="695.888,-295.385 706.48,-295.126 698.038,-288.724 695.888,-295.385"/>
</g>
<!-- Node22 -->
<g id="node48" class="node"><title>Node22</title>
<a xlink:href="Hqp__DocpStub_8h.html" target="_top" xlink:title="client stub for Hqp_Docp interface ">
<polygon fill="white" stroke="black" points="793,-232.5 793,-253.5 885,-253.5 885,-232.5 793,-232.5"/>
<text text-anchor="middle" x="839" y="-240.5" font-family="Helvetica,sans-Serif" font-size="10.00">Hqp_DocpStub.h</text>
</a>
</g>
<!-- Node14&#45;&gt;Node22 -->
<g id="edge52" class="edge"><title>Node14&#45;&gt;Node22</title>
<path fill="none" stroke="midnightblue" d="M757.101,-285.794C776.468,-275.675 801.425,-262.634 818.673,-253.621"/>
<polygon fill="midnightblue" stroke="midnightblue" points="755.343,-282.763 748.101,-290.497 758.585,-288.968 755.343,-282.763"/>
</g>
<!-- Node16 -->
<g id="node34" class="node"><title>Node16</title>
<a xlink:href="Hqp__SqpProgram_8h.html" target="_top" xlink:title="Interface for a nonlinear program. ">
<polygon fill="white" stroke="black" points="712,-116.5 712,-137.5 814,-137.5 814,-116.5 712,-116.5"/>
<text text-anchor="middle" x="763" y="-124.5" font-family="Helvetica,sans-Serif" font-size="10.00">Hqp_SqpProgram.h</text>
</a>
</g>
<!-- Node15&#45;&gt;Node16 -->
<g id="edge36" class="edge"><title>Node15&#45;&gt;Node16</title>
<path fill="none" stroke="midnightblue" d="M733.358,-222.291C737.001,-208.539 742.042,-190.118 747,-174 750.852,-161.477 755.77,-147.256 759.131,-137.768"/>
<polygon fill="midnightblue" stroke="midnightblue" points="729.915,-221.625 730.765,-232.186 736.686,-223.4 729.915,-221.625"/>
</g>
<!-- Node19 -->
<g id="node40" class="node"><title>Node19</title>
<a xlink:href="Hqp__Program_8h.html" target="_top" xlink:title="Optimization program for sparse quadratic programming. ">
<polygon fill="white" stroke="black" points="755.5,-174.5 755.5,-195.5 840.5,-195.5 840.5,-174.5 755.5,-174.5"/>
<text text-anchor="middle" x="798" y="-182.5" font-family="Helvetica,sans-Serif" font-size="10.00">Hqp_Program.h</text>
</a>
</g>
<!-- Node15&#45;&gt;Node19 -->
<g id="edge42" class="edge"><title>Node15&#45;&gt;Node19</title>
<path fill="none" stroke="midnightblue" d="M748.547,-225.975C760.427,-216.132 775.003,-204.055 785.242,-195.571"/>
<polygon fill="midnightblue" stroke="midnightblue" points="746.306,-223.287 740.839,-232.362 750.772,-228.677 746.306,-223.287"/>
</g>
<!-- Node20 -->
<g id="node43" class="node"><title>Node20</title>
<a xlink:href="Hqp__MipSolver_8h.html" target="_top" xlink:title="Interface for a solver for mixed integer problems. ">
<polygon fill="white" stroke="black" points="608,-174.5 608,-195.5 700,-195.5 700,-174.5 608,-174.5"/>
<text text-anchor="middle" x="654" y="-182.5" font-family="Helvetica,sans-Serif" font-size="10.00">Hqp_MipSolver.h</text>
</a>
</g>
<!-- Node15&#45;&gt;Node20 -->
<g id="edge46" class="edge"><title>Node15&#45;&gt;Node20</title>
<path fill="none" stroke="midnightblue" d="M706.279,-225.975C693.72,-216.132 678.311,-204.055 667.487,-195.571"/>
<polygon fill="midnightblue" stroke="midnightblue" points="704.398,-228.948 714.427,-232.362 708.716,-223.438 704.398,-228.948"/>
</g>
<!-- Node17 -->
<g id="node36" class="node"><title>Node17</title>
<a xlink:href="Hqp__Docp_8h.html" target="_top" xlink:title="base class for formulating Discrete&#45;time Optimal Control Programs ">
<polygon fill="white" stroke="black" points="668.5,-58.5 668.5,-79.5 739.5,-79.5 739.5,-58.5 668.5,-58.5"/>
<text text-anchor="middle" x="704" y="-66.5" font-family="Helvetica,sans-Serif" font-size="10.00">Hqp_Docp.h</text>
</a>
</g>
<!-- Node16&#45;&gt;Node17 -->
<g id="edge38" class="edge"><title>Node16&#45;&gt;Node17</title>
<path fill="none" stroke="midnightblue" d="M744.81,-109.118C734.963,-99.4377 723.134,-87.8098 714.753,-79.5707"/>
<polygon fill="midnightblue" stroke="midnightblue" points="742.594,-111.847 752.178,-116.362 747.501,-106.856 742.594,-111.847"/>
</g>
<!-- Node17&#45;&gt;Node18 -->
<g id="edge40" class="edge"><title>Node17&#45;&gt;Node18</title>
<path fill="none" stroke="midnightblue" d="M685.192,-51.405C674.783,-41.6683 662.194,-29.8914 653.3,-21.5707"/>
<polygon fill="midnightblue" stroke="midnightblue" points="682.934,-54.0863 692.628,-58.3619 687.717,-48.9743 682.934,-54.0863"/>
</g>
<!-- Node19&#45;&gt;Node16 -->
<g id="edge44" class="edge"><title>Node19&#45;&gt;Node16</title>
<path fill="none" stroke="midnightblue" d="M786.333,-165.667C780.678,-156.295 774.105,-145.402 769.379,-137.571"/>
<polygon fill="midnightblue" stroke="midnightblue" points="783.417,-167.608 791.58,-174.362 789.41,-163.992 783.417,-167.608"/>
</g>
<!-- Node21 -->
<g id="node45" class="node"><title>Node21</title>
<a xlink:href="Hqp__LPSolve_8h.html" target="_top" xlink:title="Interface to lp_solve for the solution of linear mixed integer programs (see: http://lpsolve.sourceforge.net/5.5). ">
<polygon fill="white" stroke="black" points="609.5,-116.5 609.5,-137.5 694.5,-137.5 694.5,-116.5 609.5,-116.5"/>
<text text-anchor="middle" x="652" y="-124.5" font-family="Helvetica,sans-Serif" font-size="10.00">Hqp_LPSolve.h</text>
</a>
</g>
<!-- Node20&#45;&gt;Node21 -->
<g id="edge48" class="edge"><title>Node20&#45;&gt;Node21</title>
<path fill="none" stroke="midnightblue" d="M653.282,-164.191C652.971,-155.168 652.62,-144.994 652.365,-137.571"/>
<polygon fill="midnightblue" stroke="midnightblue" points="649.791,-164.488 653.633,-174.362 656.786,-164.247 649.791,-164.488"/>
</g>
<!-- Node23 -->
<g id="node50" class="node"><title>Node23</title>
<a xlink:href="Hqp__Omuses_8h.html" target="_top" xlink:title="multi stage optimal control problems described by DAE&#39;s ">
<polygon fill="white" stroke="black" points="857.5,-174.5 857.5,-195.5 942.5,-195.5 942.5,-174.5 857.5,-174.5"/>
<text text-anchor="middle" x="900" y="-182.5" font-family="Helvetica,sans-Serif" font-size="10.00">Hqp_Omuses.h</text>
</a>
</g>
<!-- Node22&#45;&gt;Node23 -->
<g id="edge54" class="edge"><title>Node22&#45;&gt;Node23</title>
<path fill="none" stroke="midnightblue" d="M857.505,-225.405C867.745,-215.668 880.131,-203.891 888.883,-195.571"/>
<polygon fill="midnightblue" stroke="midnightblue" points="855.024,-222.935 850.188,-232.362 859.847,-228.008 855.024,-222.935"/>
</g>
<!-- Node25 -->
<g id="node54" class="node"><title>Node25</title>
<a xlink:href="Omu__Deps_8h.html" target="_top" xlink:title="Extensions for managing dependent variables internally. ">
<polygon fill="white" stroke="black" points="960,-174.5 960,-195.5 1034,-195.5 1034,-174.5 960,-174.5"/>
<text text-anchor="middle" x="997" y="-182.5" font-family="Helvetica,sans-Serif" font-size="10.00">Omu_Deps.h</text>
</a>
</g>
<!-- Node24&#45;&gt;Node25 -->
<g id="edge58" class="edge"><title>Node24&#45;&gt;Node25</title>
<path fill="none" stroke="midnightblue" d="M987.951,-222.488C990.147,-213.392 992.637,-203.076 994.448,-195.571"/>
<polygon fill="midnightblue" stroke="midnightblue" points="984.512,-221.82 985.568,-232.362 991.317,-223.462 984.512,-221.82"/>
</g>
<!-- Node24&#45;&gt;Node28 -->
<g id="edge64" class="edge"><title>Node24&#45;&gt;Node28</title>
<path fill="none" stroke="midnightblue" d="M1012.63,-227.794C1032.34,-217.675 1057.75,-204.634 1075.31,-195.621"/>
<polygon fill="midnightblue" stroke="midnightblue" points="1010.76,-224.816 1003.46,-232.497 1013.96,-231.044 1010.76,-224.816"/>
</g>
<!-- Node26 -->
<g id="node56" class="node"><title>Node26</title>
<a xlink:href="Omu__Integrator_8h.html" target="_top" xlink:title="interface for integrating continuous&#45;time system equations ">
<polygon fill="white" stroke="black" points="1050,-116.5 1050,-137.5 1142,-137.5 1142,-116.5 1050,-116.5"/>
<text text-anchor="middle" x="1096" y="-124.5" font-family="Helvetica,sans-Serif" font-size="10.00">Omu_Integrator.h</text>
</a>
</g>
<!-- Node25&#45;&gt;Node26 -->
<g id="edge60" class="edge"><title>Node25&#45;&gt;Node26</title>
<path fill="none" stroke="midnightblue" d="M1024.14,-169.101C1041.27,-159.066 1062.92,-146.381 1077.96,-137.571"/>
<polygon fill="midnightblue" stroke="midnightblue" points="1022.02,-166.287 1015.16,-174.362 1025.56,-172.327 1022.02,-166.287"/>
</g>
<!-- Node27 -->
<g id="node58" class="node"><title>Node27</title>
<a xlink:href="Omu__IntIMP_8h.html" target="_top" xlink:title="integrate an ODE over a stage using the implicit midpoint rule ">
<polygon fill="white" stroke="black" points="1056,-58.5 1056,-79.5 1136,-79.5 1136,-58.5 1056,-58.5"/>
<text text-anchor="middle" x="1096" y="-66.5" font-family="Helvetica,sans-Serif" font-size="10.00">Omu_IntIMP.h</text>
</a>
</g>
<!-- Node26&#45;&gt;Node27 -->
<g id="edge62" class="edge"><title>Node26&#45;&gt;Node27</title>
<path fill="none" stroke="midnightblue" d="M1096,-106.191C1096,-97.1684 1096,-86.9941 1096,-79.5707"/>
<polygon fill="midnightblue" stroke="midnightblue" points="1092.5,-106.362 1096,-116.362 1099.5,-106.362 1092.5,-106.362"/>
</g>
<!-- Node28&#45;&gt;Node26 -->
<g id="edge66" class="edge"><title>Node28&#45;&gt;Node26</title>
<path fill="none" stroke="midnightblue" d="M1096,-164.191C1096,-155.168 1096,-144.994 1096,-137.571"/>
<polygon fill="midnightblue" stroke="midnightblue" points="1092.5,-164.362 1096,-174.362 1099.5,-164.362 1092.5,-164.362"/>
</g>
<!-- Node29 -->
<g id="node63" class="node"><title>Node29</title>
<a xlink:href="Prg__SFunction_8h.html" target="_top" xlink:title="Basic functionality for formulating an optimization problem for a model given as MEX S&#45;function...">
<polygon fill="white" stroke="black" points="1283.5,-116.5 1283.5,-137.5 1372.5,-137.5 1372.5,-116.5 1283.5,-116.5"/>
<text text-anchor="middle" x="1328" y="-124.5" font-family="Helvetica,sans-Serif" font-size="10.00">Prg_SFunction.h</text>
</a>
</g>
<!-- Node28&#45;&gt;Node29 -->
<g id="edge68" class="edge"><title>Node28&#45;&gt;Node29</title>
<path fill="none" stroke="midnightblue" d="M1147.96,-172.011C1189.56,-161.611 1247.16,-147.21 1285.91,-137.523"/>
<polygon fill="midnightblue" stroke="midnightblue" points="1146.87,-168.676 1138.01,-174.497 1148.56,-175.467 1146.87,-168.676"/>
</g>
<!-- Node30 -->
<g id="node65" class="node"><title>Node30</title>
<a xlink:href="Prg__SFunctionEst_8h.html" target="_top" xlink:title="Estimation of initial states and parameters for a model given as MEX S&#45;function. ">
<polygon fill="white" stroke="black" points="1209,-58.5 1209,-79.5 1313,-79.5 1313,-58.5 1209,-58.5"/>
<text text-anchor="middle" x="1261" y="-66.5" font-family="Helvetica,sans-Serif" font-size="10.00">Prg_SFunctionEst.h</text>
</a>
</g>
<!-- Node29&#45;&gt;Node30 -->
<g id="edge70" class="edge"><title>Node29&#45;&gt;Node30</title>
<path fill="none" stroke="midnightblue" d="M1308,-109.691C1296.69,-99.8996 1282.92,-87.973 1273.21,-79.5707"/>
<polygon fill="midnightblue" stroke="midnightblue" points="1305.86,-112.463 1315.71,-116.362 1310.44,-107.171 1305.86,-112.463"/>
</g>
<!-- Node31 -->
<g id="node67" class="node"><title>Node31</title>
<a xlink:href="Prg__SFunctionOpt_8h.html" target="_top" xlink:title="Optimal control problem for a model given as MEX S&#45;function. ">
<polygon fill="white" stroke="black" points="1341.5,-58.5 1341.5,-79.5 1446.5,-79.5 1446.5,-58.5 1341.5,-58.5"/>
<text text-anchor="middle" x="1394" y="-66.5" font-family="Helvetica,sans-Serif" font-size="10.00">Prg_SFunctionOpt.h</text>
</a>
</g>
<!-- Node29&#45;&gt;Node31 -->
<g id="edge72" class="edge"><title>Node29&#45;&gt;Node31</title>
<path fill="none" stroke="midnightblue" d="M1347.7,-109.691C1358.84,-99.8996 1372.41,-87.973 1381.97,-79.5707"/>
<polygon fill="midnightblue" stroke="midnightblue" points="1345.31,-107.132 1340.11,-116.362 1349.93,-112.39 1345.31,-107.132"/>
</g>
<!-- Node32&#45;&gt;Node24 -->
<g id="edge76" class="edge"><title>Node32&#45;&gt;Node24</title>
<path fill="none" stroke="midnightblue" d="M983,-280.191C983,-271.168 983,-260.994 983,-253.571"/>
<polygon fill="midnightblue" stroke="midnightblue" points="979.5,-280.362 983,-290.362 986.5,-280.362 979.5,-280.362"/>
</g>
<!-- Node33 -->
<g id="node72" class="node"><title>Node33</title>
<a xlink:href="Omu__Variables_8h.html" target="_top" xlink:title="Independent variables for Omuses problem setup. ">
<polygon fill="white" stroke="black" points="1147,-232.5 1147,-253.5 1239,-253.5 1239,-232.5 1147,-232.5"/>
<text text-anchor="middle" x="1193" y="-240.5" font-family="Helvetica,sans-Serif" font-size="10.00">Omu_Variables.h</text>
</a>
</g>
<!-- Node32&#45;&gt;Node33 -->
<g id="edge78" class="edge"><title>Node32&#45;&gt;Node33</title>
<path fill="none" stroke="midnightblue" d="M1026.94,-288.864C1064.79,-278.411 1118.85,-263.479 1154.9,-253.524"/>
<polygon fill="midnightblue" stroke="midnightblue" points="1025.91,-285.516 1017.21,-291.552 1027.78,-292.264 1025.91,-285.516"/>
</g>
<!-- Node33&#45;&gt;Node28 -->
<g id="edge80" class="edge"><title>Node33&#45;&gt;Node28</title>
<path fill="none" stroke="midnightblue" d="M1166.41,-227.101C1149.63,-217.066 1128.41,-204.381 1113.68,-195.571"/>
<polygon fill="midnightblue" stroke="midnightblue" points="1164.83,-230.234 1175.21,-232.362 1168.42,-224.226 1164.83,-230.234"/>
</g>
<!-- Node33&#45;&gt;Node30 -->
<g id="edge86" class="edge"><title>Node33&#45;&gt;Node30</title>
<path fill="none" stroke="midnightblue" d="M1213.78,-225.665C1222.24,-217.514 1231.35,-207.142 1237,-196 1257.11,-156.381 1260.47,-102.075 1260.96,-79.502"/>
<polygon fill="midnightblue" stroke="midnightblue" points="1211.33,-223.16 1206.3,-232.485 1216.05,-228.332 1211.33,-223.16"/>
</g>
<!-- Node33&#45;&gt;Node31 -->
<g id="edge88" class="edge"><title>Node33&#45;&gt;Node31</title>
<path fill="none" stroke="midnightblue" d="M1240.9,-229.175C1284.42,-214.04 1346.89,-185.392 1381,-138 1393.53,-120.587 1394.98,-94.5034 1394.66,-79.9019"/>
<polygon fill="midnightblue" stroke="midnightblue" points="1239.73,-225.874 1231.37,-232.379 1241.96,-232.509 1239.73,-225.874"/>
</g>
<!-- Node34 -->
<g id="node75" class="node"><title>Node34</title>
<a xlink:href="Omu__Vars_8h.html" target="_top" xlink:title="extensions for managing independent variables ">
<polygon fill="white" stroke="black" points="1157.5,-174.5 1157.5,-195.5 1228.5,-195.5 1228.5,-174.5 1157.5,-174.5"/>
<text text-anchor="middle" x="1193" y="-182.5" font-family="Helvetica,sans-Serif" font-size="10.00">Omu_Vars.h</text>
</a>
</g>
<!-- Node33&#45;&gt;Node34 -->
<g id="edge82" class="edge"><title>Node33&#45;&gt;Node34</title>
<path fill="none" stroke="midnightblue" d="M1193,-222.191C1193,-213.168 1193,-202.994 1193,-195.571"/>
<polygon fill="midnightblue" stroke="midnightblue" points="1189.5,-222.362 1193,-232.362 1196.5,-222.362 1189.5,-222.362"/>
</g>
<!-- Node34&#45;&gt;Node26 -->
<g id="edge84" class="edge"><title>Node34&#45;&gt;Node26</title>
<path fill="none" stroke="midnightblue" d="M1166.41,-169.101C1149.63,-159.066 1128.41,-146.381 1113.68,-137.571"/>
<polygon fill="midnightblue" stroke="midnightblue" points="1164.83,-172.234 1175.21,-174.362 1168.42,-166.226 1164.83,-172.234"/>
</g>
</g>
</svg>
