<?xml version="1.0" encoding="UTF-8" standalone="no"?>
<!DOCTYPE svg PUBLIC "-//W3C//DTD SVG 1.1//EN"
 "http://www.w3.org/Graphics/SVG/1.1/DTD/svg11.dtd">
<!-- Generated by graphviz version 2.26.3 (20100126.1600)
 -->
<!-- Title: Omu_Integrator.h Pages: 1 -->
<svg width="442pt" height="320pt"
 viewBox="0.00 0.00 442.00 320.00" xmlns="http://www.w3.org/2000/svg" xmlns:xlink="http://www.w3.org/1999/xlink">
<g id="graph1" class="graph" transform="scale(1 1) rotate(0) translate(4 316)">
<title>Omu_Integrator.h</title>
<polygon fill="white" stroke="white" points="-4,5 -4,-316 439,-316 439,5 -4,5"/>
<!-- Node1 -->
<g id="node1" class="node"><title>Node1</title>
<polygon fill="#bfbfbf" stroke="black" points="134,-290.5 134,-311.5 226,-311.5 226,-290.5 134,-290.5"/>
<text text-anchor="middle" x="180" y="-298.5" font-family="Helvetica,sans-Serif" font-size="10.00">Omu_Integrator.h</text>
</g>
<!-- Node2 -->
<g id="node3" class="node"><title>Node2</title>
<a xlink:href="If__List_8h.html" target="_top" xlink:title="List of If_ListElement&#39;s. ">
<polygon fill="white" stroke="black" points="18,-232.5 18,-253.5 70,-253.5 70,-232.5 18,-232.5"/>
<text text-anchor="middle" x="44" y="-240.5" font-family="Helvetica,sans-Serif" font-size="10.00">If_List.h</text>
</a>
</g>
<!-- Node1&#45;&gt;Node2 -->
<g id="edge2" class="edge"><title>Node1&#45;&gt;Node2</title>
<path fill="none" stroke="midnightblue" d="M155.371,-290.497C133.843,-281.315 102.36,-267.889 78.3554,-257.652"/>
<polygon fill="midnightblue" stroke="midnightblue" points="79.4764,-254.325 68.9049,-253.621 76.7303,-260.764 79.4764,-254.325"/>
</g>
<!-- Node5 -->
<g id="node9" class="node"><title>Node5</title>
<a xlink:href="Omu__Program_8h.html" target="_top" xlink:title="Interface for a multistage optimization problem described by algebraic and differential equations...">
<polygon fill="white" stroke="black" points="88,-232.5 88,-253.5 176,-253.5 176,-232.5 88,-232.5"/>
<text text-anchor="middle" x="132" y="-240.5" font-family="Helvetica,sans-Serif" font-size="10.00">Omu_Program.h</text>
</a>
</g>
<!-- Node1&#45;&gt;Node5 -->
<g id="edge8" class="edge"><title>Node1&#45;&gt;Node5</title>
<path fill="none" stroke="midnightblue" d="M171.196,-290.362C164.498,-282.268 155.116,-270.932 147.211,-261.38"/>
<polygon fill="midnightblue" stroke="midnightblue" points="149.82,-259.043 140.748,-253.571 144.427,-263.506 149.82,-259.043"/>
</g>
<!-- Node14 -->
<g id="node31" class="node"><title>Node14</title>
<a xlink:href="Omu__Vars_8h.html" target="_top" xlink:title="extensions for managing independent variables ">
<polygon fill="white" stroke="black" points="193.5,-232.5 193.5,-253.5 264.5,-253.5 264.5,-232.5 193.5,-232.5"/>
<text text-anchor="middle" x="229" y="-240.5" font-family="Helvetica,sans-Serif" font-size="10.00">Omu_Vars.h</text>
</a>
</g>
<!-- Node1&#45;&gt;Node14 -->
<g id="edge34" class="edge"><title>Node1&#45;&gt;Node14</title>
<path fill="none" stroke="midnightblue" d="M188.987,-290.362C195.825,-282.268 205.402,-270.932 213.472,-261.38"/>
<polygon fill="midnightblue" stroke="midnightblue" points="216.29,-263.468 220.07,-253.571 210.942,-258.951 216.29,-263.468"/>
</g>
<!-- Node15 -->
<g id="node34" class="node"><title>Node15</title>
<a xlink:href="Omu__Deps_8h.html" target="_top" xlink:title="Extensions for managing dependent variables internally. ">
<polygon fill="white" stroke="black" points="282,-232.5 282,-253.5 356,-253.5 356,-232.5 282,-232.5"/>
<text text-anchor="middle" x="319" y="-240.5" font-family="Helvetica,sans-Serif" font-size="10.00">Omu_Deps.h</text>
</a>
</g>
<!-- Node1&#45;&gt;Node15 -->
<g id="edge38" class="edge"><title>Node1&#45;&gt;Node15</title>
<path fill="none" stroke="midnightblue" d="M205.172,-290.497C227.273,-281.275 259.639,-267.769 284.213,-257.515"/>
<polygon fill="midnightblue" stroke="midnightblue" points="285.665,-260.702 293.546,-253.621 282.969,-254.242 285.665,-260.702"/>
</g>
<!-- Node3 -->
<g id="node5" class="node"><title>Node3</title>
<a xlink:href="If__ListElement_8h.html" target="_top" xlink:title="Element of an If_List. ">
<polygon fill="white" stroke="black" points="0,-116.5 0,-137.5 88,-137.5 88,-116.5 0,-116.5"/>
<text text-anchor="middle" x="44" y="-124.5" font-family="Helvetica,sans-Serif" font-size="10.00">If_ListElement.h</text>
</a>
</g>
<!-- Node2&#45;&gt;Node3 -->
<g id="edge4" class="edge"><title>Node2&#45;&gt;Node3</title>
<path fill="none" stroke="midnightblue" d="M44,-232.295C44,-213.131 44,-172.654 44,-147.843"/>
<polygon fill="midnightblue" stroke="midnightblue" points="47.5001,-147.679 44,-137.679 40.5001,-147.679 47.5001,-147.679"/>
</g>
<!-- Node4 -->
<g id="node7" class="node"><title>Node4</title>
<polygon fill="white" stroke="#bfbfbf" points="19.5,-0.5 19.5,-21.5 68.5,-21.5 68.5,-0.5 19.5,-0.5"/>
<text text-anchor="middle" x="44" y="-8.5" font-family="Helvetica,sans-Serif" font-size="10.00">string.h</text>
</g>
<!-- Node3&#45;&gt;Node4 -->
<g id="edge6" class="edge"><title>Node3&#45;&gt;Node4</title>
<path fill="none" stroke="midnightblue" d="M44,-116.295C44,-97.1314 44,-56.654 44,-31.8434"/>
<polygon fill="midnightblue" stroke="midnightblue" points="47.5001,-31.6792 44,-21.6792 40.5001,-31.6792 47.5001,-31.6792"/>
</g>
<!-- Node6 -->
<g id="node11" class="node"><title>Node6</title>
<a xlink:href="Meschach_8h.html" target="_top" xlink:title="Meschach declarations and some extensions. ">
<polygon fill="white" stroke="black" points="191,-58.5 191,-79.5 261,-79.5 261,-58.5 191,-58.5"/>
<text text-anchor="middle" x="226" y="-66.5" font-family="Helvetica,sans-Serif" font-size="10.00">Meschach.h</text>
</a>
</g>
<!-- Node5&#45;&gt;Node6 -->
<g id="edge10" class="edge"><title>Node5&#45;&gt;Node6</title>
<path fill="none" stroke="midnightblue" d="M133.397,-232.4C135.455,-218.578 139.956,-193.827 148,-174 159.318,-146.101 164.972,-140.114 183,-116 190.527,-105.931 199.848,-95.5375 207.885,-87.0925"/>
<polygon fill="midnightblue" stroke="midnightblue" points="210.641,-89.2791 215.097,-79.6672 205.619,-84.402 210.641,-89.2791"/>
</g>
<!-- Node11 -->
<g id="node22" class="node"><title>Node11</title>
<a xlink:href="Omu__Variables_8h.html" target="_top" xlink:title="Independent variables for Omuses problem setup. ">
<polygon fill="white" stroke="black" points="157,-174.5 157,-195.5 249,-195.5 249,-174.5 157,-174.5"/>
<text text-anchor="middle" x="203" y="-182.5" font-family="Helvetica,sans-Serif" font-size="10.00">Omu_Variables.h</text>
</a>
</g>
<!-- Node5&#45;&gt;Node11 -->
<g id="edge22" class="edge"><title>Node5&#45;&gt;Node11</title>
<path fill="none" stroke="midnightblue" d="M145.022,-232.362C155.431,-223.859 170.219,-211.779 182.255,-201.947"/>
<polygon fill="midnightblue" stroke="midnightblue" points="184.53,-204.608 190.06,-195.571 180.101,-199.187 184.53,-204.608"/>
</g>
<!-- Node13 -->
<g id="node27" class="node"><title>Node13</title>
<a xlink:href="Omu__Dependents_8h.html" target="_top" xlink:title="Dependent variables (single and vector, including Jacobians). ">
<polygon fill="white" stroke="black" points="267,-174.5 267,-195.5 371,-195.5 371,-174.5 267,-174.5"/>
<text text-anchor="middle" x="319" y="-182.5" font-family="Helvetica,sans-Serif" font-size="10.00">Omu_Dependents.h</text>
</a>
</g>
<!-- Node5&#45;&gt;Node13 -->
<g id="edge28" class="edge"><title>Node5&#45;&gt;Node13</title>
<path fill="none" stroke="midnightblue" d="M165.864,-232.497C196.482,-223 241.743,-208.962 275.124,-198.609"/>
<polygon fill="midnightblue" stroke="midnightblue" points="276.558,-201.828 285.072,-195.523 274.484,-195.143 276.558,-201.828"/>
</g>
<!-- Node6&#45;&gt;Node4 -->
<g id="edge14" class="edge"><title>Node6&#45;&gt;Node4</title>
<path fill="none" stroke="midnightblue" d="M191.923,-58.423C163.757,-49.6425 122.475,-36.6864 78.5579,-22.4785"/>
<polygon fill="midnightblue" stroke="midnightblue" points="79.444,-19.0865 68.852,-19.3319 77.2852,-25.7453 79.444,-19.0865"/>
</g>
<!-- Node7 -->
<g id="node13" class="node"><title>Node7</title>
<polygon fill="white" stroke="#bfbfbf" points="206,-0.5 206,-21.5 246,-21.5 246,-0.5 206,-0.5"/>
<text text-anchor="middle" x="226" y="-8.5" font-family="Helvetica,sans-Serif" font-size="10.00">limits</text>
</g>
<!-- Node6&#45;&gt;Node7 -->
<g id="edge12" class="edge"><title>Node6&#45;&gt;Node7</title>
<path fill="none" stroke="midnightblue" d="M226,-58.3619C226,-50.9219 226,-40.7427 226,-31.7276"/>
<polygon fill="midnightblue" stroke="midnightblue" points="229.5,-31.5706 226,-21.5707 222.5,-31.5707 229.5,-31.5706"/>
</g>
<!-- Node8 -->
<g id="node16" class="node"><title>Node8</title>
<polygon fill="white" stroke="#bfbfbf" points="264,-0.5 264,-21.5 316,-21.5 316,-0.5 264,-0.5"/>
<text text-anchor="middle" x="290" y="-8.5" font-family="Helvetica,sans-Serif" font-size="10.00">assert.h</text>
</g>
<!-- Node6&#45;&gt;Node8 -->
<g id="edge16" class="edge"><title>Node6&#45;&gt;Node8</title>
<path fill="none" stroke="midnightblue" d="M237.739,-58.3619C246.941,-50.0226 259.94,-38.2418 270.672,-28.5162"/>
<polygon fill="midnightblue" stroke="midnightblue" points="273.276,-30.8793 278.336,-21.5707 268.576,-25.6924 273.276,-30.8793"/>
</g>
<!-- Node9 -->
<g id="node18" class="node"><title>Node9</title>
<polygon fill="white" stroke="#bfbfbf" points="334,-0.5 334,-21.5 434,-21.5 434,-0.5 334,-0.5"/>
<text text-anchor="middle" x="384" y="-8.5" font-family="Helvetica,sans-Serif" font-size="10.00">meschach/matrix.h</text>
</g>
<!-- Node6&#45;&gt;Node9 -->
<g id="edge18" class="edge"><title>Node6&#45;&gt;Node9</title>
<path fill="none" stroke="midnightblue" d="M254.613,-58.4966C280.148,-49.1229 317.737,-35.3242 345.829,-25.0122"/>
<polygon fill="midnightblue" stroke="midnightblue" points="347.152,-28.2548 355.334,-21.5231 344.74,-21.6835 347.152,-28.2548"/>
</g>
<!-- Node10 -->
<g id="node20" class="node"><title>Node10</title>
<polygon fill="white" stroke="#bfbfbf" points="86,-0.5 86,-21.5 188,-21.5 188,-0.5 86,-0.5"/>
<text text-anchor="middle" x="137" y="-8.5" font-family="Helvetica,sans-Serif" font-size="10.00">meschach/sparse.h</text>
</g>
<!-- Node6&#45;&gt;Node10 -->
<g id="edge20" class="edge"><title>Node6&#45;&gt;Node10</title>
<path fill="none" stroke="midnightblue" d="M209.676,-58.3619C196.252,-49.6138 177.017,-37.0786 161.707,-27.1015"/>
<polygon fill="midnightblue" stroke="midnightblue" points="163.509,-24.0982 153.22,-21.5707 159.688,-29.9628 163.509,-24.0982"/>
</g>
<!-- Node12 -->
<g id="node24" class="node"><title>Node12</title>
<a xlink:href="Omu__Vec_8h.html" target="_top" xlink:title="Vector with automatic construction and destruction. ">
<polygon fill="white" stroke="black" points="192,-116.5 192,-137.5 260,-137.5 260,-116.5 192,-116.5"/>
<text text-anchor="middle" x="226" y="-124.5" font-family="Helvetica,sans-Serif" font-size="10.00">Omu_Vec.h</text>
</a>
</g>
<!-- Node11&#45;&gt;Node12 -->
<g id="edge24" class="edge"><title>Node11&#45;&gt;Node12</title>
<path fill="none" stroke="midnightblue" d="M207.219,-174.362C210.234,-166.758 214.383,-156.294 218.015,-147.135"/>
<polygon fill="midnightblue" stroke="midnightblue" points="221.375,-148.157 221.808,-137.571 214.868,-145.576 221.375,-148.157"/>
</g>
<!-- Node12&#45;&gt;Node6 -->
<g id="edge26" class="edge"><title>Node12&#45;&gt;Node6</title>
<path fill="none" stroke="midnightblue" d="M226,-116.362C226,-108.922 226,-98.7427 226,-89.7276"/>
<polygon fill="midnightblue" stroke="midnightblue" points="229.5,-89.5706 226,-79.5707 222.5,-89.5707 229.5,-89.5706"/>
</g>
<!-- Node13&#45;&gt;Node6 -->
<g id="edge30" class="edge"><title>Node13&#45;&gt;Node6</title>
<path fill="none" stroke="midnightblue" d="M311.903,-174.438C302.519,-160.657 285.266,-135.95 269,-116 260.867,-106.025 251.242,-95.4064 243.163,-86.7907"/>
<polygon fill="midnightblue" stroke="midnightblue" points="245.686,-84.3645 236.264,-79.5174 240.607,-89.1816 245.686,-84.3645"/>
</g>
<!-- Node13&#45;&gt;Node12 -->
<g id="edge32" class="edge"><title>Node13&#45;&gt;Node12</title>
<path fill="none" stroke="midnightblue" d="M301.942,-174.362C287.915,-165.614 267.816,-153.079 251.818,-143.101"/>
<polygon fill="midnightblue" stroke="midnightblue" points="253.287,-139.893 242.949,-137.571 249.582,-145.832 253.287,-139.893"/>
</g>
<!-- Node14&#45;&gt;Node11 -->
<g id="edge36" class="edge"><title>Node14&#45;&gt;Node11</title>
<path fill="none" stroke="midnightblue" d="M224.231,-232.362C220.786,-224.677 216.031,-214.069 211.894,-204.84"/>
<polygon fill="midnightblue" stroke="midnightblue" points="215.023,-203.264 207.739,-195.571 208.635,-206.127 215.023,-203.264"/>
</g>
<!-- Node15&#45;&gt;Node13 -->
<g id="edge40" class="edge"><title>Node15&#45;&gt;Node13</title>
<path fill="none" stroke="midnightblue" d="M319,-232.362C319,-224.922 319,-214.743 319,-205.728"/>
<polygon fill="midnightblue" stroke="midnightblue" points="322.5,-205.571 319,-195.571 315.5,-205.571 322.5,-205.571"/>
</g>
</g>
</svg>
