<?xml version="1.0" encoding="UTF-8" standalone="no"?>
<!DOCTYPE svg PUBLIC "-//W3C//DTD SVG 1.1//EN"
 "http://www.w3.org/Graphics/SVG/1.1/DTD/svg11.dtd">
<!-- Generated by graphviz version 2.26.3 (20100126.1600)
 -->
<!-- Title: Omu_Variables.h Pages: 1 -->
<svg width="332pt" height="204pt"
 viewBox="0.00 0.00 332.00 204.00" xmlns="http://www.w3.org/2000/svg" xmlns:xlink="http://www.w3.org/1999/xlink">
<g id="graph1" class="graph" transform="scale(1 1) rotate(0) translate(4 200)">
<title>Omu_Variables.h</title>
<polygon fill="white" stroke="white" points="-4,5 -4,-200 329,-200 329,5 -4,5"/>
<!-- Node1 -->
<g id="node1" class="node"><title>Node1</title>
<polygon fill="#bfbfbf" stroke="black" points="118,-174.5 118,-195.5 210,-195.5 210,-174.5 118,-174.5"/>
<text text-anchor="middle" x="164" y="-182.5" font-family="Helvetica,sans-Serif" font-size="10.00">Omu_Variables.h</text>
</g>
<!-- Node2 -->
<g id="node3" class="node"><title>Node2</title>
<a xlink:href="Omu__Program_8h.html" target="_top" xlink:title="Interface for a multistage optimization problem described by algebraic and differential equations...">
<polygon fill="white" stroke="black" points="156,-116.5 156,-137.5 244,-137.5 244,-116.5 156,-116.5"/>
<text text-anchor="middle" x="200" y="-124.5" font-family="Helvetica,sans-Serif" font-size="10.00">Omu_Program.h</text>
</a>
</g>
<!-- Node1&#45;&gt;Node2 -->
<g id="edge2" class="edge"><title>Node1&#45;&gt;Node2</title>
<path fill="none" stroke="midnightblue" d="M176,-165.667C181.817,-156.295 188.578,-145.402 193.439,-137.571"/>
<polygon fill="midnightblue" stroke="midnightblue" points="172.903,-164.02 170.603,-174.362 178.85,-167.711 172.903,-164.02"/>
</g>
<!-- Node6 -->
<g id="node11" class="node"><title>Node6</title>
<a xlink:href="Prg__SFunctionEst_8h.html" target="_top" xlink:title="Estimation of initial states and parameters for a model given as MEX S&#45;function. ">
<polygon fill="white" stroke="black" points="98,-0.5 98,-21.5 202,-21.5 202,-0.5 98,-0.5"/>
<text text-anchor="middle" x="150" y="-8.5" font-family="Helvetica,sans-Serif" font-size="10.00">Prg_SFunctionEst.h</text>
</a>
</g>
<!-- Node1&#45;&gt;Node6 -->
<g id="edge18" class="edge"><title>Node1&#45;&gt;Node6</title>
<path fill="none" stroke="midnightblue" d="M155.045,-165.034C151.828,-156.834 148.601,-147.134 147,-138 139.536,-95.4219 145.26,-43.5964 148.353,-21.6421"/>
<polygon fill="midnightblue" stroke="midnightblue" points="151.902,-166.59 158.99,-174.464 158.359,-163.888 151.902,-166.59"/>
</g>
<!-- Node7 -->
<g id="node13" class="node"><title>Node7</title>
<a xlink:href="Prg__SFunctionOpt_8h.html" target="_top" xlink:title="Optimal control problem for a model given as MEX S&#45;function. ">
<polygon fill="white" stroke="black" points="219.5,-0.5 219.5,-21.5 324.5,-21.5 324.5,-0.5 219.5,-0.5"/>
<text text-anchor="middle" x="272" y="-8.5" font-family="Helvetica,sans-Serif" font-size="10.00">Prg_SFunctionOpt.h</text>
</a>
</g>
<!-- Node1&#45;&gt;Node7 -->
<g id="edge20" class="edge"><title>Node1&#45;&gt;Node7</title>
<path fill="none" stroke="midnightblue" d="M209.913,-170.575C225.941,-163.292 242.524,-152.776 253,-138 278.659,-101.808 275.907,-45.1417 273.41,-21.7019"/>
<polygon fill="midnightblue" stroke="midnightblue" points="208.45,-167.393 200.59,-174.497 211.165,-173.845 208.45,-167.393"/>
</g>
<!-- Node8 -->
<g id="node15" class="node"><title>Node8</title>
<a xlink:href="Omu__Vars_8h.html" target="_top" xlink:title="extensions for managing independent variables ">
<polygon fill="white" stroke="black" points="24.5,-116.5 24.5,-137.5 95.5,-137.5 95.5,-116.5 24.5,-116.5"/>
<text text-anchor="middle" x="60" y="-124.5" font-family="Helvetica,sans-Serif" font-size="10.00">Omu_Vars.h</text>
</a>
</g>
<!-- Node1&#45;&gt;Node8 -->
<g id="edge14" class="edge"><title>Node1&#45;&gt;Node8</title>
<path fill="none" stroke="midnightblue" d="M135.99,-169.379C117.919,-159.301 94.8981,-146.462 78.9543,-137.571"/>
<polygon fill="midnightblue" stroke="midnightblue" points="134.486,-172.548 144.925,-174.362 137.896,-166.434 134.486,-172.548"/>
</g>
<!-- Node3 -->
<g id="node5" class="node"><title>Node3</title>
<a xlink:href="Omu__Integrator_8h.html" target="_top" xlink:title="interface for integrating continuous&#45;time system equations ">
<polygon fill="white" stroke="black" points="8,-58.5 8,-79.5 100,-79.5 100,-58.5 8,-58.5"/>
<text text-anchor="middle" x="54" y="-66.5" font-family="Helvetica,sans-Serif" font-size="10.00">Omu_Integrator.h</text>
</a>
</g>
<!-- Node2&#45;&gt;Node3 -->
<g id="edge4" class="edge"><title>Node2&#45;&gt;Node3</title>
<path fill="none" stroke="midnightblue" d="M164.132,-112.751C138.349,-102.509 104.145,-88.9206 80.7362,-79.6212"/>
<polygon fill="midnightblue" stroke="midnightblue" points="162.975,-116.057 173.561,-116.497 165.559,-109.552 162.975,-116.057"/>
</g>
<!-- Node5 -->
<g id="node9" class="node"><title>Node5</title>
<a xlink:href="Prg__SFunction_8h.html" target="_top" xlink:title="Basic functionality for formulating an optimization problem for a model given as MEX S&#45;function...">
<polygon fill="white" stroke="black" points="155.5,-58.5 155.5,-79.5 244.5,-79.5 244.5,-58.5 155.5,-58.5"/>
<text text-anchor="middle" x="200" y="-66.5" font-family="Helvetica,sans-Serif" font-size="10.00">Prg_SFunction.h</text>
</a>
</g>
<!-- Node2&#45;&gt;Node5 -->
<g id="edge8" class="edge"><title>Node2&#45;&gt;Node5</title>
<path fill="none" stroke="midnightblue" d="M200,-106.191C200,-97.1684 200,-86.9941 200,-79.5707"/>
<polygon fill="midnightblue" stroke="midnightblue" points="196.5,-106.362 200,-116.362 203.5,-106.362 196.5,-106.362"/>
</g>
<!-- Node4 -->
<g id="node7" class="node"><title>Node4</title>
<a xlink:href="Omu__IntIMP_8h.html" target="_top" xlink:title="integrate an ODE over a stage using the implicit midpoint rule ">
<polygon fill="white" stroke="black" points="0,-0.5 0,-21.5 80,-21.5 80,-0.5 0,-0.5"/>
<text text-anchor="middle" x="40" y="-8.5" font-family="Helvetica,sans-Serif" font-size="10.00">Omu_IntIMP.h</text>
</a>
</g>
<!-- Node3&#45;&gt;Node4 -->
<g id="edge6" class="edge"><title>Node3&#45;&gt;Node4</title>
<path fill="none" stroke="midnightblue" d="M49.0487,-48.4876C46.8533,-39.3924 44.3631,-29.0756 42.5515,-21.5707"/>
<polygon fill="midnightblue" stroke="midnightblue" points="45.6834,-49.4623 51.4322,-58.3619 52.488,-47.8198 45.6834,-49.4623"/>
</g>
<!-- Node5&#45;&gt;Node6 -->
<g id="edge10" class="edge"><title>Node5&#45;&gt;Node6</title>
<path fill="none" stroke="midnightblue" d="M184.087,-50.5407C175.844,-40.9786 166.075,-29.6467 159.113,-21.5707"/>
<polygon fill="midnightblue" stroke="midnightblue" points="181.649,-53.0731 190.829,-58.3619 186.951,-48.5025 181.649,-53.0731"/>
</g>
<!-- Node5&#45;&gt;Node7 -->
<g id="edge12" class="edge"><title>Node5&#45;&gt;Node7</title>
<path fill="none" stroke="midnightblue" d="M221.134,-51.9753C233.354,-42.1315 248.346,-30.0545 258.878,-21.5707"/>
<polygon fill="midnightblue" stroke="midnightblue" points="218.798,-49.3629 213.206,-58.3619 223.189,-54.8142 218.798,-49.3629"/>
</g>
<!-- Node8&#45;&gt;Node3 -->
<g id="edge16" class="edge"><title>Node8&#45;&gt;Node3</title>
<path fill="none" stroke="midnightblue" d="M57.8473,-106.191C56.914,-97.1684 55.8615,-86.9941 55.0935,-79.5707"/>
<polygon fill="midnightblue" stroke="midnightblue" points="54.389,-106.775 58.8995,-116.362 61.3518,-106.055 54.389,-106.775"/>
</g>
</g>
</svg>
