<?xml version="1.0" encoding="UTF-8" standalone="no"?>
<!DOCTYPE svg PUBLIC "-//W3C//DTD SVG 1.1//EN"
 "http://www.w3.org/Graphics/SVG/1.1/DTD/svg11.dtd">
<!-- Generated by graphviz version 2.26.3 (20100126.1600)
 -->
<!-- Title: Omu_Vec.h Pages: 1 -->
<svg width="403pt" height="262pt"
 viewBox="0.00 0.00 403.00 262.00" xmlns="http://www.w3.org/2000/svg" xmlns:xlink="http://www.w3.org/1999/xlink">
<g id="graph1" class="graph" transform="scale(1 1) rotate(0) translate(4 258)">
<title>Omu_Vec.h</title>
<polygon fill="white" stroke="white" points="-4,5 -4,-258 400,-258 400,5 -4,5"/>
<!-- Node1 -->
<g id="node1" class="node"><title>Node1</title>
<polygon fill="#bfbfbf" stroke="black" points="150,-232.5 150,-253.5 218,-253.5 218,-232.5 150,-232.5"/>
<text text-anchor="middle" x="184" y="-240.5" font-family="Helvetica,sans-Serif" font-size="10.00">Omu_Vec.h</text>
</g>
<!-- Node2 -->
<g id="node3" class="node"><title>Node2</title>
<a xlink:href="Omu__Dependents_8h.html" target="_top" xlink:title="Dependent variables (single and vector, including Jacobians). ">
<polygon fill="white" stroke="black" points="74,-174.5 74,-195.5 178,-195.5 178,-174.5 74,-174.5"/>
<text text-anchor="middle" x="126" y="-182.5" font-family="Helvetica,sans-Serif" font-size="10.00">Omu_Dependents.h</text>
</a>
</g>
<!-- Node1&#45;&gt;Node2 -->
<g id="edge2" class="edge"><title>Node1&#45;&gt;Node2</title>
<path fill="none" stroke="midnightblue" d="M166.118,-225.118C156.438,-215.438 144.81,-203.81 136.571,-195.571"/>
<polygon fill="midnightblue" stroke="midnightblue" points="163.816,-227.766 173.362,-232.362 168.766,-222.816 163.816,-227.766"/>
</g>
<!-- Node10 -->
<g id="node20" class="node"><title>Node10</title>
<a xlink:href="Omu__Variables_8h.html" target="_top" xlink:title="Independent variables for Omuses problem setup. ">
<polygon fill="white" stroke="black" points="196,-174.5 196,-195.5 288,-195.5 288,-174.5 196,-174.5"/>
<text text-anchor="middle" x="242" y="-182.5" font-family="Helvetica,sans-Serif" font-size="10.00">Omu_Variables.h</text>
</a>
</g>
<!-- Node1&#45;&gt;Node10 -->
<g id="edge20" class="edge"><title>Node1&#45;&gt;Node10</title>
<path fill="none" stroke="midnightblue" d="M201.882,-225.118C211.562,-215.438 223.19,-203.81 231.429,-195.571"/>
<polygon fill="midnightblue" stroke="midnightblue" points="199.234,-222.816 194.638,-232.362 204.184,-227.766 199.234,-222.816"/>
</g>
<!-- Node3 -->
<g id="node5" class="node"><title>Node3</title>
<a xlink:href="Omu__Deps_8h.html" target="_top" xlink:title="Extensions for managing dependent variables internally. ">
<polygon fill="white" stroke="black" points="0,-116.5 0,-137.5 74,-137.5 74,-116.5 0,-116.5"/>
<text text-anchor="middle" x="37" y="-124.5" font-family="Helvetica,sans-Serif" font-size="10.00">Omu_Deps.h</text>
</a>
</g>
<!-- Node2&#45;&gt;Node3 -->
<g id="edge4" class="edge"><title>Node2&#45;&gt;Node3</title>
<path fill="none" stroke="midnightblue" d="M101.174,-168.821C85.8445,-158.831 66.6144,-146.299 53.2205,-137.571"/>
<polygon fill="midnightblue" stroke="midnightblue" points="99.3871,-171.834 109.676,-174.362 103.209,-165.97 99.3871,-171.834"/>
</g>
<!-- Node6 -->
<g id="node11" class="node"><title>Node6</title>
<a xlink:href="Omu__Program_8h.html" target="_top" xlink:title="Interface for a multistage optimization problem described by algebraic and differential equations...">
<polygon fill="white" stroke="black" points="92,-116.5 92,-137.5 180,-137.5 180,-116.5 92,-116.5"/>
<text text-anchor="middle" x="136" y="-124.5" font-family="Helvetica,sans-Serif" font-size="10.00">Omu_Program.h</text>
</a>
</g>
<!-- Node2&#45;&gt;Node6 -->
<g id="edge10" class="edge"><title>Node2&#45;&gt;Node6</title>
<path fill="none" stroke="midnightblue" d="M129.537,-164.488C131.105,-155.392 132.884,-145.076 134.177,-137.571"/>
<polygon fill="midnightblue" stroke="midnightblue" points="126.084,-163.913 127.834,-174.362 132.982,-165.102 126.084,-163.913"/>
</g>
<!-- Node4 -->
<g id="node7" class="node"><title>Node4</title>
<a xlink:href="Omu__Integrator_8h.html" target="_top" xlink:title="interface for integrating continuous&#45;time system equations ">
<polygon fill="white" stroke="black" points="66,-58.5 66,-79.5 158,-79.5 158,-58.5 66,-58.5"/>
<text text-anchor="middle" x="112" y="-66.5" font-family="Helvetica,sans-Serif" font-size="10.00">Omu_Integrator.h</text>
</a>
</g>
<!-- Node3&#45;&gt;Node4 -->
<g id="edge6" class="edge"><title>Node3&#45;&gt;Node4</title>
<path fill="none" stroke="midnightblue" d="M59.0147,-109.975C71.7437,-100.132 87.3605,-88.0545 98.3311,-79.5707"/>
<polygon fill="midnightblue" stroke="midnightblue" points="56.5256,-107.476 50.7562,-116.362 60.8078,-113.013 56.5256,-107.476"/>
</g>
<!-- Node5 -->
<g id="node9" class="node"><title>Node5</title>
<a xlink:href="Omu__IntIMP_8h.html" target="_top" xlink:title="integrate an ODE over a stage using the implicit midpoint rule ">
<polygon fill="white" stroke="black" points="71,-0.5 71,-21.5 151,-21.5 151,-0.5 71,-0.5"/>
<text text-anchor="middle" x="111" y="-8.5" font-family="Helvetica,sans-Serif" font-size="10.00">Omu_IntIMP.h</text>
</a>
</g>
<!-- Node4&#45;&gt;Node5 -->
<g id="edge8" class="edge"><title>Node4&#45;&gt;Node5</title>
<path fill="none" stroke="midnightblue" d="M111.641,-48.1906C111.486,-39.1684 111.31,-28.9941 111.182,-21.5707"/>
<polygon fill="midnightblue" stroke="midnightblue" points="108.145,-48.4238 111.817,-58.3619 115.144,-48.303 108.145,-48.4238"/>
</g>
<!-- Node6&#45;&gt;Node4 -->
<g id="edge12" class="edge"><title>Node6&#45;&gt;Node4</title>
<path fill="none" stroke="midnightblue" d="M127.757,-107.079C123.935,-97.8422 119.547,-87.2388 116.374,-79.5707"/>
<polygon fill="midnightblue" stroke="midnightblue" points="124.54,-108.46 131.598,-116.362 131.009,-105.783 124.54,-108.46"/>
</g>
<!-- Node7 -->
<g id="node14" class="node"><title>Node7</title>
<a xlink:href="Prg__SFunction_8h.html" target="_top" xlink:title="Basic functionality for formulating an optimization problem for a model given as MEX S&#45;function...">
<polygon fill="white" stroke="black" points="176.5,-58.5 176.5,-79.5 265.5,-79.5 265.5,-58.5 176.5,-58.5"/>
<text text-anchor="middle" x="221" y="-66.5" font-family="Helvetica,sans-Serif" font-size="10.00">Prg_SFunction.h</text>
</a>
</g>
<!-- Node6&#45;&gt;Node7 -->
<g id="edge14" class="edge"><title>Node6&#45;&gt;Node7</title>
<path fill="none" stroke="midnightblue" d="M160.121,-110.541C174.694,-100.597 192.836,-88.2177 205.509,-79.5707"/>
<polygon fill="midnightblue" stroke="midnightblue" points="157.878,-107.834 151.59,-116.362 161.823,-113.617 157.878,-107.834"/>
</g>
<!-- Node8 -->
<g id="node16" class="node"><title>Node8</title>
<a xlink:href="Prg__SFunctionEst_8h.html" target="_top" xlink:title="Estimation of initial states and parameters for a model given as MEX S&#45;function. ">
<polygon fill="white" stroke="black" points="291,-0.5 291,-21.5 395,-21.5 395,-0.5 291,-0.5"/>
<text text-anchor="middle" x="343" y="-8.5" font-family="Helvetica,sans-Serif" font-size="10.00">Prg_SFunctionEst.h</text>
</a>
</g>
<!-- Node7&#45;&gt;Node8 -->
<g id="edge16" class="edge"><title>Node7&#45;&gt;Node8</title>
<path fill="none" stroke="midnightblue" d="M252.406,-54.0693C273.771,-43.9121 301.529,-30.7157 320.659,-21.6212"/>
<polygon fill="midnightblue" stroke="midnightblue" points="250.622,-51.042 243.093,-58.4966 253.627,-57.364 250.622,-51.042"/>
</g>
<!-- Node9 -->
<g id="node18" class="node"><title>Node9</title>
<a xlink:href="Prg__SFunctionOpt_8h.html" target="_top" xlink:title="Optimal control problem for a model given as MEX S&#45;function. ">
<polygon fill="white" stroke="black" points="168.5,-0.5 168.5,-21.5 273.5,-21.5 273.5,-0.5 168.5,-0.5"/>
<text text-anchor="middle" x="221" y="-8.5" font-family="Helvetica,sans-Serif" font-size="10.00">Prg_SFunctionOpt.h</text>
</a>
</g>
<!-- Node7&#45;&gt;Node9 -->
<g id="edge18" class="edge"><title>Node7&#45;&gt;Node9</title>
<path fill="none" stroke="midnightblue" d="M221,-48.1906C221,-39.1684 221,-28.9941 221,-21.5707"/>
<polygon fill="midnightblue" stroke="midnightblue" points="217.5,-48.3619 221,-58.3619 224.5,-48.3619 217.5,-48.3619"/>
</g>
<!-- Node10&#45;&gt;Node6 -->
<g id="edge22" class="edge"><title>Node10&#45;&gt;Node6</title>
<path fill="none" stroke="midnightblue" d="M213.704,-169.517C195.248,-159.419 171.644,-146.503 155.319,-137.571"/>
<polygon fill="midnightblue" stroke="midnightblue" points="212.105,-172.632 222.558,-174.362 215.465,-166.491 212.105,-172.632"/>
</g>
<!-- Node10&#45;&gt;Node8 -->
<g id="edge28" class="edge"><title>Node10&#45;&gt;Node8</title>
<path fill="none" stroke="midnightblue" d="M264.288,-167.778C273.792,-159.564 284.414,-149.11 292,-138 318.528,-99.1481 334.529,-44.4231 340.418,-21.6202"/>
<polygon fill="midnightblue" stroke="midnightblue" points="261.791,-165.302 256.329,-174.381 266.26,-170.69 261.791,-165.302"/>
</g>
<!-- Node10&#45;&gt;Node9 -->
<g id="edge30" class="edge"><title>Node10&#45;&gt;Node9</title>
<path fill="none" stroke="midnightblue" d="M260.036,-166.575C266.729,-158.491 273.532,-148.464 277,-138 282.044,-122.782 282.81,-76.3074 274,-58 266.534,-42.4853 251.383,-29.8834 239.186,-21.6485"/>
<polygon fill="midnightblue" stroke="midnightblue" points="257.26,-164.43 253.245,-174.234 262.498,-169.074 257.26,-164.43"/>
</g>
<!-- Node11 -->
<g id="node23" class="node"><title>Node11</title>
<a xlink:href="Omu__Vars_8h.html" target="_top" xlink:title="extensions for managing independent variables ">
<polygon fill="white" stroke="black" points="197.5,-116.5 197.5,-137.5 268.5,-137.5 268.5,-116.5 197.5,-116.5"/>
<text text-anchor="middle" x="233" y="-124.5" font-family="Helvetica,sans-Serif" font-size="10.00">Omu_Vars.h</text>
</a>
</g>
<!-- Node10&#45;&gt;Node11 -->
<g id="edge24" class="edge"><title>Node10&#45;&gt;Node11</title>
<path fill="none" stroke="midnightblue" d="M238.771,-164.191C237.371,-155.168 235.792,-144.994 234.64,-137.571"/>
<polygon fill="midnightblue" stroke="midnightblue" points="235.357,-165.017 240.349,-174.362 242.274,-163.943 235.357,-165.017"/>
</g>
<!-- Node11&#45;&gt;Node4 -->
<g id="edge26" class="edge"><title>Node11&#45;&gt;Node4</title>
<path fill="none" stroke="midnightblue" d="M201.851,-112.069C180.661,-101.912 153.131,-88.7157 134.158,-79.6212"/>
<polygon fill="midnightblue" stroke="midnightblue" points="200.557,-115.33 211.088,-116.497 203.583,-109.018 200.557,-115.33"/>
</g>
</g>
</svg>
