<?xml version="1.0" encoding="UTF-8" standalone="no"?>
<!DOCTYPE svg PUBLIC "-//W3C//DTD SVG 1.1//EN"
 "http://www.w3.org/Graphics/SVG/1.1/DTD/svg11.dtd">
<!-- Generated by graphviz version 2.26.3 (20100126.1600)
 -->
<!-- Title: Omu_Program.h Pages: 1 -->
<svg width="422pt" height="262pt"
 viewBox="0.00 0.00 422.00 262.00" xmlns="http://www.w3.org/2000/svg" xmlns:xlink="http://www.w3.org/1999/xlink">
<g id="graph1" class="graph" transform="scale(1 1) rotate(0) translate(4 258)">
<title>Omu_Program.h</title>
<polygon fill="white" stroke="white" points="-4,5 -4,-258 419,-258 419,5 -4,5"/>
<!-- Node1 -->
<g id="node1" class="node"><title>Node1</title>
<polygon fill="#bfbfbf" stroke="black" points="93,-232.5 93,-253.5 181,-253.5 181,-232.5 93,-232.5"/>
<text text-anchor="middle" x="137" y="-240.5" font-family="Helvetica,sans-Serif" font-size="10.00">Omu_Program.h</text>
</g>
<!-- Node2 -->
<g id="node3" class="node"><title>Node2</title>
<a xlink:href="Meschach_8h.html" target="_top" xlink:title="Meschach declarations and some extensions. ">
<polygon fill="white" stroke="black" points="115,-58.5 115,-79.5 185,-79.5 185,-58.5 115,-58.5"/>
<text text-anchor="middle" x="150" y="-66.5" font-family="Helvetica,sans-Serif" font-size="10.00">Meschach.h</text>
</a>
</g>
<!-- Node1&#45;&gt;Node2 -->
<g id="edge2" class="edge"><title>Node1&#45;&gt;Node2</title>
<path fill="none" stroke="midnightblue" d="M117.615,-232.458C104.894,-224.35 89.3071,-211.856 82,-196 77.9076,-187.12 80.0241,-183.576 82,-174 87.6726,-146.509 91.7584,-139.572 107,-116 113.735,-105.584 122.822,-95.2734 130.908,-86.9752"/>
<polygon fill="midnightblue" stroke="midnightblue" points="133.609,-89.2255 138.243,-79.6981 128.679,-84.256 133.609,-89.2255"/>
</g>
<!-- Node8 -->
<g id="node15" class="node"><title>Node8</title>
<a xlink:href="Omu__Variables_8h.html" target="_top" xlink:title="Independent variables for Omuses problem setup. ">
<polygon fill="white" stroke="black" points="91,-174.5 91,-195.5 183,-195.5 183,-174.5 91,-174.5"/>
<text text-anchor="middle" x="137" y="-182.5" font-family="Helvetica,sans-Serif" font-size="10.00">Omu_Variables.h</text>
</a>
</g>
<!-- Node1&#45;&gt;Node8 -->
<g id="edge14" class="edge"><title>Node1&#45;&gt;Node8</title>
<path fill="none" stroke="midnightblue" d="M137,-232.362C137,-224.922 137,-214.743 137,-205.728"/>
<polygon fill="midnightblue" stroke="midnightblue" points="140.5,-205.571 137,-195.571 133.5,-205.571 140.5,-205.571"/>
</g>
<!-- Node10 -->
<g id="node20" class="node"><title>Node10</title>
<a xlink:href="Omu__Dependents_8h.html" target="_top" xlink:title="Dependent variables (single and vector, including Jacobians). ">
<polygon fill="white" stroke="black" points="201,-174.5 201,-195.5 305,-195.5 305,-174.5 201,-174.5"/>
<text text-anchor="middle" x="253" y="-182.5" font-family="Helvetica,sans-Serif" font-size="10.00">Omu_Dependents.h</text>
</a>
</g>
<!-- Node1&#45;&gt;Node10 -->
<g id="edge20" class="edge"><title>Node1&#45;&gt;Node10</title>
<path fill="none" stroke="midnightblue" d="M158.007,-232.497C176.043,-223.479 202.27,-210.365 222.599,-200.201"/>
<polygon fill="midnightblue" stroke="midnightblue" points="224.379,-203.224 231.758,-195.621 221.248,-196.963 224.379,-203.224"/>
</g>
<!-- Node3 -->
<g id="node5" class="node"><title>Node3</title>
<polygon fill="white" stroke="#bfbfbf" points="0,-0.5 0,-21.5 40,-21.5 40,-0.5 0,-0.5"/>
<text text-anchor="middle" x="20" y="-8.5" font-family="Helvetica,sans-Serif" font-size="10.00">limits</text>
</g>
<!-- Node2&#45;&gt;Node3 -->
<g id="edge4" class="edge"><title>Node2&#45;&gt;Node3</title>
<path fill="none" stroke="midnightblue" d="M126.458,-58.4966C104.946,-48.8991 73.0374,-34.6628 49.7648,-24.2797"/>
<polygon fill="midnightblue" stroke="midnightblue" points="50.9334,-20.9686 40.375,-20.0904 48.0813,-27.3612 50.9334,-20.9686"/>
</g>
<!-- Node4 -->
<g id="node7" class="node"><title>Node4</title>
<polygon fill="white" stroke="#bfbfbf" points="57.5,-0.5 57.5,-21.5 106.5,-21.5 106.5,-0.5 57.5,-0.5"/>
<text text-anchor="middle" x="82" y="-8.5" font-family="Helvetica,sans-Serif" font-size="10.00">string.h</text>
</g>
<!-- Node2&#45;&gt;Node4 -->
<g id="edge6" class="edge"><title>Node2&#45;&gt;Node4</title>
<path fill="none" stroke="midnightblue" d="M137.528,-58.3619C127.655,-49.9408 113.667,-38.0105 102.202,-28.2308"/>
<polygon fill="midnightblue" stroke="midnightblue" points="104.273,-25.3972 94.3932,-21.5707 99.7302,-30.7231 104.273,-25.3972"/>
</g>
<!-- Node5 -->
<g id="node9" class="node"><title>Node5</title>
<polygon fill="white" stroke="#bfbfbf" points="124,-0.5 124,-21.5 176,-21.5 176,-0.5 124,-0.5"/>
<text text-anchor="middle" x="150" y="-8.5" font-family="Helvetica,sans-Serif" font-size="10.00">assert.h</text>
</g>
<!-- Node2&#45;&gt;Node5 -->
<g id="edge8" class="edge"><title>Node2&#45;&gt;Node5</title>
<path fill="none" stroke="midnightblue" d="M150,-58.3619C150,-50.9219 150,-40.7427 150,-31.7276"/>
<polygon fill="midnightblue" stroke="midnightblue" points="153.5,-31.5706 150,-21.5707 146.5,-31.5707 153.5,-31.5706"/>
</g>
<!-- Node6 -->
<g id="node11" class="node"><title>Node6</title>
<polygon fill="white" stroke="#bfbfbf" points="194,-0.5 194,-21.5 294,-21.5 294,-0.5 194,-0.5"/>
<text text-anchor="middle" x="244" y="-8.5" font-family="Helvetica,sans-Serif" font-size="10.00">meschach/matrix.h</text>
</g>
<!-- Node2&#45;&gt;Node6 -->
<g id="edge10" class="edge"><title>Node2&#45;&gt;Node6</title>
<path fill="none" stroke="midnightblue" d="M167.241,-58.3619C181.552,-49.532 202.115,-36.844 218.357,-26.8224"/>
<polygon fill="midnightblue" stroke="midnightblue" points="220.196,-29.8004 226.868,-21.5707 216.52,-23.8431 220.196,-29.8004"/>
</g>
<!-- Node7 -->
<g id="node13" class="node"><title>Node7</title>
<polygon fill="white" stroke="#bfbfbf" points="312,-0.5 312,-21.5 414,-21.5 414,-0.5 312,-0.5"/>
<text text-anchor="middle" x="363" y="-8.5" font-family="Helvetica,sans-Serif" font-size="10.00">meschach/sparse.h</text>
</g>
<!-- Node2&#45;&gt;Node7 -->
<g id="edge12" class="edge"><title>Node2&#45;&gt;Node7</title>
<path fill="none" stroke="midnightblue" d="M185.173,-59.4225C220.466,-49.8122 275.1,-34.9353 314.498,-24.2072"/>
<polygon fill="midnightblue" stroke="midnightblue" points="315.436,-27.5793 324.165,-21.5749 313.596,-20.8252 315.436,-27.5793"/>
</g>
<!-- Node9 -->
<g id="node17" class="node"><title>Node9</title>
<a xlink:href="Omu__Vec_8h.html" target="_top" xlink:title="Vector with automatic construction and destruction. ">
<polygon fill="white" stroke="black" points="116,-116.5 116,-137.5 184,-137.5 184,-116.5 116,-116.5"/>
<text text-anchor="middle" x="150" y="-124.5" font-family="Helvetica,sans-Serif" font-size="10.00">Omu_Vec.h</text>
</a>
</g>
<!-- Node8&#45;&gt;Node9 -->
<g id="edge16" class="edge"><title>Node8&#45;&gt;Node9</title>
<path fill="none" stroke="midnightblue" d="M139.384,-174.362C141.07,-166.84 143.384,-156.519 145.421,-147.431"/>
<polygon fill="midnightblue" stroke="midnightblue" points="148.859,-148.094 147.631,-137.571 142.028,-146.563 148.859,-148.094"/>
</g>
<!-- Node9&#45;&gt;Node2 -->
<g id="edge18" class="edge"><title>Node9&#45;&gt;Node2</title>
<path fill="none" stroke="midnightblue" d="M150,-116.362C150,-108.922 150,-98.7427 150,-89.7276"/>
<polygon fill="midnightblue" stroke="midnightblue" points="153.5,-89.5706 150,-79.5707 146.5,-89.5707 153.5,-89.5706"/>
</g>
<!-- Node10&#45;&gt;Node2 -->
<g id="edge22" class="edge"><title>Node10&#45;&gt;Node2</title>
<path fill="none" stroke="midnightblue" d="M243.73,-174.17C232.012,-160.52 211.175,-136.376 193,-116 184.433,-106.395 174.769,-95.8103 166.775,-87.1212"/>
<polygon fill="midnightblue" stroke="midnightblue" points="169.336,-84.7351 159.984,-79.7568 164.19,-89.4808 169.336,-84.7351"/>
</g>
<!-- Node10&#45;&gt;Node9 -->
<g id="edge24" class="edge"><title>Node10&#45;&gt;Node9</title>
<path fill="none" stroke="midnightblue" d="M234.108,-174.362C218.282,-165.45 195.477,-152.609 177.605,-142.545"/>
<polygon fill="midnightblue" stroke="midnightblue" points="179.203,-139.428 168.772,-137.571 175.768,-145.527 179.203,-139.428"/>
</g>
</g>
</svg>
