<?xml version="1.0" encoding="UTF-8" standalone="no"?>
<!DOCTYPE svg PUBLIC "-//W3C//DTD SVG 1.1//EN"
 "http://www.w3.org/Graphics/SVG/1.1/DTD/svg11.dtd">
<!-- Generated by graphviz version 2.26.3 (20100126.1600)
 -->
<!-- Title: Omu_Dependents.h Pages: 1 -->
<svg width="422pt" height="204pt"
 viewBox="0.00 0.00 422.00 204.00" xmlns="http://www.w3.org/2000/svg" xmlns:xlink="http://www.w3.org/1999/xlink">
<g id="graph1" class="graph" transform="scale(1 1) rotate(0) translate(4 200)">
<title>Omu_Dependents.h</title>
<polygon fill="white" stroke="white" points="-4,5 -4,-200 419,-200 419,5 -4,5"/>
<!-- Node1 -->
<g id="node1" class="node"><title>Node1</title>
<polygon fill="#bfbfbf" stroke="black" points="98,-174.5 98,-195.5 202,-195.5 202,-174.5 98,-174.5"/>
<text text-anchor="middle" x="150" y="-182.5" font-family="Helvetica,sans-Serif" font-size="10.00">Omu_Dependents.h</text>
</g>
<!-- Node2 -->
<g id="node3" class="node"><title>Node2</title>
<a xlink:href="Meschach_8h.html" target="_top" xlink:title="Meschach declarations and some extensions. ">
<polygon fill="white" stroke="black" points="115,-58.5 115,-79.5 185,-79.5 185,-58.5 115,-58.5"/>
<text text-anchor="middle" x="150" y="-66.5" font-family="Helvetica,sans-Serif" font-size="10.00">Meschach.h</text>
</a>
</g>
<!-- Node1&#45;&gt;Node2 -->
<g id="edge2" class="edge"><title>Node1&#45;&gt;Node2</title>
<path fill="none" stroke="midnightblue" d="M146.458,-174.32C143.527,-164.889 139.596,-150.701 138,-138 136.781,-128.298 136.781,-125.702 138,-116 139.11,-107.169 141.348,-97.619 143.595,-89.4488"/>
<polygon fill="midnightblue" stroke="midnightblue" points="147.004,-90.2604 146.458,-79.6797 140.286,-88.2916 147.004,-90.2604"/>
</g>
<!-- Node8 -->
<g id="node15" class="node"><title>Node8</title>
<a xlink:href="Omu__Vec_8h.html" target="_top" xlink:title="Vector with automatic construction and destruction. ">
<polygon fill="white" stroke="black" points="147,-116.5 147,-137.5 215,-137.5 215,-116.5 147,-116.5"/>
<text text-anchor="middle" x="181" y="-124.5" font-family="Helvetica,sans-Serif" font-size="10.00">Omu_Vec.h</text>
</a>
</g>
<!-- Node1&#45;&gt;Node8 -->
<g id="edge14" class="edge"><title>Node1&#45;&gt;Node8</title>
<path fill="none" stroke="midnightblue" d="M155.686,-174.362C159.837,-166.595 165.584,-155.843 170.553,-146.546"/>
<polygon fill="midnightblue" stroke="midnightblue" points="173.723,-148.04 175.35,-137.571 167.55,-144.74 173.723,-148.04"/>
</g>
<!-- Node3 -->
<g id="node5" class="node"><title>Node3</title>
<polygon fill="white" stroke="#bfbfbf" points="0,-0.5 0,-21.5 40,-21.5 40,-0.5 0,-0.5"/>
<text text-anchor="middle" x="20" y="-8.5" font-family="Helvetica,sans-Serif" font-size="10.00">limits</text>
</g>
<!-- Node2&#45;&gt;Node3 -->
<g id="edge4" class="edge"><title>Node2&#45;&gt;Node3</title>
<path fill="none" stroke="midnightblue" d="M126.458,-58.4966C104.946,-48.8991 73.0374,-34.6628 49.7648,-24.2797"/>
<polygon fill="midnightblue" stroke="midnightblue" points="50.9334,-20.9686 40.375,-20.0904 48.0813,-27.3612 50.9334,-20.9686"/>
</g>
<!-- Node4 -->
<g id="node7" class="node"><title>Node4</title>
<polygon fill="white" stroke="#bfbfbf" points="57.5,-0.5 57.5,-21.5 106.5,-21.5 106.5,-0.5 57.5,-0.5"/>
<text text-anchor="middle" x="82" y="-8.5" font-family="Helvetica,sans-Serif" font-size="10.00">string.h</text>
</g>
<!-- Node2&#45;&gt;Node4 -->
<g id="edge6" class="edge"><title>Node2&#45;&gt;Node4</title>
<path fill="none" stroke="midnightblue" d="M137.528,-58.3619C127.655,-49.9408 113.667,-38.0105 102.202,-28.2308"/>
<polygon fill="midnightblue" stroke="midnightblue" points="104.273,-25.3972 94.3932,-21.5707 99.7302,-30.7231 104.273,-25.3972"/>
</g>
<!-- Node5 -->
<g id="node9" class="node"><title>Node5</title>
<polygon fill="white" stroke="#bfbfbf" points="124,-0.5 124,-21.5 176,-21.5 176,-0.5 124,-0.5"/>
<text text-anchor="middle" x="150" y="-8.5" font-family="Helvetica,sans-Serif" font-size="10.00">assert.h</text>
</g>
<!-- Node2&#45;&gt;Node5 -->
<g id="edge8" class="edge"><title>Node2&#45;&gt;Node5</title>
<path fill="none" stroke="midnightblue" d="M150,-58.3619C150,-50.9219 150,-40.7427 150,-31.7276"/>
<polygon fill="midnightblue" stroke="midnightblue" points="153.5,-31.5706 150,-21.5707 146.5,-31.5707 153.5,-31.5706"/>
</g>
<!-- Node6 -->
<g id="node11" class="node"><title>Node6</title>
<polygon fill="white" stroke="#bfbfbf" points="194,-0.5 194,-21.5 294,-21.5 294,-0.5 194,-0.5"/>
<text text-anchor="middle" x="244" y="-8.5" font-family="Helvetica,sans-Serif" font-size="10.00">meschach/matrix.h</text>
</g>
<!-- Node2&#45;&gt;Node6 -->
<g id="edge10" class="edge"><title>Node2&#45;&gt;Node6</title>
<path fill="none" stroke="midnightblue" d="M167.241,-58.3619C181.552,-49.532 202.115,-36.844 218.357,-26.8224"/>
<polygon fill="midnightblue" stroke="midnightblue" points="220.196,-29.8004 226.868,-21.5707 216.52,-23.8431 220.196,-29.8004"/>
</g>
<!-- Node7 -->
<g id="node13" class="node"><title>Node7</title>
<polygon fill="white" stroke="#bfbfbf" points="312,-0.5 312,-21.5 414,-21.5 414,-0.5 312,-0.5"/>
<text text-anchor="middle" x="363" y="-8.5" font-family="Helvetica,sans-Serif" font-size="10.00">meschach/sparse.h</text>
</g>
<!-- Node2&#45;&gt;Node7 -->
<g id="edge12" class="edge"><title>Node2&#45;&gt;Node7</title>
<path fill="none" stroke="midnightblue" d="M185.173,-59.4225C220.466,-49.8122 275.1,-34.9353 314.498,-24.2072"/>
<polygon fill="midnightblue" stroke="midnightblue" points="315.436,-27.5793 324.165,-21.5749 313.596,-20.8252 315.436,-27.5793"/>
</g>
<!-- Node8&#45;&gt;Node2 -->
<g id="edge16" class="edge"><title>Node8&#45;&gt;Node2</title>
<path fill="none" stroke="midnightblue" d="M175.314,-116.362C171.163,-108.595 165.416,-97.8426 160.447,-88.5458"/>
<polygon fill="midnightblue" stroke="midnightblue" points="163.45,-86.7401 155.65,-79.5707 157.277,-90.0398 163.45,-86.7401"/>
</g>
</g>
</svg>
