<?xml version="1.0" encoding="UTF-8" standalone="no"?>
<!DOCTYPE svg PUBLIC "-//W3C//DTD SVG 1.1//EN"
 "http://www.w3.org/Graphics/SVG/1.1/DTD/svg11.dtd">
<!-- Generated by graphviz version 2.26.3 (20100126.1600)
 -->
<!-- Title: Omu_Program.h Pages: 1 -->
<svg width="337pt" height="146pt"
 viewBox="0.00 0.00 337.00 146.00" xmlns="http://www.w3.org/2000/svg" xmlns:xlink="http://www.w3.org/1999/xlink">
<g id="graph1" class="graph" transform="scale(1 1) rotate(0) translate(4 142)">
<title>Omu_Program.h</title>
<polygon fill="white" stroke="white" points="-4,5 -4,-142 334,-142 334,5 -4,5"/>
<!-- Node1 -->
<g id="node1" class="node"><title>Node1</title>
<polygon fill="#bfbfbf" stroke="black" points="57,-116.5 57,-137.5 145,-137.5 145,-116.5 57,-116.5"/>
<text text-anchor="middle" x="101" y="-124.5" font-family="Helvetica,sans-Serif" font-size="10.00">Omu_Program.h</text>
</g>
<!-- Node2 -->
<g id="node3" class="node"><title>Node2</title>
<a xlink:href="Omu__Integrator_8h.html" target="_top" xlink:title="interface for integrating continuous&#45;time system equations ">
<polygon fill="white" stroke="black" points="0,-58.5 0,-79.5 92,-79.5 92,-58.5 0,-58.5"/>
<text text-anchor="middle" x="46" y="-66.5" font-family="Helvetica,sans-Serif" font-size="10.00">Omu_Integrator.h</text>
</a>
</g>
<!-- Node1&#45;&gt;Node2 -->
<g id="edge2" class="edge"><title>Node1&#45;&gt;Node2</title>
<path fill="none" stroke="midnightblue" d="M83.7698,-108.83C74.6454,-99.2078 63.7595,-87.7282 56.0239,-79.5707"/>
<polygon fill="midnightblue" stroke="midnightblue" points="81.4915,-111.514 90.9122,-116.362 86.5709,-106.697 81.4915,-111.514"/>
</g>
<!-- Node4 -->
<g id="node7" class="node"><title>Node4</title>
<a xlink:href="Prg__SFunction_8h.html" target="_top" xlink:title="Basic functionality for formulating an optimization problem for a model given as MEX S&#45;function...">
<polygon fill="white" stroke="black" points="110.5,-58.5 110.5,-79.5 199.5,-79.5 199.5,-58.5 110.5,-58.5"/>
<text text-anchor="middle" x="155" y="-66.5" font-family="Helvetica,sans-Serif" font-size="10.00">Prg_SFunction.h</text>
</a>
</g>
<!-- Node1&#45;&gt;Node4 -->
<g id="edge6" class="edge"><title>Node1&#45;&gt;Node4</title>
<path fill="none" stroke="midnightblue" d="M117.917,-108.83C126.875,-99.2078 137.563,-87.7282 145.158,-79.5707"/>
<polygon fill="midnightblue" stroke="midnightblue" points="115.157,-106.658 110.904,-116.362 120.28,-111.428 115.157,-106.658"/>
</g>
<!-- Node3 -->
<g id="node5" class="node"><title>Node3</title>
<a xlink:href="Omu__IntIMP_8h.html" target="_top" xlink:title="integrate an ODE over a stage using the implicit midpoint rule ">
<polygon fill="white" stroke="black" points="5,-0.5 5,-21.5 85,-21.5 85,-0.5 5,-0.5"/>
<text text-anchor="middle" x="45" y="-8.5" font-family="Helvetica,sans-Serif" font-size="10.00">Omu_IntIMP.h</text>
</a>
</g>
<!-- Node2&#45;&gt;Node3 -->
<g id="edge4" class="edge"><title>Node2&#45;&gt;Node3</title>
<path fill="none" stroke="midnightblue" d="M45.6412,-48.1906C45.4857,-39.1684 45.3102,-28.9941 45.1823,-21.5707"/>
<polygon fill="midnightblue" stroke="midnightblue" points="42.1446,-48.4238 45.8166,-58.3619 49.1436,-48.303 42.1446,-48.4238"/>
</g>
<!-- Node5 -->
<g id="node9" class="node"><title>Node5</title>
<a xlink:href="Prg__SFunctionEst_8h.html" target="_top" xlink:title="Estimation of initial states and parameters for a model given as MEX S&#45;function. ">
<polygon fill="white" stroke="black" points="103,-0.5 103,-21.5 207,-21.5 207,-0.5 103,-0.5"/>
<text text-anchor="middle" x="155" y="-8.5" font-family="Helvetica,sans-Serif" font-size="10.00">Prg_SFunctionEst.h</text>
</a>
</g>
<!-- Node4&#45;&gt;Node5 -->
<g id="edge8" class="edge"><title>Node4&#45;&gt;Node5</title>
<path fill="none" stroke="midnightblue" d="M155,-48.1906C155,-39.1684 155,-28.9941 155,-21.5707"/>
<polygon fill="midnightblue" stroke="midnightblue" points="151.5,-48.3619 155,-58.3619 158.5,-48.3619 151.5,-48.3619"/>
</g>
<!-- Node6 -->
<g id="node11" class="node"><title>Node6</title>
<a xlink:href="Prg__SFunctionOpt_8h.html" target="_top" xlink:title="Optimal control problem for a model given as MEX S&#45;function. ">
<polygon fill="white" stroke="black" points="224.5,-0.5 224.5,-21.5 329.5,-21.5 329.5,-0.5 224.5,-0.5"/>
<text text-anchor="middle" x="277" y="-8.5" font-family="Helvetica,sans-Serif" font-size="10.00">Prg_SFunctionOpt.h</text>
</a>
</g>
<!-- Node4&#45;&gt;Node6 -->
<g id="edge10" class="edge"><title>Node4&#45;&gt;Node6</title>
<path fill="none" stroke="midnightblue" d="M186.406,-54.0693C207.771,-43.9121 235.529,-30.7157 254.659,-21.6212"/>
<polygon fill="midnightblue" stroke="midnightblue" points="184.622,-51.042 177.093,-58.4966 187.627,-57.364 184.622,-51.042"/>
</g>
</g>
</svg>
