<?xml version="1.0" encoding="UTF-8" standalone="no"?>
<!DOCTYPE svg PUBLIC "-//W3C//DTD SVG 1.1//EN"
 "http://www.w3.org/Graphics/SVG/1.1/DTD/svg11.dtd">
<!-- Generated by graphviz version 2.26.3 (20100126.1600)
 -->
<!-- Title: Prg_SFunctionEst.h Pages: 1 -->
<svg width="648pt" height="378pt"
 viewBox="0.00 0.00 648.00 378.00" xmlns="http://www.w3.org/2000/svg" xmlns:xlink="http://www.w3.org/1999/xlink">
<g id="graph1" class="graph" transform="scale(1 1) rotate(0) translate(4 374)">
<title>Prg_SFunctionEst.h</title>
<polygon fill="white" stroke="white" points="-4,5 -4,-374 645,-374 645,5 -4,5"/>
<!-- Node1 -->
<g id="node1" class="node"><title>Node1</title>
<polygon fill="#bfbfbf" stroke="black" points="63,-348.5 63,-369.5 167,-369.5 167,-348.5 63,-348.5"/>
<text text-anchor="middle" x="115" y="-356.5" font-family="Helvetica,sans-Serif" font-size="10.00">Prg_SFunctionEst.h</text>
</g>
<!-- Node2 -->
<g id="node3" class="node"><title>Node2</title>
<a xlink:href="Prg__SFunction_8h.html" target="_top" xlink:title="Basic functionality for formulating an optimization problem for a model given as MEX S&#45;function...">
<polygon fill="white" stroke="black" points="117.5,-290.5 117.5,-311.5 206.5,-311.5 206.5,-290.5 117.5,-290.5"/>
<text text-anchor="middle" x="162" y="-298.5" font-family="Helvetica,sans-Serif" font-size="10.00">Prg_SFunction.h</text>
</a>
</g>
<!-- Node1&#45;&gt;Node2 -->
<g id="edge2" class="edge"><title>Node1&#45;&gt;Node2</title>
<path fill="none" stroke="midnightblue" d="M123.621,-348.362C130.18,-340.268 139.366,-328.932 147.106,-319.38"/>
<polygon fill="midnightblue" stroke="midnightblue" points="149.858,-321.544 153.434,-311.571 144.419,-317.136 149.858,-321.544"/>
</g>
<!-- Node10 -->
<g id="node19" class="node"><title>Node10</title>
<a xlink:href="Omu__Variables_8h.html" target="_top" xlink:title="Independent variables for Omuses problem setup. ">
<polygon fill="white" stroke="black" points="0,-174.5 0,-195.5 92,-195.5 92,-174.5 0,-174.5"/>
<text text-anchor="middle" x="46" y="-182.5" font-family="Helvetica,sans-Serif" font-size="10.00">Omu_Variables.h</text>
</a>
</g>
<!-- Node1&#45;&gt;Node10 -->
<g id="edge42" class="edge"><title>Node1&#45;&gt;Node10</title>
<path fill="none" stroke="midnightblue" d="M110.788,-348.377C99.5547,-320.051 68.7418,-242.349 54.0271,-205.242"/>
<polygon fill="midnightblue" stroke="midnightblue" points="57.2733,-203.933 50.3334,-195.928 50.7662,-206.514 57.2733,-203.933"/>
</g>
<!-- Node3 -->
<g id="node5" class="node"><title>Node3</title>
<a xlink:href="Omu__Program_8h.html" target="_top" xlink:title="Interface for a multistage optimization problem described by algebraic and differential equations...">
<polygon fill="white" stroke="black" points="118,-232.5 118,-253.5 206,-253.5 206,-232.5 118,-232.5"/>
<text text-anchor="middle" x="162" y="-240.5" font-family="Helvetica,sans-Serif" font-size="10.00">Omu_Program.h</text>
</a>
</g>
<!-- Node2&#45;&gt;Node3 -->
<g id="edge4" class="edge"><title>Node2&#45;&gt;Node3</title>
<path fill="none" stroke="midnightblue" d="M162,-290.362C162,-282.922 162,-272.743 162,-263.728"/>
<polygon fill="midnightblue" stroke="midnightblue" points="165.5,-263.571 162,-253.571 158.5,-263.571 165.5,-263.571"/>
</g>
<!-- Node13 -->
<g id="node28" class="node"><title>Node13</title>
<a xlink:href="Hxi__SFunction_8h.html" target="_top" xlink:title="Interface to a Simulink(R) S&#45;function given as binary object. ">
<polygon fill="white" stroke="black" points="309.5,-232.5 309.5,-253.5 398.5,-253.5 398.5,-232.5 309.5,-232.5"/>
<text text-anchor="middle" x="354" y="-240.5" font-family="Helvetica,sans-Serif" font-size="10.00">Hxi_SFunction.h</text>
</a>
</g>
<!-- Node2&#45;&gt;Node13 -->
<g id="edge30" class="edge"><title>Node2&#45;&gt;Node13</title>
<path fill="none" stroke="midnightblue" d="M196.77,-290.497C228.342,-280.959 275.079,-266.841 309.393,-256.475"/>
<polygon fill="midnightblue" stroke="midnightblue" points="310.604,-259.765 319.165,-253.523 308.58,-253.064 310.604,-259.765"/>
</g>
<!-- Node4 -->
<g id="node7" class="node"><title>Node4</title>
<a xlink:href="Meschach_8h.html" target="_top" xlink:title="Meschach declarations and some extensions. ">
<polygon fill="white" stroke="black" points="148,-58.5 148,-79.5 218,-79.5 218,-58.5 148,-58.5"/>
<text text-anchor="middle" x="183" y="-66.5" font-family="Helvetica,sans-Serif" font-size="10.00">Meschach.h</text>
</a>
</g>
<!-- Node3&#45;&gt;Node4 -->
<g id="edge6" class="edge"><title>Node3&#45;&gt;Node4</title>
<path fill="none" stroke="midnightblue" d="M184.354,-232.455C198.26,-224.56 214.974,-212.315 223,-196 240.902,-159.606 215.477,-113.444 197.704,-87.9975"/>
<polygon fill="midnightblue" stroke="midnightblue" points="200.315,-85.6373 191.598,-79.6164 194.658,-89.7596 200.315,-85.6373"/>
</g>
<!-- Node3&#45;&gt;Node10 -->
<g id="edge18" class="edge"><title>Node3&#45;&gt;Node10</title>
<path fill="none" stroke="midnightblue" d="M140.993,-232.497C122.957,-223.479 96.7299,-210.365 76.4011,-200.201"/>
<polygon fill="midnightblue" stroke="midnightblue" points="77.752,-196.963 67.2424,-195.621 74.6215,-203.224 77.752,-196.963"/>
</g>
<!-- Node12 -->
<g id="node24" class="node"><title>Node12</title>
<a xlink:href="Omu__Dependents_8h.html" target="_top" xlink:title="Dependent variables (single and vector, including Jacobians). ">
<polygon fill="white" stroke="black" points="110,-174.5 110,-195.5 214,-195.5 214,-174.5 110,-174.5"/>
<text text-anchor="middle" x="162" y="-182.5" font-family="Helvetica,sans-Serif" font-size="10.00">Omu_Dependents.h</text>
</a>
</g>
<!-- Node3&#45;&gt;Node12 -->
<g id="edge24" class="edge"><title>Node3&#45;&gt;Node12</title>
<path fill="none" stroke="midnightblue" d="M162,-232.362C162,-224.922 162,-214.743 162,-205.728"/>
<polygon fill="midnightblue" stroke="midnightblue" points="165.5,-205.571 162,-195.571 158.5,-205.571 165.5,-205.571"/>
</g>
<!-- Node5 -->
<g id="node9" class="node"><title>Node5</title>
<polygon fill="white" stroke="#bfbfbf" points="33,-0.5 33,-21.5 73,-21.5 73,-0.5 33,-0.5"/>
<text text-anchor="middle" x="53" y="-8.5" font-family="Helvetica,sans-Serif" font-size="10.00">limits</text>
</g>
<!-- Node4&#45;&gt;Node5 -->
<g id="edge8" class="edge"><title>Node4&#45;&gt;Node5</title>
<path fill="none" stroke="midnightblue" d="M159.458,-58.4966C137.946,-48.8991 106.037,-34.6628 82.7648,-24.2797"/>
<polygon fill="midnightblue" stroke="midnightblue" points="83.9334,-20.9686 73.375,-20.0904 81.0813,-27.3612 83.9334,-20.9686"/>
</g>
<!-- Node6 -->
<g id="node11" class="node"><title>Node6</title>
<polygon fill="white" stroke="#bfbfbf" points="90.5,-0.5 90.5,-21.5 139.5,-21.5 139.5,-0.5 90.5,-0.5"/>
<text text-anchor="middle" x="115" y="-8.5" font-family="Helvetica,sans-Serif" font-size="10.00">string.h</text>
</g>
<!-- Node4&#45;&gt;Node6 -->
<g id="edge10" class="edge"><title>Node4&#45;&gt;Node6</title>
<path fill="none" stroke="midnightblue" d="M170.528,-58.3619C160.655,-49.9408 146.667,-38.0105 135.202,-28.2308"/>
<polygon fill="midnightblue" stroke="midnightblue" points="137.273,-25.3972 127.393,-21.5707 132.73,-30.7231 137.273,-25.3972"/>
</g>
<!-- Node7 -->
<g id="node13" class="node"><title>Node7</title>
<polygon fill="white" stroke="#bfbfbf" points="157,-0.5 157,-21.5 209,-21.5 209,-0.5 157,-0.5"/>
<text text-anchor="middle" x="183" y="-8.5" font-family="Helvetica,sans-Serif" font-size="10.00">assert.h</text>
</g>
<!-- Node4&#45;&gt;Node7 -->
<g id="edge12" class="edge"><title>Node4&#45;&gt;Node7</title>
<path fill="none" stroke="midnightblue" d="M183,-58.3619C183,-50.9219 183,-40.7427 183,-31.7276"/>
<polygon fill="midnightblue" stroke="midnightblue" points="186.5,-31.5706 183,-21.5707 179.5,-31.5707 186.5,-31.5706"/>
</g>
<!-- Node8 -->
<g id="node15" class="node"><title>Node8</title>
<polygon fill="white" stroke="#bfbfbf" points="227,-0.5 227,-21.5 327,-21.5 327,-0.5 227,-0.5"/>
<text text-anchor="middle" x="277" y="-8.5" font-family="Helvetica,sans-Serif" font-size="10.00">meschach/matrix.h</text>
</g>
<!-- Node4&#45;&gt;Node8 -->
<g id="edge14" class="edge"><title>Node4&#45;&gt;Node8</title>
<path fill="none" stroke="midnightblue" d="M200.241,-58.3619C214.552,-49.532 235.115,-36.844 251.357,-26.8224"/>
<polygon fill="midnightblue" stroke="midnightblue" points="253.196,-29.8004 259.868,-21.5707 249.52,-23.8431 253.196,-29.8004"/>
</g>
<!-- Node9 -->
<g id="node17" class="node"><title>Node9</title>
<polygon fill="white" stroke="#bfbfbf" points="345,-0.5 345,-21.5 447,-21.5 447,-0.5 345,-0.5"/>
<text text-anchor="middle" x="396" y="-8.5" font-family="Helvetica,sans-Serif" font-size="10.00">meschach/sparse.h</text>
</g>
<!-- Node4&#45;&gt;Node9 -->
<g id="edge16" class="edge"><title>Node4&#45;&gt;Node9</title>
<path fill="none" stroke="midnightblue" d="M218.173,-59.4225C253.466,-49.8122 308.1,-34.9353 347.498,-24.2072"/>
<polygon fill="midnightblue" stroke="midnightblue" points="348.436,-27.5793 357.165,-21.5749 346.596,-20.8252 348.436,-27.5793"/>
</g>
<!-- Node11 -->
<g id="node21" class="node"><title>Node11</title>
<a xlink:href="Omu__Vec_8h.html" target="_top" xlink:title="Vector with automatic construction and destruction. ">
<polygon fill="white" stroke="black" points="87,-116.5 87,-137.5 155,-137.5 155,-116.5 87,-116.5"/>
<text text-anchor="middle" x="121" y="-124.5" font-family="Helvetica,sans-Serif" font-size="10.00">Omu_Vec.h</text>
</a>
</g>
<!-- Node10&#45;&gt;Node11 -->
<g id="edge20" class="edge"><title>Node10&#45;&gt;Node11</title>
<path fill="none" stroke="midnightblue" d="M59.7562,-174.362C70.7512,-165.859 86.3726,-153.779 99.0864,-143.947"/>
<polygon fill="midnightblue" stroke="midnightblue" points="101.562,-146.457 107.331,-137.571 97.2794,-140.919 101.562,-146.457"/>
</g>
<!-- Node11&#45;&gt;Node4 -->
<g id="edge22" class="edge"><title>Node11&#45;&gt;Node4</title>
<path fill="none" stroke="midnightblue" d="M132.372,-116.362C141.286,-108.023 153.879,-96.2418 164.276,-86.5162"/>
<polygon fill="midnightblue" stroke="midnightblue" points="166.789,-88.9582 171.7,-79.5707 162.007,-83.8463 166.789,-88.9582"/>
</g>
<!-- Node12&#45;&gt;Node4 -->
<g id="edge26" class="edge"><title>Node12&#45;&gt;Node4</title>
<path fill="none" stroke="midnightblue" d="M163.938,-174.295C167.407,-155.131 174.735,-114.654 179.227,-89.8434"/>
<polygon fill="midnightblue" stroke="midnightblue" points="182.729,-90.1428 181.067,-79.6792 175.841,-88.8957 182.729,-90.1428"/>
</g>
<!-- Node12&#45;&gt;Node11 -->
<g id="edge28" class="edge"><title>Node12&#45;&gt;Node11</title>
<path fill="none" stroke="midnightblue" d="M154.48,-174.362C148.874,-166.431 141.068,-155.389 134.403,-145.961"/>
<polygon fill="midnightblue" stroke="midnightblue" points="137.103,-143.716 128.472,-137.571 131.387,-147.757 137.103,-143.716"/>
</g>
<!-- Node14 -->
<g id="node30" class="node"><title>Node14</title>
<a xlink:href="Hxi__SimStruct_8h.html" target="_top" xlink:title="Declaration of Simulink(R) S&#45;function methods supported by Hqp. ">
<polygon fill="white" stroke="black" points="396.5,-174.5 396.5,-195.5 485.5,-195.5 485.5,-174.5 396.5,-174.5"/>
<text text-anchor="middle" x="441" y="-182.5" font-family="Helvetica,sans-Serif" font-size="10.00">Hxi_SimStruct.h</text>
</a>
</g>
<!-- Node13&#45;&gt;Node14 -->
<g id="edge32" class="edge"><title>Node13&#45;&gt;Node14</title>
<path fill="none" stroke="midnightblue" d="M369.957,-232.362C382.957,-223.696 401.531,-211.313 416.427,-201.382"/>
<polygon fill="midnightblue" stroke="midnightblue" points="418.765,-204.03 425.144,-195.571 414.882,-198.206 418.765,-204.03"/>
</g>
<!-- Node15 -->
<g id="node32" class="node"><title>Node15</title>
<polygon fill="white" stroke="#bfbfbf" points="418,-116.5 418,-137.5 464,-137.5 464,-116.5 418,-116.5"/>
<text text-anchor="middle" x="441" y="-124.5" font-family="Helvetica,sans-Serif" font-size="10.00">stdio.h</text>
</g>
<!-- Node14&#45;&gt;Node15 -->
<g id="edge34" class="edge"><title>Node14&#45;&gt;Node15</title>
<path fill="none" stroke="midnightblue" d="M441,-174.362C441,-166.922 441,-156.743 441,-147.728"/>
<polygon fill="midnightblue" stroke="midnightblue" points="444.5,-147.571 441,-137.571 437.5,-147.571 444.5,-147.571"/>
</g>
<!-- Node16 -->
<g id="node34" class="node"><title>Node16</title>
<polygon fill="white" stroke="#bfbfbf" points="482,-116.5 482,-137.5 530,-137.5 530,-116.5 482,-116.5"/>
<text text-anchor="middle" x="506" y="-124.5" font-family="Helvetica,sans-Serif" font-size="10.00">stdlib.h</text>
</g>
<!-- Node14&#45;&gt;Node16 -->
<g id="edge36" class="edge"><title>Node14&#45;&gt;Node16</title>
<path fill="none" stroke="midnightblue" d="M452.922,-174.362C462.359,-165.941 475.73,-154.011 486.69,-144.231"/>
<polygon fill="midnightblue" stroke="midnightblue" points="489.022,-146.84 494.154,-137.571 484.362,-141.617 489.022,-146.84"/>
</g>
<!-- Node17 -->
<g id="node36" class="node"><title>Node17</title>
<a xlink:href="Hxi__sfun__types_8h.html" target="_top" xlink:title="Native type definitions required to compile a Simulink(R) S&#45;function with Hqp. ">
<polygon fill="white" stroke="black" points="547.5,-116.5 547.5,-137.5 640.5,-137.5 640.5,-116.5 547.5,-116.5"/>
<text text-anchor="middle" x="594" y="-124.5" font-family="Helvetica,sans-Serif" font-size="10.00">Hxi_sfun_types.h</text>
</a>
</g>
<!-- Node14&#45;&gt;Node17 -->
<g id="edge38" class="edge"><title>Node14&#45;&gt;Node17</title>
<path fill="none" stroke="midnightblue" d="M468.707,-174.497C493.326,-165.164 529.517,-151.445 556.68,-141.147"/>
<polygon fill="midnightblue" stroke="midnightblue" points="558.131,-144.341 566.241,-137.523 555.65,-137.795 558.131,-144.341"/>
</g>
<!-- Node18 -->
<g id="node38" class="node"><title>Node18</title>
<a xlink:href="Hxi__SimStruct__methods_8h.html" target="_top" xlink:title="Simulink(R) S&#45;function methods supported by Hqp. ">
<polygon fill="white" stroke="black" points="269.5,-116.5 269.5,-137.5 400.5,-137.5 400.5,-116.5 269.5,-116.5"/>
<text text-anchor="middle" x="335" y="-124.5" font-family="Helvetica,sans-Serif" font-size="10.00">Hxi_SimStruct_methods.h</text>
</a>
</g>
<!-- Node14&#45;&gt;Node18 -->
<g id="edge40" class="edge"><title>Node14&#45;&gt;Node18</title>
<path fill="none" stroke="midnightblue" d="M421.558,-174.362C405.196,-165.409 381.587,-152.491 363.157,-142.406"/>
<polygon fill="midnightblue" stroke="midnightblue" points="364.771,-139.3 354.319,-137.571 361.411,-145.441 364.771,-139.3"/>
</g>
</g>
</svg>
