<?xml version="1.0" encoding="UTF-8" standalone="no"?>
<!DOCTYPE svg PUBLIC "-//W3C//DTD SVG 1.1//EN"
 "http://www.w3.org/Graphics/SVG/1.1/DTD/svg11.dtd">
<!-- Generated by graphviz version 2.26.3 (20100126.1600)
 -->
<!-- Title: Prg_SFunction.h Pages: 1 -->
<svg width="657pt" height="320pt"
 viewBox="0.00 0.00 657.00 320.00" xmlns="http://www.w3.org/2000/svg" xmlns:xlink="http://www.w3.org/1999/xlink">
<g id="graph1" class="graph" transform="scale(1 1) rotate(0) translate(4 316)">
<title>Prg_SFunction.h</title>
<polygon fill="white" stroke="white" points="-4,5 -4,-316 654,-316 654,5 -4,5"/>
<!-- Node1 -->
<g id="node1" class="node"><title>Node1</title>
<polygon fill="#bfbfbf" stroke="black" points="214.5,-290.5 214.5,-311.5 303.5,-311.5 303.5,-290.5 214.5,-290.5"/>
<text text-anchor="middle" x="259" y="-298.5" font-family="Helvetica,sans-Serif" font-size="10.00">Prg_SFunction.h</text>
</g>
<!-- Node2 -->
<g id="node3" class="node"><title>Node2</title>
<a xlink:href="Omu__Program_8h.html" target="_top" xlink:title="Interface for a multistage optimization problem described by algebraic and differential equations...">
<polygon fill="white" stroke="black" points="131,-232.5 131,-253.5 219,-253.5 219,-232.5 131,-232.5"/>
<text text-anchor="middle" x="175" y="-240.5" font-family="Helvetica,sans-Serif" font-size="10.00">Omu_Program.h</text>
</a>
</g>
<!-- Node1&#45;&gt;Node2 -->
<g id="edge2" class="edge"><title>Node1&#45;&gt;Node2</title>
<path fill="none" stroke="midnightblue" d="M243.593,-290.362C231.042,-281.696 213.108,-269.313 198.725,-259.382"/>
<polygon fill="midnightblue" stroke="midnightblue" points="200.527,-256.372 190.309,-253.571 196.55,-262.133 200.527,-256.372"/>
</g>
<!-- Node12 -->
<g id="node26" class="node"><title>Node12</title>
<a xlink:href="Hxi__SFunction_8h.html" target="_top" xlink:title="Interface to a Simulink(R) S&#45;function given as binary object. ">
<polygon fill="white" stroke="black" points="298.5,-232.5 298.5,-253.5 387.5,-253.5 387.5,-232.5 298.5,-232.5"/>
<text text-anchor="middle" x="343" y="-240.5" font-family="Helvetica,sans-Serif" font-size="10.00">Hxi_SFunction.h</text>
</a>
</g>
<!-- Node1&#45;&gt;Node12 -->
<g id="edge28" class="edge"><title>Node1&#45;&gt;Node12</title>
<path fill="none" stroke="midnightblue" d="M274.407,-290.362C286.958,-281.696 304.892,-269.313 319.275,-259.382"/>
<polygon fill="midnightblue" stroke="midnightblue" points="321.45,-262.133 327.691,-253.571 317.473,-256.372 321.45,-262.133"/>
</g>
<!-- Node3 -->
<g id="node5" class="node"><title>Node3</title>
<a xlink:href="Meschach_8h.html" target="_top" xlink:title="Meschach declarations and some extensions. ">
<polygon fill="white" stroke="black" points="115,-58.5 115,-79.5 185,-79.5 185,-58.5 115,-58.5"/>
<text text-anchor="middle" x="150" y="-66.5" font-family="Helvetica,sans-Serif" font-size="10.00">Meschach.h</text>
</a>
</g>
<!-- Node2&#45;&gt;Node3 -->
<g id="edge4" class="edge"><title>Node2&#45;&gt;Node3</title>
<path fill="none" stroke="midnightblue" d="M137.238,-232.347C119.289,-225.176 99.5022,-213.708 89,-196 66.7239,-158.44 105.185,-111.501 130.503,-86.5325"/>
<polygon fill="midnightblue" stroke="midnightblue" points="133.033,-88.9566 137.856,-79.5236 128.203,-83.8895 133.033,-88.9566"/>
</g>
<!-- Node9 -->
<g id="node17" class="node"><title>Node9</title>
<a xlink:href="Omu__Variables_8h.html" target="_top" xlink:title="Independent variables for Omuses problem setup. ">
<polygon fill="white" stroke="black" points="98,-174.5 98,-195.5 190,-195.5 190,-174.5 98,-174.5"/>
<text text-anchor="middle" x="144" y="-182.5" font-family="Helvetica,sans-Serif" font-size="10.00">Omu_Variables.h</text>
</a>
</g>
<!-- Node2&#45;&gt;Node9 -->
<g id="edge16" class="edge"><title>Node2&#45;&gt;Node9</title>
<path fill="none" stroke="midnightblue" d="M169.314,-232.362C165.163,-224.595 159.416,-213.843 154.447,-204.546"/>
<polygon fill="midnightblue" stroke="midnightblue" points="157.45,-202.74 149.65,-195.571 151.277,-206.04 157.45,-202.74"/>
</g>
<!-- Node11 -->
<g id="node22" class="node"><title>Node11</title>
<a xlink:href="Omu__Dependents_8h.html" target="_top" xlink:title="Dependent variables (single and vector, including Jacobians). ">
<polygon fill="white" stroke="black" points="208,-174.5 208,-195.5 312,-195.5 312,-174.5 208,-174.5"/>
<text text-anchor="middle" x="260" y="-182.5" font-family="Helvetica,sans-Serif" font-size="10.00">Omu_Dependents.h</text>
</a>
</g>
<!-- Node2&#45;&gt;Node11 -->
<g id="edge22" class="edge"><title>Node2&#45;&gt;Node11</title>
<path fill="none" stroke="midnightblue" d="M190.59,-232.362C203.291,-223.696 221.438,-211.313 235.992,-201.382"/>
<polygon fill="midnightblue" stroke="midnightblue" points="238.221,-204.098 244.509,-195.571 234.276,-198.316 238.221,-204.098"/>
</g>
<!-- Node4 -->
<g id="node7" class="node"><title>Node4</title>
<polygon fill="white" stroke="#bfbfbf" points="0,-0.5 0,-21.5 40,-21.5 40,-0.5 0,-0.5"/>
<text text-anchor="middle" x="20" y="-8.5" font-family="Helvetica,sans-Serif" font-size="10.00">limits</text>
</g>
<!-- Node3&#45;&gt;Node4 -->
<g id="edge6" class="edge"><title>Node3&#45;&gt;Node4</title>
<path fill="none" stroke="midnightblue" d="M126.458,-58.4966C104.946,-48.8991 73.0374,-34.6628 49.7648,-24.2797"/>
<polygon fill="midnightblue" stroke="midnightblue" points="50.9334,-20.9686 40.375,-20.0904 48.0813,-27.3612 50.9334,-20.9686"/>
</g>
<!-- Node5 -->
<g id="node9" class="node"><title>Node5</title>
<polygon fill="white" stroke="#bfbfbf" points="57.5,-0.5 57.5,-21.5 106.5,-21.5 106.5,-0.5 57.5,-0.5"/>
<text text-anchor="middle" x="82" y="-8.5" font-family="Helvetica,sans-Serif" font-size="10.00">string.h</text>
</g>
<!-- Node3&#45;&gt;Node5 -->
<g id="edge8" class="edge"><title>Node3&#45;&gt;Node5</title>
<path fill="none" stroke="midnightblue" d="M137.528,-58.3619C127.655,-49.9408 113.667,-38.0105 102.202,-28.2308"/>
<polygon fill="midnightblue" stroke="midnightblue" points="104.273,-25.3972 94.3932,-21.5707 99.7302,-30.7231 104.273,-25.3972"/>
</g>
<!-- Node6 -->
<g id="node11" class="node"><title>Node6</title>
<polygon fill="white" stroke="#bfbfbf" points="124,-0.5 124,-21.5 176,-21.5 176,-0.5 124,-0.5"/>
<text text-anchor="middle" x="150" y="-8.5" font-family="Helvetica,sans-Serif" font-size="10.00">assert.h</text>
</g>
<!-- Node3&#45;&gt;Node6 -->
<g id="edge10" class="edge"><title>Node3&#45;&gt;Node6</title>
<path fill="none" stroke="midnightblue" d="M150,-58.3619C150,-50.9219 150,-40.7427 150,-31.7276"/>
<polygon fill="midnightblue" stroke="midnightblue" points="153.5,-31.5706 150,-21.5707 146.5,-31.5707 153.5,-31.5706"/>
</g>
<!-- Node7 -->
<g id="node13" class="node"><title>Node7</title>
<polygon fill="white" stroke="#bfbfbf" points="194,-0.5 194,-21.5 294,-21.5 294,-0.5 194,-0.5"/>
<text text-anchor="middle" x="244" y="-8.5" font-family="Helvetica,sans-Serif" font-size="10.00">meschach/matrix.h</text>
</g>
<!-- Node3&#45;&gt;Node7 -->
<g id="edge12" class="edge"><title>Node3&#45;&gt;Node7</title>
<path fill="none" stroke="midnightblue" d="M167.241,-58.3619C181.552,-49.532 202.115,-36.844 218.357,-26.8224"/>
<polygon fill="midnightblue" stroke="midnightblue" points="220.196,-29.8004 226.868,-21.5707 216.52,-23.8431 220.196,-29.8004"/>
</g>
<!-- Node8 -->
<g id="node15" class="node"><title>Node8</title>
<polygon fill="white" stroke="#bfbfbf" points="312,-0.5 312,-21.5 414,-21.5 414,-0.5 312,-0.5"/>
<text text-anchor="middle" x="363" y="-8.5" font-family="Helvetica,sans-Serif" font-size="10.00">meschach/sparse.h</text>
</g>
<!-- Node3&#45;&gt;Node8 -->
<g id="edge14" class="edge"><title>Node3&#45;&gt;Node8</title>
<path fill="none" stroke="midnightblue" d="M185.173,-59.4225C220.466,-49.8122 275.1,-34.9353 314.498,-24.2072"/>
<polygon fill="midnightblue" stroke="midnightblue" points="315.436,-27.5793 324.165,-21.5749 313.596,-20.8252 315.436,-27.5793"/>
</g>
<!-- Node10 -->
<g id="node19" class="node"><title>Node10</title>
<a xlink:href="Omu__Vec_8h.html" target="_top" xlink:title="Vector with automatic construction and destruction. ">
<polygon fill="white" stroke="black" points="116,-116.5 116,-137.5 184,-137.5 184,-116.5 116,-116.5"/>
<text text-anchor="middle" x="150" y="-124.5" font-family="Helvetica,sans-Serif" font-size="10.00">Omu_Vec.h</text>
</a>
</g>
<!-- Node9&#45;&gt;Node10 -->
<g id="edge18" class="edge"><title>Node9&#45;&gt;Node10</title>
<path fill="none" stroke="midnightblue" d="M145.1,-174.362C145.87,-166.922 146.923,-156.743 147.856,-147.728"/>
<polygon fill="midnightblue" stroke="midnightblue" points="151.359,-147.878 148.906,-137.571 144.396,-147.157 151.359,-147.878"/>
</g>
<!-- Node10&#45;&gt;Node3 -->
<g id="edge20" class="edge"><title>Node10&#45;&gt;Node3</title>
<path fill="none" stroke="midnightblue" d="M150,-116.362C150,-108.922 150,-98.7427 150,-89.7276"/>
<polygon fill="midnightblue" stroke="midnightblue" points="153.5,-89.5706 150,-79.5707 146.5,-89.5707 153.5,-89.5706"/>
</g>
<!-- Node11&#45;&gt;Node3 -->
<g id="edge24" class="edge"><title>Node11&#45;&gt;Node3</title>
<path fill="none" stroke="midnightblue" d="M249.849,-174.295C231.021,-154.441 190.5,-111.709 167.281,-87.2239"/>
<polygon fill="midnightblue" stroke="midnightblue" points="169.547,-84.5271 160.127,-79.6792 164.468,-89.3438 169.547,-84.5271"/>
</g>
<!-- Node11&#45;&gt;Node10 -->
<g id="edge26" class="edge"><title>Node11&#45;&gt;Node10</title>
<path fill="none" stroke="midnightblue" d="M240.08,-174.497C223.054,-165.519 198.331,-152.484 179.091,-142.339"/>
<polygon fill="midnightblue" stroke="midnightblue" points="180.622,-139.189 170.144,-137.621 177.357,-145.381 180.622,-139.189"/>
</g>
<!-- Node13 -->
<g id="node28" class="node"><title>Node13</title>
<a xlink:href="Hxi__SimStruct_8h.html" target="_top" xlink:title="Declaration of Simulink(R) S&#45;function methods supported by Hqp. ">
<polygon fill="white" stroke="black" points="329.5,-174.5 329.5,-195.5 418.5,-195.5 418.5,-174.5 329.5,-174.5"/>
<text text-anchor="middle" x="374" y="-182.5" font-family="Helvetica,sans-Serif" font-size="10.00">Hxi_SimStruct.h</text>
</a>
</g>
<!-- Node12&#45;&gt;Node13 -->
<g id="edge30" class="edge"><title>Node12&#45;&gt;Node13</title>
<path fill="none" stroke="midnightblue" d="M348.686,-232.362C352.837,-224.595 358.584,-213.843 363.553,-204.546"/>
<polygon fill="midnightblue" stroke="midnightblue" points="366.723,-206.04 368.35,-195.571 360.55,-202.74 366.723,-206.04"/>
</g>
<!-- Node14 -->
<g id="node30" class="node"><title>Node14</title>
<polygon fill="white" stroke="#bfbfbf" points="279,-116.5 279,-137.5 325,-137.5 325,-116.5 279,-116.5"/>
<text text-anchor="middle" x="302" y="-124.5" font-family="Helvetica,sans-Serif" font-size="10.00">stdio.h</text>
</g>
<!-- Node13&#45;&gt;Node14 -->
<g id="edge32" class="edge"><title>Node13&#45;&gt;Node14</title>
<path fill="none" stroke="midnightblue" d="M360.794,-174.362C350.239,-165.859 335.242,-153.779 323.037,-143.947"/>
<polygon fill="midnightblue" stroke="midnightblue" points="325.105,-141.118 315.122,-137.571 320.714,-146.57 325.105,-141.118"/>
</g>
<!-- Node15 -->
<g id="node32" class="node"><title>Node15</title>
<polygon fill="white" stroke="#bfbfbf" points="343,-116.5 343,-137.5 391,-137.5 391,-116.5 343,-116.5"/>
<text text-anchor="middle" x="367" y="-124.5" font-family="Helvetica,sans-Serif" font-size="10.00">stdlib.h</text>
</g>
<!-- Node13&#45;&gt;Node15 -->
<g id="edge34" class="edge"><title>Node13&#45;&gt;Node15</title>
<path fill="none" stroke="midnightblue" d="M372.716,-174.362C371.818,-166.922 370.59,-156.743 369.502,-147.728"/>
<polygon fill="midnightblue" stroke="midnightblue" points="372.949,-147.079 368.276,-137.571 365.999,-147.918 372.949,-147.079"/>
</g>
<!-- Node16 -->
<g id="node34" class="node"><title>Node16</title>
<a xlink:href="Hxi__sfun__types_8h.html" target="_top" xlink:title="Native type definitions required to compile a Simulink(R) S&#45;function with Hqp. ">
<polygon fill="white" stroke="black" points="408.5,-116.5 408.5,-137.5 501.5,-137.5 501.5,-116.5 408.5,-116.5"/>
<text text-anchor="middle" x="455" y="-124.5" font-family="Helvetica,sans-Serif" font-size="10.00">Hxi_sfun_types.h</text>
</a>
</g>
<!-- Node13&#45;&gt;Node16 -->
<g id="edge36" class="edge"><title>Node13&#45;&gt;Node16</title>
<path fill="none" stroke="midnightblue" d="M388.857,-174.362C400.846,-165.777 417.927,-153.546 431.728,-143.664"/>
<polygon fill="midnightblue" stroke="midnightblue" points="434.145,-146.238 440.238,-137.571 430.069,-140.547 434.145,-146.238"/>
</g>
<!-- Node17 -->
<g id="node36" class="node"><title>Node17</title>
<a xlink:href="Hxi__SimStruct__methods_8h.html" target="_top" xlink:title="Simulink(R) S&#45;function methods supported by Hqp. ">
<polygon fill="white" stroke="black" points="518.5,-116.5 518.5,-137.5 649.5,-137.5 649.5,-116.5 518.5,-116.5"/>
<text text-anchor="middle" x="584" y="-124.5" font-family="Helvetica,sans-Serif" font-size="10.00">Hxi_SimStruct_methods.h</text>
</a>
</g>
<!-- Node13&#45;&gt;Node17 -->
<g id="edge38" class="edge"><title>Node13&#45;&gt;Node17</title>
<path fill="none" stroke="midnightblue" d="M412.029,-174.497C446.858,-164.877 498.559,-150.598 536.174,-140.209"/>
<polygon fill="midnightblue" stroke="midnightblue" points="537.192,-143.559 545.899,-137.523 535.328,-136.812 537.192,-143.559"/>
</g>
</g>
</svg>
