<?xml version="1.0" encoding="UTF-8" standalone="no"?>
<!DOCTYPE svg PUBLIC "-//W3C//DTD SVG 1.1//EN"
 "http://www.w3.org/Graphics/SVG/1.1/DTD/svg11.dtd">
<!-- Generated by graphviz version 2.26.3 (20100126.1600)
 -->
<!-- Title: simstruc.h Pages: 1 -->
<svg width="230pt" height="88pt"
 viewBox="0.00 0.00 230.00 88.00" xmlns="http://www.w3.org/2000/svg" xmlns:xlink="http://www.w3.org/1999/xlink">
<g id="graph1" class="graph" transform="scale(1 1) rotate(0) translate(4 84)">
<title>simstruc.h</title>
<polygon fill="white" stroke="white" points="-4,5 -4,-84 227,-84 227,5 -4,5"/>
<!-- Node1 -->
<g id="node1" class="node"><title>Node1</title>
<polygon fill="#bfbfbf" stroke="black" points="87,-58.5 87,-79.5 149,-79.5 149,-58.5 87,-58.5"/>
<text text-anchor="middle" x="118" y="-66.5" font-family="Helvetica,sans-Serif" font-size="10.00">simstruc.h</text>
</g>
<!-- Node2 -->
<g id="node3" class="node"><title>Node2</title>
<a xlink:href="Hxi__MEX__SFunction_8h.html" target="_top" xlink:title="Interface to a Simulink(R) S&#45;function given as binary MEX object. ">
<polygon fill="white" stroke="black" points="0,-0.5 0,-21.5 116,-21.5 116,-0.5 0,-0.5"/>
<text text-anchor="middle" x="58" y="-8.5" font-family="Helvetica,sans-Serif" font-size="10.00">Hxi_MEX_SFunction.h</text>
</a>
</g>
<!-- Node1&#45;&gt;Node2 -->
<g id="edge2" class="edge"><title>Node1&#45;&gt;Node2</title>
<path fill="none" stroke="midnightblue" d="M99.7983,-51.405C89.7259,-41.6683 77.5428,-29.8914 68.9352,-21.5707"/>
<polygon fill="midnightblue" stroke="midnightblue" points="97.3726,-53.9281 106.995,-58.3619 102.238,-48.8952 97.3726,-53.9281"/>
</g>
<!-- Node3 -->
<g id="node5" class="node"><title>Node3</title>
<a xlink:href="Hxi__mx__parse_8h.html" target="_top" xlink:title="Parse an argument string passed to a Simulink S&#45;function and create according mxArrays. ">
<polygon fill="white" stroke="black" points="134,-0.5 134,-21.5 222,-21.5 222,-0.5 134,-0.5"/>
<text text-anchor="middle" x="178" y="-8.5" font-family="Helvetica,sans-Serif" font-size="10.00">Hxi_mx_parse.h</text>
</a>
</g>
<!-- Node1&#45;&gt;Node3 -->
<g id="edge4" class="edge"><title>Node1&#45;&gt;Node3</title>
<path fill="none" stroke="midnightblue" d="M136.202,-51.405C146.274,-41.6683 158.457,-29.8914 167.065,-21.5707"/>
<polygon fill="midnightblue" stroke="midnightblue" points="133.762,-48.8952 129.005,-58.3619 138.627,-53.9281 133.762,-48.8952"/>
</g>
</g>
</svg>
